<svg width="274" height="196" viewBox="0 0 274 196" fill="none" xmlns="http://www.w3.org/2000/svg">
    <path fill-rule="evenodd" clip-rule="evenodd" d="M226.956 38.4178C232.572 39.8307 238.45 40.0016 244.143 41.0267C245.568 41.2833 249.722 41.3507 250.196 42.6709C250.473 43.4428 249.769 44.8202 249.503 45.5333C249.048 46.7549 248.644 47.9674 248.272 49.2173C246.568 54.9401 245.079 60.627 243.003 66.2405C242.69 67.0851 242.179 70.7357 241.058 69.4578C240.549 68.8784 240.456 68.0411 239.571 67.661C239.116 67.465 237.773 67.7818 237.874 66.9422C238.164 66.9571 238.455 66.9723 238.745 66.9868C238.337 66.506 238.114 65.8918 237.622 65.4786C237.316 65.222 236.906 65.2036 236.642 64.8834C236.277 64.4409 236.331 63.7403 236.08 63.2354C235.83 62.7319 235.368 62.3439 235.014 61.9143C232.921 59.3684 231.433 56.5598 229.77 53.7393C228.126 50.9484 226.247 48.356 224.778 45.4586C223.226 42.3983 221.606 39.3719 219.865 36.4145C220.829 36.1869 221.919 36.907 222.785 37.217C224.145 37.7042 225.556 38.0656 226.956 38.4178ZM235.498 70.569C235.224 70.4859 234.981 70.3472 234.769 70.1532C236.509 68.2458 235.917 70.5746 235.498 70.569ZM233.3 68.8011C232.461 69.426 231.806 69.7413 230.931 69.6365C230.848 69.6268 230.817 69.3133 230.67 69.3035C230.542 69.2953 230.401 69.422 230.29 69.4108C229.912 69.3731 229.496 69.9399 229.203 69.3463C230.26 68.5123 231.176 67.3757 232.398 66.7686C234.097 65.9252 234.713 67.7486 233.3 68.8011ZM227.803 66.8615C226.637 67.6605 225.853 68.7722 224.419 69.1196C223.074 69.4461 221.704 69.2154 220.398 68.8437C222.644 67.1467 225.24 65.9876 227.493 64.3148C228.227 63.7703 229.075 62.757 230.053 62.6517C231.14 62.5348 231.56 63.4316 232.181 64.1549C230.718 65.0503 229.219 65.8911 227.803 66.8615ZM218.398 66.4274C217.28 67.2013 216.271 68.3352 214.809 67.6252C214.573 67.5107 214.497 67.7463 214.302 67.1864C214.096 66.5961 214.478 66.0153 214.853 65.6333C215.734 64.7354 217.354 64.4638 218.461 63.9512C220.228 63.1338 221.925 62.0402 223.603 61.0533C224.765 60.3702 225.873 59.4266 227.175 59.0211C228.18 58.7081 229.685 59.0826 228.495 60.2461C227.412 61.3059 225.432 61.9788 224.118 62.7665C222.176 63.9308 220.26 65.138 218.398 66.4274ZM214.938 61.0992C215.05 61.1495 215.161 61.1997 215.273 61.25C215.258 61.2521 215.591 60.6699 215.715 60.6085C216.319 60.311 216.964 60.1094 217.576 59.8307C218.985 59.1883 220.34 58.3718 221.649 57.5442C222.714 56.8701 223.738 56.0246 224.963 55.6599C226.023 55.3441 226.213 55.5126 226.666 56.4782C224.043 57.4992 221.319 58.4956 218.957 60.0543C217.419 61.0688 215.989 62.8649 214.393 61.2521C214.575 61.2011 214.756 61.1502 214.938 61.0992ZM214.944 56.2619C215.787 56.5042 217.24 54.9902 217.988 54.6045C218.8 54.1853 219.56 53.7823 220.298 53.2521C220.953 52.7817 222.996 50.91 223.902 51.587C225.291 52.624 221.924 54.2236 221.402 54.5051C219.209 55.686 216.918 56.8684 214.912 58.3447C214.923 57.6506 214.934 56.9564 214.944 56.2619ZM216.292 50.3792C216.707 50.947 221.008 46.5863 221.762 48.2454C222.342 49.5181 217.368 52.2005 216.384 52.452C216.371 51.7671 216.747 51.0027 216.292 50.3792ZM216.492 45.7182C216.106 44.3978 216.28 44.3385 217.257 43.8195C218.003 43.4237 218.898 42.5478 219.237 44.0193C219.527 45.2792 216.882 47.0505 216.492 45.7182ZM216.643 40.5988C216.623 39.8172 217.537 40.5243 217.684 40.8685C218.076 41.7844 217.295 41.8574 216.618 42.121C216.637 41.6142 216.646 41.1061 216.643 40.5988ZM223.213 32.1151C223.01 32.0024 222.21 32.2407 221.958 32.2458C221.337 32.2582 221.249 31.8043 220.718 32.4926C220.67 32.4711 220.613 32.1311 220.57 32.1313C220.548 32.1314 219.99 32.1372 219.792 32.0974C219.316 32.0015 218.879 31.8962 218.409 31.726C217.91 31.5453 217.352 31.2179 216.826 31.1242C216.604 31.0848 216.397 30.9869 216.167 31.0377C215.572 31.1696 215.885 31.4981 215.424 31.7668C215.141 31.9323 214.783 31.665 214.447 31.9711C214.157 32.2355 214.145 32.7918 214.103 33.1362C213.954 34.3895 213.962 35.6727 213.828 36.9324C213.145 43.3743 212.004 49.7599 211.427 56.218C211.15 59.329 210.823 62.48 210.992 65.6056C211.114 67.8599 210.769 71.3565 212.821 72.8579C214.312 73.9495 216.412 73.8544 218.166 73.98C220.804 74.1689 223.395 74.7498 226.046 74.897C229.206 75.0726 232.311 75.3346 235.46 75.679C236.802 75.8259 238.136 76.2712 239.463 76.3888C240.274 76.4607 241.102 75.477 241.624 76.1627C242.075 74.7975 243.723 74.949 244.427 73.8374C244.841 73.1836 244.937 72.1755 245.216 71.4601C245.635 70.3873 246.138 69.3475 246.577 68.2828C248.318 64.0548 249.784 59.7864 251.171 55.4332C252.495 51.2759 254.318 47.1259 255.13 42.8238C255.452 41.1158 255.047 39.6142 253.89 38.3161C253.046 37.3694 251.4 36.0844 250.264 37.371C250.455 36.2661 248.003 36.1195 247.304 36.19C247.294 36.1913 247.437 36.9273 247.254 36.9785C247.319 36.9603 246.133 35.6608 245.797 35.5657C244.799 35.2823 243.596 34.9665 242.567 34.8136C241.624 34.6734 240.725 34.7721 239.786 34.57C238.647 34.3254 237.539 33.9407 236.399 33.7013C235.298 33.4703 234.055 33.1741 232.931 33.158C231.957 33.1439 231.175 33.3711 230.2 33.106C228.993 32.7778 227.993 32.6258 226.727 32.569C225.632 32.5199 224.196 32.6634 223.213 32.1151Z" fill="#F7BA9D"/>
    <path fill-rule="evenodd" clip-rule="evenodd" d="M197.189 85.1178C197.175 85.6723 195.246 86.238 194.987 85.6918C194.599 84.8756 197.214 84.1542 197.189 85.1178ZM199.05 84.0345C200.141 83.7089 202.158 83.751 203.008 82.9204C204.305 81.6526 202.276 81.2716 201.324 81.2924C200.355 81.3138 199.154 81.9702 198.372 81.2523C197.783 80.7125 197.87 78.5328 196.979 79.2242C196.045 79.9498 197.392 82.5001 195.383 82.2454C194.426 82.1237 193.73 79.3822 192.926 81.2342C192.705 81.7409 192.935 82.4245 192.561 82.8839C192.18 83.353 191.452 83.3021 190.944 83.5277C189.6 84.1247 189.662 85.5755 191.247 85.5435C191.834 85.5318 193.859 85.0081 193.013 86.3036C192.48 87.1198 190.407 86.6492 190.131 87.8164C189.751 89.4199 192.098 88.5393 192.872 88.6733C194.185 88.8998 193.889 90.7374 194.388 91.7696C195.151 93.3466 195.964 92.6385 195.772 91.1275C195.608 89.8455 194.593 88.3038 196.535 88.0827C199.698 87.7225 196.652 93.102 199.116 93.216C200.687 93.2889 199.626 90.0027 199.515 89.409C199.106 87.2175 200.438 87.2476 202.2 86.634C204.258 85.9172 204.164 84.2251 201.847 84.6316C201.108 84.7613 200.232 85.3018 199.466 85.0968C199.014 84.9758 198.19 84.2916 199.05 84.0345Z" fill="#F7BA9D"/>
    <path fill-rule="evenodd" clip-rule="evenodd" d="M249.235 2.45667C248.28 2.47624 247.013 2.28167 246.163 2.84681C245.26 3.44724 245.247 4.59098 244.761 5.46499C243.438 7.84145 241.363 5.8743 239.777 4.97117C238.279 4.11853 236.925 4.29683 235.794 5.61925C235.343 6.14628 233.489 8.47935 234.257 9.21315C234.808 9.74131 235.768 8.70081 236.118 8.40258C236.876 7.7556 237.587 7.17105 238.658 7.26713C240.667 7.4468 241.995 9.56643 244.171 9.13065C246.421 8.68014 245.71 6.6488 246.919 5.30926C247.73 4.41149 248.781 5.03337 249.683 4.47668C250.544 3.94638 250.448 2.43143 249.235 2.45667Z" fill="#FAD8C8"/>
    <path fill-rule="evenodd" clip-rule="evenodd" d="M235.373 17.1535C236.181 17.0253 236.105 15.3912 236.428 14.8432C236.966 13.9347 238.259 13.2903 239.285 13.5952C241.287 14.19 241.76 16.973 244.212 16.7922C246.403 16.6308 246.321 13.6937 247.719 12.4106C248.532 11.6645 249.489 11.0108 248.594 9.81707C247.975 8.99143 247.122 9.04957 246.433 9.72718C245.25 10.8912 245.736 13.5675 244.068 14.2678C242.343 14.9923 241.176 12.5528 240.001 11.7494C238.211 10.5251 235.709 11.0349 234.997 13.1489C234.782 13.7869 233.835 17.3984 235.373 17.1535Z" fill="#FAD8C8"/>
    <path fill-rule="evenodd" clip-rule="evenodd" d="M96.8334 124.926C96.8544 124.26 96.8745 123.593 96.8956 122.927C97.5847 123.806 97.8621 124.27 96.8334 124.926ZM98.1858 127.442C97.6949 127.742 97.2587 126.006 97.1464 125.718C98.2586 125.879 97.7446 126.791 98.1858 127.442ZM95.5048 122.988C95.8512 122.547 96.1977 122.106 96.5441 121.665C96.3693 123.07 96.3329 122.249 96.893 122.924C96.4734 123.243 95.9524 123.264 95.5048 122.988ZM96.3693 133.096C97.0641 139.87 93.5864 146.779 88.9026 151.479C86.2109 154.18 83.1552 155.783 79.5827 156.989C78.2049 157.454 76.4408 157.634 75.1697 158.223C74.1911 158.676 74.2533 158.702 73.7529 159.875C73.1219 159.341 73.2033 158.762 72.3125 158.655C71.2012 158.522 71.042 159.243 70.8506 160.101C70.0124 159.715 69.6422 159.487 68.7252 159.42C68.7542 159.422 67.9776 159.691 68.0127 159.688C67.8578 159.7 66.8173 159.489 66.5189 159.492C65.2935 159.508 63.993 159.824 62.7824 159.632C61.7238 159.466 60.464 158.332 59.8984 159.8C59.1926 157.989 56.4602 158.187 54.9473 157.684C52.5833 156.897 50.3082 155.254 48.591 153.478C46.7597 151.583 45.5978 149.536 44.245 147.376C43.2999 145.866 40.3485 144.301 40.9297 142.18C41.4892 142.757 41.6276 143.517 42.3543 143.954C42.4631 142.947 42.3374 141.916 42.1769 140.922C42.0986 140.435 42.1447 138.898 41.9288 138.531C41.4878 137.78 40.479 138.123 40.6466 136.926C42.2702 137.724 42.3425 135.186 41.1426 134.653C40.9039 135.298 40.9599 135.904 40.995 136.574C38.9925 134.747 42.38 134.268 40.9056 132.489C41.9535 131.83 42.4937 131.291 42.4887 130.004C42.483 128.572 42.025 128.438 42.7922 127.192C43.0563 126.763 43.9559 125.945 43.9683 125.404C43.9929 124.359 42.936 124.464 43.4429 123.296C43.9173 123.681 45.3972 124.232 45.6362 123.067C45.6844 122.834 45.1272 122.899 45.3286 122.328C45.6272 121.482 45.9953 120.624 46.9689 120.398C45.5287 118.857 50.1367 116.898 51.1636 116.002C52.193 115.105 53.0985 114.426 54.329 113.832C55.5581 113.239 55.4766 112.843 56.2531 111.661C56.7691 112.718 56.9384 112.376 57.7899 112.267C57.8519 111.874 58.0293 111.763 58.3217 111.935C58.5887 112.045 58.8609 112.039 59.1379 111.919C59.5728 111.775 60.0349 111.532 60.4852 111.367C61.542 110.979 62.5898 110.471 63.6273 110.092C63.8753 109.945 64.0874 109.756 64.265 109.525C64.4331 109.67 64.6019 109.815 64.7697 109.961C65.3414 109.817 65.6494 110.483 66.029 109.476C66.597 110.348 66.9745 109.632 67.6768 109.655C68.3174 109.677 68.5511 110.019 69.16 110.084C69.5983 110.224 69.9694 110.121 70.2743 109.774C70.7423 109.902 71.2129 110.02 71.6858 110.128C72.5268 110.249 73.4321 110.171 74.2783 110.196C74.8391 110.207 75.4002 110.228 75.9601 110.257C76.1983 110.827 76.5353 110.93 76.9706 110.565C77.5709 110.768 77.6926 110.704 78.3831 111.178C79.9474 112.253 81.2725 113.045 83.0383 113.862C90.7135 117.417 95.5182 124.796 96.3693 133.096ZM88.6443 108.285C84.8917 105.942 79.9276 103.518 75.9779 102.653C73.9757 102.214 71.0042 101.184 68.8416 101.381C68.3288 101.428 67.8482 101.605 67.3408 101.642C66.9488 101.671 66.6184 101.386 66.1938 101.477C65.8969 101.54 66.1093 102.177 65.7903 102.235C65.1229 102.356 64.4901 101.893 63.9022 101.679C63.5923 103.666 62.0204 101.138 61.3522 103.509C58.7044 101.571 55.0609 103.638 52.4858 104.79C51.7221 105.131 51.4641 105.551 50.8536 106.025C50.2854 106.466 50.2028 106.442 49.4991 106.709C47.7464 107.376 46.2806 108.199 44.9641 109.595C42.7521 111.94 41.0429 114.918 39.07 117.475C36.8651 120.332 35.1285 123.553 33.913 126.949C29.5195 139.231 32.6049 153.462 43.0999 161.633C59.7692 174.611 86.4995 166.288 96.7836 149.078C104.729 135.781 102.351 116.843 88.6443 108.285Z" fill="#FAD8C8"/>
    <path fill-rule="evenodd" clip-rule="evenodd" d="M128.245 146.43C125.593 146.502 121.769 148.198 122.363 151.429C122.612 152.781 123.599 153.929 124.824 154.505C126.245 155.173 127.888 154.647 127.084 152.834C126.527 151.58 124.88 150.943 126.917 149.854C128.185 149.176 130.54 149.405 131.178 150.849C132.617 154.103 126.984 156.594 124.648 156.843C120.013 157.339 119.442 152.503 121.542 149.378C122.084 148.57 123.908 146.942 123.587 145.828C123.162 144.351 121.511 145.329 120.719 145.853C114.901 149.711 117.66 160.899 125.083 160.322C128.454 160.059 132.336 157.465 133.091 154.026C133.798 150.801 132.083 146.325 128.245 146.43Z" fill="#FAD8C8"/>
    <path fill-rule="evenodd" clip-rule="evenodd" d="M14.6208 103.847C13.006 105.577 11.3911 107.307 9.77673 109.037C8.57285 107.887 5.96871 104.479 4.11181 104.637C1.10576 104.893 4.45221 108.41 5.29014 109.186C5.97844 109.823 7.33948 110.696 7.48882 111.717C7.69129 113.092 6.08439 114.232 5.40561 115.246C3.72617 117.756 5.06212 121.135 7.84465 118.4C9.41913 116.852 10.8834 113.689 13.3276 115.682C14.4558 116.601 18.6063 122.575 18.5843 117.621C18.5701 114.553 12.5601 113.699 14.1123 110.496C14.6121 109.464 15.5044 109.047 16.1236 108.325C17.6189 106.581 15.829 105.131 14.6208 103.847Z" fill="#FAD8C8"/>
</svg>