<svg width="360" height="374" viewBox="0 0 360 374" fill="none" xmlns="http://www.w3.org/2000/svg">
    <path fill-rule="evenodd" clip-rule="evenodd" d="M5.12507 319.663C14.136 273.259 105.315 299.694 165.091 285.348C224.868 271.003 295.588 204.191 342.392 236.919C389.196 269.646 339.397 348.758 232.049 366.611C124.701 384.464 -3.88582 366.066 5.12507 319.663Z" fill="#F0F1F2"/>
    <g opacity="0.5">
        <path fill-rule="evenodd" clip-rule="evenodd" d="M28.9405 35.0188C28.0713 35.8869 28.4089 38.971 28.3907 40.1127C28.3627 41.8893 28.4733 43.6504 28.6218 45.4209C28.7214 46.6068 29.2825 57.9197 30.8442 57.051C31.7245 56.5614 31.1724 53.2883 31.1708 52.2533C31.1675 49.9523 31.0713 47.6568 30.9182 45.3602C30.7757 43.2288 30.6861 41.1217 30.7679 38.9859C30.7878 38.4648 31.2758 32.6796 28.9405 35.0188Z" fill="#F7BA9D"/>
        <path fill-rule="evenodd" clip-rule="evenodd" d="M66.7944 33.6245C59.3271 33.6836 51.8626 34.0522 44.3986 34.2777C40.8067 34.3866 37.2175 34.5247 33.63 34.7236C32.4071 34.7916 29.7851 34.3998 28.7666 35.0513C26.5055 36.4975 30.152 36.8357 31.124 36.8003C45.8956 36.2648 60.6716 35.5592 75.4553 35.526C82.7077 35.51 89.9562 35.7161 97.2091 35.6702C99.9815 35.6526 103.051 34.4578 103.751 37.685C104.542 41.3261 103.634 45.3806 103.387 49.0399C103.222 51.4824 103.281 53.8746 103.39 56.3154C103.461 57.8787 103.277 59.6404 103.554 61.175C103.82 62.6527 104.882 63.5385 105.856 61.8835C106.438 60.8943 106.148 58.4524 106.187 57.3068C106.239 55.7639 106.19 54.2211 106.19 52.6777C106.189 48.9106 106.721 45.159 106.651 41.3924C106.606 38.9637 106.477 34.5612 103.414 33.9776C100.041 33.335 95.8944 33.9809 92.4423 33.9417C83.8892 33.8439 75.3503 33.5577 66.7944 33.6245Z" fill="#F7BA9D"/>
        <path fill-rule="evenodd" clip-rule="evenodd" d="M46.2183 57.1859C43.4022 57.1859 40.5861 57.203 37.7706 57.2494C35.3558 57.2892 31.5594 56.7864 29.3117 57.6501C27.7731 58.2414 27.3644 59.9594 29.3117 60.4169C31.4356 60.9159 34.6363 60.0998 36.8583 60.0605C48.001 59.8638 59.2508 59.6074 70.378 60.3125C80.8045 60.9723 91.4316 61.6128 101.873 60.9159C102.752 60.8574 107.232 60.6789 105.187 58.9995C103.995 58.0192 99.1603 58.6635 97.6102 58.6166C92.1428 58.4519 86.6698 58.4154 81.204 58.2082C75.809 58.0032 70.4388 57.397 65.0421 57.2467C58.7728 57.0721 52.4897 57.1859 46.2183 57.1859Z" fill="#F7BA9D"/>
        <path fill-rule="evenodd" clip-rule="evenodd" d="M43.4006 41.1702C47.7893 41.362 52.1317 47.7268 47.691 50.8026C43.5249 53.6894 35.7177 50.5258 38.0342 44.929C37.701 45.738 38.4553 44.0498 38.4647 44.0388C38.9051 43.5199 39.6959 42.9452 40.2391 42.5363C40.8602 42.0677 41.5073 41.5526 42.2567 41.3178C42.7485 41.1636 42.6711 41.7433 43.4006 41.1702ZM41.2631 38.8747C39.2091 39.6765 38.2719 40.5812 36.86 42.2185C35.8835 43.3514 34.6379 43.9476 34.649 45.4783C34.6518 45.8171 35.0867 46.1895 35.1624 46.5161C35.2663 46.967 35.1458 47.545 35.2281 48.0241C36.078 52.9699 41.9782 54.6371 46.2973 53.7032C50.0594 52.8898 52.8733 49.2786 52.0018 45.3512C51.1243 41.3979 45.2623 37.3103 41.2631 38.8747Z" fill="#F7BA9D"/>
        <path fill-rule="evenodd" clip-rule="evenodd" d="M39.4336 45.7784C39.4336 47.5572 42.2441 47.5572 42.2441 45.7784C42.2441 44.0195 39.4336 43.9438 39.4336 45.7784Z" fill="#F7BA9D"/>
        <path fill-rule="evenodd" clip-rule="evenodd" d="M42.9497 45.4182C42.9497 46.8317 45.1822 46.8317 45.1822 45.4182C45.1822 44.0206 42.9497 43.961 42.9497 45.4182Z" fill="#F7BA9D"/>
        <path fill-rule="evenodd" clip-rule="evenodd" d="M43.6411 48.3336C42.926 48.6083 42.0187 48.0386 41.4318 48.4138C40.3923 49.0797 41.4346 49.6814 41.9916 49.9489C44.5004 51.153 44.9469 47.833 43.6411 48.3336Z" fill="#F7BA9D"/>
        <path fill-rule="evenodd" clip-rule="evenodd" d="M81.9583 44.3909C81.6173 44.5352 81.8831 44.4224 81.9583 44.3909V44.3909ZM71.0317 42.7939C69.154 43.2178 67.5685 44.9717 65.5283 44.7369C63.965 44.5573 62.9062 43.0481 61.3628 42.8293C59.3884 42.5486 54.0143 47.0523 56.8398 47.8254C58.4882 48.2763 59.4027 45.264 60.8588 45.1038C62.011 44.9772 63.5777 46.3902 64.7713 46.5914C66.9983 46.9666 68.5279 45.7398 70.4824 44.9485C72.6072 44.0892 73.8157 44.8634 75.663 45.8189C77.1214 46.5726 78.4951 47.0639 80.1634 46.7528C81.7295 46.461 83.6968 44.8501 85.2733 45.0154C86.8173 45.1773 87.9192 46.7887 89.5074 46.9384C90.1622 46.9998 91.137 47.223 91.027 46.2123C90.9386 45.4038 90.0362 45.5409 89.4715 45.2464C88.0192 44.4904 86.6609 43.1509 84.9086 43.2653C83.5901 43.3515 82.3899 44.2777 81.1753 44.7208C77.1965 46.172 74.9596 41.9131 71.0317 42.7939Z" fill="#F7BA9D"/>
        <path fill-rule="evenodd" clip-rule="evenodd" d="M74.3561 68.4173C66.6811 68.4881 58.98 68.6019 51.327 69.217C49.5123 69.3628 30.9852 71.1124 31.0206 71.2384C31.0852 71.471 33.4686 71.8274 33.4537 71.8822C33.2929 71.4843 32.9259 71.3191 32.3523 71.3881C49.924 71.3881 67.4392 69.8149 85.0341 70.0978C89.4549 70.1685 93.8923 70.1393 98.3103 70.2785C99.4133 70.3133 102.146 71.1035 103.012 70.6056C105.285 69.2987 101.156 69.1479 100.472 69.0932C91.8128 68.4002 83.0386 68.3306 74.3561 68.4173Z" fill="#FF8851"/>
        <path fill-rule="evenodd" clip-rule="evenodd" d="M28.7458 72.1463C27.5984 73.2969 28.6549 77.4353 28.7001 78.9909C28.7655 81.2394 28.7116 83.504 28.909 85.747C29.1342 88.3088 29.4837 91.0387 30.1559 93.5243C30.5261 94.8936 31.8256 97.0698 32.3406 94.582C32.7081 92.8042 32.15 90.4468 31.9555 88.6365C31.6957 86.2145 31.6328 83.8245 31.6234 81.3903C31.6145 79.2699 31.5736 77.1402 31.3996 75.0265C31.3095 73.929 30.7574 70.1454 28.7458 72.1463Z" fill="#FF8851"/>
        <path fill-rule="evenodd" clip-rule="evenodd" d="M57.6129 93.2221C52.1664 93.3155 46.7084 93.4442 41.2713 93.7841C39.0427 93.9239 36.8157 94.1317 34.5954 94.3671C34.1428 94.4152 29.1277 94.6185 31.3687 96.4692C32.38 97.3052 36.5405 96.1498 37.9143 96.0293C40.2258 95.8265 42.5363 95.695 44.8539 95.5972C50.2246 95.3689 55.6114 95.1678 60.9871 95.2606C70.8051 95.4314 80.5597 95.5071 90.38 95.2883C91.7753 95.2573 102.706 95.5491 103.078 94.0979C103.377 92.9281 99.4675 93.4647 98.7546 93.4857C96.1403 93.5636 93.5254 93.5459 90.9094 93.5321C79.8291 93.4757 68.6848 93.0347 57.6129 93.2221Z" fill="#FF8851"/>
        <path fill-rule="evenodd" clip-rule="evenodd" d="M101.227 70.2056C101.4 75.0547 102.226 79.8982 102.49 84.7622C102.61 86.9853 102.752 89.2068 102.861 91.431C102.897 92.1483 102.608 93.8774 103.456 94.2902C104.62 94.856 104.777 93.7155 104.994 92.944C105.624 90.7154 105.198 87.8203 105.141 85.5314C105.085 83.315 105.082 81.0941 104.918 78.8814C104.751 76.6207 104.296 74.4032 104.085 72.1508C103.995 71.1981 104.307 69.6126 103.296 69.0214C102.422 68.5102 101.19 69.1545 101.227 70.2056Z" fill="#FF8851"/>
        <path fill-rule="evenodd" clip-rule="evenodd" d="M43.0656 76.8352C44.7914 77.3281 46.2088 77.1446 47.8578 78.4007C49.2244 79.4424 50.6263 80.967 51.0794 82.6513C52.1266 86.5427 48.5762 88.6758 45.2478 88.7178C41.8383 88.7603 36.7914 87.9696 36.966 83.5996C37.1003 80.242 39.5516 76.9656 43.0656 76.8352ZM43.1872 74.6358C38.7117 74.8585 35.1015 79.885 35.1402 84.1152C35.1872 89.2427 40.9967 90.564 45.1241 90.5994C49.7819 90.6392 54.4266 87.423 53.1788 82.1849C52.1786 77.9879 47.4909 74.412 43.1872 74.6358Z" fill="#FF8851"/>
        <path fill-rule="evenodd" clip-rule="evenodd" d="M38.6853 81.5202C38.6853 82.9503 40.9443 82.9503 40.9443 81.5202C40.9443 80.1072 38.6853 80.0464 38.6853 81.5202Z" fill="#FF8851"/>
        <path fill-rule="evenodd" clip-rule="evenodd" d="M43.4238 80.893C43.4238 82.3342 45.7005 82.3342 45.7005 80.893C45.7005 79.4684 43.4238 79.407 43.4238 80.893Z" fill="#FF8851"/>
        <path fill-rule="evenodd" clip-rule="evenodd" d="M40.8119 84.1543C39.3414 85.6221 44.5071 88.1955 45.7251 86.1537C46.7258 84.476 44.5469 85.0324 43.7749 84.9418C42.9355 84.8429 41.4971 83.4708 40.8119 84.1543Z" fill="#FF8851"/>
        <path fill-rule="evenodd" clip-rule="evenodd" d="M82.1098 80.9222C81.9683 80.9819 81.9683 80.9819 82.1098 80.9222V80.9222ZM62.7124 78.5328C61.2236 78.8118 56.3375 80.4602 56.2718 82.2263C56.1508 85.437 60.9363 82.1484 61.9752 81.7262C64.7979 80.579 66.2811 82.9193 69.117 83.0425C71.5794 83.1497 73.844 81.0421 76.1638 81.2913C78.5947 81.5527 79.7634 84.1383 82.5695 82.7657C84.0544 82.0396 84.0168 80.9194 82.3502 80.8139C81.3433 80.7503 80.6509 81.1664 79.601 80.7332C77.9586 80.0557 77.2972 78.9527 75.3321 79.1279C73.8489 79.2605 72.5089 80.0961 71.0611 80.4199C67.7466 81.1604 65.9081 77.9337 62.7124 78.5328Z" fill="#FF8851"/>
        <path fill-rule="evenodd" clip-rule="evenodd" d="M93.5454 82.3165C93.4427 82.3596 93.4427 82.3596 93.5454 82.3165V82.3165ZM93.9207 80.9797C93.9372 80.9869 94.0494 81.1427 93.9207 80.9797V80.9797ZM92.2142 79.9591C92.1501 80.0083 92.1501 80.0083 92.2142 79.9591V79.9591ZM92.2513 79.9464C92.5823 80.1447 95.243 81.9639 93.3106 82.3927C92.3292 82.6099 91.5174 80.636 92.2513 79.9464ZM91.3704 77.931C87.1082 79.8745 91.6948 86.829 95.0397 84.003C96.4472 82.8144 96.6323 80.4111 95.2629 79.1722C94.4429 78.43 92.4839 77.4221 91.3704 77.931Z" fill="#FF8851"/>
        <path fill-rule="evenodd" clip-rule="evenodd" d="M51.359 105.337C46.0402 105.338 40.675 105.227 35.3634 105.542C34.4698 105.595 31.0647 105.425 30.6041 106.359C29.7615 108.068 33.2652 107.22 33.7741 107.169C44.3498 106.11 55.3969 106.719 66.0074 107.021C74.6854 107.268 83.3165 107.421 91.9841 107.868C94.2624 107.985 96.5386 108.115 98.8153 108.253C99.5575 108.298 101.425 108.789 101.582 107.604C101.726 106.507 99.3967 106.755 98.8148 106.724C94.1867 106.481 89.562 106.225 84.9351 105.965C73.799 105.337 62.5127 105.335 51.359 105.337Z" fill="#F7BA9D"/>
        <path fill-rule="evenodd" clip-rule="evenodd" d="M30.4338 107.237C29.4404 108.225 29.9061 111.996 29.8783 113.242C29.8299 115.422 29.727 117.6 29.6808 119.779C29.6328 122.057 29.6995 124.345 29.8342 126.62C29.8907 127.574 30.6745 132.19 31.9084 129.548C32.4599 128.368 31.8952 125.081 31.9035 123.743C31.9189 121.31 32.0499 118.886 32.1709 116.455C32.2754 114.366 32.2792 112.274 32.3704 110.184C32.3991 109.518 32.4782 105.186 30.4338 107.237Z" fill="#F7BA9D"/>
        <path fill-rule="evenodd" clip-rule="evenodd" d="M102.477 126.708C97.3004 127.239 92.0413 126.988 86.8457 127.38C82.368 127.718 77.8941 127.856 73.4048 127.951C63.2391 128.165 53.0558 128.375 42.9194 129.222C40.6095 129.415 38.3019 129.62 35.9859 129.723C34.8276 129.774 29.9666 129.247 29.6046 130.468C28.988 132.548 34.1861 131.725 35.3073 131.692C37.773 131.622 40.2271 131.443 42.6856 131.256C53.0215 130.468 63.3961 130.233 73.754 129.906C79.3867 129.728 84.9807 129.316 90.6012 128.941C93.4029 128.754 96.2118 128.748 99.0129 128.567C99.7462 128.519 102.341 128.613 102.868 128.023C103.23 127.618 103.322 126.63 102.477 126.708Z" fill="#F7BA9D"/>
        <path fill-rule="evenodd" clip-rule="evenodd" d="M100.722 107.591C100.899 112.555 101.18 117.514 101.348 122.478C101.398 123.97 100.947 126.646 101.778 127.962C103.115 130.079 104.158 127.839 104.403 126.52C105.175 122.357 104.345 117.759 104.129 113.57C104.047 111.972 104.543 108.416 103.771 106.986C103.035 105.624 100.656 105.76 100.722 107.591Z" fill="#F7BA9D"/>
        <path fill-rule="evenodd" clip-rule="evenodd" d="M92.0323 114.661C94.015 115.198 94.3046 119.509 92.0671 119.828C88.7366 120.303 90.1932 115.549 92.0323 114.661ZM91.4764 112.946C90.8718 112.927 89.4754 112.76 89.1024 113.253C88.7907 113.665 89.1057 114.534 89.0692 114.927C88.9383 116.329 87.7977 117.139 88.3078 118.795C88.6537 119.919 89.5804 120.975 90.7099 121.365C96.6697 123.426 96.5973 111.91 91.4764 112.946Z" fill="#F7BA9D"/>
        <path fill-rule="evenodd" clip-rule="evenodd" d="M42.3494 111.229C42.3262 111.03 42.3025 110.83 42.2793 110.631C45.5109 112.156 48.0821 114.993 47.009 118.802C46.1906 121.707 43.2325 122.738 40.4767 122.021C37.4263 121.226 35.9685 118.712 36.7908 115.624C37.1705 114.2 38.3359 112.286 39.8417 111.828C40.543 111.614 42.0936 112.158 42.3494 111.229ZM40.4595 110.023C39.6422 110.078 38.8465 110.418 38.1795 110.884C38.8039 110.356 39.6362 110.042 40.4595 110.023ZM40.4833 108.146C38.4641 108.208 37.1406 109.43 35.9431 110.898C35.5674 111.359 34.2964 112.581 34.4539 113.201C34.5782 113.693 34.9037 114.41 35.5895 113.863C31.9987 121.019 41.2746 127.123 46.9371 122.146C52.2222 117.502 46.9786 107.928 40.4833 108.146Z" fill="#F7BA9D"/>
        <path fill-rule="evenodd" clip-rule="evenodd" d="M38.6489 114.793C38.6489 115.747 40.1282 115.747 40.1282 114.793C40.1282 113.841 38.6489 113.841 38.6489 114.793Z" fill="#F7BA9D"/>
        <path fill-rule="evenodd" clip-rule="evenodd" d="M41.1731 114.956C41.1731 115.925 42.6762 115.925 42.6762 114.956C42.6762 113.988 41.1731 113.988 41.1731 114.956Z" fill="#F7BA9D"/>
        <path fill-rule="evenodd" clip-rule="evenodd" d="M42.3186 118.358C41.6156 118.415 39.0411 118.176 38.5896 118.791C37.8342 119.821 39.0394 119.857 39.6313 119.968C40.1645 120.068 42.4821 120.012 42.8087 119.538C43.0972 119.12 43.0298 118.297 42.3186 118.358Z" fill="#F7BA9D"/>
        <path fill-rule="evenodd" clip-rule="evenodd" d="M73.3328 115.688C73.2118 115.738 73.2118 115.738 73.3328 115.688V115.688ZM63.6065 114.977C62.0216 115.093 60.6799 116.005 59.1646 116.368C57.5477 116.757 56.8476 116.043 55.3771 115.575C53.8475 115.089 52.7594 115.281 51.5299 116.326C50.8336 116.918 49.3051 118.28 49.7406 119.331C50.7375 121.738 52.9943 117.823 54.0558 117.64C55.7114 117.356 57.1847 118.804 59.0945 118.39C60.8247 118.015 62.3598 116.827 64.1668 116.814C65.6782 116.803 67.1022 117.63 68.5942 117.83C70.8721 118.136 72.3674 117.327 74.4728 116.727C76.2986 116.206 77.5784 116.893 79.2959 117.47C80.0806 117.734 82.6994 118.693 82.2175 116.953C82.081 116.462 78.63 115.584 78.0951 115.414C76.2085 114.819 75.0138 115.051 73.2162 115.736C71.7175 116.308 70.4565 116.587 68.8495 116.272C67.079 115.925 65.4687 114.835 63.6065 114.977Z" fill="#F7BA9D"/>
    </g>
    <g opacity="0.5">
        <path fill-rule="evenodd" clip-rule="evenodd" d="M136.514 35.2065C136.77 29.7043 137.121 24.2103 137.306 18.7049C137.399 15.9769 137.471 13.2486 137.54 10.52C137.555 9.91247 137.571 9.30516 137.585 8.69757C137.63 6.63344 137.385 6.46462 139.462 6.28138C148.729 5.46342 158.032 5.19231 167.31 4.45227C178.5 3.55976 189.747 2.94344 200.968 2.6672C205.955 2.54424 210.962 2.28949 215.949 2.44455C217.054 2.47887 219.223 2.19135 219.659 3.05032C219.846 3.42139 219.452 4.69828 219.402 5.12644C219.246 6.46407 219.1 7.80634 219.01 9.1506C218.479 17.079 218.795 25.2072 220.33 33.0155C216.729 30.9847 212.179 29.2379 207.981 29.5844C203.702 29.938 200.501 32.4104 197.075 34.686C195.138 35.9735 194.485 36.3117 192.552 35.0651C190.886 33.9903 189.31 32.7618 187.739 31.5555C185.313 29.6943 183.024 27.6768 180.672 25.7255C176.348 22.1381 170.39 17.0316 164.418 18.535C160.15 19.6092 156.21 21.9546 152.507 24.2495C147.004 27.6597 142.024 31.8357 136.514 35.2065ZM210.675 0.00116998C189.415 0.00116998 168.314 2.06221 147.114 3.17714C144.899 3.29352 142.693 3.46493 140.487 3.67785C139.016 3.81981 135.42 3.22378 134.457 4.48017C133.813 5.31841 134.366 5.44419 134.457 6.24065C134.571 7.24434 134.503 8.43365 134.474 9.49603C134.403 12.056 134.329 14.6157 134.271 17.1759C134.051 26.8517 133.914 36.5261 134.305 46.1994C134.391 48.3093 135.16 51.2303 134.739 53.2805C134.435 54.7648 133.417 55.6677 135.764 55.9418C138.074 56.212 140.898 55.5251 143.21 55.3052C145.536 55.0842 147.861 54.8438 150.189 54.652C160.311 53.8182 170.531 53.9441 180.68 53.6667C190.92 53.3871 201.164 53.3694 211.408 53.3634C215.694 53.3612 220.591 53.6021 224.773 52.4228C226.244 52.0073 226.483 51.8028 226.12 50.3434C226.051 50.066 225.607 49.9638 225.476 49.4631C225.299 48.7817 225.39 47.9534 225.349 47.2444C225.213 44.9279 225.166 42.607 225.057 40.2894C224.875 36.4162 224.207 32.6574 223.713 28.8234C223.143 24.396 223.173 19.9 223.161 15.4433C223.154 12.9713 223.218 10.5075 223.416 8.04235C223.544 6.46125 224.322 4.1007 223.927 2.6262C223.731 1.89206 223.409 1.30984 222.645 0.993919C222.161 0.793491 221.753 0.950319 221.275 0.89959C220.707 0.839357 220.353 0.759672 219.673 0.605662C216.76 -0.0546966 213.644 0.00116998 210.675 0.00116998Z" fill="#FF8851"/>
        <path fill-rule="evenodd" clip-rule="evenodd" d="M198.909 10.5276C198.908 12.0684 198.667 14.3422 199.378 15.7931C200.279 17.6335 201.406 17.0581 201.704 15.3287C201.876 14.3378 201.871 11.4053 201.553 10.5276C201.103 9.28531 198.909 8.43916 198.909 10.5276Z" fill="#F7BA9D"/>
        <path fill-rule="evenodd" clip-rule="evenodd" d="M201.495 11.1225C200.049 11.1735 195.836 10.8263 194.857 11.9894C193.178 13.9843 196.101 14.3377 197.356 14.226C198.808 14.0968 203.295 14.412 204.268 13.2476C205.895 11.2996 202.633 11.081 201.495 11.1225Z" fill="#F7BA9D"/>
        <path fill-rule="evenodd" clip-rule="evenodd" d="M145.36 62.5973C151.719 63.7019 149.741 73.3984 143.724 71.1521C141.627 70.3696 138.538 68.1084 139.696 65.4443C140.562 63.4538 143.383 62.4077 145.36 62.5973ZM142.727 59.5828C138.591 60.2791 135.763 64.7546 137.182 68.6588C138.55 72.4248 143.738 75.1828 147.565 73.8295C151.218 72.5369 153.04 67.6768 151.809 64.1214C150.522 60.4068 146.33 58.9761 142.727 59.5828Z" fill="#F7BA9D"/>
        <path fill-rule="evenodd" clip-rule="evenodd" d="M181.408 63.7318C179.825 63.8633 178.456 64.9719 176.863 65.168C175.374 65.3515 174.139 64.8414 172.744 64.4342C171.058 63.9418 169.512 63.7257 167.789 64.1628C166.473 64.4972 165.174 65.3929 163.806 65.5012C161.115 65.714 157.988 62.6432 155.887 66.1163C154.879 67.7807 156.342 68.8533 157.848 68.0769C159.419 67.2674 158.648 66.9778 160.596 67.4558C162.222 67.8542 163.536 68.0708 165.164 67.5122C166.639 67.0065 167.933 66.0809 169.536 65.9765C171.106 65.8748 172.472 66.5899 173.972 66.8982C175.817 67.2779 177.45 66.9905 179.198 66.4125C180.861 65.8621 181.525 65.5615 183.203 66.0522C184.265 66.3627 186.586 67.3503 187.62 66.5545C189.409 65.1791 187.015 64.9779 186.072 64.7823C184.554 64.4679 182.983 63.6025 181.408 63.7318Z" fill="#F7BA9D"/>
        <path fill-rule="evenodd" clip-rule="evenodd" d="M217.641 62.8073C217.653 62.8173 217.666 62.8272 217.678 62.8366C217.666 62.8272 217.653 62.8173 217.641 62.8073ZM216.086 62.4824C218.398 62.6311 220.897 66.8419 217.835 66.9916C215.679 67.0966 213.267 63.4097 216.086 62.4824ZM215.762 59.0369C208.453 61.0777 211.794 71.3826 218.844 70.1923C222.047 69.6513 223.132 65.9417 222.073 63.1953C221.618 62.016 220.732 61.0213 219.673 60.3427C218.891 59.8415 216.656 58.7883 215.762 59.0369Z" fill="#F7BA9D"/>
        <path fill-rule="evenodd" clip-rule="evenodd" d="M181.662 80.5491C188.094 80.3286 194.526 80.1076 200.965 80.0479C204.454 80.0158 207.924 80.0766 211.408 80.2766C212.953 80.3651 214.498 80.4507 216.044 80.5159C216.311 80.5275 216.679 80.5093 217.086 80.4894C218.043 80.4424 219.212 80.385 219.762 80.6756C222.838 82.3025 216.571 82.481 215.81 82.4683C214.104 82.4395 212.4 82.355 210.695 82.271C209.206 82.1975 207.717 82.124 206.226 82.087C196.662 81.8521 187.04 82.282 177.46 82.7098C175.264 82.8076 173.07 82.9059 170.879 82.9954C168.553 83.091 166.229 83.1529 163.903 83.2143C160.58 83.3027 157.257 83.3911 153.933 83.5779C152.664 83.6492 151.395 83.7243 150.126 83.8C148.309 83.9083 146.491 84.0167 144.673 84.1123C143.249 84.1874 141.825 84.2603 140.399 84.2963C140.143 84.3023 139.809 84.3383 139.443 84.3769C138.56 84.4714 137.497 84.5847 136.922 84.3499C136.231 84.0675 135.672 83.6724 136.052 82.8346C136.373 82.1268 137.541 82.2119 138.392 82.2737C138.625 82.2909 138.834 82.3058 138.995 82.3025C141.716 82.25 144.431 82.0969 147.147 81.9306C148.141 81.8698 149.134 81.8074 150.127 81.7449C155.298 81.42 160.464 81.095 165.647 81.0066C170.988 80.9155 176.325 80.732 181.662 80.5491ZM215.254 122.88L217.103 122.858C218.058 122.941 218.485 123.943 217.872 124.714C217.403 125.304 215.596 125.33 214.419 125.347C214.092 125.352 213.814 125.357 213.626 125.372C210.552 125.619 207.484 125.73 204.401 125.76C197.908 125.821 191.439 126.099 184.956 126.469C178.321 126.848 171.679 126.99 165.038 127.132C160.152 127.237 155.264 127.342 150.38 127.54C147.583 127.654 144.785 127.739 141.986 127.813C141.686 127.82 141.286 127.863 140.833 127.912C139.065 128.103 136.497 128.381 135.915 126.976C135.398 125.731 136.116 125.157 137.166 124.896C137 124.159 137.031 123.122 137.048 122.528C137.054 122.35 137.058 122.211 137.055 122.132C137.029 121.388 137.01 120.643 136.992 119.898C136.971 119.054 136.951 118.211 136.918 117.367C136.888 116.601 136.861 115.835 136.833 115.068C136.725 112.044 136.617 109.012 136.384 106.001C136.276 104.61 136.106 103.237 135.936 101.865C135.665 99.6752 135.393 97.4907 135.381 95.2555C135.379 94.8532 135.359 94.3503 135.336 93.7828C135.22 90.8805 135.036 86.2917 136.838 84.8942C140.015 83.0402 139.387 88.391 139.106 90.7788C139.06 91.1734 139.023 91.4867 139.015 91.6741C138.832 95.6445 139.08 99.4409 139.479 103.386C139.75 106.051 139.592 108.707 139.434 111.367C139.378 112.317 139.321 113.268 139.284 114.22C139.266 114.69 139.249 115.161 139.233 115.632C139.183 117.08 139.133 118.527 139.025 119.974C139.012 120.13 139.009 120.43 139.004 120.814C138.989 121.895 138.967 123.64 138.735 124.7C139.228 124.678 139.706 124.684 140.102 124.688C140.353 124.691 140.571 124.693 140.738 124.688C141.496 124.665 142.255 124.643 143.013 124.621C145.253 124.555 147.494 124.489 149.733 124.405C155.021 124.206 160.31 124.14 165.599 124.074C171.845 123.995 178.092 123.917 184.336 123.62C194.627 123.131 204.953 123.005 215.254 122.88ZM217.163 84.0609C217.157 90.8628 217.684 97.478 218.298 104.253C218.678 108.443 218.983 112.65 219.225 116.851C219.236 117.045 219.235 117.369 219.232 117.776V117.777C219.22 120.1 219.194 125.105 221.49 123.908C223.223 123.004 222.557 117.761 222.188 114.86C222.108 114.224 222.041 113.7 222.017 113.36C221.967 112.634 221.917 111.909 221.867 111.184C221.636 107.816 221.406 104.451 221.102 101.087L221.038 100.378C220.686 96.4927 220.335 92.6102 220.272 88.7066C220.268 88.3839 220.298 87.9346 220.333 87.4262C220.435 85.9568 220.57 84.0001 219.96 83.2198C219.101 82.1218 217.165 82.4462 217.163 84.0609Z" fill="#FF8851"/>
        <path fill-rule="evenodd" clip-rule="evenodd" d="M181.956 100.736C190.171 97.0188 198.482 93.2589 207.025 90.5816C207.643 90.3882 208.033 91.0248 207.893 91.5591C207.748 92.1095 206.412 92.5792 205.526 92.8909C205.261 92.9843 205.036 93.0633 204.895 93.1258C203.702 93.659 202.506 94.1851 201.31 94.7117C200.084 95.2505 198.859 95.7899 197.637 96.3358C195.097 97.4709 192.554 98.6015 190.01 99.7316C187.287 100.942 184.563 102.152 181.842 103.369C181.74 103.415 181.636 103.461 181.534 103.507C185.233 104.822 188.911 106.195 192.573 107.61C193.824 108.093 195.071 108.587 196.318 109.08C197.024 109.36 197.73 109.639 198.437 109.916C198.666 110.006 199.067 110.129 199.548 110.276C201.117 110.754 203.543 111.495 203.722 112.244C204.014 113.463 200.664 112.283 199.4 111.839C199.233 111.779 199.102 111.734 199.021 111.708C197.156 111.111 195.314 110.448 193.473 109.784L193.217 109.692C191.758 109.166 190.301 108.635 188.843 108.103C185.996 107.065 183.15 106.027 180.287 105.031C179.883 104.89 179.478 104.75 179.073 104.61C174.48 106.673 169.895 108.756 165.326 110.872C162.876 112.007 160.439 113.168 158.009 114.345C157.479 114.602 156.822 114.998 156.108 115.43C154.399 116.463 152.363 117.694 150.962 117.663C150.212 117.646 149.705 117.486 149.627 116.575C149.546 115.636 150.751 115.144 151.618 114.789C151.825 114.704 152.013 114.627 152.159 114.555C154.757 113.255 157.37 111.989 159.991 110.739C165.196 108.257 170.451 105.873 175.723 103.536C175.753 103.523 175.784 103.51 175.814 103.496C172.89 102.507 169.958 101.54 167.018 100.595C166.725 100.5 166.124 100.334 165.333 100.115C161.597 99.08 153.638 96.8757 153.992 95.5882C154.399 94.1155 161.86 96.8072 165.163 97.9992C165.783 98.2224 166.256 98.3932 166.509 98.4738C170.458 99.7321 174.397 101.026 178.315 102.38C179.527 101.835 180.74 101.286 181.956 100.736Z" fill="#F7BA9D"/>
    </g>
    <path opacity="0.5" fill-rule="evenodd" clip-rule="evenodd" d="M286.028 17.5198C283.595 17.5668 277.587 18.4518 276.694 21.3301C276.016 23.5145 278.03 23.0349 279.109 22.2402C280.569 21.1649 281.85 20.5217 283.66 20.1945C290.552 18.9478 297.175 23.4189 304.002 23.9843C306.588 24.1987 309.709 24.3379 312.178 23.5007C313.936 22.9039 314.165 21.6036 312.159 21.4058C310.454 21.2373 308.568 21.7678 306.82 21.7528C299.587 21.691 293.157 17.3838 286.028 17.5198Z" fill="#FAD8C8"/>
    <g opacity="0.5">
        <path fill-rule="evenodd" clip-rule="evenodd" d="M30.378 175.018C25.7228 175.07 21.0698 175.241 16.4238 175.535C12.0056 175.816 7.21167 175.603 2.86541 176.459C1.63128 176.702 -0.0358615 177.827 1.60514 179.064C2.75859 179.934 6.97853 178.934 8.35589 178.849C13.4282 178.537 18.5031 178.164 23.5827 177.985C28.3914 177.814 33.1996 177.755 38.0111 177.707C38.7455 177.699 39.9645 177.464 40.6962 177.677C41.7472 177.983 41.498 178.067 41.5765 179.401C41.7191 181.818 41.6798 184.244 41.6317 186.663C41.5853 189.005 41.4986 191.345 41.5074 193.688C41.5129 195.359 40.9791 198.679 41.8174 200.131C43.0243 202.22 44.2765 199.951 44.3666 198.563C44.5395 195.908 44.4622 193.22 44.4627 190.562C44.4633 188.067 44.4815 185.571 44.3936 183.077C44.3295 181.276 44.5871 178.131 43.6167 176.493C42.6281 174.825 40.248 175.184 38.5118 175.105C35.8029 174.981 33.0891 174.989 30.378 175.018Z" fill="#F7BA9D"/>
        <path fill-rule="evenodd" clip-rule="evenodd" d="M0.75886 178.028C0.763999 182.717 0.22162 187.374 0.0696548 192.057C-2.8244e-05 194.21 -0.141438 196.574 0.403262 198.688C0.953101 200.822 2.69938 201.284 2.90047 198.902C3.30785 194.077 3.20794 189.075 3.52513 184.212C3.63709 182.494 4.36575 179.348 3.68549 177.74C3.08647 176.324 0.756318 176.052 0.75886 178.028Z" fill="#F7BA9D"/>
        <path fill-rule="evenodd" clip-rule="evenodd" d="M44.4123 198.694C36.3278 199.764 27.876 199.374 19.7338 199.543C15.8274 199.623 11.9218 199.628 8.01493 199.669C6.65144 199.683 3.18884 199.165 2.00925 199.931C0.131513 201.151 2.16884 202.093 3.41198 202.12C11.1219 202.289 18.9178 201.934 26.6262 201.681C30.0896 201.567 33.5642 201.512 37.0185 201.218C39.1449 201.036 41.4686 200.861 43.5337 200.289C43.9735 200.168 44.9318 200.193 45.0301 199.593C45.0909 199.222 44.9809 198.616 44.4123 198.694Z" fill="#F7BA9D"/>
        <path fill-rule="evenodd" clip-rule="evenodd" d="M10.7945 205.509C8.54762 205.522 1.77664 204.478 0.846061 206.669C-0.394475 209.592 4.44499 208.91 5.74653 208.876C8.70262 208.8 11.6567 208.792 14.6135 208.794C17.5148 208.795 20.4158 208.776 23.3166 208.707C24.1569 208.687 26.113 209.036 26.5965 208.024C26.9639 207.255 26.6736 206.648 25.996 206.241C24.3655 205.261 20.1296 205.829 18.2206 205.741C15.749 205.627 13.2692 205.509 10.7945 205.509Z" fill="#F7BA9D"/>
        <path fill-rule="evenodd" clip-rule="evenodd" d="M38.1297 206.05C36.8455 206.126 34.2483 205.597 33.0977 206.185C31.7903 206.853 32.2512 207.898 33.3796 208.358C34.1615 208.677 37.3683 208.51 38.1297 208.141C38.9233 207.756 39.8207 205.946 38.1297 206.05Z" fill="#F7BA9D"/>
        <path fill-rule="evenodd" clip-rule="evenodd" d="M52.208 178.488C50.8365 178.865 51.2526 186.651 51.2172 187.885C51.1205 191.267 50.7403 195.52 51.8638 198.777C52.5805 200.853 53.957 200.571 53.7222 198.386C53.5166 196.467 53.1629 194.571 53.0099 192.64C52.6645 188.271 52.1937 183.61 52.5202 179.237C52.6595 179.491 53.9603 181.848 54.2665 181.671C54.1742 181.727 52.7662 178.341 52.208 178.488Z" fill="#F7BA9D"/>
        <path fill-rule="evenodd" clip-rule="evenodd" d="M67.635 175.621C64.8592 175.662 62.0841 175.711 59.3095 175.788C57.1029 175.849 53.6365 175.487 51.6134 176.415C49.204 177.52 50.3468 179.982 52.6097 180.034C54.6118 180.08 56.7465 179.629 58.7663 179.559C64.2221 179.373 69.6879 179.333 75.1459 179.286C80.0829 179.243 85.2292 179.77 90.1225 179.028C90.8481 185.473 88.8853 191.945 89.5528 198.465C89.6561 199.476 89.6097 200.906 90.8984 201.136C92.5247 201.428 92.5916 199.817 92.6529 198.663C92.8292 195.371 92.7336 192.075 92.9751 188.777C93.1983 185.722 93.6382 182.599 93.2663 179.538C92.8093 175.772 91.0045 176.074 87.8143 175.917C81.0764 175.587 74.3806 175.522 67.635 175.621Z" fill="#F7BA9D"/>
        <path fill-rule="evenodd" clip-rule="evenodd" d="M58.3336 198.505C56.9189 198.541 54.5703 198.105 53.6641 199.461C52.7213 200.873 53.8398 202.103 55.2108 202.393C56.8338 202.736 58.9497 202.266 60.634 202.261C62.388 202.255 64.1425 202.275 65.8965 202.282C73.4163 202.311 80.9681 202.425 88.483 202.114C89.5324 202.071 92.5109 202.423 93.237 201.416C93.8819 200.523 93.431 199.723 92.5816 199.268C91.1891 198.521 88.3288 198.805 86.7798 198.746C84.8667 198.673 82.9509 198.65 81.0372 198.62C73.482 198.503 65.8876 198.319 58.3336 198.505Z" fill="#F7BA9D"/>
        <path fill-rule="evenodd" clip-rule="evenodd" d="M64.6946 205.028C61.8807 205.076 58.8779 204.953 56.0917 205.38C53.642 205.755 53.3403 208.123 55.9773 208.4C58.401 208.655 61.3392 208.179 63.7745 208.023C64.6393 207.967 65.645 208.046 66.0595 207.09C66.4922 206.091 65.6649 205.133 64.6946 205.028Z" fill="#F7BA9D"/>
        <path fill-rule="evenodd" clip-rule="evenodd" d="M85.9692 205.277C84.4672 205.315 80.0801 204.669 79.3363 206.384C78.0974 209.24 84.0367 208.156 85.1762 208.114C86.6124 208.06 92.2091 208.899 92.2102 206.613C92.2114 204.371 87.3446 205.243 85.9692 205.277Z" fill="#F7BA9D"/>
        <path fill-rule="evenodd" clip-rule="evenodd" d="M0.515966 219.47C0.519558 224.665 0.19623 229.91 0.670196 235.093C0.866204 237.237 0.832608 241.343 2.07419 243.16C2.95554 244.45 4.17789 244.36 4.65932 242.811C4.9811 241.775 4.4664 239.705 4.40899 238.597C4.35367 237.534 4.28908 236.471 4.23989 235.407C4.11357 232.668 4.12357 229.933 4.16126 227.193C4.19353 224.841 4.7595 221.731 4.2258 219.47C3.72824 217.363 0.515966 216.87 0.515966 219.47Z" fill="#FF8851"/>
        <path fill-rule="evenodd" clip-rule="evenodd" d="M52.7353 214.899C43.7207 215.125 34.6856 214.923 25.6792 215.369C21.2374 215.589 16.813 216.073 12.3934 216.554C10.2221 216.791 8.05201 217.035 5.88448 217.302C5.23042 217.383 -0.204744 217.593 1.83955 219.66C2.73217 220.563 5.5727 219.62 6.6967 219.487C8.8729 219.23 11.0535 219.006 13.2327 218.776C17.3796 218.337 21.5317 217.922 25.6964 217.691C35.5046 217.147 45.3536 217.31 55.1717 216.948C57.8275 216.851 60.475 216.78 63.1319 216.885C63.8299 216.912 68.9563 217.173 66.7305 215.279C65.6777 214.384 61.7095 214.846 60.3943 214.819C57.8413 214.766 55.2872 214.835 52.7353 214.899Z" fill="#FF8851"/>
        <path fill-rule="evenodd" clip-rule="evenodd" d="M65.0237 223.653C64.9795 221.252 64.9348 218.852 64.8253 216.453C64.7104 213.927 68.1515 213.544 69.1716 215.589C69.9065 217.061 69.7772 219.566 69.6661 221.712C69.6219 222.577 69.5799 223.385 69.5993 224.042C69.6429 225.55 69.754 227.109 69.8662 228.688C70.1491 232.664 70.4414 236.77 69.6982 240.523C69.3368 242.347 67.7989 243.305 66.7749 242.311C66.7733 242.313 66.7722 242.315 66.7705 242.317C66.3853 242.885 65.1867 242.884 64.3037 242.883C64.0605 242.883 63.8412 242.882 63.6699 242.894C61.2511 243.058 58.8771 243.336 56.4794 243.695C51.7027 244.411 46.9675 244.851 42.1394 244.97C38.863 245.052 35.5822 245.079 32.3009 245.106C26.0167 245.158 19.7295 245.21 13.4655 245.64C11.3537 245.785 9.27379 246.034 7.19645 246.431C7.01967 246.465 6.82327 246.509 6.61428 246.556C5.0697 246.899 2.83365 247.396 2.68086 245.238C2.49928 242.676 8.05187 242.34 10.9093 242.167C11.3455 242.141 11.7189 242.118 11.9995 242.092C20.6757 241.286 29.488 241.41 38.201 241.534C38.6232 241.54 39.0454 241.546 39.467 241.552C40.1467 241.561 40.8264 241.572 41.5061 241.583C45.2367 241.645 48.9629 241.707 52.6919 241.478C54.3889 241.375 56.1086 241.321 57.8311 241.268C60.5791 241.183 63.335 241.097 66.0228 240.806C65.6172 239.234 65.5465 237.38 65.4796 235.632C65.4536 234.951 65.4282 234.287 65.384 233.661C65.1481 230.33 65.0856 226.991 65.0237 223.653Z" fill="#FF8851"/>
        <path fill-rule="evenodd" clip-rule="evenodd" d="M72.32 218.303C71.102 218.469 70.0863 219.511 70.6301 220.833C71.3148 222.498 73.3544 221.847 74.7017 221.742C78.9843 221.406 83.456 222.076 87.6873 221.571C88.8427 221.433 90.5188 220.803 89.4816 219.251C88.7018 218.084 85.8604 218.288 84.6524 218.177C80.5217 217.794 76.4451 217.897 72.32 218.303Z" fill="#FAD8C8"/>
        <path fill-rule="evenodd" clip-rule="evenodd" d="M79.548 225.565C77.8874 225.677 74.0209 225.589 73.3207 227.479C72.0652 230.869 76.9828 229.674 78.4804 229.481C80.2194 229.258 84.3197 229.857 85.2459 228.171C86.902 225.155 81.0046 225.465 79.548 225.565Z" fill="#FAD8C8"/>
        <path fill-rule="evenodd" clip-rule="evenodd" d="M75.277 233.005C74.489 233.793 74.4879 235.201 75.277 235.989C76.2429 236.955 78.3483 236.754 79.6177 236.824C81.3882 236.923 86.4738 237.86 87.353 235.775C88.5394 232.962 83.934 233.021 82.4193 232.861C80.6687 232.677 76.7281 231.554 75.277 233.005Z" fill="#FAD8C8"/>
        <path fill-rule="evenodd" clip-rule="evenodd" d="M13.2075 184.852C13.2075 187.877 17.9312 187.877 17.9312 184.852C17.9312 181.844 13.2075 181.798 13.2075 184.852Z" fill="#F7BA9D"/>
        <path fill-rule="evenodd" clip-rule="evenodd" d="M22.1675 184.886C22.1675 188.344 27.5478 188.337 27.5478 184.886C27.5478 181.441 22.1675 181.406 22.1675 184.886Z" fill="#F7BA9D"/>
        <path fill-rule="evenodd" clip-rule="evenodd" d="M16.7475 189.484C14.1321 190.206 16.5414 192.422 17.7558 192.928C19.6859 193.733 22.3199 194.327 24.2504 193.12C25.0185 192.639 25.6421 192.002 25.0793 191.07C24.4795 190.078 23.6583 190.519 22.7452 190.61C21.5884 190.727 20.6535 190.709 19.5365 190.338C18.7028 190.061 17.6567 189.233 16.7475 189.484Z" fill="#F7BA9D"/>
        <path fill-rule="evenodd" clip-rule="evenodd" d="M64.1865 185.043C64.1865 187.089 67.3629 187.089 67.3629 185.043C67.3629 182.998 64.1865 182.998 64.1865 185.043Z" fill="#F7BA9D"/>
        <path fill-rule="evenodd" clip-rule="evenodd" d="M71.2117 185.351C71.2117 187.624 74.7406 187.625 74.7406 185.351C74.7406 183.078 71.2117 183.078 71.2117 185.351Z" fill="#F7BA9D"/>
        <path fill-rule="evenodd" clip-rule="evenodd" d="M70.9499 190.284C69.0965 190.523 63.7351 191.066 63.4351 193.351C62.9725 196.876 68.8467 194.023 70.1873 193.746C71.8954 193.394 73.42 193.486 75.1248 193.555C76.0609 193.592 77.3059 193.744 77.2076 192.318C77.0467 189.976 72.5701 190.077 70.9499 190.284Z" fill="#F7BA9D"/>
        <path fill-rule="evenodd" clip-rule="evenodd" d="M24.3449 222.791C23.0014 223.15 21.2438 225.472 22.1682 226.894C23.6839 229.226 24.3523 225.646 24.9867 225.301C26.1409 224.674 27.0779 226.965 28.284 225.763C30.1874 223.867 25.5432 222.471 24.3449 222.791Z" fill="#FF8851"/>
        <path fill-rule="evenodd" clip-rule="evenodd" d="M39.7395 221.068C38.1463 221.082 34.7827 223.338 34.5445 225.004C34.403 225.993 35.059 226.944 36.126 226.958C37.5788 226.975 38.0402 225.087 39.2996 224.691C40.6579 224.265 40.4562 225.247 41.6294 225.755C42.4881 226.128 43.5618 225.972 43.8597 224.916C44.4228 222.925 41.3769 221.037 39.7395 221.068Z" fill="#FF8851"/>
        <path fill-rule="evenodd" clip-rule="evenodd" d="M27.5436 230.605C24.9951 232.098 29.1884 235.299 30.6421 235.7C32.8366 236.304 37.2536 235.176 37.7736 232.495C37.9808 231.428 37.3132 230.462 36.1357 230.653C35.1664 230.81 34.5447 232.027 33.6467 232.462C32.4343 233.05 31.3568 233.01 30.327 232.125C29.4879 231.404 29.0385 229.733 27.5436 230.605Z" fill="#FF8851"/>
        <path fill-rule="evenodd" clip-rule="evenodd" d="M29.3905 252.671C27.1135 253.157 24.799 252.831 22.5111 253.288C20.1781 253.753 18.7838 254.634 16.6163 253.746C16.5143 253.703 16.4126 253.661 16.3109 253.617C14.6333 252.895 12.875 252.681 11.1189 253.832C10.0797 254.514 6.9251 256.871 7.30529 258.31C8.12928 261.428 11.679 256.538 12.5841 256.062C14.3102 255.153 15.4936 256.314 17.2706 256.641C19.3992 257.034 21.1119 255.909 23.117 255.461C25.4621 254.937 28.1002 254.755 30.486 254.474C31.4283 254.363 34.9987 255.109 35.3209 253.936C35.8746 251.921 30.2853 252.481 29.3905 252.671Z" fill="#FAD8C8"/>
        <path fill-rule="evenodd" clip-rule="evenodd" d="M45.8175 258.951C45.8474 258.973 45.9667 259.064 45.8175 258.951V258.951ZM52.1945 252.549C54.1436 252.351 60.3802 250.959 61.6606 252.973C62.495 254.285 61.171 259.127 59.9089 259.753C58.8993 260.254 56.549 259.7 55.4416 259.661C53.381 259.589 51.3165 259.557 49.258 259.428C48.5678 259.385 46.3469 259.512 45.8059 258.901C45.1671 258.18 45.1953 254.334 45.045 253.38C46.8371 253.961 50.3207 252.739 52.1945 252.549ZM56.3567 250.574C53.8606 250.683 51.3645 250.87 48.8867 251.205C47.5057 251.392 46.106 251.888 44.8306 252.123C44.4194 252.199 43.7519 251.988 43.2479 252.232C41.7741 252.944 43.0645 257.757 43.4198 259.042C43.9657 261.018 45.339 261.338 47.2637 261.523C49.7985 261.769 52.3852 261.692 54.9283 261.661C57.379 261.631 60.6842 262.174 62.0596 259.715C62.9487 258.124 63.902 254.421 63.1421 252.649C62.1425 250.317 58.4096 250.488 56.3567 250.574Z" fill="#FAD8C8"/>
        <path fill-rule="evenodd" clip-rule="evenodd" d="M84.3131 260.274C84.1794 260.445 84.1794 260.445 84.3131 260.274V260.274ZM84.8602 259.615C84.627 259.879 84.8188 259.677 84.8602 259.615V259.615ZM78.9065 259.434C80.0073 259.226 81.1081 259.021 82.2094 258.82C81.1666 260.281 80.0681 259.677 78.2854 259.55C78.4926 259.511 78.6998 259.472 78.9065 259.434ZM73.6568 258.916C73.9353 258.823 74.2144 258.73 74.4934 258.637C74.4846 258.849 74.5304 259.048 74.6299 259.233C74.1525 259.182 73.6756 259.126 73.1987 259.067C73.3512 259.017 73.5043 258.967 73.6568 258.916ZM71.2237 257.12C71.2082 256.737 71.784 257 72.1145 256.974C71.4779 257.535 71.1806 257.583 71.2237 257.12ZM79.9244 252.774C80.0084 252.667 80.1195 252.672 80.2576 252.79C80.1067 252.841 79.5265 253.087 79.9244 252.774ZM85.567 252.11C85.5819 252.11 85.8952 252.533 85.567 252.11V252.11ZM85.409 251.972C85.4907 252.035 85.4907 252.035 85.409 251.972V251.972ZM84.7044 251.89C85.7709 253.438 85.8582 252.085 84.7044 251.89V251.89ZM71.1502 251.798C70.9159 251.992 70.996 251.803 71.1502 251.798V251.798ZM75.5621 248.915C73.6037 249.029 70.0079 248.914 68.3722 249.958C66.2375 251.32 67.361 256.009 67.5522 258.065C67.834 261.103 69.2641 261.968 72.1255 262.287C75.5406 262.668 79.0491 262.739 82.4818 262.649C85.5731 262.567 87.3337 261.504 87.9001 258.249C88.0736 257.254 88.5135 255.713 88.4997 254.759C88.4903 254.097 88.1604 253.795 88.036 253.233C87.3259 250.029 86.1384 249.65 82.8554 249.51C80.4389 249.407 77.9334 248.791 75.5621 248.915Z" fill="#F7BA9D"/>
    </g>
    <g opacity="0.5">
        <path fill-rule="evenodd" clip-rule="evenodd" d="M296.775 174.604C296.773 177.741 296.614 180.944 297.193 184.044C297.368 184.983 297.506 186.781 298.496 187.267C299.491 187.757 300.455 187.207 300.702 186.188C300.99 185.002 300.358 183.226 300.294 181.981C300.206 180.28 300.2 178.577 300.2 176.874C300.199 175.644 300.604 173.665 299.151 173.032C298.072 172.561 296.775 173.436 296.775 174.604Z" fill="#FAD8C8"/>
        <path fill-rule="evenodd" clip-rule="evenodd" d="M346.38 169.641C335.984 170.685 325.438 170.901 315.005 171.445C310.182 171.697 304.353 171.376 299.81 173.243C298.966 173.59 295.944 175.519 298.397 176.305C299.162 176.55 299.939 175.726 300.567 175.45C301.612 174.991 302.823 174.849 303.938 174.669C313.419 173.147 323.335 173.412 332.914 172.7C335.368 172.518 337.823 172.331 340.273 172.09C342.022 171.917 345.7 170.656 347.314 171.301C350.074 172.404 350.009 179.565 350.063 182.028C350.092 183.302 348.856 187.874 351.313 187.411C353.28 187.04 352.568 182.29 352.415 180.991C352.013 177.584 351.327 169.139 346.38 169.641Z" fill="#FAD8C8"/>
        <path fill-rule="evenodd" clip-rule="evenodd" d="M350.214 187.246C341.184 188.061 331.946 187.261 322.878 187.582C318.126 187.75 313.378 188.018 308.624 188.175C306.569 188.243 304.511 188.246 302.454 188.26C301.47 188.267 296.994 188.863 299.763 190.814C300.989 191.677 304.897 190.982 306.304 190.965C308.418 190.94 310.53 190.852 312.642 190.769C317.533 190.578 322.422 190.313 327.317 190.181C331.998 190.054 336.683 190.027 341.364 189.9C343.693 189.837 346.055 189.765 348.364 189.425C348.885 189.349 350.577 189.287 350.939 188.706C351.281 188.157 351.04 187.166 350.214 187.246Z" fill="#F7BA9D"/>
        <path fill-rule="evenodd" clip-rule="evenodd" d="M305.833 180.466C305.785 180.581 305.785 180.581 305.833 180.466V180.466ZM309.743 179.278C309.886 179.338 309.886 179.338 309.743 179.278V179.278ZM309.56 179.244C311.668 181.392 308.427 183.956 306.453 181.86C304.358 179.635 308.204 179.252 309.56 179.244ZM307.325 175.995C300.067 177.287 302.636 186.96 309.416 185.562C312.393 184.949 314.095 181.95 313.07 179.07C312.67 177.945 311.797 176.71 310.583 176.355C309.977 176.179 309.441 176.457 308.864 176.391C308.314 176.329 308.008 175.872 307.325 175.995Z" fill="#FAD8C8"/>
        <path fill-rule="evenodd" clip-rule="evenodd" d="M335.105 178.718C330.729 178.732 326.35 178.917 321.974 179.001C320.631 179.026 317.181 178.425 317.176 180.541C317.17 182.803 321.013 181.968 322.292 181.937C326.633 181.833 330.986 181.643 335.309 181.23C336.402 181.125 340.182 181.306 340.179 179.82C340.174 178.246 335.987 178.718 335.105 178.718Z" fill="#FAD8C8"/>
        <path fill-rule="evenodd" clip-rule="evenodd" d="M345.56 193.476C334.734 193.767 323.925 193.868 313.108 194.423C309.062 194.63 305.022 194.784 300.97 194.784C300.19 194.784 298.618 194.482 297.884 194.973C295.89 196.306 298.16 197.45 299.459 197.522C308.345 198.015 317.36 196.788 326.241 196.511C331.44 196.349 336.64 196.301 341.836 196.036C343.254 195.964 344.672 195.88 346.087 195.77C346.901 195.707 349.053 195.88 349.711 195.404C352.583 193.325 346.528 193.451 345.56 193.476Z" fill="#F7BA9D"/>
        <path fill-rule="evenodd" clip-rule="evenodd" d="M295.89 198.77C295.788 201.577 295.778 204.335 296.145 207.126C296.289 208.224 296.356 209.47 297.643 209.75C298.812 210.003 299.405 209.118 299.647 208.138C300.239 205.744 299.719 202.298 299.711 199.81C299.708 198.58 299.707 197.204 298.187 196.926C297.028 196.714 295.934 197.551 295.89 198.77Z" fill="#F7BA9D"/>
        <path fill-rule="evenodd" clip-rule="evenodd" d="M357.034 205.536C339.51 206.46 322.009 207.266 304.473 208.007C303.105 208.065 292.481 207.949 296.195 211.654C297.342 212.799 300.298 212.023 301.782 211.951C304.011 211.841 306.242 211.758 308.472 211.644C317.311 211.194 326.174 211.073 335.007 210.568C339.868 210.29 344.718 209.855 349.554 209.289C351.854 209.02 354.709 209.048 356.863 208.146C357.972 207.683 359.167 205.423 357.034 205.536Z" fill="#F7BA9D"/>
        <path fill-rule="evenodd" clip-rule="evenodd" d="M346.959 191.299C345.626 192.626 346.311 195.244 346.411 196.885C346.55 199.142 346.718 201.401 346.999 203.647C347.183 205.105 347.086 207.374 347.864 208.634C348.775 210.11 350.781 209.946 351.605 208.521C352.334 207.261 351.965 204.609 351.946 203.212C351.92 201.28 351.799 199.345 351.685 197.417C351.589 195.806 351.954 193.224 351.068 191.845C350.167 190.444 348.207 190.056 346.959 191.299Z" fill="#F7BA9D"/>
        <path fill-rule="evenodd" clip-rule="evenodd" d="M306.904 201.599C306.748 201.719 306.748 201.719 306.904 201.599V201.599ZM310.016 201.209C312.921 201.793 308.225 205.183 306.74 202.856C306.509 202.493 306.388 202.046 306.76 201.73C307.1 201.441 307.313 201.952 307.634 201.815C308.187 201.578 309.427 201.186 310.016 201.209ZM309.616 198.425C307.633 198.581 304.907 198.704 303.926 200.692C302.607 203.361 304.862 205.976 307.47 206.382C309.981 206.773 313.729 205.383 313.93 202.455C314.092 200.095 311.847 198.244 309.616 198.425Z" fill="#F7BA9D"/>
        <path fill-rule="evenodd" clip-rule="evenodd" d="M326.17 199.836C324.118 199.87 320.083 199.263 318.294 200.263C316.525 201.253 317.314 203.016 318.928 203.438C319.995 203.716 321.739 203.267 322.85 203.222C324.312 203.162 325.774 203.149 327.237 203.129C329.696 203.096 332.154 203.124 334.613 203.124C337.125 203.124 339.68 203.192 342.187 203.008C345.36 202.774 345.275 200.398 342.172 200.102C336.901 199.597 331.459 199.754 326.17 199.836Z" fill="#F7BA9D"/>
        <path fill-rule="evenodd" clip-rule="evenodd" d="M320.927 226.444C320.927 227.573 321.928 226.444 321.921 226.444C321.928 226.444 320.927 225.315 320.927 226.444Z" fill="#F7BA9D"/>
        <path fill-rule="evenodd" clip-rule="evenodd" d="M298.272 217.358C298.337 220.639 298.38 223.923 298.519 227.201C298.564 228.238 298.267 230.262 299.524 230.79C300.922 231.379 301.357 229.912 301.518 228.919C302.029 225.771 301.528 222.177 301.479 218.992C301.463 217.923 301.694 216.434 300.48 215.901C299.489 215.465 298.253 216.273 298.272 217.358Z" fill="#F7BA9D"/>
        <path fill-rule="evenodd" clip-rule="evenodd" d="M352.227 217.409C352.31 217.605 352.31 217.605 352.227 217.409V217.409ZM352.345 217.376C352.412 217.404 352.683 217.518 352.345 217.376V217.376ZM325.84 214.724C320.803 214.803 315.763 214.863 310.729 215.078C308.581 215.171 306.408 215.245 304.267 215.447C302.751 215.591 298.984 215.651 298.001 216.89C295.971 219.448 300.275 218.75 301.202 218.542C302.889 218.164 304.611 218.043 306.334 217.952C310.074 217.755 313.815 217.65 317.559 217.574C327.713 217.369 337.875 217.401 348.03 217.355C349.014 217.351 350.791 216.955 351.699 217.353C352.609 217.751 352.557 218.732 352.652 219.869C352.777 221.383 351.779 224.269 352.54 225.542C353.72 227.518 355.436 225.84 355.699 224.4C356.061 222.41 355.487 220.021 354.924 218.118C354.131 215.435 353.029 215.328 350.433 215.118C347.4 214.873 344.378 214.725 341.335 214.696C336.171 214.649 331.004 214.644 325.84 214.724Z" fill="#F7BA9D"/>
        <path fill-rule="evenodd" clip-rule="evenodd" d="M345.761 228.287C334.836 229.555 323.601 228.808 312.618 228.852C309.947 228.864 307.274 228.885 304.606 229.014C303.197 229.082 299.856 228.694 298.891 229.781C296.856 232.073 300.522 232.406 301.86 232.312C304.566 232.119 307.278 232.032 309.992 232.011C319.547 231.937 329.157 232.382 338.705 231.911C342.706 231.713 346.616 231.029 350.543 230.264C351.412 230.095 357.367 228.963 353.971 227.606C351.965 226.805 347.869 228.041 345.761 228.287Z" fill="#F7BA9D"/>
        <path fill-rule="evenodd" clip-rule="evenodd" d="M313.864 224.091C313.788 224.189 313.788 224.189 313.864 224.091V224.091ZM313.791 224.074C313.685 224.318 313.765 224.144 313.791 224.074V224.074ZM313.102 223.186C313.118 223.206 313.183 223.289 313.102 223.186V223.186ZM313.075 223.179C313.338 223.493 313.516 223.843 313.607 224.229C311.343 224.843 310.471 223.011 313.075 223.179ZM312.932 223.093C312.933 223.094 313.251 223.228 312.932 223.093V223.093ZM309.214 220.365C307.749 222.189 306.54 224.315 308.366 226.399C309.999 228.262 313.285 228.503 315.357 227.259C317.492 225.977 317.308 223.279 315.818 221.518C314.859 220.384 314.083 220.415 312.691 220.23C311.744 220.104 310.018 219.368 309.214 220.365Z" fill="#F7BA9D"/>
        <path fill-rule="evenodd" clip-rule="evenodd" d="M324.357 223.741C324.357 226.171 334.846 225.125 336.712 225.122C338.275 225.12 347.727 225.982 347.048 223.482C346.491 221.428 337.181 222.449 335.198 222.446C333.485 222.444 324.357 221.267 324.357 223.741Z" fill="#F7BA9D"/>
    </g>
    <g opacity="0.5">
        <path fill-rule="evenodd" clip-rule="evenodd" d="M288.259 48.3949C288.263 48.6381 288.266 48.8663 288.271 49.0768C288.385 53.6656 288.319 58.4898 287.946 63.0681C287.817 64.6491 286.667 66.6523 285.355 64.4734C284.778 63.5152 284.86 61.5479 284.919 60.1007C284.935 59.7122 284.949 59.3618 284.949 59.0778C284.948 57.4631 285.033 55.8318 285.118 54.1956C285.284 50.9977 285.451 47.7826 284.978 44.6416C284.969 44.5781 284.959 44.5173 284.951 44.4582C284.745 43.0772 284.731 42.9816 283.212 43.0131C282.579 43.0264 281.945 43.0435 281.313 43.0607C280.69 43.0772 280.067 43.0944 279.444 43.1071C278.825 43.1203 278.207 43.1319 277.589 43.1441C275.649 43.1811 273.709 43.2187 271.77 43.2894C271.447 43.3016 270.843 43.3773 270.081 43.4729C268.558 43.6635 266.403 43.9343 264.589 43.9326C264.59 43.9404 264.59 43.9481 264.591 43.9559C264.592 43.9702 264.593 43.984 264.593 43.9984C264.613 44.9997 264.355 46.1171 264.096 47.24C263.88 48.1805 263.662 49.1249 263.606 50.0068C263.473 52.1062 263.471 54.2276 263.47 56.3496C263.468 58.933 263.466 61.5164 263.227 64.0595C263.215 64.1838 263.208 64.3148 263.201 64.4474C263.2 64.4651 263.199 64.4828 263.198 64.5005C263.281 64.4878 263.36 64.4789 263.437 64.474C264.744 64.3911 266.062 64.3839 267.379 64.3761C268.105 64.3723 268.83 64.3684 269.552 64.3513C270.85 64.3214 272.163 64.3231 273.482 64.3242C276.392 64.3275 279.329 64.3308 282.176 63.9954C283.017 63.8865 283.311 64.9647 282.933 65.5239C282.596 66.0246 281.666 66.1058 280.985 66.1649C280.812 66.1804 280.655 66.1937 280.528 66.2124C278.692 66.4843 276.831 66.5794 274.978 66.6617C273.032 66.7479 271.084 66.812 269.138 66.8662C268.674 66.8794 268.056 66.9419 267.37 67.0109C265.559 67.1939 263.279 67.4243 262.148 66.9126C260.932 66.3622 260.961 65.7516 261.457 65.2785C261.239 64.7994 261.205 64.1004 261.178 63.5533C261.168 63.3444 261.159 63.1577 261.141 63.014C260.871 60.8362 260.708 58.686 260.704 56.4894C260.697 52.1869 260.705 47.718 261.896 43.553C261.419 43.3441 261.131 43.0363 261.133 42.5931C261.138 40.3584 268.093 40.4723 271.399 40.5264C271.99 40.5358 272.464 40.5436 272.762 40.5358C275.17 40.4728 277.579 40.4645 279.987 40.4778C280.496 40.4805 281.063 40.4468 281.65 40.4126C282.898 40.3391 284.239 40.2606 285.317 40.5109C288.15 41.1685 288.218 45.68 288.259 48.3949Z" fill="#F7BA9D"/>
        <path fill-rule="evenodd" clip-rule="evenodd" d="M305.975 41.0006C308.605 40.8614 311.236 40.8299 313.869 40.8199C316.657 40.8061 319.449 40.8558 322.236 40.9415L322.3 40.9437C323.535 40.9807 330.398 41.1868 327.245 42.8971C327.062 42.9972 326.854 43.0801 326.628 43.1497C326.762 43.9416 326.778 44.7589 326.757 45.1529C326.675 46.6465 326.622 48.1424 326.568 49.6378C326.532 50.6512 326.495 51.6647 326.45 52.6776C326.326 55.476 326.208 58.2749 326.112 61.075C326.1 61.4187 326.118 61.868 326.138 62.3692C326.205 64.0253 326.295 66.2451 325.396 67.0657C324.606 67.7858 324.067 67.6415 323.703 67.1519C321.444 67.8084 316.804 67.5951 314.472 67.4879C313.909 67.4619 313.481 67.442 313.253 67.442C312.844 67.4426 312.083 67.4934 311.124 67.5581C307.129 67.8261 299.672 68.3273 299.657 66.3578C299.655 66.1683 299.717 65.9986 299.833 65.8461C299.516 65.5234 299.231 65.0493 299.049 64.4575C298.392 62.3333 298.33 60.0416 298.282 57.8389C298.212 54.7289 298.212 51.615 298.211 48.5022C298.211 46.903 298.21 45.3043 298.201 43.7067C297.774 43.1331 298.027 42.4772 298.56 42.0196C299.695 41.0459 302.511 41.0343 304.548 41.0255C305.096 41.0233 305.588 41.0211 305.975 41.0006ZM301.696 64.9824C304.23 64.4414 308.501 64.6155 310.789 64.7089C311.389 64.7332 311.852 64.752 312.113 64.7509C314.45 64.742 316.787 64.7746 319.122 64.868C319.364 64.8774 319.723 64.8686 320.145 64.8575C320.993 64.8365 322.098 64.8083 323.037 64.9128C323.024 64.7851 323.016 64.6691 323.011 64.5685C322.906 62.4896 322.982 60.3931 323.057 58.3081C323.073 57.8649 323.089 57.4223 323.103 56.9807C323.154 55.4219 323.22 53.8635 323.287 52.3057V52.3046C323.329 51.3238 323.37 50.3429 323.408 49.362C323.425 48.9316 323.4 48.3464 323.372 47.6888C323.316 46.3504 323.246 44.7091 323.486 43.4481C322.621 43.4321 321.736 43.3707 320.923 43.3144C320.14 43.2602 319.425 43.211 318.863 43.2105C318.15 43.2105 317.438 43.2083 316.725 43.2061C314.75 43.2 312.776 43.1939 310.801 43.2331C310.615 43.237 310.427 43.2403 310.239 43.2442C307.521 43.2967 304.779 43.3497 302.082 43.7078C301.924 43.7288 301.735 43.7691 301.524 43.8183C301.82 45.0539 301.675 46.7952 301.549 48.3198C301.487 49.0603 301.429 49.75 301.429 50.3059C301.425 53.7629 301.516 57.2062 301.607 60.6462C301.642 61.9475 301.676 63.2484 301.705 64.5492C301.709 64.7045 301.706 64.8487 301.696 64.9824Z" fill="#F7BA9D"/>
        <path fill-rule="evenodd" clip-rule="evenodd" d="M272.846 66.7662C271.118 67.7758 272.05 71.8147 272.649 73.2112C273.633 75.5083 275.63 77.3054 277.785 78.4974C282.141 80.9067 288.419 80.2668 291.713 84.4444C291.748 84.4876 292.886 85.6149 293.145 84.1549C293.358 82.9568 291.233 81.1272 290.409 80.5271C288.066 78.819 285.062 78.2686 282.353 77.4154C279.463 76.5058 276.293 74.8286 275.081 71.8496C274.652 70.7946 275.47 65.2266 272.846 66.7662Z" fill="#FAD8C8"/>
        <path fill-rule="evenodd" clip-rule="evenodd" d="M312.354 68.7079C310.77 69.1445 311.818 71.3239 311.815 72.4148C311.812 73.7764 311.377 75.201 310.538 76.2874C308.41 79.0421 304.244 79.4549 301.121 80.2451C298.853 80.8187 293.427 82.0494 293.215 85.1169C292.978 88.5419 297.768 84.3736 298.173 84.2029C302.65 82.5605 308.443 82.2433 311.899 78.6282C313.325 77.1356 314.168 75.1441 314.302 73.0884C314.377 71.9307 314.391 68.1514 312.354 68.7079Z" fill="#FAD8C8"/>
        <path fill-rule="evenodd" clip-rule="evenodd" d="M279.63 99.0894C279.593 92.7522 285.658 88.9183 291.142 87.4765C297.734 85.7397 303.874 90.3583 304.651 97.0028C305.471 104.015 300.187 109.66 293.217 109.969C287.087 110.241 279.669 105.852 279.63 99.0894ZM294.355 90.5236C294.712 91.0082 295.033 91.7818 294.315 92.2029C293.624 92.6058 293.279 92.1217 292.932 91.6343C292.712 91.3265 292.492 91.0176 292.182 90.9303C291.381 90.7048 290.094 91.5475 289.426 92.0388C289.155 92.2383 288.77 92.6677 288.319 93.17C286.884 94.7675 284.79 97.1006 283.631 95.093C279.014 103.067 290.526 109.034 297.072 106.016C304.261 102.702 302.862 90.5866 294.355 90.5236Z" fill="#F7BA9D"/>
        <path fill-rule="evenodd" clip-rule="evenodd" d="M288.322 96.968C288.322 98.4225 290.619 98.4225 290.619 96.968C290.619 95.5296 288.322 95.4683 288.322 96.968Z" fill="#F7BA9D"/>
        <path fill-rule="evenodd" clip-rule="evenodd" d="M292.363 96.6951C292.363 98.4766 295.178 98.4766 295.178 96.6951C295.178 94.9334 292.363 94.8582 292.363 96.6951Z" fill="#F7BA9D"/>
        <path fill-rule="evenodd" clip-rule="evenodd" d="M289.471 100.847C287.169 102.201 293.752 104.892 294.012 102.142C294.124 100.956 292.975 101.276 292.209 101.189C291.477 101.105 290.166 100.442 289.471 100.847Z" fill="#F7BA9D"/>
        <path fill-rule="evenodd" clip-rule="evenodd" d="M288.472 110.454C288.572 113.912 288.524 117.369 289.18 120.78C289.305 121.427 289.391 123.777 289.903 124.258C291.163 125.442 291.183 123.173 291.232 122.304C291.407 119.19 291.08 115.979 291.008 112.858C290.993 112.186 291.17 110.795 290.853 110.145C290.35 109.113 288.423 108.806 288.472 110.454Z" fill="#FAD8C8"/>
        <path fill-rule="evenodd" clip-rule="evenodd" d="M286.01 107.649C280.963 113.314 274.013 112.897 267.012 113.393C263.312 113.655 259.572 114.193 256.595 116.586C255.21 117.7 254.017 119.094 253.214 120.682C252.864 121.377 251.201 125.385 253.698 124.435C254.585 124.097 255.457 121.447 256.029 120.663C257.121 119.169 258.517 117.937 260.192 117.135C263.423 115.59 267.281 115.616 270.785 115.42C274.447 115.215 278.377 115.023 281.744 113.431C283.328 112.681 284.813 111.747 286.088 110.543C286.543 110.113 287.52 109.382 287.593 108.724C287.676 107.972 286.953 106.594 286.01 107.649Z" fill="#FAD8C8"/>
        <path fill-rule="evenodd" clip-rule="evenodd" d="M260.532 125.036C255.791 125.194 251.056 125.386 246.321 125.686C245.352 125.748 242.117 125.551 242.941 127.54C243.601 129.133 247.546 128.079 248.851 128.002C253.784 127.709 258.737 127.607 263.66 127.163C264.766 127.064 269.765 127.103 267.7 125.144C266.719 124.211 261.888 124.99 260.532 125.036Z" fill="#F7BA9D"/>
        <path fill-rule="evenodd" clip-rule="evenodd" d="M239.93 127.322C238.436 129.285 239.123 134.055 239.235 136.415C239.345 138.701 238.9 142.881 241.885 143.236C240.937 143.112 242.604 143.294 242.876 143.308C243.481 143.341 244.09 143.351 244.697 143.358C246.099 143.373 247.502 143.355 248.903 143.326C252.078 143.263 255.261 143.17 258.432 142.995C259.764 142.921 266.995 142.983 267.281 141.598C267.647 139.829 260.714 140.83 259.473 140.887C256.451 141.025 253.424 141.055 250.399 141.094C248.9 141.114 247.399 141.129 245.9 141.099C245.28 141.087 242.829 141.341 242.453 140.928C242.131 140.577 242.382 137.344 242.375 136.849C242.353 135.237 242.355 133.622 242.412 132.011C242.451 130.926 243.037 128.862 242.559 127.843C242.094 126.852 240.74 126.514 239.93 127.322Z" fill="#F7BA9D"/>
        <path fill-rule="evenodd" clip-rule="evenodd" d="M264.342 127.414C264.428 131.005 264.455 134.668 265.303 138.179C265.586 139.348 265.981 141.757 267.155 142.363C268.387 142.997 269.451 142.091 269.531 140.87C269.633 139.335 268.811 137.32 268.642 135.745C268.445 133.908 268.331 132.069 268.263 130.222C268.213 128.833 268.635 126.751 267.311 125.856C266.122 125.051 264.303 125.861 264.342 127.414Z" fill="#F7BA9D"/>
        <path fill-rule="evenodd" clip-rule="evenodd" d="M273.776 126.538C272.302 128.006 272.961 132.657 273.145 134.544C273.28 135.926 274.793 142.726 277.06 139.18C278.063 137.611 276.789 133.464 276.798 131.635C276.803 130.47 277.216 128.997 277.017 127.878C276.754 126.4 275.114 125.202 273.776 126.538Z" fill="#F7BA9D"/>
        <path fill-rule="evenodd" clip-rule="evenodd" d="M283.986 125.325C288.414 124.868 292.848 124.526 297.302 124.483C297.516 124.482 297.74 124.479 297.974 124.476C301.026 124.437 305.612 124.379 307.666 126.671C308.785 127.919 309.292 129.85 309.734 131.532C309.816 131.846 309.897 132.151 309.978 132.442C310.047 132.69 310.138 132.973 310.236 133.279C310.697 134.723 311.322 136.678 310.688 137.888C310.341 138.551 309.783 139.117 308.935 138.882C308.737 138.827 308.581 138.757 308.46 138.674C308.785 139.025 308.928 139.527 308.717 140.016C308.31 140.963 307.021 140.984 306.006 140.999C305.76 141.003 305.53 141.007 305.332 141.024C301.951 141.305 298.554 141.493 295.161 141.523C293.545 141.537 291.929 141.524 290.313 141.511C288.651 141.497 286.987 141.483 285.325 141.5C284.117 141.512 282.888 141.627 281.658 141.741C280.106 141.886 278.552 142.031 277.042 141.969C275.913 141.923 274.706 141.553 274.993 140.093C275.226 138.901 276.348 138.797 277.353 138.704C277.441 138.696 277.527 138.688 277.612 138.679C280.814 138.353 284.016 138.238 287.233 138.25C293.992 138.273 300.746 138.238 307.504 138.203C307.782 138.226 308.044 138.332 308.259 138.493C308.016 138.198 308.021 137.805 308.026 137.386C308.028 137.197 308.03 137.002 308.01 136.809C307.969 136.42 307.931 136.034 307.893 135.647C307.768 134.371 307.644 133.105 307.401 131.822C307.364 131.628 307.329 131.414 307.291 131.189C307.069 129.857 306.777 128.091 305.717 127.372C304.652 126.648 302.563 126.683 300.935 126.71C300.496 126.717 300.09 126.724 299.746 126.715C295.402 126.603 291.034 126.912 286.709 127.305C286.377 127.335 286.044 127.364 285.711 127.393C284.066 127.536 282.412 127.681 280.791 127.975C280.494 128.029 280.041 128.187 279.521 128.369C278.137 128.851 276.282 129.498 275.652 128.785C273.564 126.424 282.74 125.454 283.986 125.325Z" fill="#F7BA9D"/>
        <path fill-rule="evenodd" clip-rule="evenodd" d="M331.103 119.949C331.296 120.196 331.296 120.196 331.103 119.949V119.949ZM301.133 105.318C298.443 106.899 303.421 111.538 304.69 112.255C307.543 113.87 311.465 114.114 314.651 114.567C318.684 115.143 323.073 115.354 326.949 116.675C328.601 117.239 329.65 118.117 330.731 119.468C331.279 120.152 332.598 123.102 333.8 122.403C336.219 120.997 329.7 115.097 328.264 114.462C324.999 113.02 321.14 112.616 317.649 112.056C314.403 111.535 311.087 111.148 307.921 110.229C306.181 109.725 304.943 108.91 303.94 107.351C303.314 106.38 302.801 104.342 301.133 105.318Z" fill="#FAD8C8"/>
        <path fill-rule="evenodd" clip-rule="evenodd" d="M342.367 123.44C339.266 123.509 336.171 123.748 333.076 123.986C331.34 124.12 329.604 124.253 327.868 124.357C327.325 124.39 326.781 124.419 326.237 124.448C324.707 124.531 323.175 124.613 321.653 124.767C321.422 124.79 321.154 124.813 320.861 124.836C319.568 124.942 317.805 125.087 316.679 125.559C315.646 124.778 314.052 125.442 314.027 126.835C313.984 129.371 314.007 131.863 314.317 134.384C314.389 134.969 314.758 137.931 315.563 139.474C315.277 140.93 316.518 141.338 317.674 141.45C322.15 141.882 326.843 141.546 331.473 141.216C333.828 141.047 336.167 140.881 338.452 140.816C339.212 140.794 339.981 140.786 340.756 140.777C343.282 140.749 345.857 140.72 348.303 140.242C348.401 140.223 348.507 140.204 348.617 140.184C349.584 140.011 350.918 139.772 351.02 138.708C351.08 138.069 350.72 137.484 350.117 137.402C350.159 136.87 350.092 136.289 350.043 135.862C350.031 135.763 350.02 135.672 350.013 135.592C349.866 134.112 349.497 132.641 349.133 131.19C349.051 130.863 348.97 130.537 348.891 130.214C348.804 129.854 348.723 129.427 348.636 128.966C348.328 127.34 347.942 125.297 346.914 124.348C345.836 123.354 344.082 123.397 342.676 123.433C342.571 123.435 342.467 123.438 342.367 123.44ZM347.824 137.561C347.456 136.598 347.349 135.297 347.246 134.06C347.182 133.283 347.12 132.532 346.997 131.906C346.904 131.436 346.829 130.941 346.752 130.437C346.565 129.215 346.371 127.944 345.912 126.873C345.297 125.438 344.75 125.492 343.456 125.622C343.216 125.646 342.949 125.673 342.652 125.693C341.332 125.783 340.014 125.897 338.697 126.011C338.065 126.066 337.433 126.121 336.801 126.173C334.095 126.395 331.388 126.566 328.681 126.737C327.099 126.837 325.517 126.936 323.935 127.047C322.694 127.133 321.482 127.369 320.276 127.604C319.321 127.79 318.368 127.976 317.406 128.086C317.393 128.414 317.365 128.744 317.338 129.059C317.303 129.487 317.269 129.886 317.277 130.213C317.308 131.661 317.436 133.101 317.564 134.543C317.584 134.765 317.603 134.986 317.623 135.209C317.646 135.474 317.703 135.816 317.767 136.195C317.865 136.781 317.978 137.457 318.003 138.078C318.12 138.078 318.236 138.078 318.351 138.078C318.499 138.079 318.644 138.079 318.784 138.077C322.193 138.018 325.599 137.914 329.006 137.783C329.44 137.767 329.875 137.749 330.31 137.733C333.35 137.615 336.389 137.496 339.431 137.461C340.639 137.447 341.863 137.485 343.092 137.523C344.672 137.572 346.258 137.621 347.824 137.561Z" fill="#F7BA9D"/>
    </g>
</svg>