<svg width="360" height="270" viewBox="0 0 360 270" fill="none" xmlns="http://www.w3.org/2000/svg">
    <path fill-rule="evenodd" clip-rule="evenodd" d="M215.156 77.195C218.95 75.0649 221.165 71.2462 223.358 67.4662C223.688 66.8978 224.017 66.3303 224.351 65.7696C224.574 65.3941 224.819 65.0071 225.068 64.6126V64.6123C225.726 63.5699 226.417 62.4748 226.848 61.4025C227.037 60.9335 227.2 60.2455 227.365 59.5501C227.559 58.7299 227.755 57.8995 227.999 57.4077C228.532 56.3333 232.578 55.8443 235.333 55.5114C236.243 55.4013 237.012 55.3085 237.468 55.2168C242.311 54.245 248.099 53.6621 252.056 57.4534C252.997 58.3544 254.05 59.1855 255.108 60.0194C256.375 61.0189 257.648 62.0227 258.737 63.1557C260.486 64.9754 262.841 68.0365 263.672 70.4675C259.409 71.2891 252.325 73.806 250.628 78.2796C244.379 72.5435 241.741 82.0976 240.357 87.1109C240.273 87.4167 240.193 87.706 240.117 87.9736C236.714 86.5009 236.89 82.0195 237.02 78.738V78.7377C237.038 78.2778 237.056 77.8419 237.062 77.4408C237.071 76.8459 237.161 76.2261 237.249 75.6214C237.545 73.5943 237.815 71.7388 234.92 71.5753C232.11 71.4175 229.382 72.5614 226.848 73.6326C223.687 74.9696 220.37 76.9693 217.817 79.2664L215.156 77.195ZM209.016 68.259C209.015 68.368 209.014 68.4766 209.013 68.5853C209.003 69.5517 208.994 70.515 209.287 71.4466C209.457 71.9852 209.46 72.7727 209.462 73.5289C209.464 74.077 209.466 74.6089 209.531 75.0178C206.787 74.1825 201.688 72.9432 198.886 74.07C196.208 75.1468 195.871 80.1274 195.776 82.55C195.752 83.1621 195.838 83.8972 195.927 84.6601C196.078 85.9549 196.239 87.3306 195.889 88.3251C195.62 89.0919 195.628 89.3187 195.646 89.3739C195.6 89.3468 195.39 89.3387 194.62 89.8945C194.277 90.1417 193.903 90.3385 193.528 90.5361C193.081 90.7717 192.631 91.0086 192.227 91.3342C191.153 92.2008 190.786 93.1595 190.346 94.3098C190.232 94.6065 190.114 94.9162 189.977 95.2404C189.329 96.7753 187.603 98.1394 185.677 98.0838C185.922 97.6394 186.182 97.2 186.441 96.7616C187.821 94.4304 189.18 92.134 188.141 89.3591C187.228 86.9185 188.78 84.0628 190.051 81.7242L190.126 81.5871C190.204 81.4437 190.426 81.1248 190.724 80.6969C192.05 78.7922 194.879 74.7295 193.175 74.3843C191.963 74.1385 189.348 79.1986 188.382 81.0696C188.267 81.2918 188.175 81.4693 188.112 81.5871C186.452 80.4646 185.706 79.0808 186.984 77.3902C187.436 76.7921 187.935 76.2342 188.436 75.6749C189.022 75.0196 189.611 74.3625 190.126 73.6372C190.581 72.9977 191.032 72.3217 191.489 71.6372C192.592 69.9855 193.729 68.2826 195.031 66.9125C198.267 63.5094 203.915 61.1926 208.574 61.1719C208.469 62.4976 208.621 63.7713 208.774 65.0623C208.898 66.1046 209.023 67.1579 209.016 68.259ZM195.657 89.389C195.659 89.3869 195.656 89.3798 195.646 89.3739C195.651 89.3879 195.656 89.3907 195.657 89.389ZM222.157 122.633C223.075 120.704 223.877 119.018 224.351 118.166C227.214 113.013 230.05 107.904 232.734 102.656C230.605 103.468 228.802 104.713 226.975 105.974C226.699 106.164 226.423 106.354 226.145 106.543C225.183 107.2 224.133 107.792 223.078 108.388C221.493 109.282 219.896 110.184 218.564 111.318C218.262 111.574 218.018 111.859 217.786 112.13C217.254 112.749 216.782 113.299 215.823 113.289C215.167 113.283 214.239 112.606 213.409 112C212.926 111.647 212.475 111.319 212.132 111.162C211.455 110.852 210.897 110.447 210.345 110.046C209.723 109.594 209.109 109.148 208.341 108.851C207.864 108.666 207.474 108.604 207.114 108.547C206.506 108.45 205.986 108.368 205.281 107.726C204.827 110.411 198.516 109.147 194.421 108.326C193.062 108.054 191.947 107.831 191.372 107.817C191.153 107.812 190.926 107.805 190.693 107.798C188.647 107.739 186.105 107.665 184.322 108.43C182.957 109.016 181.343 110.34 179.943 111.489C179.402 111.933 178.894 112.35 178.443 112.689C176.222 114.359 174.638 116.489 173.002 118.801C170.904 121.768 174.038 121.481 176.299 121.275C176.455 121.261 176.607 121.247 176.752 121.235C181.906 120.797 186.914 121.665 191.882 122.842C196.319 123.893 200.356 125.508 204.604 127.213C205.39 127.529 206.821 128.271 208.434 129.109C211.722 130.816 215.771 132.918 216.683 132.607C217.551 132.31 220.135 126.881 222.157 122.633Z" fill="#F84E00"/>
    <path fill-rule="evenodd" clip-rule="evenodd" d="M250.953 89.2105C252.741 89.1191 254.522 89.5185 256.311 89.3445C254.758 87.9916 253.205 86.6392 251.652 85.2867C250.966 86.4915 250.916 87.8623 250.953 89.2105ZM208.513 61.4026C203.883 61.423 198.235 63.7486 195.019 67.1451C193.315 68.9451 191.906 71.3624 190.465 73.3846C189.498 74.7416 188.554 76.0512 187.381 77.2437C185.67 78.9815 186.16 79.3787 188.088 80.6872C188.698 79.544 191.933 73.431 193.289 73.7059C195.349 74.1243 191.37 80.5811 190.936 81.3854C189.649 83.7655 187.57 87.0899 188.504 89.6C189.736 92.9135 187.949 94.8018 186.398 97.6252C188.027 97.6723 188.187 97.037 188.749 95.6473C189.47 93.8613 190.257 92.3693 191.782 91.1346C192.963 90.1784 194.895 89.7758 195.45 88.6213C196.136 87.1943 195.705 84.3765 195.761 82.7889C195.845 80.3765 195.852 74.6741 198.51 73.6022C201.295 72.4793 206.302 73.5375 209.025 74.3693C208.685 72.2434 207.613 70.8551 207.627 68.4926C207.643 66.0197 208.324 63.8136 208.513 61.4026ZM172.943 100.854C175.365 100.087 177.661 99.2789 180.153 98.7565C182.761 98.2095 182.935 97.5837 184.405 95.3474C185.519 93.6522 186.871 92.331 186.555 90.255C186.353 88.9233 185.624 88.2747 185.843 86.777C185.979 85.8489 186.412 84.8357 186.725 83.9529C187.109 82.8701 187.904 81.6421 186.055 81.5886C185.034 81.5588 184.984 82.0977 184.293 83.0023C183.017 84.6732 181.549 86.1906 180.192 87.7934C177.835 90.576 175.335 93.5368 172.703 96.1124C169.806 98.9463 167.306 102.364 165.434 105.992C165.088 106.662 162.985 110.609 163.882 111.383C164.706 112.093 169.288 110.436 170.123 110.242C173.729 109.405 177.823 109.106 181.23 107.586C182.966 106.811 186.796 105.886 188.167 104.688C189.442 103.574 189.385 100.874 188.645 99.3039C186.575 100.592 171.609 105.451 172.943 100.854ZM218 78.7065C220.417 76.5237 223.273 74.7725 226.257 73.4749C228.926 72.3144 232.242 71.0207 235.211 71.2221C238.911 71.4728 237.365 74.453 237.352 76.9906C237.334 80.3582 235.859 85.209 239.879 86.9563C241.192 82.2935 243.958 71.2678 250.586 77.3773C252.28 72.8941 258.321 71.3768 262.575 70.5534C261.804 68.2883 259.461 66.238 257.838 64.5379C255.808 62.4113 254.205 59.9187 252.17 57.8322C248.151 53.7115 240.87 55.0348 235.782 56.062C234.084 56.4045 229.161 56.8348 228.338 58.0821C227.822 58.8643 228.11 60.7754 227.728 61.732C227.201 63.0497 226.3 64.2714 225.578 65.4885C222.943 69.9298 220.261 74.3999 215.751 76.9431L218 78.7065ZM232.749 102.633C230.362 103.549 228.607 105.08 226.491 106.369C223.924 107.932 220.915 109.397 218.612 111.327C217.769 112.034 217.296 113.254 216.133 113.333C215.121 113.402 213.579 112.226 212.682 111.815C211.178 111.124 209.74 110.078 208.228 109.462C206.985 108.956 206.435 109.06 205.36 108.076C204.757 111.666 193.785 108.31 191.483 108.255C189.354 108.205 186.432 108.457 184.451 109.313C182.562 110.128 181.086 111.923 179.469 113.146C177.254 114.823 175.14 116.519 173.508 118.84C171.27 122.023 174.647 121.122 176.898 120.93C182.038 120.49 187.038 121.715 191.993 122.896C196.422 123.952 200.796 125.218 205.036 126.93C207.42 127.894 209.929 128.779 212.172 130.03C213.354 130.691 215.272 132.306 216.628 131.841C217.872 131.414 219.112 127.848 219.866 126.423C221.331 123.658 222.872 120.94 224.385 118.202C227.241 113.03 230.071 107.901 232.749 102.633ZM203.385 171.083C204.856 170.239 207.253 170.466 208.879 170.112C210.717 169.712 212.564 169.061 214.316 168.381C216.091 167.694 217.767 166.99 219.389 166.13C220.13 165.736 221.118 165.349 221.804 164.803C222.356 164.363 222.557 163.545 223.066 163.146C224.395 162.104 224.785 162.758 224.963 160.748C225.156 158.565 223.932 157.329 222.407 155.696C221.042 154.234 219.269 152.97 217.554 151.942C216.795 151.487 215.985 150.975 215.211 150.541C214.04 149.884 212.47 148.791 211.855 150.202C213.135 150.528 213.418 152.163 212.262 152.751C211.628 153.073 210.667 152.599 209.952 152.942C208.848 153.472 207.785 154.949 206.84 155.745C203.737 158.357 200.77 159.337 196.708 159.547C188.222 159.984 179.335 159.016 171.012 157.759C168.869 157.434 166.731 157.785 164.569 157.708C162.465 157.633 160.272 157.173 158.204 156.817C154.221 156.133 150.022 155.57 146.101 154.564C141.359 153.346 136.6 151.771 132.147 149.731C127.877 147.774 123.049 144.54 118.252 144.291C120.299 146.295 123.367 147.068 125.829 148.388C127.841 149.466 130.989 150.159 132.26 151.936C133.088 153.093 133.503 155.217 134.128 156.573C134.82 158.074 135.458 159.599 136.098 161.123C136.741 162.655 137.411 164.189 137.933 165.768C138.256 166.747 138.395 168.778 139.159 169.447C140.377 170.516 144.454 170.99 146.096 171.346C149.161 172.01 152.656 171.922 155.783 171.968C157.075 171.987 158.377 172.163 159.611 172.187C161.345 172.22 161.179 171.92 161.155 170.415C161.14 169.511 161.159 167.867 162.367 168.612C163.191 169.119 162.624 171.365 162.472 172.164C169.372 172.851 176.572 173.197 183.44 172.967C190.193 172.74 196.714 171.87 203.385 171.083ZM234.548 155.243C235.766 146.5 237.249 137.61 238.91 128.98C240.589 120.259 242.607 111.618 244.876 102.93C243.377 102.571 241.878 102.213 240.378 101.854C240.323 103.685 239.704 105.275 239.44 107.097C239.075 109.612 238.379 112.055 237.962 114.562C237.17 119.327 235.703 123.99 234.41 128.636C233.093 133.374 232.652 138.255 231.442 143.016C230.444 146.938 229.934 151.259 229.377 155.291C228.025 165.074 226.099 174.876 224.634 184.664C223.259 193.84 223.121 203.203 223.2 212.466C223.249 218.12 224.111 223.759 224.066 229.422C224.055 230.821 224.173 232.217 224.246 233.614C224.297 234.6 223.767 237.333 224.217 238.159C224.501 238.682 225.723 239.164 226.155 239.89C226.839 241.039 226.983 242.412 228.082 243.281C228.972 239.69 228.551 234.949 228.357 231.284C228.169 227.752 228.534 224.102 228.606 220.516C228.747 213.481 229.12 206.549 229.48 199.511C229.876 191.792 231 183.886 232.098 176.225C233.097 169.26 233.763 162.171 234.548 155.243ZM201.958 45.5946C201.475 45.5493 200.993 45.5046 200.51 45.4596C200.582 46.477 200.367 48.1248 201.084 48.6557C201.628 49.0579 202.728 48.9257 203.387 49.054C205.546 49.4762 208.049 49.8295 210.192 49.0603C211.025 48.7615 210.49 48.2936 211.637 48.488C213.019 48.7228 212.514 48.9415 212.913 49.8032C213.22 50.4683 213.379 51.6004 213.727 52.3991C214.194 53.4675 215.141 55.38 214.736 56.614C214.343 57.8135 212.876 58.176 212.253 59.5344C211.789 60.5445 211.898 62.0126 211.657 63.1249C211.336 64.6085 210.93 66.0865 210.75 67.5975C210.524 69.5012 210.602 71.735 212.96 72.03C215.149 72.3046 216.715 71.6011 218.182 70.0068C220.986 66.9633 224.187 62.6672 225.834 58.8387C226.026 58.3915 226.5 57.6451 226.434 57.1663C226.303 56.2192 226.247 57.1779 225.946 56.5201C225.66 55.8912 225.21 55.3206 224.946 54.6227C223.995 52.1158 223.32 49.4878 222.939 46.8339C222.766 45.6315 222.708 44.444 222.738 43.23C222.748 42.8155 222.997 41.571 222.848 41.2869C222.697 40.9994 221.908 40.8668 221.663 40.5813C221.207 40.0522 220.424 38.5585 219.919 38.1622C219.298 37.6757 217.908 38.0613 217.655 37.0931C217.252 35.5442 226.804 33.021 222.342 30.9539C219.01 29.4106 213.899 37.2123 212.734 31.0733C212.532 30.0099 212.917 28.5665 212.45 27.592C211.934 26.5149 210.531 26.1122 209.551 25.5881C208.3 24.9198 207.037 24.233 205.821 23.5011C204.987 22.9995 203.786 21.6674 202.899 21.5454C203.248 23.3535 202.578 25.1457 202.567 26.9502C204.489 26.43 205.812 26.419 207.71 27.344C208.613 27.7842 212.018 30.2826 210.293 31.4843C208.896 30.6583 207.401 29.9419 205.843 29.4562C205.228 29.2643 204.461 29.0036 203.808 28.9903C202.291 28.9598 202.504 29.1185 201.935 30.2623C201.386 31.3641 201.504 34.2377 200.298 34.9414C199.052 35.669 200.013 34.6506 198.949 34.8857C198.342 35.02 197.681 35.4714 197.125 35.7263C197.886 36.5528 199.423 37.3072 199.928 38.2252C200.665 39.5636 200.409 42.3314 200.524 43.7957C201.489 43.4504 202.504 43.4364 203.481 43.1801C204.4 42.9386 205.675 41.8944 205.77 43.4297C205.877 45.1404 203.173 45.5946 201.958 45.5946ZM214.509 90.6386C214.584 89.1602 214.666 87.6823 214.831 86.2099C214.942 85.2213 215.881 82.354 215.35 81.4856C214.773 80.541 212.839 80.4809 211.908 80.2541C210.125 79.8192 208.414 79.4631 206.6 79.1759C204.932 78.9118 203.361 78.8563 201.681 78.7797C199.851 78.697 199.397 78.2115 198.992 80.2281C198.675 81.814 198.248 83.4656 198.189 85.0891C198.133 86.6132 198.593 87.9361 197.083 88.963C200.399 88.963 204.719 86.0102 207.745 88.6505C212.074 92.4263 204.54 93.514 202.554 94.3475C204.205 95.1502 206.657 95.7805 207.434 97.6136C208.306 99.6684 207.041 100.542 205.104 100.707C205.286 101.499 205.983 102.013 206.191 102.965C206.495 104.361 205.508 103.899 206.768 104.979C208.425 106.401 211.839 107.352 213.872 108.257C214.348 108.471 214.83 108.67 215.318 108.857C216.079 109.535 216.641 109.406 217.005 108.469C218.048 107.809 218.977 106.336 219.902 105.479C221.96 103.573 224.232 101.899 226.679 100.523C225.665 100.103 224.452 101.052 223.479 100.59C222.692 100.217 222.989 99.537 222.518 99.0282C222.706 98.3649 222.507 98.1223 221.92 98.3005C221.626 98.3318 221.352 98.2819 221.1 98.1515C220.607 97.5415 220.386 97.3418 220.354 96.4C220.319 95.4008 220.898 95.0482 221.12 94.2481C221.842 93.7562 221.826 93.2728 221.071 92.7989C220.76 92.2916 220.591 91.7414 220.563 91.1476C220.42 88.9437 222.431 88.0553 223.966 86.8895C221.218 86.5875 221.323 83.3654 223.224 81.9571C225.194 80.4967 229.366 81.0947 231.748 81.4241C232.243 81.492 233.582 82.1311 234.083 81.7236C234.39 81.474 234.173 79.3629 234.187 78.9902C234.22 78.1444 234.425 77.1358 234.29 76.2941C234.008 74.5321 234.606 75.4194 233.338 75.3706C230.319 75.2535 226.474 77.8888 223.818 79.1312C220.845 80.522 218.935 80.7357 218.904 84.1842C218.874 87.4492 217.959 90.7025 217.559 93.9158C217.384 95.3189 217.26 102.609 214.691 99.9191C213.696 98.8753 214.333 97.2708 214.407 95.9837C214.508 94.2129 214.448 92.4143 214.509 90.6386ZM48.4336 199.937C49.9035 200.198 52.2969 199.354 53.9004 199.266C56.7038 199.112 59.5908 198.845 62.3376 198.261C64.4863 197.805 66.9349 197.403 68.0937 195.323C69.1298 193.464 69.4957 191.137 70.0537 189.108C70.35 188.031 71.1147 186.469 71.1143 185.355C71.114 183.906 70.9189 184.191 69.4082 183.398C67.496 182.395 65.6356 180.997 63.573 180.428C62.9489 180.306 62.3246 180.187 61.6998 180.07C60.8916 179.601 60.4356 179.831 60.3298 180.761C59.5409 181.592 59.0786 183.126 58.4166 184.098C56.9077 186.316 55.1158 187.827 52.7747 189.106C48.5619 191.407 44.6367 193.183 40.1248 194.688C37.6382 195.517 35.3453 196.68 32.9148 197.594C30.9676 198.326 28.2803 198.549 26.7846 200.179C25.097 202.018 27.691 202.687 29.1328 203.93C30.3142 204.949 30.3372 205.183 31.9531 204.688C33.1571 204.319 34.2244 203.615 35.3805 203.137C39.3408 201.501 44.134 200.413 48.4336 199.937ZM138.941 229.107C137.465 228.788 135.989 228.468 134.513 228.149C135.964 230.859 139.017 234.824 136.826 237.96C136.007 239.132 134.645 239.466 133.428 240.06C131.956 240.78 130.596 241.701 129.204 242.559C123.463 246.094 117.628 249.678 111.579 252.712C113.473 253.323 116.384 253.746 118.335 253.213C120.606 252.593 122.709 251.169 125.04 250.546C129.224 249.43 133.627 248.479 137.877 247.906C141.351 247.438 150.046 248.496 149.624 243.272C149.223 238.311 146.26 233.579 145.378 228.675C143.215 229.156 141.151 229.072 138.941 229.107ZM226.916 149.717C228.598 141.46 229.603 133.063 231.587 124.866C232.577 120.776 233.275 116.631 234.242 112.54C234.692 110.637 235.032 108.715 235.47 106.816C235.914 104.893 236.869 103.118 237.087 101.13C235.48 101.528 235.108 105.21 234.62 106.595C233.726 109.136 232.751 111.578 231.603 114.011C229.777 117.878 227.839 121.609 225.78 125.359C223.608 129.313 221.314 133.116 218.6 136.727C217.709 137.914 216.499 138.844 215.924 140.146C215.021 142.193 214.641 144.634 213.778 146.764C214.386 147.073 215.956 147.15 216.701 147.297C218.088 147.571 219.059 147.814 220.391 148.473C222.737 149.635 224.708 151.011 226.275 153.101C226.669 152.028 226.772 150.852 226.916 149.717ZM161.526 212.714C161.498 204.762 161.385 196.742 161.516 188.849C161.552 186.658 161.73 184.293 162.048 182.118C162.247 180.751 163.422 177.845 162.65 177.19C161.99 176.629 158.508 176.998 157.653 176.978C155.996 176.94 154.344 176.866 152.683 176.741C152.683 179.689 153.834 183.035 154.369 185.95C154.868 188.67 155.278 191.404 155.689 194.136C156.58 200.052 156.834 206.049 157.801 211.981C158.677 217.359 159.834 222.715 160.471 228.092C160.821 231.044 161.528 233.829 162.079 236.779C162.366 238.317 163.414 244.654 164.733 245.276C165.012 243.004 163.872 240.259 163.668 237.961C163.458 235.588 163.294 233.199 162.91 230.814C162.458 228.013 162.23 225.144 162.057 222.309C161.951 220.574 161.919 218.845 161.769 217.111C161.66 215.854 161.184 213.947 161.526 212.714ZM202.966 106.38C203.021 105.514 200.78 105.549 200.363 104.554C199.516 102.533 201.446 102.896 202.632 102.687C202.21 101.563 194.287 101.973 196.133 98.9386C197.413 96.8334 202.269 100.056 203.566 98.0551C204.419 96.7413 202.098 96.5603 201.177 96.4288C199.792 96.2302 196.529 96.8718 196.636 95.0742C196.772 92.8158 203.116 91.257 204.895 90.5936C204.698 89.047 197.063 91.2454 195.958 91.8722C193.457 93.2911 191.54 95.8371 191.173 98.6665C190.746 101.959 192.415 104.551 195.704 105.359C197.075 105.696 198.088 105.734 199.356 106.24C200.191 106.573 202.893 107.403 203.465 106.563C203.298 106.502 203.133 106.441 202.966 106.38ZM247.791 85.9034C247.917 84.4975 249.101 81.8509 247.737 80.9274C245.829 79.6347 245.039 81.7648 244.606 83.0445C244.077 84.6068 241.855 88.4311 243.798 89.4046C244.25 89.631 246.393 89.3677 246.771 89.2183C247.824 89.4925 248.163 89.0984 247.791 88.0345V85.9034ZM201.223 199.436C201.104 195.593 202.824 190.974 203.799 187.21C204.904 182.946 205.486 178.597 206.657 174.38C205.355 174.537 204.04 174.665 202.753 174.926C200.998 175.283 200.966 175.227 201.092 176.949C201.28 179.536 201.034 182.072 200.9 184.657C200.633 189.834 201.285 195.096 200.851 200.24C201.238 200.338 201.362 200.07 201.223 199.436ZM249.836 98.7336C254.054 99.3795 258.097 100.717 261.936 102.514C264.052 103.504 266.383 104.569 268.747 104.964C271.374 105.404 274.16 105.197 276.843 105.367C277.789 105.427 280.275 105.886 281.197 105.33C282.111 104.779 282.039 103.845 282.082 102.732C282.193 99.8681 280.897 97.0644 279.731 94.4952C278.731 92.2909 277.975 90.608 276.424 88.712C274.432 86.2767 272.697 83.6488 270.831 81.107C269.424 79.1913 268.003 77.3027 266.569 75.3892C265.543 74.0188 265.592 73.5474 264.045 73.7006C262.523 73.8518 260.99 74.7518 259.556 75.2285C257.428 75.9366 254.851 76.3251 252.91 77.4571C251.655 78.189 251.599 78.3237 251.614 79.6009C251.627 80.7906 252.011 82.2418 252.722 83.1724C254.201 85.1046 256.652 86.1273 258.755 87.0913C259.972 87.6485 261.023 88.4395 262.106 89.2084C263.273 90.0374 265.628 90.5257 266.521 91.4707C269.12 94.2227 264.388 93.6789 263.065 93.5959C260.212 93.4163 257.374 93.4437 254.499 93.4416C251.361 93.4395 248.248 93.2936 245.155 93.3955C243.343 93.4553 241.264 92.5363 240.09 91.0045C239.522 90.2624 239.3 89.561 238.557 88.7911C237.583 87.7832 236.736 86.7211 235.551 85.941C233.612 84.6645 230.089 83.9424 227.781 84.4187C228.608 84.534 232.495 85.8573 230.784 87.5206C230.575 87.7231 228.075 87.8556 227.532 88.1052C226.551 88.5556 225.315 89.2102 224.74 90.1611C226.415 89.8806 232.626 89.5558 229.457 92.7694C228.68 93.5583 226.446 94.3454 228.347 95.1843C228.783 95.3769 229.657 95.1041 230.218 95.2778C231.054 95.5365 231.737 96.2281 232.519 96.5968C234.739 97.6438 237.798 98.2893 240.114 98.06C243.317 97.7422 246.655 98.3142 249.836 98.7336ZM164.899 195.563C165.008 200.179 164.841 204.823 164.94 209.46C165.045 214.413 165.68 219.266 165.983 224.169C166.255 228.563 166.848 232.874 167.33 237.247C167.608 239.766 167.927 242.174 168.353 244.674C168.753 247.014 168.821 249.075 166.024 249.704C160.678 250.907 159.847 243.215 158.813 239.974C157.271 235.137 156.282 230.059 155.517 225.045C154.095 215.707 152.203 206.499 151.464 197.081C151.01 191.282 150.351 185.542 149.976 179.749C149.903 178.613 150.193 176.864 149.196 176.358C148.596 176.055 146.944 176.052 146.187 175.832C144.078 175.219 142.133 174.315 140.075 173.378C141.536 181.014 142.018 188.612 143.114 196.315C143.695 200.403 144.807 204.638 145.771 208.661C146.77 212.83 146.992 217.318 148.144 221.396C148.651 223.194 149.081 223.926 148.345 225.771C147.441 228.036 148.04 228.577 149.174 230.801C151.258 234.893 152.849 239.722 152.496 244.335C152.207 248.102 149.361 250.074 145.835 251.091C141.424 252.362 136.806 252.211 132.368 253.655C128.503 254.912 124.575 255.841 120.82 257.501C119.307 258.17 117.868 258.965 116.187 259.088C113.882 259.255 112.327 257.917 110.15 257.638C108.789 257.464 106.797 258.114 106.013 256.687C105.391 255.556 106.094 253.088 106.875 252.178C109.066 249.619 113.455 247.39 116.411 245.88C119.818 244.14 123.114 241.962 126.27 239.717C128.183 238.355 130.134 237.049 132.046 235.684C133.311 234.782 133.791 234.776 133.662 233.342C133.559 232.198 133.044 231.088 132.953 229.917C132.885 229.02 133.199 227.797 132.775 227.212C132.463 226.78 131.292 226.475 130.832 226.148C129.149 224.955 128.766 223.479 128.002 221.664C126.266 217.541 124.271 213.534 122.594 209.378C118.994 200.456 116.798 191.073 113.813 181.968C110.765 172.666 108.038 162.901 106.359 153.25C104.112 153.934 101.992 156.96 100.202 158.457C97.7849 160.48 95.3078 162.436 92.9372 164.515C89.0514 167.923 85.1167 171.236 81.9055 175.317C80.3583 177.283 79.0916 179.398 77.691 181.463C76.8821 182.655 76.1276 184.006 75.2515 185.141C75.1109 185.323 75.1067 185.697 74.9551 185.852C74.6215 186.193 73.9841 185.739 73.7704 185.963C72.4499 187.344 72.4671 191.264 72.0558 193.086C71.4887 195.597 70.8521 198.484 68.8917 200.214C65.8634 202.886 60.2788 203.301 56.4464 203.439C51.5281 203.617 46.757 204.988 42.0907 206.46C39.9142 207.146 37.7946 207.95 35.61 208.616C34.3535 209 32.9201 209.765 31.5782 209.618C29.96 209.441 28.6822 208.079 27.4969 207.067C25.6006 205.448 23.8449 203.852 23.9076 201.196C23.9744 198.384 25.4975 196.262 27.897 194.865C32.5359 192.165 37.7243 190.434 42.7246 188.568C44.6406 187.853 46.281 187.061 48.113 186.098C50.7019 184.737 53.6817 183.626 55.9789 181.829C56.656 181.298 59.145 179.674 59.357 178.836C59.3848 178.726 58.7629 177.447 58.7601 177.244C58.7541 176.722 59.0631 176.157 59.2533 175.71C60.4497 172.898 62.4564 170.189 63.9906 167.537C66.8003 162.679 69.6209 157.795 72.8785 153.226C79.3743 144.117 86.6713 135.197 94.547 127.246C98.3864 123.369 101.704 118.972 105.598 115.149C107.14 113.635 108.769 112.402 110.669 111.419C112.788 110.323 115.167 110.108 117.595 109.774C123.48 108.964 128.395 110.705 133.92 112.22C139.144 113.651 144.373 114.859 149.626 116.351C155.394 117.989 161.103 119.56 166.854 121.345C169.926 122.299 173.087 122.885 176.174 123.8C177.66 124.24 183.28 127 184.519 126.093C180.615 124.261 176.616 122.592 172.439 121.486C171.209 121.161 170.423 121.521 170.469 120.108C170.494 119.338 171.36 118.298 171.671 117.664C172.417 116.146 173.263 114.662 173.993 113.139C171.345 113.891 164.227 116.494 162.232 113.803C160.144 110.987 161.887 105.467 163.196 102.71C166.612 95.513 172.423 89.5072 178.084 84.0819C179.309 82.9091 181.949 81.3774 182.602 79.8832C182.8 79.429 182.368 78.7617 182.816 78.1718C183.082 77.8206 184.152 77.5808 184.579 77.2026C186.136 75.8244 187.378 72.9247 188.454 71.1181C189.58 69.2259 190.595 67.177 192.011 65.4793C194.327 62.7034 196.717 59.7608 200.467 59.1115C202.306 58.7933 204.259 58.9631 206.022 58.3279C208.153 57.5597 210.178 56.3496 212.331 55.554C211.797 54.4565 211.364 52.7106 210.328 52.5907C209.33 52.4751 207.868 53.3325 206.726 53.3262C205.059 53.317 203.635 53.0506 202.026 52.7327C200.245 52.3805 199.659 52.4445 199.01 50.5126C198.329 48.489 198.501 46.1385 198.506 44.0365C198.509 43.0096 198.713 41.7345 198.625 40.7262C198.494 39.2071 198.199 39.1487 197.008 38.1826C195.52 36.9757 193.686 35.3786 195.508 33.2814C196.493 32.1481 198.517 33.0294 199.389 31.8118C200.277 30.5717 200.234 27.4563 200.505 25.9996C197.766 27.3458 198.771 22.3131 198.77 21.1021C198.769 19.34 197.589 16.1711 199.289 14.7051C200.079 14.0245 200.665 14.5876 201.569 14.1964C202.599 13.7501 203.248 12.5793 204.345 12.1254C206.524 11.2229 208.75 12.3097 210.987 12.1303C213.554 11.9247 216.075 11.5279 218.656 11.9398C219.878 12.1342 220.393 12.5987 221.428 13.1194C222.423 13.6201 223.432 13.7571 224.512 14.0793C225.474 14.3662 226.317 14.5111 226.967 15.3491C227.481 16.012 227.271 17.1271 227.79 17.6986C228.301 18.2616 229.314 18.1799 229.923 18.8486C230.509 19.4903 230.859 20.551 231.163 21.3496C231.574 22.4254 231.622 22.8293 232.346 23.6903C232.977 24.4416 233.886 25.0458 234.412 25.9028C235.653 27.923 235.685 30.8444 235.289 33.1169C235.154 33.8908 234.033 35.8911 234.208 36.5496C234.375 37.1765 235.427 37.0116 235.903 37.4081C236.315 37.7506 236.677 39.2767 237.002 39.3699C237.703 39.571 238.567 38.1861 239.099 37.9784C240.022 37.6173 240.409 37.2471 240.92 38.608C241.299 39.6177 240.771 40.9885 240.493 41.9521C240.139 43.179 239.748 44.6567 238.811 45.5844C237.709 46.675 236.827 46.0787 235.611 46.6662C233.789 47.5465 234.327 50.2992 232.085 51.086C229.949 51.8356 227.594 49.4773 225.979 48.3931C226.313 51.0249 227.573 53.561 226.969 56.2582C231.882 54.3331 236.742 51.6007 242.097 50.9988C244.828 50.6916 247.587 50.3281 250.164 51.4615C253.182 52.7883 255.03 55.7151 257.072 58.1468C260.91 62.7171 264.848 67.1591 268.532 71.8767C271.911 76.2041 274.76 81.2181 278.479 85.2702C282.25 89.3789 285.096 96.0456 284.683 101.735C284.646 102.249 284.248 103.416 284.31 103.969C284.359 104.394 284.744 104.932 284.738 105.274C284.717 106.425 284.337 107.088 283.239 107.727C281.337 108.835 278.502 109.395 276.352 109.67C273.495 110.036 269.997 110.075 267.139 109.685C264.191 109.282 261.6 107.632 258.889 106.635C256.512 105.76 254.124 105.214 251.625 104.655C250.247 104.347 248.721 103.495 247.869 104.32C247.088 105.078 246.925 108.969 246.743 110.004C244.766 121.219 242.417 132.053 240.336 143.21C237.979 155.857 236.366 168.498 234.726 181.252C233.236 192.845 232.749 204.569 232.415 216.152C232.256 221.677 232.233 227.143 232.267 232.673C232.286 235.769 233.834 246.105 229.243 246.501C226.546 246.734 224.388 242.867 223.665 240.757C222.579 237.589 222.013 234.176 221.84 230.847C221.49 224.108 221.031 217.364 220.759 210.623C220.464 203.319 220.839 195.88 221.439 188.6C222.044 181.271 223.566 174.05 224.033 166.71C222.632 168.709 222.184 169.085 219.85 169.956C217.408 170.868 215.059 171.946 212.595 172.796C211.757 173.085 210.449 173.266 209.761 173.739C208.493 174.613 209.327 173.622 208.922 175.322C208.489 177.138 208.408 179.318 208.293 181.184C207.753 189.941 205.327 198.636 204.208 207.348C203.938 209.451 204.323 218.379 200.703 215.566C197.916 213.399 197.971 206.592 197.575 203.404C197.046 199.154 197.341 194.784 197.424 190.508C197.519 185.639 197.601 180.531 198.763 175.777C196.684 175.421 193.792 176.39 191.7 176.553C189.888 176.694 188.082 176.784 186.281 176.883C181.984 177.119 177.558 177.307 173.189 177.223C172.394 177.207 167.197 176.48 166.533 177.066C166.317 177.257 166.251 179.877 166.211 180.197C166.058 181.401 165.851 182.603 165.696 183.801C165.203 187.628 164.757 191.737 164.899 195.563Z" fill="black"/>
    <path fill-rule="evenodd" clip-rule="evenodd" d="M242.067 231.932C245.346 233.214 248.826 233.679 252.133 234.846C255.089 235.89 257.835 237.293 260.746 238.354C260.916 237.003 261.007 234.717 260.508 233.444C259.802 231.642 257.944 231.598 256.115 230.956C251.662 229.393 246.978 229.064 242.557 227.239C243.314 228.696 242.976 230.625 242.067 231.932ZM298.672 227.219C291.59 227.427 284.822 229.075 277.843 230.094C274.446 230.59 271.047 231.033 267.647 231.495C266.339 231.673 263.954 231.464 263.003 232.596C262.215 233.534 263.079 236.737 262.729 238.111C264.16 238.217 266.702 236.88 268.255 236.658C270.675 236.315 273.062 235.833 275.507 235.679C279.378 235.435 283.182 235.228 287.046 234.797C290.977 234.359 294.78 233.545 298.741 233.247C300.667 233.102 301.442 233.463 301.555 231.43C301.599 230.636 301.708 229.305 301.486 228.521C301.842 227.558 301.526 227.09 300.537 227.117C299.91 227.047 299.288 227.081 298.672 227.219ZM284.975 220.731C286.89 220.552 288.813 220.294 290.733 220.186C291.123 220.164 293.097 220.283 293.42 219.921C293.876 219.409 293.368 217.536 293.284 216.957C292.999 214.986 292.685 213.84 290.535 213.836C288.721 213.831 286.843 214.215 285.036 214.392C276.833 215.196 268.671 215.535 260.558 217.062C261.052 219.165 261.613 221.335 261.022 223.485C264.914 223.686 269.186 222.937 272.99 222.169C276.877 221.384 281.002 220.994 284.975 220.731ZM271.992 200.932C269.061 200.945 265.963 202.236 263.071 201.948C263.028 202.486 263.953 202.04 264.209 202.543C264.755 202.545 264.945 202.722 264.779 203.079C264.789 203.321 264.665 203.464 264.406 203.505C264.278 203.516 264.151 203.527 264.024 203.538C263.464 203.556 263.373 203.933 263.749 204.67C263.587 205.583 263.83 206.744 263.865 207.66C269.062 206.953 274.111 206.217 279.346 205.902C281.816 205.753 284.285 205.753 286.753 205.55C289.468 205.326 292.432 205.806 295.087 205.298C296.506 205.026 296.357 205.045 296.254 203.199C296.191 202.078 296.214 200.747 295.302 199.929C293.777 198.564 290.305 199.353 288.483 199.401C282.992 199.546 277.409 200.056 271.992 200.932ZM274.991 227.285C282.843 226.572 290.635 225.011 298.531 225.011C297.973 224.453 296.757 224.309 296.062 224.005C295.27 223.658 294.522 222.919 293.748 222.616C292.194 222.008 290.613 222.853 289.017 223.218C285.168 224.1 281.219 224.129 277.363 224.994C273.377 225.888 269.34 226.712 265.28 227.166C263.347 227.382 261.273 227.821 259.363 227.31C259.209 227.199 259.053 227.088 258.898 226.978C258.731 226.267 258.268 226.077 257.508 226.408C256.542 226.224 255.313 226.462 254.341 226.486C254.302 226.874 257.892 228.092 258.577 228.393C260.226 229.12 261.344 229.651 263.106 229.34C267.073 228.639 270.974 227.803 274.991 227.285ZM247.372 204.331C247.679 205.527 248.968 204.983 250.077 205.115C251.566 205.291 253.047 205.805 254.489 206.192C257.108 206.896 259.727 207.59 262.335 208.333C262.232 207.28 262.465 204.883 261.909 203.948C261.324 202.969 258.556 202.54 257.267 202.241C254.016 201.489 250.545 201.917 247.244 202.075C247.302 202.826 247.345 203.577 247.372 204.331ZM278.59 211.814C281.674 211.553 284.761 211.349 287.853 211.241C291.389 211.117 288.819 210.552 288.744 208.396C284.097 209.137 279.41 209.283 274.777 209.917C270.939 210.442 266.367 211.814 262.453 211.077C260.607 210.73 258.721 210.596 256.757 210.4C254.904 210.214 253.156 209.351 251.326 209.137C249.271 208.896 247.172 210.051 245.128 210.356C244.261 210.485 244.06 211.073 243.651 210.03C243.227 208.948 244.442 208.064 244.92 207.418C245.479 206.662 245.247 207.889 245.557 206.709C245.644 206.378 245.408 205.548 245.365 205.192C245.256 204.291 244.973 203.314 244.929 202.416C244.888 201.59 244.881 200.33 245.777 199.848C246.324 199.555 246.711 199.983 247.188 199.9C250.909 199.253 255.286 199.2 259.06 199.825C263.151 200.501 266.673 198.709 270.705 197.983C275.436 197.13 280.216 197.003 284.987 196.642C289.067 196.335 296.521 194.738 298.075 199.949C298.515 201.425 299.156 205.49 297.972 206.746C296.418 208.396 292.821 207.869 290.812 208.298C291.112 209.153 292.007 209.734 291.697 210.753C294.513 210.885 295.011 213.545 295.452 216.028C295.908 218.597 295.018 219.618 297.473 220.955C300.895 222.82 304.519 224.702 304.452 229.142C304.419 231.374 304.169 234.741 301.877 235.899C299.635 237.032 295.983 236.841 293.512 237.252C288.727 238.049 283.924 238.984 279.11 239.462C273.983 239.972 268.771 240.39 263.636 240.617C260.838 240.742 258.421 241.165 255.719 240.223C253.062 239.298 250.464 238.622 247.722 237.934C245.016 237.256 236.733 236.343 239.146 231.715C239.532 230.975 240.853 230.386 241.066 229.686C241.41 228.557 240.248 227.675 240.297 226.655C240.385 224.787 242.492 224.553 243.947 224.553C241.453 222.994 244.793 221.147 244.773 219.823C244.738 217.491 241.837 215.976 241.672 214.021C241.273 209.262 256.369 214.217 258.693 215.247C256.904 217.898 248.607 215.604 246.136 215.202C246.473 216.087 246.796 216.883 246.893 217.79C246.972 218.528 246.69 219.373 246.948 220.116C247.356 221.292 247.342 221.067 248.786 221.388C249.854 221.625 250.91 221.898 251.975 222.15C253.61 222.536 256.182 223.571 257.803 223.514C259.224 223.465 258.943 223.906 259.204 222.327C259.344 221.479 259.105 220.577 258.962 219.746C258.663 218.004 258.227 216.356 259.748 215.106C261.198 213.914 264.255 213.347 266.034 212.927C269.982 211.994 274.539 211.766 278.59 211.814Z" fill="black"/>
    <path fill-rule="evenodd" clip-rule="evenodd" d="M297.378 182.087C293.09 181.368 288.733 181.191 284.395 181.409C284.63 182.483 284.865 183.556 285.101 184.629C289.165 183.582 293.288 182.969 297.378 182.087ZM262.511 190.415C260.791 190.289 261.988 191.058 262.412 192.183C262.934 193.566 262.822 195.314 262.942 196.77C267.973 194.851 273.827 193.728 279.177 193.083C281.714 192.777 284.287 192.689 286.838 192.558C287.592 192.519 290.316 192.835 290.867 192.328C291.277 191.951 290.99 189.869 290.596 189.41C288.455 186.914 280.178 189.069 277.184 189.293C272.275 189.659 267.455 190.537 262.511 190.415ZM269.657 183.726C274.112 184.154 278.413 184.114 282.869 184.781C282.531 181.949 282.935 181.227 279.722 181.076C276.859 180.942 274.006 180.834 271.156 180.836C264.748 180.839 258.355 180.717 251.94 180.717V183.595C257.873 182.987 263.712 184.084 269.657 183.726ZM248.234 194.31C251.046 194.298 253.703 195.358 256.515 195.633C258.198 195.798 257.669 196.007 258.837 196.852C260.655 198.168 261.179 197.467 260.951 195.678C260.178 189.628 252.518 190.984 248.104 190.648C248.394 192.091 247.727 193.315 246.745 194.31H248.234ZM278.624 186.542C274.58 186.607 270.531 186.837 266.516 186.753C264.718 186.715 262.389 186.359 260.628 186.666C259.337 186.89 258.258 187.548 256.842 187.792C258.921 188.912 259.975 188.155 262.161 187.9C264.345 187.646 266.562 187.651 268.755 187.518C272.356 187.3 276.194 186.437 279.742 186.672C279.807 186.172 279.435 186.129 278.624 186.542ZM246.549 199.645C244.693 199.641 247.246 197.531 247.581 197.322C245.527 197.322 245.03 196.09 245.625 194.11C246.186 192.246 246.601 192.816 245.19 191.264C244.128 190.095 243.967 189.234 245.219 187.927C246.493 186.597 249.073 186.973 250.202 185.876C252.124 184.007 249.644 180.287 252.307 178.856C254.108 177.889 257.009 178.008 258.997 177.804C260.918 177.606 262.906 177.569 264.84 177.542C269.055 177.484 273.434 178.191 277.631 178.581C279.161 178.722 280.881 179.34 282.388 179.341C283.926 179.343 285.536 179 287.123 179.04C288.968 179.087 290.746 178.951 292.649 179.253C294.107 179.486 297.511 179.608 298.626 180.691C302.339 184.303 293.533 185.962 292.018 186.368C293.56 188.057 293.496 190.29 293.264 192.417C293.998 192.417 295.263 192.097 295.643 192.921C296.115 193.943 294.368 194.208 293.955 194.327C291.579 195.014 288.799 194.826 286.35 195.075C281.456 195.573 276.62 195.86 271.776 196.788C269.415 197.239 267.069 197.799 264.71 198.239C264.302 198.315 263.893 198.376 263.482 198.422C262.85 198.368 262.646 198.764 262.869 199.612C262.214 199.932 259.773 199.135 259.018 199.013C254.696 198.312 250.83 198.603 246.549 199.645Z" fill="black"/>
    <path fill-rule="evenodd" clip-rule="evenodd" d="M333.813 241.61C331.026 243.803 328.435 245.873 325.417 247.779C327.55 247.712 334.647 244.309 333.813 241.61ZM332.725 238.034C331.204 236.727 329.692 236.861 327.809 236.465C326.075 236.1 324.39 235.472 322.66 235.053C321.302 234.725 319.958 234.282 318.605 233.971C316.694 233.533 316.506 234.016 314.748 235.017C308.516 238.569 301.542 241.012 294.978 243.894C296.906 245.591 301.241 245.664 303.65 246.205C305.409 246.6 307.082 247.14 308.766 247.764C310.335 248.347 312.862 249.686 314.516 249.731C315.912 249.768 317.047 248.394 318.249 247.654C319.831 246.68 321.405 245.724 322.999 244.774C326.371 242.764 329.524 240.302 332.725 238.034ZM304.561 252.421C303.842 251.729 301.676 251.759 300.774 251.548C298.997 251.132 297.247 250.701 295.446 250.389C292.524 249.884 287.908 249.658 287.591 245.867C287.327 242.716 291.133 241.969 293.359 240.902C296.707 239.296 300.123 237.814 303.556 236.398C306.775 235.072 310.04 233.949 313.318 232.802C313.957 232.579 314.476 232.61 314.997 232.098C315.409 231.694 315.282 230.91 315.733 230.489C316.766 229.522 318.107 230.031 319.348 230.279C322.167 230.841 325.094 231.579 327.782 232.622C330.575 233.706 333.073 233.932 333.744 237.099C335.172 236.429 336.247 236.332 336.076 238.3C336.026 238.879 335.606 239.508 335.505 240.105C335.356 240.984 335.616 241.912 335.469 242.794C334.935 246 330.611 248.375 327.932 249.635C324.628 251.187 320.366 253.481 316.677 253.784C312.747 254.107 308.463 252.563 304.561 252.421Z" fill="black"/>
    <path fill-rule="evenodd" clip-rule="evenodd" d="M254.531 199.222C253.359 199.23 252.187 199.237 251.016 199.245C252.185 199.025 253.357 199.022 254.531 199.222Z" fill="black"/>
    <path fill-rule="evenodd" clip-rule="evenodd" d="M185.977 75.2344C185.625 75.8201 185.274 76.4058 184.922 76.9922C185.042 76.237 185.31 75.5898 185.977 75.2344Z" fill="black"/>
    <path fill-rule="evenodd" clip-rule="evenodd" d="M254.531 216.026C255.236 216.032 255.94 216.038 256.641 216.044C255.935 216.039 255.233 216.033 254.531 216.026Z" fill="black"/>
    <path fill-rule="evenodd" clip-rule="evenodd" d="M256.641 199.24C255.937 199.233 255.234 199.227 254.531 199.22C255.237 199.028 255.94 199.034 256.641 199.24Z" fill="black"/>
    <path fill-rule="evenodd" clip-rule="evenodd" d="M284.62 99.4922C284.6 98.7887 284.58 98.0852 284.56 97.3828C284.58 98.0866 284.6 98.7891 284.62 99.4922Z" fill="black"/>
    <path fill-rule="evenodd" clip-rule="evenodd" d="M165.08 205.664C165.066 205.078 165.051 204.492 165.037 203.906C165.051 204.493 165.066 205.078 165.08 205.664Z" fill="black"/>
    <path fill-rule="evenodd" clip-rule="evenodd" d="M184.219 177.011C184.689 177.011 185.158 177.012 185.625 177.012C185.154 177.012 184.686 177.012 184.219 177.011Z" fill="black"/>
    <path fill-rule="evenodd" clip-rule="evenodd" d="M247.148 50.7371C246.562 50.7796 245.976 50.8218 245.391 50.8643C245.977 50.8218 246.563 50.7796 247.148 50.7371Z" fill="black"/>
    <path fill-rule="evenodd" clip-rule="evenodd" d="M232.233 222.539C232.216 222.07 232.198 221.6 232.181 221.133C232.198 221.603 232.216 222.071 232.233 222.539Z" fill="black"/>
    <path fill-rule="evenodd" clip-rule="evenodd" d="M232.929 204.609C232.916 204.14 232.904 203.671 232.891 203.203C232.904 203.672 232.917 204.141 232.929 204.609Z" fill="black"/>
    <path fill-rule="evenodd" clip-rule="evenodd" d="M220.932 212.695C220.949 213.165 220.966 213.634 220.982 214.102C220.965 213.632 220.949 213.164 220.932 212.695Z" fill="black"/>
    <path fill-rule="evenodd" clip-rule="evenodd" d="M187.031 176.667C187.384 176.663 187.736 176.658 188.086 176.653C187.732 176.658 187.382 176.663 187.031 176.667Z" fill="black"/>
    <path fill-rule="evenodd" clip-rule="evenodd" d="M288.984 194.964C289.337 194.949 289.689 194.934 290.039 194.918C289.685 194.934 289.335 194.949 288.984 194.964Z" fill="black"/>
    <path fill-rule="evenodd" clip-rule="evenodd" d="M221.63 223.945C221.65 224.415 221.67 224.884 221.69 225.352C221.67 224.881 221.65 224.413 221.63 223.945Z" fill="black"/>
    <path fill-rule="evenodd" clip-rule="evenodd" d="M259.313 221.484C259.289 221.954 259.265 222.423 259.242 222.891C259.265 222.421 259.289 221.953 259.313 221.484Z" fill="black"/>
    <path fill-rule="evenodd" clip-rule="evenodd" d="M218.793 12.0047C218.296 11.9414 217.799 11.8787 217.302 11.8154C217.795 11.9293 218.335 11.5069 218.793 12.0047Z" fill="black"/>
    <path fill-rule="evenodd" clip-rule="evenodd" d="M197.423 192.305C197.409 192.774 197.396 193.243 197.382 193.711C197.395 193.241 197.409 192.773 197.423 192.305Z" fill="black"/>
    <path fill-rule="evenodd" clip-rule="evenodd" d="M167.204 235.195C167.18 234.726 167.155 234.257 167.132 233.789C167.156 234.258 167.18 234.727 167.204 235.195Z" fill="black"/>
    <path fill-rule="evenodd" clip-rule="evenodd" d="M280.898 195.655C281.252 195.648 281.604 195.64 281.953 195.634C281.599 195.641 281.249 195.648 280.898 195.655Z" fill="black"/>
    <path fill-rule="evenodd" clip-rule="evenodd" d="M161.539 110.391C161.542 110.86 161.545 111.33 161.547 111.797C161.544 111.327 161.542 110.859 161.539 110.391Z" fill="black"/>
    <path fill-rule="evenodd" clip-rule="evenodd" d="M154.163 215.859C154.161 216.329 154.16 216.799 154.157 217.266C154.159 216.796 154.161 216.327 154.163 215.859Z" fill="black"/>
    <path fill-rule="evenodd" clip-rule="evenodd" d="M241.784 213.047C241.772 213.516 241.759 213.986 241.746 214.453C241.553 213.971 241.575 213.504 241.784 213.047Z" fill="black"/>
    <path fill-rule="evenodd" clip-rule="evenodd" d="M232.564 210.938C232.56 210.468 232.557 209.999 232.553 209.531C232.557 210.002 232.56 210.469 232.564 210.938Z" fill="black"/>
    <path fill-rule="evenodd" clip-rule="evenodd" d="M304.453 252.583C304.806 252.593 305.159 252.602 305.508 252.612C305.153 252.603 304.803 252.593 304.453 252.583Z" fill="black"/>
    <path fill-rule="evenodd" clip-rule="evenodd" d="M291.797 207.955C292.032 207.951 292.268 207.947 292.5 207.943C292.263 207.947 292.03 207.951 291.797 207.955Z" fill="black"/>
    <path fill-rule="evenodd" clip-rule="evenodd" d="M283.008 209.005C283.244 209.004 283.479 209.004 283.711 209.003C283.475 209.004 283.241 209.004 283.008 209.005Z" fill="black"/>
    <path fill-rule="evenodd" clip-rule="evenodd" d="M146.095 211.289C146.081 210.938 146.067 210.585 146.053 210.234C146.067 210.587 146.081 210.938 146.095 211.289Z" fill="black"/>
    <path fill-rule="evenodd" clip-rule="evenodd" d="M290.039 211.022C289.734 211.331 289.341 211.149 288.984 211.168C289.336 211.12 289.688 211.071 290.039 211.022Z" fill="black"/>
    <path fill-rule="evenodd" clip-rule="evenodd" d="M248.203 199.774C247.739 199.994 247.27 200.024 246.797 199.789C247.266 199.784 247.734 199.78 248.203 199.774Z" fill="black"/>
    <path fill-rule="evenodd" clip-rule="evenodd" d="M278.789 211.822C278.32 211.819 277.851 211.815 277.383 211.81C277.852 211.815 278.321 211.819 278.789 211.822Z" fill="black"/>
    <path fill-rule="evenodd" clip-rule="evenodd" d="M151.713 197.93C151.704 198.282 151.695 198.634 151.685 198.984C151.694 198.631 151.703 198.28 151.713 197.93Z" fill="black"/>
    <path fill-rule="evenodd" clip-rule="evenodd" d="M232.531 216.914C232.55 216.562 232.568 216.21 232.586 215.859C232.568 216.212 232.55 216.563 232.531 216.914Z" fill="black"/>
    <path fill-rule="evenodd" clip-rule="evenodd" d="M280.898 196.64C280.43 196.68 279.961 196.719 279.492 196.758C279.961 196.719 280.43 196.68 280.898 196.64Z" fill="black"/>
    <path fill-rule="evenodd" clip-rule="evenodd" d="M165.073 195.469C165.063 195.116 165.054 194.764 165.044 194.414C165.054 194.767 165.063 195.118 165.073 195.469Z" fill="black"/>
    <path fill-rule="evenodd" clip-rule="evenodd" d="M223.811 168.398C223.783 168.751 223.755 169.103 223.728 169.453C223.756 169.101 223.784 168.75 223.811 168.398Z" fill="black"/>
    <path fill-rule="evenodd" clip-rule="evenodd" d="M287.93 179.037C287.46 179.28 286.992 179.249 286.523 179.034C286.992 179.035 287.461 179.036 287.93 179.037Z" fill="black"/>
    <path fill-rule="evenodd" clip-rule="evenodd" d="M232.238 227.812C232.217 227.46 232.196 227.109 232.176 226.758C232.196 227.11 232.217 227.461 232.238 227.812Z" fill="black"/>
    <path fill-rule="evenodd" clip-rule="evenodd" d="M232.229 230.625C232.214 230.273 232.199 229.921 232.185 229.57C232.2 229.923 232.215 230.273 232.229 230.625Z" fill="black"/>
    <path fill-rule="evenodd" clip-rule="evenodd" d="M165.754 184.219C165.759 183.867 165.764 183.514 165.769 183.164C165.764 183.517 165.759 183.868 165.754 184.219Z" fill="black"/>
    <path fill-rule="evenodd" clip-rule="evenodd" d="M265.781 240.302C266.016 240.296 266.252 240.289 266.484 240.283C266.248 240.29 266.015 240.296 265.781 240.302Z" fill="black"/>
    <path fill-rule="evenodd" clip-rule="evenodd" d="M152.431 243.281C152.412 242.929 152.393 242.577 152.374 242.227C152.393 242.578 152.412 242.93 152.431 243.281Z" fill="black"/>
    <path fill-rule="evenodd" clip-rule="evenodd" d="M228.516 246.262C228.751 246.267 228.987 246.272 229.219 246.277C228.983 246.272 228.749 246.267 228.516 246.262Z" fill="black"/>
    <path fill-rule="evenodd" clip-rule="evenodd" d="M228.662 216.211C228.682 215.156 228.701 214.101 228.721 213.047C228.701 214.102 228.682 215.156 228.662 216.211Z" fill="black"/>
    <path fill-rule="evenodd" clip-rule="evenodd" d="M201.251 177.539C201.263 178.36 201.275 179.181 201.288 180C201.276 179.178 201.264 178.359 201.251 177.539Z" fill="black"/>
    <path fill-rule="evenodd" clip-rule="evenodd" d="M140.625 229.032C140.038 229.039 139.45 229.046 138.867 229.054C139.456 229.047 140.04 229.039 140.625 229.032Z" fill="black"/>
    <path fill-rule="evenodd" clip-rule="evenodd" d="M188.789 159.096C188.202 159.086 187.614 159.077 187.031 159.068C187.62 159.078 188.205 159.087 188.789 159.096Z" fill="black"/>
    <path fill-rule="evenodd" clip-rule="evenodd" d="M173.672 172.794C174.258 172.794 174.844 172.793 175.43 172.792C174.844 172.792 174.258 172.793 173.672 172.794Z" fill="black"/>
    <path fill-rule="evenodd" clip-rule="evenodd" d="M181.406 158.719C180.936 158.727 180.466 158.735 180 158.742C180.472 158.734 180.939 158.727 181.406 158.719Z" fill="black"/>
    <path fill-rule="evenodd" clip-rule="evenodd" d="M143.438 229.047C142.967 229.044 142.497 229.042 142.031 229.039C142.503 229.042 142.97 229.044 143.438 229.047Z" fill="black"/>
    <path fill-rule="evenodd" clip-rule="evenodd" d="M206.719 49.4556C207.304 49.4148 207.891 49.374 208.477 49.3333C207.891 49.374 207.304 49.4148 206.719 49.4556Z" fill="black"/>
    <path fill-rule="evenodd" clip-rule="evenodd" d="M214.596 90.7031C214.618 90.1171 214.64 89.531 214.662 88.9453C214.639 89.5317 214.618 90.1174 214.596 90.7031Z" fill="black"/>
    <path fill-rule="evenodd" clip-rule="evenodd" d="M200.391 96.152C200.038 96.152 199.685 96.1523 199.336 96.1527C199.69 96.1527 200.04 96.1523 200.391 96.152Z" fill="black"/>
    <path fill-rule="evenodd" clip-rule="evenodd" d="M170.508 157.67C170.155 157.674 169.802 157.678 169.453 157.681C169.807 157.678 170.157 157.674 170.508 157.67Z" fill="black"/>
    <path fill-rule="evenodd" clip-rule="evenodd" d="M162.422 172.033C162.891 172.071 163.359 172.109 163.828 172.147C163.359 172.109 162.891 172.071 162.422 172.033Z" fill="black"/>
    <path fill-rule="evenodd" clip-rule="evenodd" d="M161.532 189.844C161.539 189.374 161.547 188.906 161.554 188.438C161.547 188.907 161.539 189.375 161.532 189.844Z" fill="black"/>
    <path fill-rule="evenodd" clip-rule="evenodd" d="M201.797 171.104C202.266 171.058 202.734 171.012 203.203 170.966C202.734 171.012 202.266 171.058 201.797 171.104Z" fill="black"/>
    <path fill-rule="evenodd" clip-rule="evenodd" d="M233.923 162.773C233.951 162.304 233.979 161.835 234.007 161.367C233.979 161.837 233.951 162.305 233.923 162.773Z" fill="black"/>
    <path fill-rule="evenodd" clip-rule="evenodd" d="M192.305 159.439C191.952 159.435 191.599 159.432 191.25 159.429C191.604 159.432 191.955 159.435 192.305 159.439Z" fill="black"/>
    <path fill-rule="evenodd" clip-rule="evenodd" d="M161.569 216.211C161.551 215.859 161.534 215.507 161.517 215.156C161.534 215.509 161.551 215.86 161.569 216.211Z" fill="black"/>
    <path fill-rule="evenodd" clip-rule="evenodd" d="M200.985 198.281C201.754 200.187 201.323 198.837 201.342 199.277C200.688 199.365 200.568 199.033 200.985 198.281Z" fill="black"/>
    <path fill-rule="evenodd" clip-rule="evenodd" d="M168.75 157.695C168.398 157.682 168.044 157.669 167.695 157.656C168.05 157.669 168.399 157.682 168.75 157.695Z" fill="black"/>
    <path fill-rule="evenodd" clip-rule="evenodd" d="M240.611 121.992C240.633 121.523 240.656 121.054 240.678 120.586C240.655 121.055 240.633 121.524 240.611 121.992Z" fill="black"/>
    <path fill-rule="evenodd" clip-rule="evenodd" d="M161.545 212.695C161.543 212.226 161.542 211.758 161.541 211.289C161.542 211.759 161.543 212.227 161.545 212.695Z" fill="black"/>
    <path fill-rule="evenodd" clip-rule="evenodd" d="M161.506 202.148C161.531 201.797 161.555 201.445 161.579 201.094C161.555 201.446 161.531 201.798 161.506 202.148Z" fill="black"/>
    <path fill-rule="evenodd" clip-rule="evenodd" d="M234.619 156.094C234.651 155.742 234.684 155.39 234.717 155.039C234.684 155.391 234.651 155.743 234.619 156.094Z" fill="black"/>
    <path fill-rule="evenodd" clip-rule="evenodd" d="M156.926 203.203C156.957 203.555 156.988 203.908 157.02 204.258C156.988 203.906 156.957 203.555 156.926 203.203Z" fill="black"/>
    <path fill-rule="evenodd" clip-rule="evenodd" d="M156.217 200.391C156.252 200.743 156.287 201.095 156.321 201.445C156.287 201.093 156.252 200.741 156.217 200.391Z" fill="black"/>
    <path fill-rule="evenodd" clip-rule="evenodd" d="M226.542 152.227C226.569 151.875 226.595 151.523 226.621 151.172C226.595 151.524 226.568 151.875 226.542 152.227Z" fill="black"/>
    <path fill-rule="evenodd" clip-rule="evenodd" d="M47.1094 199.919C47.5777 199.882 48.0466 199.845 48.5156 199.808C48.0456 199.845 47.5773 199.882 47.1094 199.919Z" fill="black"/>
    <path fill-rule="evenodd" clip-rule="evenodd" d="M223.438 208.477C223.425 208.829 223.41 209.182 223.397 209.531C223.411 209.178 223.425 208.827 223.438 208.477Z" fill="black"/>
    <path fill-rule="evenodd" clip-rule="evenodd" d="M229.004 209.531C229.03 209.18 229.056 208.827 229.082 208.477C229.056 208.829 229.03 209.18 229.004 209.531Z" fill="black"/>
    <path fill-rule="evenodd" clip-rule="evenodd" d="M226.878 150.82C226.915 150.468 226.952 150.117 226.989 149.766C226.952 150.118 226.915 150.469 226.878 150.82Z" fill="black"/>
    <path fill-rule="evenodd" clip-rule="evenodd" d="M49.9219 199.581C50.3909 199.535 50.8598 199.488 51.3281 199.442C50.8598 199.488 50.3902 199.535 49.9219 199.581Z" fill="black"/>
    <path fill-rule="evenodd" clip-rule="evenodd" d="M198.984 159.078C198.749 159.081 198.513 159.083 198.281 159.086C198.518 159.083 198.751 159.081 198.984 159.078Z" fill="black"/>
    <path fill-rule="evenodd" clip-rule="evenodd" d="M161.545 198.984C161.543 198.632 161.542 198.28 161.541 197.93C161.542 198.282 161.543 198.633 161.545 198.984Z" fill="black"/>
    <path fill-rule="evenodd" clip-rule="evenodd" d="M229.774 198.281C229.649 197.918 229.588 197.559 229.828 197.227C229.81 197.579 229.792 197.93 229.774 198.281Z" fill="black"/>
    <path fill-rule="evenodd" clip-rule="evenodd" d="M223.785 191.602C223.775 191.953 223.764 192.306 223.755 192.656C223.765 192.304 223.775 191.952 223.785 191.602Z" fill="black"/>
    <path fill-rule="evenodd" clip-rule="evenodd" d="M224.088 226.406C224.11 226.758 224.132 227.11 224.154 227.461C224.132 227.109 224.11 226.757 224.088 226.406Z" fill="black"/>
    <path fill-rule="evenodd" clip-rule="evenodd" d="M249.961 98.5383C250.313 98.5886 250.664 98.6385 251.016 98.6884C250.664 98.6382 250.312 98.5879 249.961 98.5383Z" fill="black"/>
    <path fill-rule="evenodd" clip-rule="evenodd" d="M248.555 98.571C249.026 98.5995 249.545 98.3728 249.961 98.705L248.555 98.571Z" fill="black"/>
    <path fill-rule="evenodd" clip-rule="evenodd" d="M198.984 98.2004L200.391 98.3228C199.921 98.282 199.453 98.2412 198.984 98.2004Z" fill="black"/>
    <path fill-rule="evenodd" clip-rule="evenodd" d="M175.781 172.701C176.251 172.703 176.719 172.705 177.188 172.707C176.717 172.934 176.248 172.956 175.781 172.701Z" fill="black"/>
    <path fill-rule="evenodd" clip-rule="evenodd" d="M162.989 231.68C162.963 231.327 162.936 230.975 162.909 230.625C162.936 230.978 162.963 231.328 162.989 231.68Z" fill="black"/>
    <path fill-rule="evenodd" clip-rule="evenodd" d="M214.27 98.7891C214.275 98.4368 214.28 98.0852 214.285 97.7344C214.28 98.087 214.275 98.4382 214.27 98.7891Z" fill="black"/>
    <path fill-rule="evenodd" clip-rule="evenodd" d="M184.57 172.85C185.039 172.812 185.508 172.774 185.977 172.736C185.508 172.774 185.039 172.812 184.57 172.85Z" fill="black"/>
    <path fill-rule="evenodd" clip-rule="evenodd" d="M224.461 234.844C224.468 235.196 224.477 235.548 224.484 235.898C224.477 235.545 224.468 235.195 224.461 234.844Z" fill="black"/>
    <path fill-rule="evenodd" clip-rule="evenodd" d="M231.807 179.648C231.839 179.297 231.872 178.945 231.903 178.594C231.871 178.946 231.839 179.297 231.807 179.648Z" fill="black"/>
    <path fill-rule="evenodd" clip-rule="evenodd" d="M247.987 85.7812C248.014 85.429 248.041 85.0774 248.067 84.7266C248.041 85.0788 248.014 85.43 247.987 85.7812Z" fill="black"/>
    <path fill-rule="evenodd" clip-rule="evenodd" d="M214.619 55.5469C214.625 55.8988 214.632 56.2511 214.639 56.6016C214.632 56.2489 214.626 55.8977 214.619 55.5469Z" fill="black"/>
    <path fill-rule="evenodd" clip-rule="evenodd" d="M202.148 48.9843C202.617 49.0233 203.086 49.0627 203.555 49.1013C203.086 49.0623 202.617 49.0233 202.148 48.9843Z" fill="black"/>
    <path fill-rule="evenodd" clip-rule="evenodd" d="M131.836 248.799C132.305 248.753 132.773 248.708 133.242 248.661C132.773 248.708 132.305 248.754 131.836 248.799Z" fill="black"/>
    <path fill-rule="evenodd" clip-rule="evenodd" d="M202.852 45.5277C202.616 45.5273 202.38 45.527 202.148 45.527C202.385 45.5277 202.618 45.5277 202.852 45.5277Z" fill="black"/>
    <path fill-rule="evenodd" clip-rule="evenodd" d="M116.367 253.378C116.837 253.136 117.305 253.205 117.773 253.38C117.305 253.379 116.835 253.379 116.367 253.378Z" fill="black"/>
    <path fill-rule="evenodd" clip-rule="evenodd" d="M298.828 226.917C298.358 226.928 297.888 226.939 297.422 226.95C297.893 226.939 298.361 226.928 298.828 226.917Z" fill="black"/>
    <path fill-rule="evenodd" clip-rule="evenodd" d="M291.797 219.945C292.383 219.9 292.969 219.856 293.555 219.811C293.008 220.154 292.383 219.9 291.797 219.945Z" fill="black"/>
    <path fill-rule="evenodd" clip-rule="evenodd" d="M285.117 220.669C285.703 220.626 286.289 220.584 286.875 220.542C286.289 220.584 285.703 220.626 285.117 220.669Z" fill="black"/>
    <path fill-rule="evenodd" clip-rule="evenodd" d="M279.492 226.644C279.961 226.603 280.429 226.562 280.898 226.52C280.43 226.561 279.961 226.603 279.492 226.644Z" fill="black"/>
    <path fill-rule="evenodd" clip-rule="evenodd" d="M281.953 214.626C281.601 214.628 281.248 214.631 280.898 214.632C281.252 214.629 281.603 214.627 281.953 214.626Z" fill="black"/>
    <path fill-rule="evenodd" clip-rule="evenodd" d="M290.742 233.994C291.211 233.954 291.68 233.914 292.148 233.875C291.711 234.182 291.217 234.005 290.742 233.994Z" fill="black"/>
    <path fill-rule="evenodd" clip-rule="evenodd" d="M275.625 200.216C275.272 200.215 274.919 200.214 274.57 200.214C274.925 200.214 275.275 200.215 275.625 200.216Z" fill="black"/>
    <path fill-rule="evenodd" clip-rule="evenodd" d="M272.109 200.916C271.874 200.918 271.639 200.919 271.406 200.919C271.643 200.918 271.876 200.917 272.109 200.916Z" fill="black"/>
    <path fill-rule="evenodd" clip-rule="evenodd" d="M263.672 201.896C263.554 202.185 262.932 202.148 262.97 201.851C263.204 201.866 263.438 201.881 263.672 201.896Z" fill="black"/>
    <path fill-rule="evenodd" clip-rule="evenodd" d="M247.303 203.203C247.317 203.555 247.332 203.907 247.346 204.258C247.331 203.906 247.317 203.554 247.303 203.203Z" fill="black"/>
    <path fill-rule="evenodd" clip-rule="evenodd" d="M295.312 205.067C295.664 205.061 296.016 205.055 296.367 205.049C296.02 205.297 295.668 205.262 295.312 205.067Z" fill="black"/>
    <path fill-rule="evenodd" clip-rule="evenodd" d="M281.953 199.858C281.718 199.862 281.482 199.865 281.25 199.868C281.487 199.865 281.72 199.862 281.953 199.858Z" fill="black"/>
    <path fill-rule="evenodd" clip-rule="evenodd" d="M272.812 222.077C273.281 222.033 273.75 221.99 274.219 221.946C273.75 221.99 273.281 222.033 272.812 222.077Z" fill="black"/>
    <path fill-rule="evenodd" clip-rule="evenodd" d="M277.734 235.445C278.204 235.273 278.673 235.214 279.141 235.449C278.672 235.447 278.203 235.446 277.734 235.445Z" fill="black"/>
    <path fill-rule="evenodd" clip-rule="evenodd" d="M276.989 186.985L276.328 186.756C277.148 186.746 277.969 186.736 278.789 186.726C278.791 186.726 277.084 186.992 276.989 186.985Z" fill="black"/>
    <path fill-rule="evenodd" clip-rule="evenodd" d="M270.703 180.88C270.116 180.879 269.529 180.879 268.945 180.878C269.533 180.879 270.118 180.88 270.703 180.88Z" fill="black"/>
    <path fill-rule="evenodd" clip-rule="evenodd" d="M248.555 194.318C249.14 194.084 249.726 194.13 250.312 194.312C249.726 194.314 249.141 194.316 248.555 194.318Z" fill="black"/>
    <path fill-rule="evenodd" clip-rule="evenodd" d="M284.062 188.607C283.71 188.611 283.357 188.615 283.008 188.62C283.362 188.615 283.712 188.611 284.062 188.607Z" fill="black"/>
    <path fill-rule="evenodd" clip-rule="evenodd" d="M276.68 183.985C277.266 184.024 277.852 184.062 278.438 184.101C277.852 184.062 277.265 184.024 276.68 183.985Z" fill="black"/>
    <path fill-rule="evenodd" clip-rule="evenodd" d="M270 183.634C270.469 183.672 270.938 183.711 271.406 183.749C270.937 183.71 270.469 183.672 270 183.634Z" fill="black"/>
    <path fill-rule="evenodd" clip-rule="evenodd" d="M263.32 190.378C263.085 190.373 262.85 190.369 262.617 190.364C262.853 190.369 263.087 190.373 263.32 190.378Z" fill="black"/>
    <path fill-rule="evenodd" clip-rule="evenodd" d="M270.703 186.877C270.468 186.863 270.232 186.848 270 186.834C270.236 186.848 270.47 186.863 270.703 186.877Z" fill="black"/>
    <path fill-rule="evenodd" clip-rule="evenodd" d="M266.133 186.865C265.897 186.858 265.662 186.852 265.43 186.846C265.666 186.852 265.899 186.859 266.133 186.865Z" fill="black"/>
    <path fill-rule="evenodd" clip-rule="evenodd" d="M278.789 186.538C278.789 186.629 279.848 186.167 279.844 186.597L278.789 186.538Z" fill="black"/>
    <path fill-rule="evenodd" clip-rule="evenodd" d="M274.922 180.878C274.686 180.879 274.451 180.879 274.219 180.88C274.455 180.879 274.688 180.879 274.922 180.878Z" fill="black"/>
    <path fill-rule="evenodd" clip-rule="evenodd" d="M150.117 164.206C150.498 162.653 150.394 161.437 151.75 162.43C152.494 162.975 153.721 165.739 153.628 166.675C153.513 167.83 152.987 168.29 151.9 167.923C150.65 167.5 150.154 165.369 150.117 164.206Z" fill="black"/>
    <path fill-rule="evenodd" clip-rule="evenodd" d="M218.612 154.774C221.761 154.774 220.387 158.125 217.762 158.2C216.556 158.235 214.821 157.997 215.212 156.382C215.421 155.521 218.481 154.359 218.612 154.774Z" fill="black"/>
    <path fill-rule="evenodd" clip-rule="evenodd" d="M184.842 161.367C187.115 162.467 183.917 167.296 181.852 166.1C179.208 164.57 183.908 162.056 184.842 161.367Z" fill="black"/>
    <path fill-rule="evenodd" clip-rule="evenodd" d="M179.312 165.938C180.056 166.749 183.409 169.5 181.561 170.606C179.288 171.966 177.559 167.476 179.312 165.938Z" fill="black"/>
    <path fill-rule="evenodd" clip-rule="evenodd" d="M141.215 163.828C140.475 162.398 141.493 158.657 143.751 159.34C146.022 160.029 142.465 163.448 141.215 163.828Z" fill="black"/>
    <path fill-rule="evenodd" clip-rule="evenodd" d="M191.369 164.652C192.844 164.059 192.563 165.814 192.785 166.381C193.038 167.024 194.336 168.591 194.01 169.276C193.527 170.293 192.372 169.645 191.745 168.985C190.646 167.828 190.724 165.973 191.369 164.652Z" fill="black"/>
    <path fill-rule="evenodd" clip-rule="evenodd" d="M168.905 166.279C167.676 166.279 164.743 162.737 166.467 162.143C168.606 161.405 170.394 166.54 168.905 166.279Z" fill="black"/>
    <path fill-rule="evenodd" clip-rule="evenodd" d="M211.362 160.664C212.488 160.941 213.977 164.127 212.281 164.497C210.403 164.906 210.068 161.545 211.362 160.664Z" fill="black"/>
    <path fill-rule="evenodd" clip-rule="evenodd" d="M204.54 166.641C203.657 164.941 203.44 161.303 205.595 164.223C206.062 164.856 206.543 164.6 206.303 165.643C206.094 166.554 205.258 166.641 204.54 166.641Z" fill="black"/>
    <path fill-rule="evenodd" clip-rule="evenodd" d="M158.057 157.852C158.956 159.205 158.691 163.451 156.811 160.94C156.012 159.872 156.563 157.902 158.057 157.852Z" fill="black"/>
    <path fill-rule="evenodd" clip-rule="evenodd" d="M203.269 30.2688C205.014 29.8183 205.433 33.9326 204.415 34.3861C202.99 35.0208 203.169 30.957 203.269 30.2688Z" fill="black"/>
    <path fill-rule="evenodd" clip-rule="evenodd" d="M313.648 239.291C312.029 239.196 309.76 238.754 312.213 237.605C313.77 236.877 316.084 236.826 317.728 237.125C318.861 237.331 320.56 238.27 318.832 239.487C317.82 240.199 314.879 239.325 313.648 239.291Z" fill="black"/>
    <path fill-rule="evenodd" clip-rule="evenodd" d="M311.833 242.226C311.365 242.174 310.897 242.121 310.43 242.069C310.805 241.387 311.896 241.244 311.833 242.226Z" fill="black"/>
    <path fill-rule="evenodd" clip-rule="evenodd" d="M313.945 239.223C314.415 239.233 314.885 239.244 315.352 239.254C314.88 239.244 314.413 239.233 313.945 239.223Z" fill="black"/>
</svg>
