<svg width="360" height="270" viewBox="0 0 360 270" fill="none" xmlns="http://www.w3.org/2000/svg">
    <path fill-rule="evenodd" clip-rule="evenodd" d="M130.822 68.3687C130.574 72.4229 130.326 76.4764 130.078 80.5307C131.674 80.0712 141.824 77.0847 141.197 80.1127C140.747 82.2846 137.894 84.6341 136.44 86.1462C135.102 87.5384 133.723 88.8943 132.311 90.2106C134.908 89.2164 137.526 88.2749 140.164 87.3942C142.16 86.7277 144.17 86.0773 146.215 85.5777C146.974 85.3921 149.024 84.6352 149.741 85.1512C151.625 86.5076 141.401 96.4965 140 97.9045C141.981 96.9834 144.009 96.1467 146.071 95.4288C147.56 94.9106 152.161 92.9296 153.478 94.6213C154.889 96.4311 151.395 100.587 150.426 101.905C149.037 103.793 147.533 105.604 145.954 107.336C152.516 113.23 160.227 118.476 168.433 121.736C174.45 124.127 180.361 124.736 186.71 123.424C193.233 122.076 199.489 119.491 205.436 116.535C208.928 114.799 212.374 112.921 215.658 110.811C214.304 109.164 212.99 107.484 211.713 105.777C209.891 103.341 207.651 100.679 206.612 97.7783C205.595 94.9398 209.41 95.4939 211.24 95.6482C213.89 95.8714 216.533 96.345 219.13 96.9117C217.294 95.6345 215.491 94.3063 213.724 92.9348C211.422 91.1475 208.35 89.1267 206.843 86.5554C205.517 84.2945 208.426 84.8654 209.771 85.1614C212.978 85.8681 216.099 87.0718 219.157 88.2461C221.397 89.106 223.624 90.0067 225.828 90.9552C224.46 89.7655 223.137 88.5189 221.866 87.2265C220.157 85.4895 217.853 83.3678 217.087 80.9757C215.527 76.1038 226.021 79.7787 227.812 80.5307C227.481 75.484 227.151 70.4373 226.82 65.3906C212.926 69.0877 199.031 72.7854 185.136 76.4828C183.635 76.8825 181.756 77.7526 180.189 77.799C178.771 77.8416 177.058 77.2028 175.675 76.9388L150.531 72.1346C143.962 70.8792 137.392 69.6241 130.822 68.3687Z" fill="#F84E00"/>
    <path fill-rule="evenodd" clip-rule="evenodd" d="M280.159 241.951C278.659 242.809 276.901 243.472 275.235 243.916C274.256 244.178 272.639 244.985 271.779 244.245C271.366 243.89 271.272 243.084 271.028 242.616C270.643 241.876 270.095 241.238 269.582 240.584C268.337 238.999 267.043 237.47 265.688 235.979C265.046 235.273 263.874 233.623 262.743 233.732C261.333 233.867 261.367 235.819 261.72 236.816C262.845 239.99 266.25 242.756 268.474 245.147C267.909 246.018 264.803 245.914 263.941 245.711C262.624 245.4 262.491 244.462 261.89 243.39C260.484 240.883 257.633 239.481 255.289 238.007C254.434 237.47 252.618 235.98 251.504 236.355C250.449 236.711 250.495 238.059 250.831 238.939C251.338 240.27 252.783 241.193 253.851 242.034C255.276 243.155 256.578 244.374 257.765 245.747C256.054 245.886 254.349 246.128 252.643 246.268C250.579 246.438 248.859 245.306 246.959 244.664C245.193 244.067 243.434 243.563 241.698 242.876C239.749 242.104 237.707 241.835 235.741 241.157C228.024 238.5 220.463 235.157 213.027 231.788C209.484 230.182 206.014 228.576 202.322 227.32C199.632 226.403 195.404 224.578 194.76 221.374C194.421 219.68 195.658 217.859 195.84 216.167C196.054 214.177 195.886 211.987 195.28 210.077C194.745 208.395 193.859 206.837 193.161 205.222C192.348 203.339 193.076 203.37 194.656 203.156C196.547 202.899 198.753 201.835 200.53 201.142C202.577 200.343 204.607 199.227 206.482 198.079C208.178 197.041 209.653 195.703 211.003 194.25C212.377 192.772 213.266 191.021 214.594 189.506C219.494 195.533 224.152 201.652 229.359 207.418C231.817 210.14 234.489 212.39 237.518 214.459C238.783 215.324 240.037 216.311 241.415 216.995C243.138 217.85 245.064 218.38 246.835 219.161C253.625 222.152 260.106 225.423 266.44 229.283C269.505 231.151 272.077 233.292 274.775 235.634C275.615 236.364 282.495 240.614 280.159 241.951ZM200.506 192.577C199.409 193.074 198.363 193.72 197.192 194.039C197.524 192.02 199.409 188.974 201.825 189.309C202.748 189.437 203.444 190.153 203.038 191.142C202.67 192.04 201.288 192.223 200.506 192.577ZM124.128 137.806C122.884 138.493 121.725 138.893 120.996 137.419C121.536 137.31 123.99 136.983 124.128 137.806ZM122.057 133.638C121.096 133.347 121.864 133.04 122.195 132.688C122.453 132.415 123.306 131.454 123.605 131.296C124.923 130.597 125.943 133.197 126.573 134.04C125.081 133.907 123.51 134.079 122.057 133.638ZM132.336 142.638C130.514 142.946 130.716 140.667 130.77 139.512C131.155 139.981 133.756 142.397 132.336 142.638ZM138.374 138.7C136.153 139.075 134.685 135.237 135.083 133.558C135.433 132.079 137.155 131.253 138.526 131.035C139.854 130.824 141.704 131.112 142.098 132.645C142.447 133.998 139.855 138.45 138.374 138.7ZM190.958 196.639C189.362 197.129 187.798 197.191 186.193 197.673C184.373 198.219 182.688 198.171 180.864 198.542C180.122 198.693 178.12 199.775 177.396 199.533C176.679 199.294 175.641 197.069 175.229 196.49C178.456 195.148 181.21 193.416 183.337 190.589C185.028 188.342 186.842 184.974 185.778 182.072C184.578 178.802 180.441 178.091 177.682 179.458C176.377 180.104 175.084 180.907 174.008 181.892C172.778 183.017 172.294 184.246 171.497 185.635C170.691 187.039 170.126 186.258 169.32 185.065C168.632 184.046 168.722 183.017 167.862 182.011C167.423 181.498 166.744 181.003 166.515 180.34C166.369 179.92 166.675 179.175 166.4 178.844C166.013 178.38 165.542 178.926 165.217 178.511C164.982 178.209 165.059 177.522 164.816 177.145C164.604 176.931 164.37 176.748 164.11 176.595C163.795 176.44 163.738 176.245 163.937 176.012C163.687 175.548 163.928 175.391 163.392 174.827C162.556 173.948 161.794 173.106 161.199 172.068C160.927 171.593 160.954 170.889 160.616 170.478C160.152 169.913 159.38 169.998 158.981 169.299C158.626 168.677 158.864 167.588 158.278 167.023C157.969 166.935 157.66 166.848 157.351 166.763C157.118 166.537 156.983 166.263 156.944 165.941C156.619 165.44 156.555 164.852 156.144 164.322C155.358 163.311 154.301 162.376 153.606 161.309C152.877 160.188 153.264 159.999 154.531 159.598C155.675 159.235 156.719 158.899 157.779 158.283C162.678 155.431 167.324 147.867 159.546 145.556C156.66 144.699 154.289 142.393 151.089 143.299C149.702 143.692 148.386 144.529 147.351 145.522C146.636 146.208 145.974 148.044 145.096 148.395C143.517 149.027 144.184 147.448 143.737 146.723C143.522 146.376 142.662 145.977 142.342 145.662C141.968 145.292 141.606 144.826 141.346 144.369C140.863 143.52 140.568 143.048 139.872 142.357C139.609 142.096 138.299 140.749 139.481 140.925C139.002 139.466 139.7 139.247 140.666 138.181C141.799 136.93 142.969 135.191 142.976 133.438C142.989 130.071 139 128.564 136.495 130.562C135.985 130.968 132.97 134.893 133.587 132.39C133.92 131.04 137 127.516 138.427 128.428C136.827 126.096 133.152 131.758 132.294 132.917C131.563 131.572 131.512 130.52 130.303 129.478C129.319 131.057 129.839 129.332 129.622 128.981C129.153 128.224 129.41 129.09 129.156 128.821C128.84 128.486 128.342 128.222 128.005 127.778C127.428 128.561 127.659 127.719 127.482 127.427C127.069 126.743 127.228 126.347 126.52 125.753C126.005 125.32 124.99 124.649 124.296 124.588C123.496 124.517 123.275 124.823 122.46 124.597C121.423 124.308 120.118 123.865 120.62 125.599C120.985 126.86 122.466 127.576 122.79 128.863C123.117 130.159 121.836 131.465 121.214 132.527C120.416 133.89 119.763 133.779 118.317 134.086C117.392 134.283 116.159 134.703 116.951 135.824C117.517 136.626 118.844 136.457 119.591 136.931C120.639 137.597 120.625 139.237 121.962 139.523C123.435 139.837 124.279 138.197 125.521 137.801C126.404 137.519 129.14 137.55 129.835 138.213C130.782 139.117 129.964 140.843 130.202 141.966C130.557 143.63 131.683 143.732 133.107 143.785C134.86 143.85 135.477 145.534 136.42 146.869C138.628 149.997 140.548 153.331 142.81 156.417C143.811 157.784 145.276 158.999 146.096 160.482C147.109 162.314 145.703 163.37 144.49 164.685C142.905 166.402 141.721 168.357 140.346 170.234C139.125 171.903 137.606 171.488 135.654 171.488C136.089 170.591 136.613 170.031 137.683 170.14C136.564 168.774 135.669 170.337 134.943 171.203C133.892 172.455 132.523 172.757 131.174 173.581C130.696 173.872 128.096 175.761 128.886 176.405C128.976 176.478 133.28 173.647 133.77 173.387C133.77 174.433 133.541 175.519 133.688 176.558C133.795 177.32 134.331 178.115 134.217 178.907C134 180.403 132.067 181.581 131.237 182.747C130.613 183.624 130.764 184.316 130.446 185.258C130.156 186.117 130.308 185.857 129.585 186.122C128.115 186.662 125.639 186.371 124.306 185.603C123.48 185.126 122.846 184.372 122.174 183.708C121.668 183.207 120.395 182.352 120.255 181.651C120.014 180.444 122.409 178.203 122.883 176.958C124.221 173.446 121.926 170.716 118.353 170.517C119.454 169.668 120.819 170.307 121.979 170.632C119.996 167.882 116.607 170.145 114.924 172.013C113.774 169.106 113.22 166.04 112.517 163.008C112.039 160.944 110.217 157.26 111.03 155.135C111.422 154.107 112.531 153.535 113.298 152.822C114.169 152.013 114.916 151.045 115.553 150.043C117.054 147.682 117.921 144.702 115.854 142.376C116.482 142.273 117.11 142.17 117.738 142.066C116.717 141.107 115.105 141.574 113.78 141.29C112.939 141.109 110.519 141.226 109.957 140.75C109.282 140.178 109.714 137.545 109.739 136.765C109.794 134.944 109.947 133.193 110.148 131.382C110.338 129.672 110.3 127.825 110.653 126.145C110.94 124.781 111.857 124.366 112.915 123.562C115.443 121.641 117.504 119.304 116.64 115.993C116.946 115.945 117.252 115.896 117.558 115.848C116.569 115.132 115.289 115.392 114.188 115.014C115.199 112.17 117.433 107.17 121.062 106.901C121.187 108.172 121.102 109.684 121.959 110.737C122.936 111.935 124.65 112.056 125.973 111.422C127.174 110.846 128.301 109.626 128.854 108.421C129.228 107.605 129.161 106.226 129.818 105.579C130.699 104.711 136.774 105.235 136.588 106.699C136.479 107.56 134.854 109.006 134.4 109.769C133.569 111.165 132.904 112.675 132.599 114.279C132.136 116.713 132.404 119.928 134.877 121.208C137.689 122.664 141.116 120.813 143.422 119.213C144.688 118.335 145.915 117.366 147.072 116.348C147.688 115.806 148.307 115.248 148.85 114.632C149.251 114.177 149.571 113.444 150.065 113.103C151.231 112.299 152.374 113.664 153.361 114.353C154.968 115.476 156.568 116.543 158.293 117.477C161.794 119.374 164.995 121.886 168.09 124.38C171.204 126.889 174.414 129.471 176.936 132.596C175.409 133.536 175.681 133.78 175.002 135.456C174.519 136.646 173.855 137.659 173.778 138.98C173.646 141.261 175.11 143.205 177.333 143.71C178.576 143.993 179.76 143.766 180.911 143.258C181.806 142.863 182.698 141.891 183.633 141.649C185.371 141.201 186.762 144.485 187.736 145.641C192.063 150.778 196.637 155.712 200.712 161.058C201.163 161.651 202.503 162.807 202.612 163.591C202.769 164.717 200.998 165.79 200.263 166.436C199.877 166.774 195.786 170.622 197.16 171.234C197.552 171.408 198.698 169.047 198.984 168.845C200.057 168.089 199.246 169.571 199.182 170.32C199.022 172.182 200.301 173.197 202.098 172.961C204.017 172.709 205.724 171.194 206.912 169.764C208.399 171.487 210.725 174.092 211.155 176.394C211.43 177.864 210.157 181.463 212.532 181.763C212.895 181.808 214.207 180.835 214.452 181.388C214.656 181.849 213.237 182.637 213.033 182.79C212.159 183.443 211.631 184.141 210.925 184.932C210.097 185.86 208.965 186.641 208.033 187.53C207.051 188.466 205.109 191.009 203.813 189.78C203.162 189.163 203.333 188.356 202.29 187.993C201.34 187.663 200.137 188.082 199.254 188.448C198.26 188.86 194.988 190.363 194.625 191.601C194.124 193.308 196.829 191.256 197.309 190.956C196.761 192.348 196.458 194.363 195.061 195.176C193.901 195.851 192.231 196.247 190.958 196.639ZM172.407 186.108C173.336 183.123 178.813 177.8 182.275 179.465C178.24 180.31 175.039 183.072 172.407 186.108ZM174.455 194.657C173.105 193.905 173.178 191.719 172.707 190.441C172.436 189.707 171.895 189.171 172.054 188.357C172.24 187.403 173.458 186.342 174.106 185.653C176.145 183.487 179.733 180.527 183.016 181.023C187.193 181.656 184.361 187.264 182.939 189.196C181.726 190.842 177.054 196.105 174.455 194.657ZM164.709 191.006C160.191 190.704 155.689 190.3 151.232 189.471C149.652 189.177 148.329 189.22 149.233 187.404C149.531 186.805 151.331 183.047 151.737 183.155C151.978 183.219 151.923 185.801 151.994 186.097C152.313 187.427 153.209 188.666 154.719 188.581C157.19 188.443 158.783 185.249 160.084 183.534C161.126 184.935 161.881 186.492 162.928 187.87C163.429 188.529 165.173 190.061 164.709 191.006ZM138.222 173.271C137.464 175.011 135.939 176.665 134.879 178.241C134.28 176.972 133.858 174.059 135.28 173.121C135.818 172.766 138.701 172.171 138.222 173.271ZM153.891 178.451C154.1 177.781 154.331 177.117 154.588 176.465C155.03 177.856 155.256 177.897 153.891 178.451ZM157.758 179.876C158.307 180.805 159.221 181.719 159.077 182.886C158.969 183.771 158.169 184.678 157.598 185.294C156.653 186.313 154.56 188.271 153.191 186.917C152.048 185.786 152.446 182.676 152.978 181.403C153.737 179.585 156.451 177.661 157.758 179.876ZM155.075 177.971C155.389 177.846 154.729 175.817 155.342 175.615C155.876 176.834 156.38 177.164 155.075 177.971ZM146.442 150.667C146.239 149.919 145.772 149.95 145.94 149.025C146.05 148.418 146.532 147.77 146.897 147.29C147.625 146.331 148.586 145.541 149.624 144.943C151.817 143.681 154.828 143.157 156.791 145.133C154.956 145.422 149.33 147.234 149.294 149.744C151.335 149.351 152.939 147.301 154.986 146.655C156.666 146.125 158.488 146.162 160.159 146.722C164.734 148.254 162.832 152.209 160.25 154.777C158.717 156.302 156.879 157.44 154.87 158.226C153.94 158.589 153.369 158.63 152.455 158.447C152.284 158.412 152.084 158.095 151.879 158.027C151.369 157.858 151.517 158.43 151.097 158.173C150.73 157.949 149.948 156.502 149.699 156.088C149.302 155.429 149.117 154.788 148.63 154.186C148.142 153.584 147.905 152.777 147.454 152.232C147.237 151.97 146.643 151.98 146.484 151.725C146.245 151.34 146.549 151.06 146.442 150.667ZM139.416 180.157C140.456 178.35 142.235 176.817 143.611 175.237C143.696 177.833 141.835 179.61 139.416 180.157ZM140.821 180.991C142.969 180.236 144.152 178.428 144.371 176.237C144.649 173.46 146.392 172.003 147.441 169.509C147.844 168.553 148.313 165.408 149.873 166.308C150.408 166.617 150.725 167.778 151.004 168.303C151.679 169.572 152.446 170.802 153.161 172.049C153.744 173.064 154.617 174.084 154.36 175.306C154.136 176.37 153.415 177.505 152.992 178.51C151.995 180.882 150.685 183.067 149.59 185.387C149.148 186.323 148.625 188.538 147.277 188.527C146.209 188.518 146.329 187.351 145.626 186.951C144.739 186.446 143.73 187.407 143.001 187.805C143.841 186.388 145.308 185.586 146.957 185.853C144.982 183.887 143.648 186.54 141.953 187.13C140.348 187.69 137.5 185.05 136.148 184.301C136.665 183.426 137.132 182.354 138.022 181.779C138.865 181.232 139.9 181.316 140.821 180.991ZM123.364 198.961C123.599 197.828 124.263 197.159 124.684 196.131C125.173 197.378 124.029 198.113 123.364 198.961ZM157.48 205.908C157.365 209.721 157.053 213.524 156.941 217.337C156.889 219.096 156.577 220.774 156.371 222.512C156.196 223.983 156.285 225.426 155.36 226.682C153.901 228.663 151.064 229.232 148.862 229.965C147.244 230.504 145.609 230.993 144.012 231.591C142.574 232.13 141.416 232.946 140.05 233.586C138.827 234.159 137.508 234.498 136.291 235.108C135.033 235.74 134.038 236.508 132.745 237.07C131.198 237.743 129.923 238.94 128.546 239.89C127.335 240.726 126.053 241.372 125.011 242.423C124.033 243.41 122.796 243.843 121.689 244.719C120.518 245.646 119.292 246.249 117.998 246.975C115.348 248.465 111.772 251.009 108.582 249.562C109.494 248.396 111.362 247.277 111.504 245.672C111.688 243.58 109.868 244.35 108.814 245.018C107.218 246.029 106.335 247.25 105.119 248.598C103.699 250.174 101.904 249.114 100.165 248.671C101.354 247.601 102.533 246.521 103.72 245.449C104.721 244.544 106.254 243.566 106.864 242.314C107.3 241.42 107.279 240.194 106.227 239.729C105.05 239.21 103.719 240.305 102.847 240.957C100.533 242.689 99.0087 244.884 97.4893 247.294C96.681 248.575 96.3087 248.477 94.8216 248.221C93.2459 247.949 91.6702 247.66 90.0815 247.47C92.1859 245.308 94.5379 242.967 96.2001 240.438C96.7387 239.618 97.4411 237.459 95.8003 237.26C95.1243 237.178 93.7782 238.56 93.2568 238.933C90.9776 240.562 88.7863 242.617 87.276 244.995C86.7771 245.781 86.6207 246.654 85.655 246.719C84.3925 246.804 82.0469 245.599 80.8291 245.227C83.1564 242.293 85.4676 239.338 88.1869 236.75C90.6855 234.373 93.1777 232.645 96.0999 230.822C99.2316 228.867 102.149 226.616 105.024 224.307C107.776 222.096 110.651 220.011 113.185 217.543C118.245 212.613 122.753 206.943 126.485 200.947C127.359 199.544 128.181 198.104 128.892 196.612C129.559 195.21 129.867 193.533 130.768 192.258C131.079 191.817 131.518 191.49 131.795 191.031C132.057 190.598 131.968 190.074 132.367 189.691C133.29 188.805 134.97 189.339 135.833 189.96C137.22 190.959 138.342 192.171 139.867 193.007C141.4 193.848 143.059 194.459 144.757 194.872C148.726 195.837 152.66 196.629 156.703 197.215C156.287 198.758 157.309 199.001 157.647 200.389C158.058 202.074 157.532 204.192 157.48 205.908ZM119.267 180.18C118.367 178.843 117.565 177.445 116.68 176.1C116.141 175.28 115.474 174.4 115.934 173.398C116.71 171.708 119.445 171.407 120.929 172.144C124.304 173.819 121.169 178.607 119.267 180.18ZM110.335 149.605C110.024 146.993 111.023 145.139 113.387 143.769C115.072 142.792 116.429 144.127 116.198 145.907C115.849 148.618 112.951 151.635 110.739 153.05C110.594 151.903 110.472 150.753 110.335 149.605ZM109.975 142.129C110.672 141.576 112.539 142.282 113.347 142.33C112.236 143.301 111.125 144.272 110.014 145.242C109.941 144.576 109.331 142.64 109.975 142.129ZM113.724 116.895C119.346 116.164 112.874 122.198 111.244 123.143C111.51 121.859 112.161 117.098 113.724 116.895ZM128.691 106.331C127.936 109.424 122.067 112.797 122.006 107.732C121.983 105.845 123.043 105.997 124.591 105.816C125.474 105.713 129.123 104.564 128.691 106.331ZM108.419 111.12C107.76 112.85 107.232 114.624 106.586 116.355C106.3 117.122 105.963 117.649 105.43 118.256C104.984 118.764 104.453 118.892 104.471 119.695C105.03 119.587 105.467 119.254 105.919 118.933C105.809 120.524 105.247 122.237 104.974 123.823C104.648 125.726 104.376 127.629 104.275 129.558C104.057 133.753 104.055 137.932 104.147 142.129C104.194 144.268 104.215 146.408 104.331 148.544C104.388 149.607 104.453 150.674 104.585 151.73C104.638 152.157 104.948 153.064 104.756 153.464C104.005 155.033 100.679 150.724 99.2344 151.356C99.4422 150.162 98.963 150.423 98.1625 149.836C97.7747 149.552 97.5223 149.067 97.118 148.814C96.9957 148.682 96.861 148.565 96.714 148.462C96.5471 148.234 96.3706 148.258 96.1853 148.534C94.5576 147.562 94.1371 145.488 93.2635 144.094C92.8142 143.376 92.38 143.265 92.3034 142.273C92.2369 141.409 92.367 140.528 92.3318 139.661C92.2921 138.682 92.2348 137.603 91.9602 136.655C91.6417 135.554 91.2033 135.644 90.3494 135.058C90.6123 134.943 90.786 134.75 90.87 134.478C90.5972 134.527 89.7686 134.865 89.5626 134.622C89.1576 134.145 90.1131 134.081 90.3641 133.89C89.2929 133.415 89.5235 133.024 89.9103 132.152C90.0196 131.906 90.124 131.537 90.2172 131.329C90.4204 130.875 90.5375 131.163 90.6046 130.598C90.6682 130.06 90.1912 129.002 90.0505 128.428C89.815 127.466 89.6846 126.635 89.8962 125.633C90.0678 124.822 90.5294 124.087 90.5614 123.253C90.5705 123.018 90.2137 122.94 90.2087 122.714C90.2017 122.383 90.5104 122.238 90.5905 121.933C90.7955 121.151 90.703 120.324 91.0535 119.582C91.3689 118.916 92.0059 118.053 92.4566 117.472C92.7692 117.069 93.5359 116.615 93.6199 116.083C93.6755 115.73 93.1267 115.771 93.151 115.505C93.1844 115.146 93.486 115.029 93.5686 114.762C93.7968 114.029 93.8541 113.324 94.4437 112.762C95.1865 112.055 95.5089 112.351 95.5398 111.184C95.5546 110.615 95.0993 110.528 95.3433 109.871C95.4759 109.515 95.8668 109.305 96.1167 109.052C96.8592 108.303 97.3599 107.638 97.8886 106.713C98.3562 105.895 99.1019 105.419 99.581 104.713C100.205 103.793 99.272 103.337 100.538 103.077C100.358 102.505 100.167 102.043 100.64 101.56C100.939 101.255 101.697 101.441 101.961 101.088C102.264 100.683 101.816 99.7232 102.273 99.4602C102.644 99.2468 103.2 99.9049 103.784 99.579C104.228 99.3308 104.899 97.959 104.756 97.4545C105.906 98.1014 105.619 97.656 106.17 96.8263C106.293 96.6403 106.667 96.5992 106.773 96.4111C106.985 96.036 106.937 95.6535 107.243 95.3483C107.753 94.8407 108.587 94.9711 109.148 94.6083C109.612 94.3088 109.587 93.9857 109.957 93.703C110.273 93.4615 110.792 93.4151 111.1 93.1648C111.702 92.6743 111.707 92.1568 112.461 91.7343C113.352 91.2347 114.142 90.8093 114.954 90.1466C115.483 89.7149 115.985 88.9488 116.603 88.6641C117.459 88.27 118.126 88.2422 118.963 87.6797C119.568 87.2733 120.14 86.6025 120.734 86.2597C121.182 86.0017 121.496 86.0572 122.061 85.8973C123.077 85.609 123.325 84.6513 124.154 84.2615C124.723 83.9939 125.551 84.239 126.176 84.0983C128.121 83.6617 130.043 82.7198 131.994 82.1981C134.377 81.5618 136.776 81.0042 139.176 80.4414C136.97 83.4314 134.161 86.1293 131.311 88.5041C130.375 89.2835 125.25 92.8375 128.013 94.3552C129.122 94.9641 131.531 92.9967 132.426 92.5158C134.23 91.5472 136.097 90.772 137.986 89.9888C141.039 88.7221 145.016 86.4693 148.41 86.6507C146.344 89.1851 143.765 91.2196 141.403 93.4583C139.231 95.516 135.96 97.4458 136.983 100.814C133.934 100.038 131.194 99.1206 128.023 99.3238C126.603 99.4148 125.181 99.2436 123.767 99.443C122.23 99.6602 120.782 100.175 119.305 100.626C118.136 100.983 116.844 101.011 115.769 101.605C115.249 101.892 114.606 102.302 114.14 102.658C113.517 103.133 113.376 103.448 112.887 104.074C111.143 106.307 109.455 108.4 108.419 111.12ZM98.88 153.385C98.7848 152.998 98.6983 152.646 98.5889 152.204C99.5596 152.802 99.5596 152.802 98.88 153.385ZM91.544 141.076C91.4244 141.241 90.9217 141.294 90.7758 141.151C90.5941 140.974 91.0718 140.282 91.1485 140.136C91.338 140.281 91.7739 140.757 91.544 141.076ZM89.4659 136.596C89.5942 136.124 89.7232 135.652 89.8516 135.18C90.0094 135.617 90.721 136.101 90.7368 136.518C90.7466 136.794 89.6065 136.657 89.4659 136.596ZM89.8783 137.243C90.992 137.976 91.1087 138.842 91.1418 140.107C89.809 139.666 90.0003 138.375 89.8783 137.243ZM109.248 87.3C109.135 87.6045 108.658 88.5526 108.309 87.8896C108.197 87.6772 109.015 87.3876 109.248 87.3ZM108.928 86.2668C109.203 86.0186 109.758 86.3272 110.07 86.1268C110.288 85.9859 110.215 85.8435 110.318 85.7602C110.339 85.7433 110.635 85.1428 110.757 85.0064C110.972 84.767 111.44 84.6176 111.701 84.401C112.43 83.7963 112.842 83.0014 113.301 82.1929C113.849 81.2275 114.023 81.1157 114.906 80.6734C115.515 80.3686 115.987 79.9956 116.482 79.4777C117.053 78.8811 117.012 78.454 117.48 77.8018C117.712 77.4798 118.045 77.4401 118.315 77.1806C118.638 76.8702 118.802 76.4357 119.102 76.1224C119.231 75.9867 119.645 75.9871 119.723 75.8711C119.823 75.7241 119.901 75.1366 119.995 75.0284C120.173 75.2695 120.352 75.5107 120.53 75.7519C121.234 74.514 121.747 73.4913 122.924 72.6676C124.161 71.8024 125.228 70.5368 126.505 69.7623C126.792 69.5883 127.377 69.5148 127.597 69.2585C127.968 68.8243 127.646 68.4383 127.917 68.0695C128.224 67.6515 128.819 67.9901 129.209 67.8097C129.703 67.5819 129.844 66.9157 130.48 66.9892C128.389 69.4631 128.415 73.312 128.304 76.4019C128.256 77.7333 129.095 78.4044 127.857 79.3811C126.804 80.2125 125.319 79.9657 124.074 80.5127C122.511 81.1997 120.839 81.565 119.244 82.1637C117.594 82.7828 116.268 83.8666 114.68 84.5838C113.28 85.2159 112.324 86.1145 111.043 86.895C110.567 87.185 109.83 87.6062 109.262 87.2596C108.907 87.0423 108.464 86.6851 108.928 86.2668ZM132.544 65.5246C132.635 65.173 134.42 64.2495 134.859 63.9482C135.518 63.495 136.493 62.389 137.229 62.8284C137.484 61.8075 138.478 60.6716 139.357 60.4554C140.332 60.2149 142.004 59.3793 142.963 58.6494C143.243 58.4364 143.335 58.1249 143.665 57.9249C144.239 57.5768 144.808 57.7666 145.361 57.2924C145.446 57.22 146.211 55.9568 146.241 55.9688C146.28 56.1045 146.316 56.2416 146.347 56.3794C146.927 56.0573 147.444 55.8011 147.806 55.3904C147.888 55.2973 147.356 55.055 147.524 54.8708C147.73 54.6448 148.188 54.8972 148.396 54.6827C147.75 57.8907 148.231 62.0195 151.485 63.6455C147.615 64.0638 143.835 62.9002 139.918 63.6149C138.042 63.9573 136.136 64.5188 134.43 65.3815C133.385 65.9102 132.048 67.8034 131.008 66.8841C131.421 66.3335 132.051 65.9915 132.544 65.5246ZM151.322 56.2964C152.769 54.5263 154.964 53.8256 157.175 54.4595C159.763 55.202 158.672 57.0104 158.281 59.0186C157.534 57.9234 155.916 56.8375 154.538 56.8044C152.585 56.758 153.323 58.3854 154.496 58.9683C155.562 59.4981 157.391 59.6457 158.155 60.6094C158.897 61.5466 158.613 63.0798 158.732 64.1851C158.155 64.0993 157.577 64.0136 157 63.9278C157.484 61.3477 155.351 61.2225 153.362 60.4951C151.351 59.7604 149.675 58.3109 151.322 56.2964ZM157.804 49.943V52.3375C157 51.8783 156.195 51.4199 155.39 50.9611C156.195 50.6218 157 50.2822 157.804 49.943ZM164.273 69.0757C166.96 69.8038 169.629 70.5744 172.212 71.5792C173.15 71.9441 174.178 72.0731 175.097 72.4852C175.973 72.8772 176.104 72.8364 175.793 73.6035C174.921 75.7529 172.854 75.3817 171.044 75.053C168.211 74.5383 165.436 73.8246 162.638 73.1531C159.902 72.4975 157.11 72.0672 154.416 71.2452C151.652 70.4022 148.958 69.6034 146.115 69.0465C145.285 68.8841 138.721 68.2819 138.77 67.5956C142.904 67.0588 147.161 67.5879 151.313 67.6438C155.629 67.7018 160.087 67.9412 164.273 69.0757ZM160.626 60.7616C160.677 59.2836 160.698 57.8011 160.881 56.3319C162.111 57.85 163.221 58.3045 164.772 56.8814C166.256 55.5195 166.587 54.8093 168.469 56.0897C170.1 57.2006 171.644 57.1493 173.376 56.1772C174.433 55.5841 176.132 53.1612 177.243 53.66C177.772 53.8977 178.16 54.8561 178.694 55.2087C179.365 55.6502 180.396 55.9568 181.178 56.1284C183.024 56.5327 184.124 55.3454 185.282 54.0752C186.963 52.2337 186.914 53.3032 188.472 54.5801C190.209 56.0046 191.662 55.3089 193.236 54.0932C194.194 56.9018 194.553 59.9688 194.824 62.9132C194.915 63.9074 195.256 65.3189 194.363 66.022C193.734 66.5177 192.398 66.5371 191.64 66.8109C188.931 67.7904 186.328 69.1801 184.063 70.9587C183.18 71.652 182.411 72.5006 181.204 72.3428C180.055 72.1923 178.938 71.2301 178.013 70.5945C177.01 69.9054 175.995 69.1228 174.822 68.7389C174.135 68.5139 173.035 68.5955 172.435 68.1827C171.317 67.416 172.632 65.4043 172.354 64.054C172.143 63.0288 171.553 60.8913 170.141 61.4922C168.04 62.3862 169.263 65.8765 170.418 66.966C168.055 66.5462 165.437 65.9331 163.158 65.154C161.397 64.5525 160.562 62.5641 160.626 60.7616ZM200.27 67.9599C205.123 66.5972 209.663 65.6786 214.713 65.4304C216.948 65.3203 219.112 65.3899 221.323 65.41C222.595 65.4216 223.565 64.3954 222.548 63.2148C221.142 61.5804 216.85 62.2027 214.948 62.1292C209.851 61.9323 205.178 62.5117 200.35 64.1918C200.861 63.2514 202.087 63.1294 202.928 62.6432C203.959 62.0462 204.66 61.0629 205.1 59.9716C206.246 57.1335 205.093 54.4591 203.894 51.8667C206.249 52.5002 208.685 53.8875 211.052 54.2398C211.549 54.3136 211.867 54.2661 212.306 54.4468C212.576 54.5576 212.661 54.9408 212.995 55.0245C213.156 55.0649 213.544 54.7003 213.726 54.752C214.447 54.9559 213.877 55.01 214.333 55.305C214.695 55.5391 214.665 55.8408 215.329 55.73C215.623 55.6815 215.943 55.2263 216.098 55.2136C216.295 55.1978 216.25 54.9573 216.552 55.0273C217.102 55.1552 217.053 55.8636 217.236 56.2124C217.432 56.5833 217.154 57.0769 217.748 57.2801C218.191 57.4323 218.302 56.9637 218.68 56.9974C218.908 57.0178 219.384 57.3476 219.586 57.5487C220.237 58.1963 221.13 58.911 222.006 59.3322C221.92 59.2457 222.419 59.0372 222.299 58.9883C222.219 58.9556 222.743 59.0822 222.735 59.0801C223.241 59.1954 223.509 59.972 223.764 60.2554C224.234 60.7743 224.965 61.3223 225.624 61.5516C226.763 61.9478 226.728 61.4739 227.144 62.8281C227.954 61.5544 228.265 63.6873 229.269 63.9222C229.79 64.0438 229.729 63.8209 230.202 64.0934C230.526 64.28 230.743 64.8517 230.987 65.1277C231.092 64.7297 231.197 64.3314 231.302 63.9338C232.026 65.3049 233.588 67.4786 235.3 67.0855C235.3 67.4596 235.146 67.9068 235.436 68.226C235.638 68.4492 235.965 68.1958 236.124 68.3255C236.262 68.4387 236.592 68.8894 236.698 68.9636C236.907 69.1098 237.285 69.2163 237.466 69.3622C237.626 69.4906 237.705 70.1033 237.882 70.3245C238.214 70.7407 238.789 70.8233 239.061 71.3222C239.123 70.8304 239.185 70.3378 239.247 69.8456C239.787 70.2626 239.833 70.586 239.965 71.196C240.154 72.0643 239.904 71.8608 240.503 72.2275C241.091 72.5878 241.398 72.5474 241.938 73.1728C242.467 73.7859 242.472 74.1635 243.235 73.5251C243.377 73.9976 243.422 74.6086 243.801 74.9707C244.088 75.2442 245.273 75.2562 245.386 75.9023C243.159 74.0232 244.624 76.8772 245.387 75.9073C245.548 76.9454 246.308 77.2808 247.176 78.0202C247.985 78.7092 248.118 78.6593 248.394 79.817C248.388 79.7917 248.801 80.0476 248.831 80.099C248.042 80.2115 249.265 81.0925 249.471 81.2535C249.622 81.3713 249.819 81.0904 250.069 81.2806C250.356 81.4985 250.589 81.9935 250.822 82.292C251.454 83.1013 251.922 83.7963 252.587 84.4545C253.305 85.1646 253.654 86.0625 254.343 86.8925C255.107 87.8143 255.521 88.874 256.16 89.8748C256.768 90.8265 257.575 91.5905 258.279 92.462C259.401 93.8486 259.782 96.9029 261.874 96.9835C261.751 97.11 261.922 98.0568 261.942 98.2315C262.041 99.0911 261.975 99.9183 262.484 100.697C262.6 99.8086 263.065 100.151 263.468 100.618C264.14 101.394 263.55 101.198 263.586 101.985C263.629 102.939 263.737 102.201 264.1 103.033C264.385 103.686 264.541 104.109 264.693 104.832C263.512 104.926 262.971 103.961 262.534 103.025C262.352 102.634 262.288 101.991 261.965 101.686C261.621 101.36 261.149 101.334 260.796 100.971C260.117 100.273 259.824 99.1853 259.024 98.5061C258.121 97.739 257.921 97.3765 257.174 96.4593C256.348 95.4446 255.208 94.732 254.342 93.7508C253.474 92.7675 253.544 93.3043 252.454 92.9486C251.295 92.5696 249.421 88.9253 247.961 90.3291C248.018 89.4108 246.643 88.547 245.948 88.2144C245.648 88.0706 245.298 88.2007 244.997 87.9852C244.671 87.7514 244.648 87.3007 244.319 87.0198C244.319 87.0198 243.815 87.1425 243.713 87.0908C243.504 86.9854 243.503 86.612 243.319 86.489C242.81 86.149 242.203 85.7925 241.663 85.5028C240.351 84.7986 239.19 83.9317 237.924 83.0841C236.838 82.3577 235.525 81.0461 234.271 80.6632C233.175 80.3289 232.486 80.499 231.589 79.8297C231.101 79.4647 231.244 79.3424 230.459 79.1156C229.712 78.8998 229.292 79.0109 228.896 78.2181C228.203 76.8308 228.64 74.1231 228.506 72.5674C228.364 70.9165 228.195 69.2244 227.764 67.6192C227.255 65.7218 226.583 64.73 224.547 65.1769C220.515 66.0632 216.531 66.9062 212.481 67.6846C204.409 69.235 196.476 71.7655 188.581 74.012C187.98 74.1836 184.625 74.9514 185.311 73.2168C185.626 72.4166 187.75 72.1185 188.46 71.8671C192.362 70.4862 196.282 69.0792 200.27 67.9599ZM198.914 64.4291C198.324 64.6538 197.735 64.8784 197.146 65.1034V63.4641C197.735 63.7854 198.324 64.1071 198.914 64.4291ZM196.464 55.761C196.976 56.1797 198.018 55.1721 198.453 54.9679C199.197 54.6195 200.144 54.3199 200.976 54.3916C202.509 54.5242 203.63 56.0334 203.349 57.5638C202.874 60.1527 199.185 61.3768 197.151 62.389C197.086 61.4714 196.789 60.3686 197.432 59.5751C197.991 58.886 199.074 58.9359 199.59 58.2029C200.887 56.3611 197.372 56.1941 196.586 57.6587C196.276 56.7225 195.966 55.7866 195.656 54.8504C196.404 54.7267 196.075 55.4439 196.464 55.761ZM200.092 50.6936C199.36 51.1668 198.628 51.64 197.897 52.1132C197.534 50.4752 198.77 50.2597 200.092 50.6936ZM266.779 107.7C265.821 108.157 265.581 107.065 264.892 107.018C265.706 106.517 265.706 106.517 266.779 107.7ZM270.677 131.551C270.797 133.121 270.703 134.709 270.912 136.273C271.071 137.463 271.553 138.57 271.605 139.773C271.717 142.408 270.827 145.091 269.031 147.022C267.331 148.849 264.899 150.422 262.604 151.19C261.571 151.536 260.492 152.303 259.488 152.586C258.377 152.9 257.321 152.217 256.405 153.442C255.794 148.189 256.24 142.7 256.192 137.414C256.144 132.116 256.201 126.817 255.305 121.576C254.507 116.909 252.933 111.659 250.033 107.841C248.855 106.29 247.405 105.021 245.875 103.832C245.081 103.215 244.287 102.555 243.404 102.068C242.043 101.319 240.884 101.422 239.404 101.209C237.287 100.903 235.319 100.645 233.193 101.241C231.214 101.796 229.036 102.428 227.263 103.393C225.498 104.354 223.447 104.751 221.615 105.611C220.368 106.197 217.778 108.153 216.395 107.801C215.056 107.46 213.074 105.187 212.219 104.169C211.127 102.869 210.223 101.361 209.253 99.9608C208.913 99.4697 208.219 98.71 208.131 98.0789C207.977 96.9838 208.416 97.3417 209.462 97.464C212.153 97.7797 214.683 98.279 217.261 99.1259C218.545 99.547 221.054 101.252 222.337 100.23C224.296 98.6706 221.319 95.9899 220.229 95.0896C218.371 93.555 216.211 92.4156 214.23 91.0519C212.126 89.6031 209.344 88.0604 207.99 85.8294C211.944 86.9966 215.894 88.3332 219.733 89.8383C221.489 90.5266 223.225 91.254 224.874 92.1695C225.801 92.6835 227.673 94.0743 228.789 93.4081C231.214 91.9603 225.644 87.7553 224.84 86.8961C223.591 85.5608 222.367 84.2383 220.995 83.0268C220.069 82.2094 218.614 81.6346 218.183 80.4291C219.72 80.9856 220.963 82.0754 222.402 82.8158C223.156 83.204 223.843 83.4272 224.675 83.546C225.563 83.6729 225.669 83.8143 226.367 84.1669C226.912 84.4422 227.471 84.8095 228.082 84.9966C228.518 85.1302 229.278 85.153 229.659 85.4002C229.854 85.6775 230.055 85.9507 230.262 86.2186C230.494 86.2872 230.723 86.3656 230.948 86.4552C231.286 86.7561 231.486 87.1713 231.815 87.4818C234.199 89.736 237.387 91.3493 240.059 93.2379C242.588 95.0245 245.271 96.6407 247.7 98.5904C250.494 100.835 253.395 103.247 255.771 105.938C257.115 107.459 258.219 109.183 259.348 110.865C260.165 112.083 261.353 113.093 262.059 114.349C263.599 117.086 264.877 120.046 266.534 122.739C268.223 125.484 270.424 128.211 270.677 131.551ZM247.961 147.435C248.421 145.535 251.019 143.317 252.68 142.479C251.843 144.549 249.613 145.961 247.961 147.435ZM252.245 154.063C250.829 157.001 244.602 157.337 245.447 152.989C245.861 150.859 247.618 149.551 249.126 148.157C249.823 147.513 251.531 145.208 252.61 145.58C252.559 147.236 252.462 148.901 252.465 150.558C252.467 151.664 252.746 153.023 252.245 154.063ZM250.445 120.199C251.02 121.489 251.592 122.563 250.526 123.718C250.045 124.239 248.478 125.379 247.769 125.126C245.493 124.314 249.832 120.779 250.445 120.199ZM236.678 108.717C237.227 108.687 237.759 108.769 238.301 108.735C238.84 108.702 238.897 108.606 239.397 108.674C239.45 108.751 239.503 108.828 239.556 108.904C239.624 109.419 239.895 109.475 240.367 109.072C241.023 109.219 241.451 109.316 242.078 109.671C240.384 110.893 238.321 112.314 236.243 112.724C232.959 113.372 233.866 108.872 236.678 108.717ZM186.331 136.199C185.991 136.884 185.011 135.173 184.769 134.854C185.221 134.852 186.675 135.508 186.331 136.199ZM212.719 118.166C215.271 116.677 218.301 115.369 221.042 114.261C221.524 116.583 219.173 119.58 217.726 121.169C216.555 122.454 215.144 123.786 213.557 124.526C211.841 125.325 209.966 124.974 210.049 122.73C210.08 121.911 210.267 120.592 210.6 119.842C211.031 118.877 211.844 118.676 212.719 118.166ZM178.227 75.9329C178.607 75.9108 182.732 75.3775 182.71 75.8908C182.645 77.4334 178.641 76.2219 178.227 75.9329ZM149.054 105.724C151.233 103.035 154.75 100.133 154.802 96.3756C154.878 90.8462 148.741 93.6049 145.656 93.8348C147.288 92.2321 155.485 85.5077 150.636 83.1196C149.243 82.433 147.262 83.1038 145.863 83.4634C143.382 84.1015 141.075 85.2068 138.637 85.9757C140.379 84.1215 143.389 82.0143 143.29 79.2063C143.17 75.7881 140.364 76.6146 137.938 77.1159C137.005 77.309 132.84 78.9659 132.058 77.8409C131.771 77.4288 132.235 76.9054 132.333 76.5383C132.507 75.8893 132.453 75.6626 132.459 74.9995C132.471 73.6618 133.36 71.9438 132.635 70.6996C132.469 70.9822 132.327 71.2765 132.209 71.582C131.97 70.8581 132.13 70.09 131.891 69.3657C137.948 70.9151 144.11 71.7631 150.205 73.0853C153.291 73.7547 156.195 74.9071 159.323 75.426C162.477 75.9488 165.577 76.7493 168.737 77.2481C171.621 77.7027 174.383 78.4603 177.239 79.0411C180.022 79.6075 182.877 78.3665 185.594 77.7379C191.679 76.3306 197.762 74.8888 203.856 73.5233C210.887 71.9466 218.201 70.599 224.931 67.97C225.062 71.4741 225.342 74.9714 225.77 78.4515C222.798 77.0463 218.387 75.214 215.382 77.7284C214.18 78.7342 213.809 80.4709 214.284 81.9482C214.802 83.5562 216.386 84.3029 217.432 85.5134C214.25 84.6974 206.04 78.9458 204.579 84.7596C203.547 88.8659 208.582 91.5181 211.043 93.8292C208.598 93.3507 205.325 91.3964 203.89 94.5373C202.649 97.2527 204.143 100.207 205.674 102.447C206.503 103.66 207.436 104.802 208.318 105.978C208.784 106.6 209.239 107.23 209.729 107.834C210.22 108.439 211.147 109.073 211.491 109.724C212.185 111.038 210.786 111.119 209.698 111.593C208.339 112.186 207.173 113.181 205.931 113.974C203.086 115.791 200.6 117.477 197.239 118.058C193.778 118.655 190.446 119.279 187.03 120.113C183.626 120.943 180.847 121.742 177.367 120.668C175.78 120.178 174.488 119.743 172.805 119.835C171.037 119.932 170.004 119.84 168.55 118.746C162.297 114.035 155.508 110.17 149.054 105.724ZM137.779 100.995C140.196 99.7822 142.629 98.5634 145.126 97.5217C147.192 96.6586 150.33 95.6535 152.593 96.0318C151.955 97.6701 150.791 99.0141 149.543 100.22C148.439 101.287 147.06 102.897 145.724 103.642C144.511 104.318 143.1 103.247 141.904 102.799C140.589 102.306 138.78 102.077 137.779 100.995ZM138.387 107.113C139.591 106.612 142.18 108.292 143.275 108.729C145.428 109.587 147.593 110.484 149.49 111.838C147.173 114.516 144.549 116.963 141.432 118.683C139.381 119.814 135.923 121.112 133.988 119.058C131.558 116.476 134.48 111.216 136.201 109.004C136.258 109.382 136.315 109.76 136.372 110.139C136.922 109.26 137.341 107.548 138.387 107.113ZM182.605 130.028C181.102 130.344 180.591 130.058 179.599 128.906C178.929 128.127 178.27 127.318 177.514 126.618C176.742 125.903 174.837 124.18 177.264 125.172C179.477 126.077 181.373 126.529 183.808 126.174C186.592 125.77 189.188 124.592 191.933 123.996C190.428 125.313 188.934 126.643 187.426 127.956C185.833 129.343 184.628 129.601 182.605 130.028ZM182.948 140.618C179.655 143.096 173.026 142.828 175.257 137.375C175.596 136.547 176.07 135.768 176.619 135.062C176.802 134.827 177.127 134.338 177.388 134.18C178.117 133.739 177.914 133.685 178.615 134.422C179.219 135.057 183.94 140.248 182.948 140.618ZM181.972 131.144C182.273 131.046 183.544 130.309 183.834 130.717C184.127 131.129 181.635 132.557 181.972 131.144ZM205.945 168.938C205.204 170.709 199.279 173.274 200.382 169.703C200.871 168.121 201.332 166.923 203.177 166.803C204.242 166.734 206.597 167.378 205.945 168.938ZM216.574 144.93C217.55 143.509 220.771 141.589 222.146 143.707C222.809 144.727 221.201 145.25 220.229 144.988C219.706 144.846 219.279 144.534 218.712 144.511C217.982 144.481 217.268 145.054 216.574 144.93ZM219.16 146.34C218.497 147.011 214.496 150.377 213.848 149.858C215.155 147.991 216.655 145.905 219.16 146.34ZM212.626 180.405C211.237 180.484 211.931 178.39 212.065 177.553C212.401 178.136 214.17 180.318 212.626 180.405ZM216.156 176.653C215.707 175.853 214.496 174.663 214.769 173.634C214.979 172.847 216.869 171.79 217.66 172.241C218.712 172.841 217.188 176.786 216.156 176.653ZM249.119 168.267C248.525 170.315 247.909 169.786 246.046 170.183C244.176 170.581 242.884 172.169 241.238 173.02C241.81 171.811 242.165 170.339 243.122 169.358C243.343 169.131 244.699 168.684 243.927 168.16C243.251 167.701 242.28 169.189 241.99 169.595C240.564 171.591 239.567 174.028 238.744 176.324C238.339 177.452 238.015 178.602 237.823 179.786C237.652 180.841 237.837 181.946 237.662 182.974C237.382 184.63 235.133 184.638 233.781 185.065C232.556 185.451 231.338 185.87 230.067 186.079C228.965 186.259 227.822 185.93 226.754 186.147C225.598 186.382 225.078 187.068 223.764 186.913C222.693 186.787 221.69 186.294 220.604 186.245C219.588 186.199 218.574 186.551 217.564 186.264C216.544 185.976 216.593 185.864 216.825 184.862C216.97 185.132 217.115 185.403 217.261 185.673C217.667 185.354 217.948 184.383 218.197 183.926C218.584 183.22 218.898 182.975 218.755 182.095C218.544 180.795 217.372 179.871 217.106 178.634C216.829 177.344 217.783 176.289 218.347 175.212C219.117 173.738 219.107 172.645 218.461 171.121C218.948 171.249 219.435 171.378 219.922 171.507C219.255 170.057 216.991 170.645 215.855 171.074C215.285 171.29 214.38 172.138 213.766 172.116C212.923 172.086 212.483 170.977 212.12 170.367C211.071 168.599 209.873 166.854 208.632 165.213C208.291 164.762 207.844 164.472 207.961 163.958C208.062 163.521 209.04 162.902 209.358 162.634C210.548 161.627 212.063 161.069 213.181 160.009C214.871 158.408 216.82 157.261 218.548 155.692C220.348 154.057 222.202 152.555 224.078 151.01C225.978 149.445 227.623 147.601 229.509 146.02C229.998 146.906 230.945 150.077 232.027 150.323C233.29 150.608 233.252 149.115 233.19 148.216C233.1 146.935 232.389 145.691 232.31 144.468C232.225 143.16 233.483 142.576 234.432 141.82C235.899 140.651 239.144 137.99 237.4 135.8C235.897 133.913 231.009 137.531 229.662 138.618C228.517 139.543 227.633 140.379 226.344 141.108C225.437 141.62 223.917 143.591 222.842 143.409C221.564 143.192 221.065 141.797 219.502 141.843C217.974 141.887 216.676 142.988 215.729 144.092C213.587 146.59 212.851 149.931 210.899 152.535C209.937 153.818 208.689 154.877 207.645 156.092C206.499 157.424 206.256 158.96 205.125 160.264C201.891 155.956 198.367 151.876 194.956 147.708C193.253 145.627 191.585 143.521 189.918 141.411C189.293 140.62 188.589 139.878 188.017 139.047C187.233 137.91 187.374 136.996 187.067 135.727C186.931 135.165 186.292 134.491 186.463 133.953C186.693 133.231 188.307 132.664 188.89 132.369C191.267 131.162 193.424 129.653 195.641 128.179C199.747 125.448 203.9 122.888 208.267 120.556C208.192 121.561 207.538 122.602 207.977 123.61C208.182 123.03 208.505 120.447 209.279 120.336C209.131 120.357 209.253 123.649 209.373 124.118C209.73 125.521 210.767 126.48 212.25 126.471C215.076 126.452 217.608 123.379 219.177 121.343C220.238 119.965 221.258 118.362 221.632 116.636C221.968 115.087 221.599 114.01 223.209 113.223C226.513 111.61 229.843 110.295 233.377 109.439C233.219 110.962 232.777 112.836 234.161 113.932C235.689 115.141 237.688 114.063 239.126 113.263C240.551 112.471 242.748 110.295 244.422 110.927C246.068 111.549 247.213 113.613 248.135 114.984C248.947 116.192 249.83 117.064 248.89 118.41C247.836 119.92 247.15 121.393 246.306 123.032C245.981 123.662 245.671 124.073 245.901 124.719C245.975 124.928 246.821 126.176 247.051 126.355C248.517 127.496 250.497 125.326 251.544 124.502C251.913 128.049 251.995 131.581 252.144 135.14C252.253 137.746 253.262 140.312 251.123 142.217C248.985 144.122 247.2 146.077 245.897 148.656C245.201 150.034 244.577 151.448 243.824 152.797C243.321 153.698 242.26 155.02 242.909 156.081C243.594 155.431 243.798 154.442 244.369 153.709C244.711 155.231 245.055 156.919 246.665 157.564C248.517 158.306 250.357 157.022 251.998 156.308C251.41 160.375 250.262 164.328 249.119 168.267ZM247.226 172.943C245.955 175.66 244.807 178.935 242.46 180.936C241.945 181.375 239.755 183.089 238.922 182.802C238.214 182.558 238.604 181.129 238.727 180.516C239.352 177.408 240.434 175.451 242.955 173.469C243.998 172.647 245.337 171.598 246.683 171.396C248.131 171.178 247.714 171.9 247.226 172.943ZM283.076 237.422C279.781 232.941 275.124 229.459 270.722 226.092C268.728 224.567 266.531 223.424 264.517 221.899C262.24 220.174 259.927 218.51 257.376 217.211C252.54 214.747 247.264 213.029 242.7 210.115C240.474 208.694 238.039 207.32 235.947 205.725C235.028 205.024 234.216 204.127 233.385 203.325C232.613 202.579 230.956 201.496 230.65 200.404C231.934 200.194 232.664 198.948 233.81 198.821C234.188 198.779 236.554 199.405 236.231 198.257C237.089 198.236 237.189 198.223 237.908 198.035C238.206 197.957 238.559 198.079 238.86 197.972C239.321 197.809 239.634 197.34 240.1 197.16C240.43 197.032 241.659 197.175 241.845 197.015C242.353 196.581 241.813 196.619 241.51 196.077C242.498 196.052 243.177 196.551 244.167 196.02C244.469 195.858 244.724 195.486 245.017 195.293C245.535 194.95 245.722 195.481 246.077 194.77C246.41 195.751 246.401 195.48 247.201 195.191C247.999 194.903 248.575 194.696 249.484 194.624C251.654 194.452 253.833 194.716 255.993 194.562C256.783 194.505 257.459 194.325 258.244 194.429C258.935 194.52 258.727 195.001 259.302 194.353C259.435 194.202 259.004 193.79 259.21 193.574C259.302 193.478 259.599 193.546 259.712 193.497C260.722 193.056 260.727 193.672 260.906 194.474C261.498 194.335 262.103 194.21 262.617 193.862C262.357 193.63 261.922 193.374 262.173 192.951C263.028 193.274 263.586 193.125 263.159 194.062C264.019 194.347 264.179 193.976 264.951 193.895C265.408 193.847 266.046 194.131 266.426 193.766C266.841 193.368 266.186 192.935 266.949 192.593C267.106 192.673 267.222 192.793 267.297 192.953C267.709 193.078 267.635 193.24 267.075 193.44C268.576 194.218 268.223 193.348 268.853 192.428C268.999 192.216 269.651 191.558 269.948 191.876C270.398 192.358 269.479 192.512 269.676 192.991C270.017 193.823 271.21 192.757 271.576 192.336C271.853 192.018 271.965 191.408 272.264 191.17C272.678 190.839 273.275 191.35 273.794 191.258C276.165 190.843 278.404 187.655 276.618 185.521C276.138 184.947 275.732 185.061 275.16 184.699C274.594 184.341 274.277 183.722 273.823 183.211C272.787 182.045 271.519 181.171 270.07 180.612C266.71 179.316 263.09 178.371 259.561 177.675C257.927 177.352 256.188 176.86 254.515 176.863C253.529 176.865 252.045 177.632 251.123 177.265C249.332 176.55 251.962 172.896 252.396 171.716C253.671 168.248 254.633 164.551 255.263 160.911C255.387 160.198 255.339 159.275 255.596 158.597C255.891 157.816 255.954 157.926 256.584 157.863C257.723 157.748 258.969 158.345 260.155 158.139C261.47 157.91 262.89 158.016 264.217 157.61C264.827 157.423 265.393 157.22 265.795 156.705C265.921 156.544 265.78 156.403 265.86 156.29C265.885 156.254 266.339 155.765 266.354 155.737C266.349 155.484 266.371 155.232 266.42 154.984C266.879 155.365 266.653 156.166 267.428 156.185C267.566 155.331 267.567 155.159 268.128 154.679C268.085 154.716 268.55 154.32 268.49 154.363C268.518 154.21 268.574 154.068 268.658 153.937C268.92 153.811 269.197 153.743 269.488 153.736C270.093 153.113 269.842 152.781 269.842 151.942C270.331 152.196 270.819 152.45 271.308 152.704C271.427 150.22 272.939 148.86 273.944 146.847C274.372 145.989 274.809 145.318 274.911 144.284C274.97 143.687 274.816 143.16 275.063 142.598C275.287 142.087 275.789 141.812 275.998 141.256C276.411 140.162 276.103 138.765 276.126 137.629C276.157 136.053 276.314 134.483 276.366 132.908C276.467 129.816 276.156 126.638 275.693 123.582C275.472 122.12 275.102 120.702 274.811 119.255C274.572 118.067 274 116.951 273.796 115.845C273.711 115.386 273.842 114.974 273.704 114.465C273.521 113.797 273.216 113.14 272.989 112.484C272.459 110.951 271.935 109.421 271.338 107.912C270.183 104.988 268.83 102.151 267.545 99.2834C266.309 96.5254 265.285 93.6816 263.684 91.1064C262.107 88.5699 260.409 86.0759 258.672 83.6476C256.861 81.1192 254.572 78.9465 252.817 76.3945C249.52 71.6031 244.922 67.6547 240.112 64.3943C230.185 57.6661 219.459 50.9484 207.556 48.6415C205.762 48.2941 203.945 48.053 202.117 48.008C200.982 47.9798 199.103 48.5283 198.029 48.1444C196.826 47.7141 196.936 46.363 196.635 45.3034C196.247 43.9407 195.374 43.0485 194.382 42.0852C193.338 41.0713 192.39 39.8872 191.088 39.1978C189.768 38.4996 188.212 38.2384 186.75 38.0275C185.444 37.8383 183.494 38.0148 182.301 37.446C181.215 36.9278 181.751 36.3881 182.768 36.8318C182.843 36.3832 182.903 36.0935 183.191 35.7469C183.335 35.5725 184.017 35.3282 184.033 35.1654C184.053 34.9752 183.481 34.4331 183.399 34.1875C183.223 33.6589 183.323 32.9267 183.532 32.4306C184.557 33.3421 184.854 33.7458 185.999 32.8745C186.483 32.5066 186.631 32.3443 187.191 32.1587C187.343 32.1083 187.684 32.2639 187.816 32.1767C188.322 31.8434 187.857 31.922 188.097 31.5281C188.037 31.6275 188.462 30.5808 188.441 30.7997C188.493 30.2421 188.658 30.4135 188.321 29.7284C187.662 28.3883 185.983 28.3335 186.839 26.8042C187.175 26.2024 187.472 26.2624 187.567 25.3899C187.618 24.9208 187.554 24.383 187.552 23.9059C187.548 22.93 187.732 22.2468 186.817 21.7499C185.939 21.2721 185.128 21.7963 184.771 20.6111C184.397 19.3675 184.774 17.7731 183.427 16.9215C182.442 16.2993 181.021 16.8312 179.933 16.5269C178.843 16.2222 177.84 15.1068 176.734 15.9632C175.947 16.5718 175.531 18.0683 174.049 17.259C173.381 16.8941 173.013 15.6687 172.591 14.9815C171.92 13.8862 171.381 13.4905 170.347 14.5573C169.71 15.2153 168.367 16.817 168.285 17.7278C168.195 18.7333 169.072 19.1534 167.97 19.7482C166.875 20.34 166.261 19.906 165.371 21.1073C164.489 22.299 165.172 22.9574 164.15 24.0977C162.872 25.5229 162.193 26.1381 162.211 28.0584C162.223 29.3755 161.059 30.5132 161.738 31.7627C162.499 33.1631 164.72 33.7454 166.066 34.3154C165.616 35.1458 165 35.6783 165.524 36.533C166 37.3071 167.343 37.4681 168.176 37.3275C168.736 37.2329 168.756 37.318 169.197 36.9239C169.486 36.6662 169.09 36.3442 169.684 36.2014C170.317 36.0485 171.328 37.2892 171.739 37.5996C170.821 38.7918 168.298 39.0146 166.963 39.6186C166.15 39.9874 165.402 40.5327 164.574 40.8621C163.822 41.1609 162.908 41.0917 162.227 41.554C161.05 42.3527 160.561 44.3313 159.84 45.4946C159.023 46.8116 158.232 47.423 156.666 47.6965C154.712 48.0371 153.139 48.1743 151.317 49.025C149.092 50.0643 146.898 51.1611 144.713 52.2816C141.188 54.0882 137.914 55.9427 134.641 58.1277C131.216 60.4143 127.886 62.8007 124.582 65.1895C121.314 67.5524 118.57 70.4591 115.731 73.3163C113.436 75.626 111.423 78.1193 109.137 80.4284C106.438 83.1551 104.453 86.5962 101.951 89.4885C100.582 91.0709 99.2724 92.6269 98.4135 94.4909C97.7174 96.0022 96.5066 97.4848 95.6984 99.07C94.6659 101.097 93.6885 103.091 92.5291 105.051C92.0534 105.855 91.4881 106.545 90.986 107.313C90.3427 108.296 90.3807 109.246 90.2077 110.379C90.027 110.102 89.8466 109.826 89.6659 109.55C89.3383 110.265 88.9424 110.969 88.6587 111.701C88.4776 112.168 88.5061 112.832 88.3244 113.241C88.0962 113.754 87.8185 113.686 87.534 114.113C87.2299 114.57 87.1319 115.184 86.8116 115.675C85.4261 117.794 84.8931 120.483 84.1812 122.901C83.2264 126.145 83.3768 129.873 83.4289 133.218C83.4841 136.75 83.6771 140.284 84.2083 143.779C84.6896 146.945 85.7182 149.981 87.3287 152.757C88.7322 155.176 90.6672 156.585 93.146 157.824C94.2844 158.393 95.3408 158.218 96.5355 158.308C97.8443 158.408 98.7369 158.763 100.122 158.451C100.786 158.3 101.1 157.817 101.628 157.655C101.955 157.556 102.131 157.719 102.445 157.681C102.893 157.626 103.826 157.406 104.313 157.459C105.827 157.624 105.573 159.913 105.722 161.082C105.951 162.882 106.119 164.702 106.428 166.491C107.078 170.253 108.482 173.768 109.311 177.465C105.467 177.934 102.169 178.651 98.565 180.107C94.9499 181.566 91.2947 182.062 87.4901 182.787C83.9309 183.466 80.5074 184.735 77.6583 187.033C76.3231 188.109 74.9358 189.369 75.9163 191.142C76.5435 192.276 77.6738 192.565 78.6494 193.224C78.8466 192.974 78.2764 192.446 78.1719 192.299C78.9921 192.467 78.9672 192.85 79.5662 193.184C80.0897 193.475 80.5183 193.464 81.0913 193.67C82.4905 194.173 83.1782 195.427 84.5612 195.779C84.9965 195.89 85.5657 196.155 86.0104 196.23C86.5451 196.32 86.9452 196.086 87.4869 196.186C87.7791 196.378 88.0955 196.516 88.4351 196.598C88.658 196.495 88.8781 196.386 89.095 196.271C89.8733 196.352 90.3539 196.841 90.9864 197.243C91.0286 196.736 90.9678 196.21 91.4473 195.879C91.6347 196.372 91.332 196.684 91.8432 197.023C92.4907 197.453 93.3412 196.916 93.9209 196.645C94.0851 198.283 97.8774 198.186 99.0794 198.163C100.744 198.131 102.407 197.47 104.086 197.839C104.943 198.027 105.857 198.223 106.71 198.467C107.737 198.76 108.979 199.022 109.989 199.393C110.392 199.54 110.884 200.012 111.312 199.98C111.652 199.954 111.744 199.452 112.14 199.466C112.589 199.483 112.74 199.982 113.128 200.133C113.709 200.358 114.244 199.93 114.796 200.146C114.995 200.223 115.264 200.556 115.518 200.665C115.903 200.829 116.667 200.831 117.096 200.911C117.705 201.023 118.25 200.948 118.771 200.985C119.192 201.015 119.182 201.298 119.383 201.316C119.614 201.337 120.016 200.544 120.326 200.427C120.778 200.258 121.597 200.661 122.058 200.732C118.722 205.254 114.7 209.251 110.34 212.75C105.637 216.525 100.821 220.295 95.7775 223.606C91.1984 226.613 86.7659 229.213 83.2158 233.457C80.2223 237.036 75.4572 240.865 76.1916 246.051C76.9257 251.234 82.5531 253.343 87.0623 254.332C92.7337 255.577 98.5717 255.076 104.258 255.775C106.683 256.074 109.378 255.915 111.819 255.66C114.702 255.36 117.173 253.479 119.652 252.118C124.111 249.671 127.922 246.396 132.314 243.872C137.813 240.712 143.254 237.363 149.282 235.247C152.086 234.262 154.973 233.138 157.236 231.113C157.572 230.812 157.823 230.357 158.203 230.109C158.85 229.687 159.023 230.115 159.399 229.987C159.687 229.888 159.967 229.576 160.217 229.483C160.849 229.246 161.132 229.344 161.84 229.344C161.232 228.993 160.676 228.09 161.307 227.353C162.387 226.092 162.573 228.107 162.979 228.575C163.323 228.132 163.191 227.739 163.103 227.237C163.394 227.429 163.685 227.62 163.975 227.813C163.775 226.84 163.965 225.945 164.481 225.097C164.955 224.317 165.073 224.427 165.204 223.345C166.679 224.691 166.967 221.423 167.1 220.231C167.229 219.075 167.102 218.245 167.862 217.235C168.678 216.15 169.919 215.464 170.954 214.621C172.59 213.289 174.391 211.607 176.653 212.884C178.439 213.893 179.411 216.365 181.087 217.635C182.104 218.406 183.177 218.484 183.825 219.679C184.348 220.645 184.519 221.802 185.013 222.794C186.211 225.198 187.936 227.949 189.904 229.794C191.735 231.511 194.087 231.502 196.23 232.566C198.352 233.621 200.556 234.763 202.803 235.527C205.255 236.361 207.901 236.716 210.289 237.727C211.517 238.247 212.616 239.03 213.855 239.528C215.192 240.065 216.6 240.443 217.954 240.935C223.32 242.884 228.571 245.274 234.209 246.355C236.709 246.833 239.024 248.135 241.542 248.41C242.623 248.527 243.504 248.676 244.561 248.946C246.22 249.37 245.868 249.595 246.479 250.978C247.484 253.255 249.939 251.906 251.831 251.963C254.86 252.055 257.843 251.565 260.866 251.542C266.155 251.501 271.246 250.905 276.362 249.169C281.497 247.426 287.345 243.226 283.076 237.422Z" fill="black"/>
    <path fill-rule="evenodd" clip-rule="evenodd" d="M221.949 59.554C222.021 59.6264 222.191 59.6703 221.949 59.554V59.554Z" fill="black"/>
    <path fill-rule="evenodd" clip-rule="evenodd" d="M128.799 156.514C129.948 155.35 134.835 155.585 135.204 157.668C135.616 159.992 131.249 163.502 129.651 164.486C127.595 165.753 125.085 165.99 125.449 162.81C125.725 160.408 127.164 158.171 128.799 156.514ZM132.835 154.118C132.984 154.762 131.886 154.543 131.583 154.39C131.441 154.098 132.686 153.472 132.835 154.118ZM124.408 158.38C125.383 158.467 126.499 156.904 127.235 156.371C127.56 156.874 125.417 159.635 125.181 160.265C124.592 161.839 124.264 163.828 125.067 165.399C127.414 169.988 133.418 163.435 134.92 161.146C135.971 159.545 136.698 157.56 135.214 155.991C134.686 155.432 133.813 155.277 133.322 154.746C132.676 154.048 133.184 153.146 131.885 153.298C130.989 153.404 129.912 154.212 129.041 154.505C127.99 154.857 127.046 155.223 126.129 155.876C125.923 156.023 123.204 158.272 124.408 158.38Z" fill="black"/>
    <path fill-rule="evenodd" clip-rule="evenodd" d="M193.296 159.92C192.683 163.073 189.559 166.307 186.272 166.433C182.998 166.558 181.938 163.128 182.516 160.394C183.009 158.063 185.024 154.012 187.899 154.458C190.159 154.809 193.821 157.218 193.296 159.92ZM191.211 154.651C189.136 153.045 186.268 152.301 183.862 153.576C183.073 153.994 179.925 155.836 180.883 157.084C182.175 156.083 183.29 154.693 184.969 154.361C184.686 155.662 183.074 156.833 182.506 158.1C181.842 159.581 181.479 161.275 181.587 162.902C181.781 165.798 183.721 168.048 186.723 167.65C189.472 167.285 191.876 165.178 193.187 162.809C194.938 159.646 193.952 156.771 191.211 154.651Z" fill="black"/>
    <path fill-rule="evenodd" clip-rule="evenodd" d="M171.936 167.087C170.458 169.275 168.204 171.334 165.599 172.01C162.226 172.884 163.173 170.097 164.181 168.096C165.073 166.328 166.602 163.285 168.93 163.302C169.72 163.307 171.192 163.689 171.884 164.112C173.25 164.945 172.714 165.936 171.936 167.087ZM168.788 162.278C169.318 161.687 171.666 159.154 171.981 161.129C172.655 160.347 172.124 159.698 171.26 159.615C170.219 159.516 169.08 160.676 168.328 161.252C166.782 162.437 165.591 163.651 164.566 165.314C163.435 167.146 160.554 171.287 163.076 173.105C165.802 175.07 169.769 171.441 171.477 169.569C172.568 168.372 174.014 166.614 173.599 164.858C173.089 162.701 170.581 162.475 168.788 162.278Z" fill="black"/>
    <path fill-rule="evenodd" clip-rule="evenodd" d="M157.156 127.012C155.63 128.753 152.532 131.289 149.978 130.99C147.65 130.717 148.559 128.103 149.383 126.838C150.621 124.937 152.28 123.152 154.676 123.048C155.711 123.004 157.052 123.025 157.853 123.808C158.947 124.878 157.962 126.093 157.156 127.012ZM156.994 122.176C155.207 121.559 154.505 121.324 152.768 122.305C151.373 123.094 150.136 124.208 149.18 125.473C147.747 127.366 146.303 131.625 149.98 132.158C154.015 132.743 163.61 124.464 156.994 122.176Z" fill="black"/>
    <path fill-rule="evenodd" clip-rule="evenodd" d="M162.492 133.043C161.332 134.229 159.883 135.196 158.229 135.526C158.929 133.965 160.491 130.555 162.343 130.08C163.196 129.861 164.169 130.148 164.099 131.12C164.048 131.823 162.95 132.575 162.492 133.043ZM163.986 128.917C163.025 128.436 163.328 128.107 162.21 128.485C161.329 128.782 160.218 129.298 159.484 129.893C159.084 130.218 157.838 131.369 157.99 131.955C158.267 133.019 159.196 131.388 159.44 131.075C159.859 131.416 157.718 134.48 157.591 134.984C157.116 136.862 158.59 137.061 160.034 136.446C161.982 135.618 167.751 130.804 163.986 128.917Z" fill="black"/>
    <path fill-rule="evenodd" clip-rule="evenodd" d="M192.548 179.447C192.692 178.202 192.896 176.886 194.039 176.187C195.068 175.557 196.135 175.648 196.287 176.941C196.429 178.141 195.253 180.272 194.301 180.927C192.977 181.839 192.722 180.702 192.548 179.447ZM194.25 182.28C196.969 180.689 198.683 173.392 193.67 175.437C190.822 176.599 191.87 183.673 194.25 182.28Z" fill="black"/>
    <path fill-rule="evenodd" clip-rule="evenodd" d="M171.026 152.019C171.454 151.141 171.945 150.849 172.815 150.464C172.235 151.012 171.643 151.517 171.026 152.019ZM171.653 149.853C171.037 150.472 169.626 151.414 169.824 152.475C170.004 153.444 170.744 153.388 171.415 153.086C172.822 152.454 173.606 149.684 175.078 149.424C173.445 148.389 173.064 148.437 171.653 149.853Z" fill="black"/>
    <path fill-rule="evenodd" clip-rule="evenodd" d="M171.869 94.8407C171.948 97.7906 172.017 100.74 172.082 103.69C172.105 104.727 171.857 106.205 172.168 107.198C172.306 107.635 173.548 109.532 173.989 109.654C175.531 110.084 174.98 106.217 174.991 105.265C175.029 102.053 174.981 98.8369 174.968 95.6247C174.961 93.9692 175.429 80.0888 173.281 80.1566C172.911 80.1682 171.999 81.7552 171.862 82.0733C171.43 83.0725 171.589 84.5536 171.599 85.6188C171.628 88.6915 171.788 91.7684 171.869 94.8407Z" fill="black"/>
    <path fill-rule="evenodd" clip-rule="evenodd" d="M184.875 103.44C184.996 104.256 184.932 105.615 185.85 106.038C186.649 106.406 186.955 105.969 187.254 105.285C187.941 103.713 187.693 101.309 187.68 99.6838C187.655 96.4621 187.292 93.2541 187.042 90.0447C186.931 88.6363 187.16 87.222 186.984 85.7482C186.907 85.1017 186.83 82.5001 185.631 82.6214C184.547 82.7308 184.645 85.4571 184.586 86.1595C184.094 92.0074 184.009 97.6026 184.875 103.44Z" fill="black"/>
    <path fill-rule="evenodd" clip-rule="evenodd" d="M236.034 170.592C235.575 172.94 228.08 181.119 226.192 176.545C225.073 173.831 227.5 170.877 229.392 169.306C230.564 168.333 232.027 167.379 233.623 167.674C234.979 167.924 236.325 169.1 236.034 170.592ZM232.164 166.379C231.634 166.504 227.209 169.611 227.169 169.571C226.785 169.185 229.575 165.025 229.863 164.661C232.229 161.663 233.799 163.933 235.279 166.289C234.964 164.882 234.097 162.839 232.648 162.244C230.819 161.492 229.392 163.347 228.512 164.68C227.269 166.565 226.583 168.611 225.892 170.738C225.562 171.753 225.187 172.672 224.629 173.587C224.078 174.489 223.114 175.484 223.256 176.626C224.039 176.19 224.455 175.338 224.949 174.636C225.499 174.859 225.31 176.614 225.422 177.061C225.703 178.183 226.47 179.062 227.656 179.255C229.867 179.615 232.254 177.569 233.732 176.18C235.29 174.716 236.966 172.709 236.953 170.456C236.939 168.102 234.624 165.797 232.164 166.379Z" fill="black"/>
    <path fill-rule="evenodd" clip-rule="evenodd" d="M238.158 128.641C236.904 130.561 234.702 132.863 232.373 133.309C230.664 133.636 229.536 132.369 230.223 130.659C230.803 129.213 232.779 128.3 234.075 127.664C235.102 127.159 239.894 125.985 238.158 128.641ZM237.235 125.501C234.665 125.404 232.593 127.262 230.677 128.745C231.109 127.041 232.088 125.188 233.467 124.08C235.342 122.571 237.12 123.508 239.095 124.262C238.608 122.725 236.421 122.172 235.028 122.389C233.267 122.664 232 124.168 231.109 125.622C230.047 127.358 229.684 129.403 228.433 131.031C227.86 131.776 224.315 134.564 225.118 135.703C226.442 134.297 227.766 132.892 229.091 131.486C229.434 133.147 229.813 135.039 231.934 134.878C233.628 134.748 235.56 133.308 236.799 132.208C238.399 130.786 241.547 125.664 237.235 125.501Z" fill="black"/>
    <path fill-rule="evenodd" clip-rule="evenodd" d="M201.239 141.895C200.151 142.395 197.754 143.075 197.146 141.571C196.3 139.483 199.021 135.82 200.316 134.428C201.112 133.572 201.653 133.129 202.763 133.683C203.65 134.125 204.953 135.383 205.293 136.349C206.023 138.425 202.942 141.111 201.239 141.895ZM203.737 131.863C204.623 132.063 204.732 133.189 203.623 132.757C202.793 132.433 202.6 131.607 203.737 131.863ZM204.849 133.449C204.519 132.439 205.192 130.855 203.562 130.783C202.638 130.742 200.946 131.681 200.139 132.062C199.022 132.591 197.97 133.399 197.386 134.536C196.845 135.59 197.231 135.867 198.055 134.993C198.156 135.062 196.191 140.129 196.174 140.637C196.098 142.957 197.74 144.485 200.047 144.074C202.167 143.696 204.078 141.962 205.245 140.212C205.835 139.326 206.32 138.312 206.364 137.227C206.432 135.563 205.323 134.894 204.849 133.449Z" fill="black"/>
    <path fill-rule="evenodd" clip-rule="evenodd" d="M218.053 128.824C216.198 127.976 214.125 130.875 215.02 132.598C216.193 134.857 221.918 130.59 218.053 128.824ZM215.84 132.065C215.454 131.378 218.076 130.366 218.491 130.349C218.283 130.728 216.37 133.007 215.84 132.065Z" fill="black"/>
    <path fill-rule="evenodd" clip-rule="evenodd" d="M91.7386 127.165C91.6349 126.431 89.9903 127.496 89.9998 127.969C90.2719 127.425 91.9545 128.694 91.7386 127.165Z" fill="black"/>
    <path fill-rule="evenodd" clip-rule="evenodd" d="M181.689 71.717C183.783 71.563 181.115 60.9993 179.59 61.9334C177.935 62.9459 179.768 71.858 181.689 71.717Z" fill="black"/>
    <path fill-rule="evenodd" clip-rule="evenodd" d="M185.6 66.7842C187.562 67.0651 187.25 62.5605 186.195 61.7544C184.247 60.2662 183.218 66.4432 185.6 66.7842Z" fill="black"/>
</svg>