<svg width="361" height="333" viewBox="0 0 361 333" fill="none" xmlns="http://www.w3.org/2000/svg">
    <g opacity="0.5">
        <path fill-rule="evenodd" clip-rule="evenodd" d="M276.604 110.673C290.883 110.673 302.459 99.0532 302.459 84.7191C302.459 70.3849 290.883 58.7646 276.604 58.7646C262.324 58.7646 250.749 70.3849 250.749 84.7191C250.749 99.0532 262.324 110.673 276.604 110.673Z" fill="#F2F2F2"/>
        <path fill-rule="evenodd" clip-rule="evenodd" d="M276.604 65.6205C277.412 65.6205 278.067 64.9628 278.067 64.1514C278.067 63.34 277.412 62.6823 276.604 62.6823C275.796 62.6823 275.14 63.34 275.14 64.1514C275.14 64.9628 275.796 65.6205 276.604 65.6205Z" fill="black" fill-opacity="0.1"/>
        <path fill-rule="evenodd" clip-rule="evenodd" d="M256.115 86.1882C256.923 86.1882 257.578 85.5306 257.578 84.7191C257.578 83.9077 256.923 83.25 256.115 83.25C255.306 83.25 254.651 83.9077 254.651 84.7191C254.651 85.5306 255.306 86.1882 256.115 86.1882Z" fill="black" fill-opacity="0.1"/>
        <path fill-rule="evenodd" clip-rule="evenodd" d="M297.093 86.1882C297.901 86.1882 298.557 85.5306 298.557 84.7191C298.557 83.9077 297.901 83.25 297.093 83.25C296.285 83.25 295.63 83.9077 295.63 84.7191C295.63 85.5306 296.285 86.1882 297.093 86.1882Z" fill="black" fill-opacity="0.1"/>
        <path fill-rule="evenodd" clip-rule="evenodd" d="M276.604 106.756C277.412 106.756 278.067 106.098 278.067 105.287C278.067 104.475 277.412 103.818 276.604 103.818C275.796 103.818 275.14 104.475 275.14 105.287C275.14 106.098 275.796 106.756 276.604 106.756Z" fill="black" fill-opacity="0.1"/>
        <path fill-rule="evenodd" clip-rule="evenodd" d="M276.604 67.0896L277.58 84.2293H275.628L276.604 67.0896Z" fill="#BABCC1"/>
        <path fill-rule="evenodd" clip-rule="evenodd" d="M285.238 93.3858L276.269 85.7679L277.649 84.3831L285.238 93.3858Z" fill="#BABCC1"/>
        <path fill-rule="evenodd" clip-rule="evenodd" d="M276.604 86.6779C277.682 86.6779 278.555 85.8008 278.555 84.7191C278.555 83.6373 277.682 82.7603 276.604 82.7603C275.526 82.7603 274.653 83.6373 274.653 84.7191C274.653 85.8008 275.526 86.6779 276.604 86.6779Z" fill="#F7BA9D"/>
        <g opacity="0.345889">
            <path fill-rule="evenodd" clip-rule="evenodd" d="M249.185 221.046C245.821 183.315 65.3527 110.489 31.8496 146.228C-1.65362 181.966 30.5556 249.038 100.766 266.212C170.976 283.388 252.548 258.777 249.185 221.046Z" fill="#F2F2F2"/>
            <path fill-rule="evenodd" clip-rule="evenodd" d="M137.64 245.562C140.653 213.508 302.309 151.64 332.32 182.001C362.331 212.362 354.735 276.223 291.843 290.814C228.952 305.405 134.628 277.616 137.64 245.562Z" fill="#FAD8C8"/>
        </g>
        <path fill-rule="evenodd" clip-rule="evenodd" d="M40.7343 119.818C52.1849 119.818 61.4674 114.885 61.4674 108.799C61.4674 102.714 52.1849 97.781 40.7343 97.781C29.2838 97.781 20.0012 102.714 20.0012 108.799C20.0012 114.885 29.2838 119.818 40.7343 119.818Z" fill="#F2F2F2"/>
        <path fill-rule="evenodd" clip-rule="evenodd" d="M64.8824 116.39C64.8824 102.867 54.0709 91.9045 40.7344 91.9045C27.3978 91.9045 16.5864 102.867 16.5864 116.39" fill="#FAD8C8"/>
        <path d="M41.9541 17.1396H39.5149V95.4926H41.9541V17.1396Z" fill="#FAD8C8"/>
        <g opacity="0.7">
            <path fill-rule="evenodd" clip-rule="evenodd" d="M78.5421 95.0029C87.1012 95.0029 94.0397 91.0216 94.0397 86.1108C94.0397 81.2001 87.1012 77.2188 78.5421 77.2188C69.983 77.2188 63.0444 81.2001 63.0444 86.1108C63.0444 91.0216 69.983 95.0029 78.5421 95.0029Z" fill="#F2F2F2"/>
            <path fill-rule="evenodd" clip-rule="evenodd" d="M96.5919 92.2366C96.5919 81.3235 88.5109 72.4764 78.5419 72.4764C68.573 72.4764 60.4919 81.3235 60.4919 92.2366" fill="#FAD8C8"/>
            <path d="M80.0054 17.1396H77.5662V83.7396H80.0054V17.1396Z" fill="#FAD8C8"/>
        </g>
        <path d="M289.288 131.846L298.346 122.75C299.87 121.219 302.342 121.219 303.866 122.75L327.981 146.967C329.444 148.437 330.266 150.429 330.266 152.506V312.922" stroke="#CBCBCB" stroke-width="8"/>
        <path d="M342.95 312.432H317.095C316.286 312.432 315.631 313.09 315.631 313.901V314.391C315.631 315.202 316.286 315.86 317.095 315.86H342.95C343.758 315.86 344.414 315.202 344.414 314.391V313.901C344.414 313.09 343.758 312.432 342.95 312.432Z" fill="#BABCC1"/>
        <path d="M271.969 126.508C278.256 120.197 288.449 120.197 294.736 126.508C301.023 132.819 301.023 143.051 294.736 149.362L285.077 159.058L262.311 136.204L271.969 126.508Z" fill="#F7BA9D"/>
        <path fill-rule="evenodd" clip-rule="evenodd" d="M271.837 149.618C278.124 155.929 284.224 160.038 285.463 158.794C286.701 157.551 282.608 151.428 276.321 145.117C270.034 138.805 263.934 134.697 262.695 135.94C261.457 137.184 265.55 143.307 271.837 149.618Z" fill="#F2F2F2"/>
        <path fill-rule="evenodd" clip-rule="evenodd" d="M35.2502 199.395C36.6476 199.224 38.1392 199.284 39.4388 199.838C42.2022 201.015 42.9877 204.293 42.9498 206.957C42.9089 209.823 42.3025 212.955 44.4738 215.265C45.472 216.327 46.7136 217.14 47.6937 218.221C48.741 219.377 49.5627 220.699 50.1711 222.119C51.2883 224.728 51.8366 227.795 50.815 230.531C49.9156 232.94 47.6526 235.115 48.1415 237.854C48.6516 240.712 51.5217 242.896 53.3158 245.025C55.3467 247.433 57.2166 250.512 57.5239 253.671C57.8181 256.698 56.5053 259.76 54.491 262.048C50.4657 266.621 44.4153 268.862 38.3146 268.849C35.7244 268.843 32.7918 268.725 30.5566 267.328C29.8657 266.896 29.5012 266.411 29.0905 265.738C28.7223 265.134 28.2359 264.741 27.6729 264.313C26.4359 263.375 25.5426 262.11 24.9725 260.693C22.7588 255.193 24.5281 248.388 27.6269 243.503C28.3612 242.346 28.9623 241.232 28.6056 239.853C28.2334 238.412 27.3185 237.114 26.5093 235.876C25.7096 234.652 24.7968 233.485 24.1718 232.163C23.5172 230.777 23.3329 229.326 23.4486 227.81C23.6659 224.962 24.8909 222.333 26.6251 220.043C28.2955 217.836 30.2568 215.724 30.2612 212.834C30.266 209.769 28.2252 207.043 29.0946 203.928C29.4546 202.638 30.1777 201.314 31.3429 200.541C32.4604 199.799 33.9359 199.556 35.2502 199.395Z" fill="#FAD8C8"/>
        <path fill-rule="evenodd" clip-rule="evenodd" d="M34.3371 204.294C34.3633 203.882 34.8496 203.635 35.2325 203.743C35.7364 203.884 35.7267 204.357 35.7134 204.778C35.6726 206.072 35.8592 207.33 36.1692 208.586C36.8134 211.197 38.004 213.603 38.9472 216.111C39.8896 218.617 40.332 221.205 39.7792 223.856C39.2579 226.357 38.4392 228.792 37.9058 231.295C37.4357 233.502 36.9354 235.829 37.6514 238.03C38.3403 240.148 39.8634 241.874 40.9602 243.788C43.2306 247.751 44.2378 252.148 44.3725 256.672C44.435 258.773 44.3788 260.893 43.8932 262.954C43.6138 264.14 43.2382 265.744 42.2253 266.563C41.7583 266.941 40.9594 267.071 40.5663 266.512C40.1973 265.988 40.5211 265.175 40.6382 264.616C41.1456 262.195 41.2477 259.721 41.1262 257.263C41.0087 254.882 40.7284 252.505 39.9819 250.231C39.289 248.121 38.2364 246.225 36.9976 244.379C35.7352 242.498 34.4229 240.613 33.9013 238.383C33.3714 236.12 33.8019 233.816 34.3776 231.595C34.9864 229.246 35.7839 226.965 36.6083 224.679C37.4117 222.453 37.6965 220.346 37.2529 218.015C36.3768 213.411 34.0315 209.089 34.3371 204.294Z" fill="#F7BA9D"/>
        <path fill-rule="evenodd" clip-rule="evenodd" d="M72.1474 204.982C73.8768 205.51 75.5945 206.36 76.8273 207.693C79.4484 210.529 78.644 214.815 77.197 217.945C75.6394 221.314 73.2792 224.701 74.61 228.567C75.2213 230.344 76.2497 231.954 76.8297 233.744C77.4497 235.658 77.7171 237.651 77.6829 239.648C77.62 243.316 76.6482 247.23 74.009 249.933C71.6854 252.312 67.8867 253.702 67.0178 257.197C66.1109 260.842 68.3272 264.925 69.3111 268.379C70.4244 272.288 70.9966 276.906 69.6936 280.802C68.4452 284.536 65.2933 287.471 61.7253 289.125C54.5965 292.431 46.3197 291.922 39.1714 288.72C36.1366 287.36 32.7587 285.69 30.8727 282.87C30.2898 281.999 30.1175 281.235 29.9904 280.224C29.8766 279.317 29.5129 278.599 29.0776 277.799C28.121 276.043 27.7395 274.081 27.8165 272.108C28.1164 264.447 33.7749 257.323 39.9815 253.164C41.4521 252.179 42.7435 251.176 43.0515 249.358C43.3731 247.461 42.9839 245.447 42.6865 243.561C42.3927 241.696 41.9365 239.84 41.8999 237.949C41.8617 235.969 42.4095 234.156 43.3436 232.424C45.0984 229.169 47.9192 226.7 51.1595 224.896C54.2804 223.159 57.6928 221.686 59.2202 218.269C60.8393 214.648 59.8807 210.359 62.5409 207.128C63.6425 205.791 65.1874 204.603 66.9617 204.297C68.6628 204.003 70.521 204.487 72.1474 204.982Z" fill="#FAD8C8"/>
        <path fill-rule="evenodd" clip-rule="evenodd" d="M68.615 210.971C68.8604 210.497 69.558 210.46 69.9498 210.789C70.4649 211.222 70.2069 211.776 69.9717 212.268C69.2488 213.78 68.8107 215.367 68.518 217.018C67.9091 220.449 68.0462 223.924 67.8404 227.391C67.635 230.854 66.8022 234.151 64.7724 237.001C62.8581 239.688 60.6301 242.141 58.7002 244.825C56.9996 247.19 55.2005 249.683 54.8897 252.666C54.5897 255.537 55.4707 258.382 55.7542 261.226C56.3415 267.114 55.2254 272.85 53.0225 278.279C51.9993 280.8 50.8274 283.281 49.1845 285.466C48.2387 286.724 46.963 288.426 45.3512 288.862C44.608 289.064 43.6058 288.799 43.438 287.929C43.2802 287.114 44.0826 286.322 44.5113 285.721C46.3677 283.122 47.7778 280.245 48.9183 277.271C50.023 274.389 50.9355 271.427 51.2489 268.341C51.5398 265.477 51.2979 262.679 50.8124 259.841C50.3179 256.949 49.7669 254.026 50.32 251.112C50.8815 248.152 52.5868 245.65 54.4185 243.323C56.3557 240.862 58.4788 238.58 60.635 236.307C62.7361 234.093 64.1684 231.747 64.866 228.754C66.2437 222.84 65.7563 216.488 68.615 210.971Z" fill="#F7BA9D"/>
        <path fill-rule="evenodd" clip-rule="evenodd" d="M18.6872 226.734C21.5627 226.734 24.0906 228.264 25.8326 230.435C27.8717 232.977 28.2836 236.08 29.1116 239.11C29.5236 240.617 30.2322 242.114 31.4741 243.138C32.6036 244.069 34.0376 244.256 35.3896 244.711C38.0915 245.62 40.2734 247.811 41.1351 250.484C42.1863 253.745 41.0728 257.033 41.2645 260.338C41.4405 263.373 44.4214 265.266 46.8197 266.721C49.1846 268.156 51.3151 269.499 52.0274 272.294C52.7826 275.258 53.0361 278.566 51.9899 281.494C50.2481 286.37 45.1507 288.517 40.2253 288.849C35.7553 289.151 30.1348 288.677 26.7779 285.42C24.7691 283.471 24.0417 280.745 24.1319 278.033C24.188 276.346 24.5208 274.676 24.951 273.046C25.256 271.891 25.668 270.741 25.7854 269.547C26.0974 266.372 23.1737 265.762 20.6849 264.89C17.5224 263.782 15.3084 261.689 13.7688 258.773C12.3351 256.058 11.7335 253.011 12.593 250.021C13.0319 248.495 13.8281 247.111 14.9079 245.933C15.3833 245.414 16.0532 244.982 16.4822 244.437C16.8826 243.928 16.7955 243.269 16.6575 242.674C16.0194 239.922 14.0313 237.644 13.3203 234.896C12.6784 232.417 13.0578 229.331 15.316 227.732C16.2916 227.041 17.4947 226.742 18.6872 226.734Z" fill="#F7BA9D"/>
        <path fill-rule="evenodd" clip-rule="evenodd" d="M22.6053 233.904C25.653 237.163 26.4814 241.584 26.7245 245.87C26.8607 248.273 26.7189 250.807 27.4223 253.138C28.0241 255.133 29.4348 256.658 30.8891 258.1C33.8164 261.001 37.081 263.951 37.9372 268.15C38.4395 270.614 38.1005 273.16 38.7946 275.597C39.4259 277.812 40.5372 279.988 41.889 281.859C42.9773 283.366 44.3953 284.519 45.5851 285.923C45.9481 286.352 46.468 286.983 46.3182 287.588C46.1429 288.297 45.2436 288.521 44.6056 288.41C43.118 288.15 41.8658 286.724 40.8932 285.688C39.4709 284.172 38.2623 282.542 37.28 280.713C36.1894 278.682 35.3113 276.527 34.9361 274.248C34.5468 271.884 34.7406 269.421 33.8515 267.152C32.3555 263.335 28.7268 261.082 26.1033 258.106C22.8346 254.399 23.3221 249.785 23.6569 245.225C23.8408 242.718 24.0236 239.888 22.7621 237.6C22.2806 236.727 21.2069 235.912 20.9998 234.919C20.8102 234.01 21.8453 233.091 22.6053 233.904Z" fill="#BABCC1"/>
        <path fill-rule="evenodd" clip-rule="evenodd" d="M25.8557 287.457C25.8557 306.095 28.8856 315.86 44.8812 315.86C60.8769 315.86 63.9069 306.095 63.9069 287.457H25.8557Z" fill="#F39C74"/>
        <path d="M109.276 260.524H92.6891C92.1502 260.524 91.7134 260.962 91.7134 261.503V263.952C91.7134 264.492 92.1502 264.931 92.6891 264.931H109.276C109.814 264.931 110.251 264.492 110.251 263.952V261.503C110.251 260.962 109.814 260.524 109.276 260.524Z" fill="#BABCC1"/>
        <path fill-rule="evenodd" clip-rule="evenodd" d="M100.112 224.775H100.982H101.47H102.34C102.593 232.326 103.766 239.508 105.861 246.322H109.031C113.207 246.322 116.593 249.721 116.593 253.913C116.593 258.104 113.207 261.503 109.031 261.503H92.9328C88.7569 261.503 85.3713 258.104 85.3713 253.913C85.3713 249.721 88.7569 246.322 92.9328 246.322H96.5916C99.7333 236.101 100.112 224.775 100.112 224.775Z" fill="#FAD8C8"/>
        <path fill-rule="evenodd" clip-rule="evenodd" d="M83.7235 190.828C83.7235 190.828 92.109 190.006 100.494 190.006C108.88 190.006 117.265 190.828 117.265 190.828L119.52 229.737C119.52 229.737 110.007 230.651 100.494 230.651C90.9816 230.651 81.4688 229.737 81.4688 229.737L83.7235 190.828Z" fill="#F7BA9D"/>
        <path fill-rule="evenodd" clip-rule="evenodd" d="M70.2485 315.86V275.704V264.931H80.4931H120.984H131.228V275.704V315.86H120.984V275.704H80.4931V315.86H70.2485Z" fill="#F2F2F2"/>
        <path fill-rule="evenodd" clip-rule="evenodd" d="M274.351 177.865C278.66 188.143 285.985 195.285 289.864 205.973C292.165 212.31 293.124 219.202 293.182 226.26C293.214 230.093 293.147 233.93 293.129 237.763C293.112 241.501 293.011 245.216 292.695 248.931C292.377 252.665 292.021 256.355 291.865 260.112C291.742 263.039 291.686 266.445 290.698 269.115C289.912 271.239 287.914 271.55 287.384 268.974C287.089 267.542 287.126 265.944 287.159 264.472C287.2 262.584 287.31 260.699 287.366 258.811C287.59 251.237 287.299 243.661 287.451 236.083C287.599 228.679 288.547 221.284 287.498 213.929C286.632 207.857 284.432 202.641 281.903 197.642C279.47 192.832 276.821 188.139 275.177 182.667C274.705 181.096 274.34 179.468 274.165 177.778C274.241 177.742 274.303 177.771 274.351 177.865Z" fill="#E3C0B0"/>
        <path fill-rule="evenodd" clip-rule="evenodd" d="M273.176 198.143C274.03 198.762 274.506 199.667 275.083 200.559C275.8 201.669 276.643 202.671 277.361 203.782C278.855 206.098 280.169 208.555 281.532 210.965C284.119 215.538 286.084 220.412 287.057 225.703C288.066 231.186 288.337 236.845 288.76 242.41C289.209 248.308 289.661 254.249 289.72 260.17C289.747 262.823 289.89 265.639 289.573 268.273C289.375 269.913 288.638 271.31 286.976 271.297C283.446 271.269 281.788 267.344 281.096 264.125C280.077 259.384 279.873 254.35 280.035 249.502C280.229 243.657 281.24 237.9 281.677 232.077C282.141 225.913 281.879 219.858 279.768 214.055C278.702 211.122 277.464 208.259 276.352 205.346C275.879 204.105 275.491 202.831 274.852 201.676C274.141 200.391 273.258 199.225 272.701 197.841C272.859 197.942 273.018 198.042 273.176 198.143Z" fill="#F39C74"/>
        <path fill-rule="evenodd" clip-rule="evenodd" d="M313.842 185.852C313.951 185.767 314.059 185.683 314.167 185.599C313.856 186.917 313.293 187.988 312.862 189.193C312.475 190.277 312.279 191.503 312.018 192.688C311.406 195.47 310.699 198.189 310.121 200.995C308.977 206.547 309.193 212.527 309.944 218.687C310.652 224.506 311.773 230.315 312.307 236.132C312.75 240.956 312.94 245.931 312.518 250.534C312.231 253.66 311.291 257.392 308.727 257.077C307.52 256.929 306.891 255.47 306.637 253.824C306.23 251.181 306.144 248.401 305.986 245.773C305.631 239.905 305.561 234.055 305.491 228.248C305.424 222.769 305.242 217.182 305.607 211.84C305.958 206.687 307.059 202.043 308.632 197.758C309.46 195.5 310.25 193.19 311.181 191.038C311.627 190.006 312.173 189.095 312.619 188.063C312.978 187.234 313.264 186.383 313.842 185.852Z" fill="#E3C0B0"/>
        <path fill-rule="evenodd" clip-rule="evenodd" d="M274.267 215.129C274.734 214.342 275.761 216.936 275.918 217.263C275.851 217.1 275.785 216.938 275.718 216.777C276.644 218.323 277.492 219.933 278.019 221.706C278.541 223.462 278.989 225.253 279.478 227.021C280.396 230.339 281.581 233.562 282.413 236.909C283.223 240.17 283.428 243.377 283.231 246.75C283.027 250.257 282.902 253.817 283.141 257.322C283.254 258.996 283.796 260.555 284.167 262.166C284.539 263.779 284.832 265.414 285.271 267.007C285.372 266.799 285.385 267.493 285.385 267.545C285.382 267.943 285.327 268.277 285.199 268.655C284.872 269.625 284.259 270.449 283.325 270.717C281.639 271.201 280.073 269.661 279.53 268.035C278.75 265.702 278.32 263.124 277.948 260.672C277.607 258.424 277.526 256.162 277.628 253.883C277.827 249.388 278.638 244.952 278.857 240.458C279.095 235.566 278.13 230.969 277.322 226.207C276.932 223.913 276.56 221.64 275.802 219.454C275.495 218.568 275.095 217.787 274.676 216.97C274.437 216.505 273.955 215.675 274.267 215.129Z" fill="#E3C0B0"/>
        <path fill-rule="evenodd" clip-rule="evenodd" d="M287.947 207.487C287.754 213.092 287.42 218.654 286.676 224.199C285.916 229.858 285.043 235.498 284.313 241.162C283.601 246.676 282.855 252.281 282.954 257.872C283.028 261.989 282.348 268.956 286.903 270.988C291.518 273.046 292.508 264.257 292.811 261.356C293.391 255.79 293.203 250.165 292.921 244.568C292.632 238.824 292.149 233.11 291.551 227.387C290.886 221.03 290.365 214.645 289.946 208.27C289.739 205.117 289.688 201.969 289.745 198.815C289.799 195.839 289.686 192.831 288.632 190.006C288.577 190.046 288.522 190.086 288.467 190.126" fill="#B73E06"/>
        <path fill-rule="evenodd" clip-rule="evenodd" d="M311.769 225.243C310.939 226.456 310.102 227.658 309.319 228.943C307.916 231.243 306.648 233.801 306.267 237.09C305.469 243.971 306.109 251.405 306.263 258.498C306.295 259.947 306.113 261.352 306.681 262.732C307.198 263.983 308.162 264.936 309.082 264.931C311.05 264.92 310.75 260.08 310.753 257.95C310.759 254.217 310.342 250.446 310.378 246.717C310.414 243.021 310.638 239.316 311.171 235.807C311.712 232.255 312.503 228.844 313.547 225.661C313.692 225.22 314.732 221.806 313.75 222.394" fill="#F39C74"/>
        <path fill-rule="evenodd" clip-rule="evenodd" d="M303.075 188.537C301.781 188.537 301.788 195.014 301.75 195.846C301.609 198.847 301.642 201.851 301.553 204.853C301.359 211.406 301.12 218.017 300.139 224.494C299.611 227.981 298.999 231.453 298.34 234.913C297.68 238.383 296.794 241.85 296.36 245.364C295.943 248.743 296.178 252.187 296.235 255.582C296.292 258.998 296.395 262.421 296.841 265.806C296.951 266.642 297.08 267.475 297.218 268.305C297.333 268.998 297.266 269.856 297.461 270.514C297.773 271.567 299.109 271.912 300.009 271.748C302.445 271.301 304 268.231 304.833 265.989C305.895 263.124 306.459 260.018 307.015 257C307.645 253.58 308.015 250.108 308.188 246.627C308.541 239.552 308.088 232.469 307.583 225.416C307.302 221.494 306.978 217.59 306.482 213.691C305.987 209.81 305.353 205.946 304.94 202.053C304.64 199.225 304.345 196.392 304.151 193.552C304.104 192.875 304.065 188.537 303.075 188.537Z" fill="#B73E06"/>
        <path fill-rule="evenodd" clip-rule="evenodd" d="M301.455 235.617C301.244 228.816 298.521 198.947 297.901 190.724C297.746 188.666 296.255 180.097 296.061 177.763C295.537 178.423 295.581 188.688 295.587 191.047C295.594 193.38 295.305 195.675 295.157 197.995C295.006 200.364 291.518 230.946 291.066 233.221C290.165 237.748 289.563 242.393 289.098 247.021C288.645 251.532 287.941 256.291 288.547 260.826C288.686 261.87 288.907 262.898 289.266 263.856C289.653 264.893 289.919 265.851 290.23 266.935C290.731 268.681 291.637 270.214 293.028 270.936C295.882 272.414 297.414 269.067 298.191 266.154C299.431 261.5 300.228 256.771 300.601 251.885C301.014 246.478 301.624 241.06 301.455 235.617Z" fill="#F39C74"/>
        <path d="M314.655 255.626H272.213C271.675 255.626 271.238 256.065 271.238 256.606V299.21C271.238 299.751 271.675 300.19 272.213 300.19H314.655C315.194 300.19 315.631 299.751 315.631 299.21V256.606C315.631 256.065 315.194 255.626 314.655 255.626Z" fill="white"/>
        <path d="M270.262 260.524H267.335C266.796 260.524 266.359 260.962 266.359 261.503V314.881C266.359 315.422 266.796 315.86 267.335 315.86H270.262C270.801 315.86 271.238 315.422 271.238 314.881V261.503C271.238 260.962 270.801 260.524 270.262 260.524Z" fill="#F7BA9D"/>
        <path d="M294.654 260.524H291.727C291.188 260.524 290.751 260.962 290.751 261.503V314.881C290.751 315.422 291.188 315.86 291.727 315.86H294.654C295.193 315.86 295.63 315.422 295.63 314.881V261.503C295.63 260.962 295.193 260.524 294.654 260.524Z" fill="#F7BA9D"/>
        <path d="M319.534 260.524H316.607C316.068 260.524 315.631 260.962 315.631 261.503V314.881C315.631 315.422 316.068 315.86 316.607 315.86H319.534C320.073 315.86 320.509 315.422 320.509 314.881V261.503C320.509 260.962 320.073 260.524 319.534 260.524Z" fill="#F7BA9D"/>
    </g>
</svg>
