<svg width="360" height="270" viewBox="0 0 360 270" fill="none" xmlns="http://www.w3.org/2000/svg">
    <path fill-rule="evenodd" clip-rule="evenodd" d="M183.487 114.199C196.623 113.155 209.156 118.05 219.655 125.679C233.187 135.513 244.656 149.576 252.419 164.395C253.245 165.031 254.058 165.683 254.866 166.341C259.187 169.861 263.408 173.579 267.15 177.717C269.239 180.026 274.718 185.643 272.339 189.186C271.834 189.938 271.005 190.37 270.175 190.667C267.847 191.501 265.42 191.923 263.124 192.898C260.29 194.102 257.351 195.787 255.535 198.357C255.018 199.088 254.884 199.95 254.189 200.272C253.453 200.614 252.065 200.481 251.26 200.559C249.643 200.718 248.025 200.877 246.407 201.035C242.606 201.408 238.633 201.449 234.915 202.367L217.811 206.59C214.312 207.454 210.291 207.93 206.974 209.349C202.023 211.468 197.3 214.571 192.562 217.127C190.272 218.363 187.981 219.6 185.69 220.836C184.572 221.44 183.806 221.448 182.495 221.549L173.035 222.276C171.508 222.394 170.776 223.008 170.576 221.481L168.377 204.691L167.214 195.813C167.145 195.285 167.166 192.669 166.733 192.354C166.461 192.156 164.869 192.582 164.574 192.618L160.28 193.144C157.188 193.522 154.095 193.901 151.003 194.28C150.752 194.31 149.361 194.295 149.205 194.5C149.022 194.741 149.37 196.121 149.401 196.418C149.729 199.536 150.058 202.653 150.386 205.771C150.424 206.132 150.863 207.809 150.632 208.106C150.471 208.312 149.306 208.337 149.069 208.375C146.086 208.862 143.103 209.349 140.119 209.836C137.983 210.185 135.191 210.168 133.171 210.971C132.011 211.432 130.864 212.612 129.862 213.349L115.312 224.055C113.105 225.679 110.131 225.265 107.444 225.47L76.4438 227.832C76.4695 226.866 76.4955 225.901 76.5212 224.935C76.6576 219.822 76.7937 214.708 76.9301 209.595L77.1086 202.907C77.1199 202.483 76.9508 201.245 77.2275 200.932C77.5952 200.517 79.2388 200.337 79.7489 200.186C81.4599 199.679 83.1706 199.173 84.8813 198.667C89.9006 197.181 94.9192 195.695 99.9381 194.21C104.899 192.742 109.858 191.273 114.819 189.805C116.516 189.303 118.213 188.8 119.91 188.298C120.302 188.182 121.671 188.028 121.944 187.696C122.287 187.278 122.134 185.496 122.188 184.967C122.458 182.383 122.842 179.811 123.309 177.256C126.681 158.828 134.563 140.11 149.177 127.816C158.837 119.689 170.955 115.196 183.487 114.199ZM185.804 151.154C184.504 149.627 182.319 147.137 180.022 147.55C178.154 147.886 177.137 150.201 176.486 151.74C173.87 157.924 173.059 165.014 172.245 171.623C171.735 175.771 171.324 179.936 171.062 184.107C180.38 183.39 189.699 182.673 199.017 181.956C198.577 178.987 198.225 175.99 197.695 173.036C197.43 171.554 196.696 170.221 196.068 168.853C193.261 162.733 190.198 156.313 185.804 151.154Z" fill="#F84E00"/>
    <path fill-rule="evenodd" clip-rule="evenodd" d="M315.16 30.5863L315.387 30.5902C321.571 30.7548 327.025 34.7341 331.255 38.9454C333.346 41.0277 335.253 43.477 336.151 46.3272C337.187 49.6195 336.846 53.241 336.058 56.5453C334.316 63.8476 332.186 71.1875 329.792 78.3042C328.614 81.8051 326.906 85.2377 326.017 88.8209C325.284 91.7729 328.371 93.9231 328.489 96.9567C328.608 100.017 326.549 102.892 323.719 103.986C322.514 104.452 321.056 104.063 319.945 104.54C318.929 104.976 318.574 106.264 318.379 107.253C318.113 108.601 318.161 109.948 318.236 111.308C318.283 112.14 318.075 113.498 318.481 114.241C318.76 114.75 319.268 114.917 319.706 115.266C320.303 115.742 320.701 116.334 321.225 116.881C322.088 117.784 322.919 118.273 323.153 119.59C323.278 119.291 323.403 118.992 323.528 118.693C324.171 119.87 324.648 120.435 324.036 121.552C325.935 121.366 327.06 124.811 327.558 126.117C328.469 128.508 329.096 130.992 330.009 133.384C331.262 136.664 332.907 139.9 333.706 143.332C334.377 146.216 334.908 149.178 335.505 152.082C335.841 153.718 336.134 155.379 336.749 156.938C336.988 157.543 337.431 157.951 337.706 158.49C338.082 159.229 337.935 159.619 337.953 160.428C337.985 161.87 338.895 162.807 339.181 164.207C339.486 165.704 339.736 167.218 340.044 168.717C340.665 171.738 341.816 174.755 342.093 177.815C342.415 181.368 343.105 184.878 343.452 188.432C343.756 191.538 343.24 194.872 343.888 197.877C344.463 200.543 343.75 202.982 343.497 205.629C343.432 206.301 344.468 210.304 342.804 209.535C343.116 210.479 343.554 210.928 343.578 211.963C343.6 212.932 343.35 213.927 343.146 214.866C342.752 216.68 342.49 218.657 341.719 220.356C340.847 222.279 339.517 222.509 337.71 223.168C336.487 223.615 334.284 225.208 333.32 223.504C332.745 225.254 331.623 224.044 330.365 223.946C330.374 223.947 329.645 224.216 329.509 224.235C329.066 224.294 328.544 224.086 328.103 224.049C327.006 223.958 325.93 224.105 324.856 224.327C322.383 224.839 319.99 225.548 317.481 225.905C312.578 226.603 307.774 226.273 302.864 226.579C293.256 227.176 283.489 226.675 273.873 226.416C272.841 226.388 271.729 226.532 270.71 226.374C269.612 226.203 269.373 225.683 268.517 225.163C267.095 224.299 265.518 225.139 264.042 225.455C259.711 226.382 255.188 226.451 250.822 227.347C241.952 229.169 233.78 232.764 225.284 235.796C221.6 237.11 217.277 239.239 213.305 239.331C208.492 239.436 209.629 234.694 210.513 231.647C207.732 232.385 203.365 235.759 200.538 233.801C197.169 231.468 201.455 227.589 201.657 224.847C195.636 226.097 188.806 228.838 182.694 226.61C181.518 226.181 180.495 225.275 179.232 225.128C177.92 224.974 176.533 225.438 175.206 225.43C172.183 225.411 169.248 225.008 166.226 225.381C159.489 226.21 152.848 226.665 146.056 226.844C139.219 227.024 132.382 227.429 125.541 227.412C122.069 227.403 118.533 226.991 115.068 227.176C113.707 227.248 110.779 228.237 109.823 226.854C108.863 228.004 108.048 227.236 106.817 227.363C107.045 227.34 106.176 227.842 106.045 227.891C105.398 228.131 104.793 228.058 104.117 228.051C102.317 228.033 100.635 228.875 98.8446 228.794C98.3918 228.773 98.0494 228.642 97.6651 228.486C97.5741 228.449 97.5959 228.058 97.45 228.025C96.5739 227.829 96.8003 228.365 96.2441 228.636C95.6275 228.935 94.7152 228.451 95.066 229.372C93.393 229.299 91.8078 229.863 90.2855 228.871C91.0051 230.461 88.4911 229.14 87.834 229.114C86.7421 229.07 85.7858 229.616 84.6967 229.742C83.3906 229.892 82.0783 229.287 80.8003 229.656C79.7991 229.946 79.4563 230.642 78.4143 230.286C77.529 229.984 76.976 229.327 76.5464 228.608C75.9537 227.617 75.8778 227.175 74.4483 227.158C73.3883 227.145 72.3228 227.373 71.2526 227.371C70.0263 227.368 68.6788 227.238 67.5594 227.821C66.3536 228.449 65.6452 229.405 64.3078 229.897C58.294 232.108 51.6924 231.523 45.4177 231.485C42.7704 231.469 40.8277 231.712 40.0845 228.693C39.4566 226.142 39.2049 223.474 38.6058 220.901C37.8717 217.749 37.0649 214.825 35.4361 212.007C33.8563 209.275 32.5271 206.452 31.1514 203.613C28.2904 197.71 24.3079 192.687 19.8677 187.889C18.1809 186.067 16.2476 184.036 16.1691 181.411C16.1116 179.145 17.11 176.797 18.4196 174.991C19.5889 173.379 21.5154 171.561 23.6948 171.937C25.0072 172.164 25.8674 173.222 26.8469 174.016C27.9174 174.884 29.0835 175.475 30.3738 175.949C33.3824 177.052 35.9054 178.26 38.5109 180.165C41.1472 182.092 43.6117 184.251 45.8916 186.588C50.2682 191.076 54.7527 195.738 57.2674 201.549C58.2585 203.838 58.8917 206.046 59.5674 208.42C60.2311 210.751 62.0381 210.109 64.0702 209.773C66.5466 209.365 69.0353 209.146 71.5282 208.887C72.4665 208.79 73.7895 208.761 74.3544 207.874C74.9774 206.897 74.2637 205.63 74.2071 204.616C74.1769 204.074 74.3565 203.675 74.4015 203.146C74.4532 202.545 74.2757 201.997 74.275 201.398C74.2743 200.112 74.8765 198.965 75.8774 198.186C77.7502 196.727 80.4818 195.857 82.6991 195.055C85.7264 193.958 88.9703 193.42 92.0879 192.638C95.5983 191.757 99.1297 190.963 102.659 190.163C106.127 189.377 109.589 188.568 113.095 187.963C115.15 187.607 117.381 187.737 119.374 187.088C121.492 186.398 121.141 184.267 121.134 182.379C121.124 179.261 121.51 176.05 121.967 172.967C122.939 166.414 125.253 160 127.357 153.737C129.385 147.704 131.896 141.915 136.041 137.02C140.077 132.254 145.03 127.942 150.168 124.4C155.522 120.71 161.479 118.045 167.067 114.75C165.846 113.816 164.389 113.019 163.688 111.581C162.895 109.957 163.231 108.015 163.265 106.279C163.303 104.321 163.362 102.601 164.062 100.735C164.445 99.713 165.925 97.7745 165.698 96.6632C165.318 94.7971 161.236 93.4341 159.732 92.6663C157.375 91.4618 155.013 90.2384 152.84 88.7179C150.755 87.2592 148.793 85.5035 147.53 83.2644C147.172 82.6292 146.877 81.9619 146.648 81.2693C146.393 80.4966 146.571 80.2333 145.799 80.1767C144.566 80.086 142.718 81.3234 141.679 81.8701C136.323 84.6886 130.44 88.4816 124.121 88.2299C121.828 88.1388 119.25 87.4185 118.439 85.0272C117.372 81.8789 119.601 78.6266 121.556 76.3527C117.742 76.9521 110.708 78.8256 107.699 75.4225C105.693 73.1549 107.206 69.5556 108.888 67.5893C111.11 64.992 114.278 63.4106 117.204 61.7579C113.613 60.389 109.638 59.5136 106.481 57.2228C103.46 55.0322 103.834 51.6667 106.219 49.0827C108.769 46.3205 113.228 44.9058 116.736 43.8803C121.037 42.6224 125.311 42.7233 129.744 42.8077C137.7 42.9588 144.534 45.8916 151.059 50.3255C154.509 52.6701 157.91 55.2003 160.97 58.0398C163.84 60.7029 166.902 63.1793 169.73 65.8712C172.47 68.4795 174.625 71.711 177.517 74.1477C179.976 76.2195 182.673 79.1561 185.797 80.0758C189.109 81.051 192.091 82.664 195.432 83.6241C199.222 84.7129 202.478 86.5336 205.99 88.2707C220.729 95.5607 236.552 100.305 252.091 105.539C260.039 108.216 268.04 110.102 276.154 112.147C280.229 113.173 284.013 113.721 288.218 113.535C289.188 113.493 290.114 113.468 291.07 113.602C291.771 113.701 292.304 113.966 292.931 113.547C293.831 112.945 294.17 111.378 294.707 110.486C291.714 109.558 288.785 108.555 287.419 105.488C286.559 103.556 286.112 101.302 285.735 99.2282C285.533 98.1123 285.528 96.9863 285.355 95.8697C285.26 95.2531 284.967 94.6086 284.99 93.9786C284.922 94.3291 282.692 93.1764 282.369 92.9623C281.121 92.1358 280.894 90.4697 280.904 89.0634C280.916 87.4751 281.396 85.7292 282.475 84.5248C282.985 83.9545 283.592 83.5271 284.335 83.3122C284.861 83.1597 285.556 83.3594 286.02 83.2057C288.081 82.5247 288.311 77.4267 288.603 75.5708C289.247 71.4815 289.889 67.5774 291.279 63.6574C293.813 56.5109 297.075 49.5654 300.96 43.0587C304.289 37.4833 307.615 30.6658 314.934 30.5863H315.16ZM251.886 202.261C248.924 202.774 246.086 203.822 243.224 204.71C240.551 205.54 237.843 206.068 235.101 206.608C229.644 207.681 224.068 208.664 218.69 210.064C217.176 210.458 216.379 211.347 215.058 211.965C214.079 212.424 213.159 211.96 212.141 211.921C209.923 211.836 207.462 212.559 205.328 213.099C200.292 214.371 195.824 216.581 191.267 219.024C190.859 219.242 188.101 220.504 188.232 221.026C188.338 221.453 191.843 220.308 192.401 220.223C195.223 219.793 197.98 218.903 200.782 218.351C203.081 217.897 205.407 217.589 207.697 217.086C210.245 216.525 215.673 214.576 215.889 218.785C216.122 223.333 211.099 224.732 208.08 226.854C208.416 227.434 213.26 225.52 213.861 225.327C215.921 224.663 217.831 223.466 219.928 222.956C223.577 222.069 223.135 226.099 221.121 227.891C218.883 229.883 215.182 230.484 213.942 233.549C215.57 234.136 217.697 233.034 219.192 232.485C221.155 231.766 223.126 231.057 225.101 230.371C229.534 228.83 233.745 226.708 238.203 225.24C247.347 222.229 257.014 221.366 266.573 220.831C265.721 217.527 264.79 214.242 264.025 210.915C263.697 209.492 263.397 208.062 263.149 206.622C262.976 205.621 263.123 203.225 262.433 202.435C261.593 201.473 259.406 202.824 258.216 202.799C257.05 202.774 256.199 202.172 255.121 201.982C254.098 201.802 252.887 202.088 251.886 202.261ZM80.0585 221.388C80.0585 222.968 79.7847 224.884 81.8624 225.069C83.5429 225.218 86.8303 225.41 88.1708 224.215C86.8862 223.589 85.4262 223.48 84.0618 223.118C82.6401 222.742 81.3273 222.124 80.0585 221.388ZM114.352 192.607C113.72 192.612 112.654 193.315 112.077 193.511C111.022 193.87 109.95 194.172 108.873 194.457C105.636 195.314 101.469 195.448 99.983 198.922C99.2412 200.656 98.7269 205.115 96.1492 205.099C93.8581 205.084 92.4859 201.777 90.8515 200.601C89.1622 199.385 86.484 200.212 84.6622 200.74C82.8109 201.277 79.9379 201.965 80.1457 204.311C80.2951 205.998 80.5996 207.533 80.5852 209.256C80.5672 211.449 80.382 213.638 80.382 215.832C81.6817 214.051 82.8155 210.471 85.1182 209.755C87.4445 209.031 88.7604 213.096 89.3654 214.654C90.1153 216.584 91.0579 218.772 91.1152 220.864C91.1331 221.521 90.7344 223.325 91.1911 223.865C91.5965 224.345 93.1556 223.997 93.6594 223.945C96.7774 223.62 99.8789 223.216 103.007 222.945C104.613 222.807 105.05 222.454 104.893 220.726C104.77 219.369 104.732 218.076 104.902 216.713C105.661 210.631 109.407 205.067 115.74 204.011C119.556 203.374 124.013 203.84 127.823 204.451C129.291 204.687 130.885 205.398 132.377 205.336C133.48 205.29 133.124 205.228 133.35 204.19C133.508 203.465 133.846 202.846 134.397 202.344C134.833 201.946 135.387 202.171 135.798 201.651C136.095 201.276 136.05 200.764 136.191 200.331C136.465 199.488 136.96 198.351 137.945 198.138C139.531 197.795 141.217 199.918 142.017 201.014C142.844 202.146 143.094 205.527 144.424 205.969C145.959 206.479 147.784 204.468 148.104 203.201C148.534 201.497 147.992 199.653 147.733 197.965C147.715 197.844 147.639 196.722 147.556 196.649C147.332 196.452 145.645 196.507 145.346 196.493C143.876 196.423 142.404 196.419 140.933 196.415C135.165 196.401 129.514 195.834 123.784 195.229C124.617 196.586 126.042 198.813 124.579 200.245C123.495 201.306 121.539 200.774 120.178 200.993C118.255 201.302 115.013 203.126 113.18 201.792C110.598 199.911 113.519 196.68 114.478 194.902C114.684 194.521 115.445 193.18 115.122 192.734C114.843 192.347 114.761 192.604 114.352 192.607ZM71.3398 213.511C70.0211 213.913 68.6925 214.3 67.3453 214.598C65.7651 214.948 63.3147 214.608 62.5458 216.347C61.9608 217.669 62.2512 219.801 62.7265 221.118C63.2707 222.626 64.548 223.013 66.0555 223.128C67.8147 223.263 69.5971 222.979 71.3356 222.738C72.0208 222.644 72.7513 222.472 73.4474 222.471C73.8605 222.47 74.6944 222.848 75.0618 222.539C75.5374 222.139 75.2242 219.864 75.1869 219.319C75.0945 217.968 74.8382 216.636 74.7682 215.284C74.7183 214.312 75.0846 212.992 73.9459 212.785C73.2368 212.656 71.9561 213.323 71.3398 213.511ZM177.828 186.779C176.843 186.95 175.863 187.072 174.862 187.057C174.246 187.047 173.507 186.838 172.937 187.176C171.885 187.8 172.042 189.446 172.078 190.473C172.122 191.719 172.23 192.984 172.363 194.223C172.49 195.409 173.141 197.361 172.222 198.377C171.574 197.667 171.255 195.349 170.004 195.434C168.629 195.526 169.265 197.724 169.387 198.51C170.061 202.86 170.829 207.211 171.431 211.573C171.717 213.647 172.087 215.705 172.279 217.789C172.407 219.187 172.45 220.447 174.013 220.736C175.462 221.005 177.089 220.546 178.554 220.511C180.061 220.475 180.925 220.373 181.792 219.01C179.715 218.556 176.426 218.834 175.256 216.637C173.892 214.075 176.769 211.769 178.185 210.017C179.271 208.672 181.493 204.201 183.51 206.857C184.237 207.813 184.368 209.272 184.735 210.385C185.331 212.192 186.06 213.973 186.775 215.736C193.317 212.359 200.03 209.314 207.165 207.418C205.346 204.344 203.095 201.575 201.733 198.243C200.207 194.508 198.943 190.672 197.383 186.949C194.91 188.393 192.266 184.893 189.803 184.752C185.913 184.53 181.643 186.118 177.828 186.779ZM139.075 211.957C137.719 212.765 135.724 214.336 135.398 215.96C134.835 218.768 138.04 216.891 139.029 216.276C141.1 214.99 143.13 214.579 145.508 215.372C148.558 216.388 151.369 218.104 154.643 216.801C156.271 216.152 159.884 214.765 158.909 212.277C158.237 210.562 156.27 212.033 155.231 212.648C152.509 214.258 150.255 213.238 147.535 212.076C144.815 210.914 141.752 210.362 139.075 211.957ZM42.4814 197.547C41.3926 199.091 43.6061 198.757 44.5778 198.908C46.6098 199.222 48.7027 200.842 48.1426 203.135C47.5967 205.371 45.4574 206.768 45.0499 209.115C44.6998 211.13 45.0373 213.68 46.9832 214.787C48.0762 215.408 50.4651 215.664 51.5651 214.95C53.2449 213.86 51.1587 212.238 50.0474 211.698C48.5747 210.983 47.3854 210.595 48.1142 208.716C49.0026 206.424 50.728 204.666 50.5747 202.045C50.4482 199.873 49.3017 197.404 47.2131 196.502C45.7176 195.856 43.5013 196.101 42.4814 197.547ZM191.146 190.889C193.028 190.808 193.103 193.083 193.008 194.202C192.878 195.731 193.156 197.362 193.188 198.896C193.23 200.929 193.656 207.584 190.062 206.596C187.751 205.96 185.849 203.745 183.991 202.322C182.282 201.012 177.936 199.441 177.655 196.958C177.337 194.153 180.763 193.628 182.726 193.182C185.529 192.546 188.25 191.013 191.146 190.889ZM181.976 116.959C178.991 117.247 176.023 117.69 173.183 118.682C171.261 119.352 168.308 119.833 166.946 121.479C165.768 122.903 166.279 124.932 165.896 126.614C165.378 128.889 163.807 128.578 162.284 127.157C160.461 125.456 159.934 124.225 157.396 125.821C152.142 129.125 147.976 134.003 143.808 138.522C147.031 139.498 153.353 139.734 154.423 143.761C155.008 145.962 153.245 147.563 151.66 148.765C149.613 150.316 147.477 151.751 145.476 153.365C143.608 154.87 139.419 160.866 138.234 155.595C137.501 152.332 138.875 148.96 138.292 145.737C135.758 149.823 133.185 153.899 130.861 158.11C128.884 161.695 127.734 165.529 126.785 169.493C128.264 169.589 129.803 168.839 131.265 169.282C132.673 169.709 133.332 171.04 133.43 172.42C133.598 174.759 132.518 177.14 131.975 179.386C131.602 180.928 131.174 184.43 129.295 184.932C127.153 185.504 125.809 182.209 124.854 180.87C123.945 182.268 123.96 184.312 123.827 185.914C123.736 187.016 123.121 189.075 124.36 189.684C125.52 190.254 127.965 189.54 129.205 189.487C131.505 189.39 133.85 189.203 136.152 189.271C138.326 189.335 141.525 190.498 142.375 187.825C142.953 186.006 143.462 179.468 146.547 183.015C147.917 184.59 148.989 186.386 150.313 187.991C151.648 189.61 152.862 189.717 154.856 189.635C158.803 189.473 162.658 190.231 166.52 190.843C169.909 191.38 169.464 188.503 169.414 185.942C169.337 181.973 170.124 177.822 170.554 173.874C171.574 164.487 173.67 155.213 176.893 146.335C174.197 145.417 169.363 149.122 167.369 146.308C165.73 143.995 167.836 140.809 168.693 138.647C169.762 135.949 170.303 133.131 172.046 130.74C172.596 129.986 173.379 128.974 174.445 129.228C175.359 129.447 175.723 130.613 176.237 131.27C177.87 133.358 179.955 134.923 181.407 137.2C182.294 138.593 182.985 140.082 183.273 141.717C183.353 142.167 183.252 143.088 183.568 143.465C184.55 144.634 187.641 144.617 189.015 145.333C193.705 147.781 195.354 154.907 197.175 159.4C197.689 160.665 198.197 161.934 198.47 163.275C198.652 164.171 198.643 165.311 199.13 166.115C200.191 167.87 203.489 166.303 205.107 166.031C207.819 165.575 210.518 165.141 213.241 164.758C214.903 164.525 217.321 163.923 218.587 165.395C219.9 166.921 219.145 169.325 218.486 170.962C217.41 173.634 216.037 176.187 214.902 178.835C213.996 180.947 213.546 183.669 211.806 185.296C210.299 186.706 207.806 187.111 206.032 185.963C205.019 185.308 202.42 178.972 201.734 179.255C202.972 184.149 204.788 189.139 206.706 193.809C207.295 195.244 208.306 198.169 209.794 198.947C211.028 199.593 213.827 198.374 215.089 198.137C216.286 197.913 218.648 196.941 219.793 197.653C221.18 198.517 221.349 200.82 221.504 202.249C221.62 203.309 221.41 204.1 222.7 204.047C223.608 204.01 224.525 203.567 225.397 203.344C227.421 202.828 229.521 202.486 231.582 202.154C236.347 201.384 241.111 200.617 245.874 199.828C249.969 199.15 254.011 199.153 257.711 197.211C259.587 196.227 261.737 195.926 263.734 195.268C265.715 194.615 267.689 194.191 269.762 193.946C274.294 193.41 278.703 192.885 283.181 191.967C285.632 191.465 288.078 190.939 290.516 190.376C292.686 189.875 294.783 189.079 296.943 188.588C298.739 188.179 300.215 188.486 300.984 186.447C301.536 184.985 301.408 183.346 301.55 181.816C302.198 174.824 299.749 167.792 299.248 160.838C299.085 158.586 299.036 156.326 298.866 154.076C298.789 153.045 298.836 150.043 297.633 149.487C297.523 150.312 297.609 151.699 296.672 152.108C297.129 151.908 296.529 154.344 296.496 154.589C296.368 155.561 296.688 156.602 296.519 157.556C296.653 157.892 296.594 158.144 296.345 158.315C296.175 158.452 296.05 158.627 295.973 158.837C295.961 159.518 296.16 159.117 296.17 159.352C296.264 161.692 295.869 164.117 296.038 166.514C296.217 169.048 296.782 171.534 297.212 174.033C297.598 176.276 298.013 178.523 298.335 180.776C298.561 182.358 298.728 184.173 297.877 185.612C296.262 188.345 291.585 188.048 288.861 188.494C284.334 189.238 279.8 189.908 275.256 190.54C273.511 190.782 271.746 191.335 269.981 191.363C268.096 191.392 267.087 190.631 265.898 189.239C263.503 186.436 261.959 183.253 259.964 180.204C258.844 178.491 257.912 178.039 256.025 177.517C254.274 177.031 252.868 175.753 251.442 174.69C248.449 172.457 244.582 170.028 242.618 166.739C240.55 163.279 243.464 162.13 246.253 161.185C245.575 159.381 244.243 157.932 243.146 156.38C241.899 154.615 240.769 152.782 239.426 151.084C236.689 147.622 233.956 144.178 231.3 140.651C229.03 137.637 226.736 134.782 223.839 132.341C220.929 129.888 217.689 127.878 214.494 125.825C212.825 124.753 209.894 122.012 207.785 122.292C205.738 122.565 204.929 126.376 204.418 127.978C203.831 129.817 203.624 132.38 202.257 133.827C200.248 135.954 198.162 132.604 197.204 131.06C195.448 128.231 193.652 125.428 191.899 122.598C191.1 121.307 189.946 120.079 189.472 118.616C189.467 118.598 189.245 117.34 189.469 117.516L189.484 117.53L189.469 117.513C188.968 117.017 187.116 116.914 186.423 116.853L186.36 116.848C184.903 116.71 183.429 116.819 181.976 116.959ZM162.41 196.266C160.732 196.256 159.059 196.451 157.389 196.588C155.922 196.708 154.577 196.483 153.112 196.395C151.3 196.286 150.404 196.476 150.821 198.347C151.125 199.709 151.489 201.523 152.888 202.098C154.776 202.876 157.32 202.771 159.332 203.066C160.81 203.282 162.283 203.477 163.754 203.723C164.731 203.887 165.233 204.058 165.69 202.951C166.073 202.024 165.826 200.784 165.696 199.826C165.595 199.09 165.655 197.797 165.308 197.143C164.789 196.166 163.431 196.272 162.41 196.266ZM240.638 177.606C243.103 179.859 244.762 182.74 246.624 185.472C247.76 187.141 249.984 189.8 248.369 191.823C246.993 193.547 243.795 193.152 241.87 193.235C238.846 193.366 236.376 194.732 233.498 195.437C226.25 197.213 232.27 185.029 233.274 182.487C233.978 180.703 234.705 178.927 235.557 177.208C235.941 176.433 236.708 174.172 237.664 173.876C239.049 173.447 239.761 176.804 240.638 177.606ZM178.362 151.99C177.21 154.192 177.023 157.24 176.476 159.645C174.807 166.999 173.83 174.489 173.063 181.984C176.881 180.47 180.91 180.365 184.941 179.994C187.862 179.726 190.543 179.418 193.465 179.543C193.962 179.564 195.394 179.817 195.805 179.394C196.355 178.825 195.688 177.24 195.525 176.643C194.64 173.397 194.251 170.042 193.245 166.816C192.219 163.526 190.972 160.241 189.645 157.061C188.675 154.734 187.342 152.466 184.99 151.325C182.932 150.326 179.64 149.547 178.362 151.99ZM162.64 166.302C164.212 168.674 166.205 170.748 167.741 173.141C168.83 174.839 170.106 177.979 167.489 179.059C166.571 179.437 165.487 179.273 164.525 179.29C163.036 179.316 161.563 179.444 160.072 179.408C158.662 179.375 157.266 179.204 155.86 179.13C154.973 179.084 153.86 179.152 153.079 178.643C150.986 177.278 152.5 174.491 153.174 172.707C153.889 170.813 154.856 169.021 155.789 167.226C156.435 165.98 157.402 163.443 158.873 162.936C160.614 162.334 161.914 165.209 162.64 166.302ZM238.911 139.435C242.368 143.455 245.369 147.839 248.196 152.318C249.575 154.503 250.915 156.714 252.252 158.925C253.127 160.372 253.784 162.223 254.85 163.534C257.282 166.523 257.958 160.001 258.317 158.583C259.639 153.355 261.276 148.169 262.733 142.973H261.24C255.29 142.97 249.585 142.882 243.791 141.129C242.151 140.633 240.656 139.556 238.911 139.435ZM226.343 140.449C228.225 141.839 240.273 150 235.205 153.149C234.156 153.801 232.443 153.506 231.257 153.599C229.739 153.719 228.196 153.866 226.696 154.135C224.753 154.484 222.866 155.091 220.915 155.399C219.363 155.644 217.307 155.93 215.921 154.964C213.634 153.37 215.022 150.24 215.777 148.213C216.85 145.334 217.867 141.48 220.529 139.765C221.149 139.366 221.908 137.941 222.574 137.81C223.618 137.606 225.579 139.885 226.343 140.449ZM292.815 72.7485C291.906 73.4435 291.865 74.887 291.629 75.9059C290.837 79.3329 289.731 82.6689 289.074 86.1325C288.435 89.5106 288.233 92.8364 288.547 96.2599C288.757 98.5433 288.781 101.353 290.169 103.298C291.83 105.624 295.12 105.505 297.607 106.194C300.001 106.857 302.374 108.911 299.763 111.045C298.835 111.804 297.617 111.927 296.7 112.658C295.568 113.559 294.919 115.175 294.438 116.496C294.042 117.584 294.054 117.792 295.236 118.176C295.776 118.351 296.322 118.463 296.89 118.416C298.184 118.308 299.338 117.454 300.421 116.812C303.184 115.175 306.374 112.989 309.673 112.742C310.727 112.663 311.926 113.095 312.951 112.752C313.906 112.433 313.613 112.237 313.779 111.349C314.436 107.827 314.703 104.371 316.498 101.186C317.384 99.6138 319.727 96.3985 321.298 98.8457C321.953 99.8677 322.191 100.367 323.645 100.053C324.829 99.7984 326.129 98.8622 325.895 97.495C325.673 96.2051 323.977 95.3269 322.949 94.7616C321.58 94.0092 320.62 94.0961 319.129 93.9178C315.032 93.4281 317.904 87.4364 318.495 85.1882C318.866 83.7753 319.3 81.9489 318.326 80.6731C316.843 78.7324 313.611 79.3705 311.576 79.6458C308.761 80.0265 305.688 80.2294 303.053 78.9518C300.266 77.6004 299.078 74.5524 296.465 73.0705C295.499 72.5228 293.807 71.9884 292.815 72.7485ZM305.047 97.5009C306.983 97.4749 306.042 100.236 305.512 101.165C304.394 103.123 302.001 103.88 299.9 103.158C298.238 102.587 296.44 100.063 299.043 99.6451C300.292 99.4447 301.527 99.5263 302.71 98.9325C303.384 98.5943 304.256 97.5115 305.047 97.5009ZM300.188 82.8162C301.391 83.5467 299.338 88.2127 298.992 89.157C298.428 90.6982 297.927 91.6931 299.36 92.8811C300.356 93.7072 302.322 94.4202 301.383 96.0666C300.515 97.5899 297.535 96.9511 296.324 96.2058C294.563 95.1219 295.082 93.0459 295.47 91.3423C295.724 90.2261 298.045 81.5154 300.188 82.8162ZM110.696 52.1803C114.407 53.7655 118.202 55.1974 122.129 56.1526C125.56 56.9876 128.935 57.8879 132.471 57.6918C135.743 57.5107 136.133 60.7251 134.265 62.9511C133.249 64.1605 132.071 64.1303 130.591 64.177C128.859 64.2319 127.286 64.7125 125.615 65.1428C123.071 65.7981 120.495 66.3546 118.03 67.2796C116.757 67.757 115.502 68.3185 114.367 69.0729C113.654 69.5475 112.062 70.4025 112.904 71.0656C114.121 72.0236 117.734 70.7112 119.182 70.6247C122.555 70.4236 125.921 70.1192 129.274 69.6969C130.917 69.4899 132.68 69.2852 134.236 68.6886C135.253 68.2984 136.38 67.3295 137.533 67.5756C139.964 68.0949 138.759 71.7399 137.655 72.9257C136.016 74.6867 133.527 75.4643 131.41 76.4649C129.93 77.1645 128.459 77.9052 127.022 78.6881C126.343 79.058 123.179 80.4435 123.279 81.4954C123.384 82.601 125.882 82.0434 126.499 81.9429C130.622 81.2725 134.342 79.6785 138.15 78.0472C139.817 77.3332 141.508 76.648 143.14 75.8563C144.281 75.3029 145.401 74.4599 146.661 74.2085C149.631 73.6154 149.501 76.9324 150.67 78.7243C154.146 84.0498 160.861 86.3216 166.086 89.3992C168.062 90.5632 169.948 91.9037 171.762 93.3061C173.057 94.3074 173.575 95.6855 175.022 94.365C176.227 93.2643 176.809 91.6499 177.581 90.25C178.481 88.6201 179.683 87.1812 180.605 85.5647C181.967 83.1765 182.376 80.8988 179.383 80.0199C176.241 79.0974 173.755 77.7217 171.085 75.7589C164.532 70.9418 159.095 64.7905 152.561 59.9365C146.508 55.4393 140.089 51.2192 132.501 50.0115C125.308 48.8665 117.418 49.1485 110.696 52.1803ZM307.013 86.7716C306.86 88.0977 306.533 90.926 304.691 91.0318C302.453 91.1602 303.956 84.3634 305.223 83.5984C307.253 82.3736 307.143 85.648 307.013 86.7716ZM286.195 86.2302C283.402 86.4615 282.606 89.5205 285.397 90.6036L286.195 86.2302ZM296.55 83.5457C296.192 84.934 296.319 87.1618 295.205 88.2274C293.635 89.729 292.951 87.5254 292.963 86.2689C292.974 85.0261 293.59 81.9176 295.253 81.7538C296.674 81.6138 295.491 83.2613 296.55 83.5457ZM326.69 52.6577C325.669 54.7822 326.767 56.879 327.378 58.9672C326.125 59.3712 324.436 59.0657 323.67 60.3904C323.188 61.2253 323.272 62.4825 323.416 63.3867C323.535 64.1285 324.143 65.1273 323.637 65.8157C322.974 66.7167 321.329 66.3001 320.598 67.3024C319.487 68.8268 320.111 72.3087 321.67 73.4562C323.86 75.0681 322.553 71.1123 322.419 70.392C322.083 68.5874 323.953 68.8328 325.229 68.104C325.915 67.7131 326.037 67.6375 326.194 66.8029C326.339 66.034 326.262 65.424 326.079 64.5954C325.458 61.784 326.544 62.2431 328.778 61.6236C330.704 61.0889 330.55 59.5494 330.061 57.9312C329.677 56.6627 328.532 54.5819 329.772 53.5004C330.264 53.0712 331.011 53.3426 331.117 52.4468C331.189 51.8421 330.377 50.8507 329.951 50.503C328.483 49.3042 327.287 51.4153 326.69 52.6577Z" fill="black"/>
    <path fill-rule="evenodd" clip-rule="evenodd" d="M48.0281 63.0243C48.2084 60.6733 48.1353 58.3158 48.3057 55.9662C48.4682 53.734 48.9192 51.4605 49.3578 49.2661C49.8038 47.0344 50.6144 45.0532 51.5257 42.9813C52.0286 41.8386 52.5146 40.6882 53.0021 39.5386C53.2995 38.8336 53.5173 38.103 54.3422 37.915C55.4115 37.6713 56.7027 37.8689 57.8027 37.8297C58.9141 37.7901 60.0249 37.7232 61.1328 37.6248C63.5413 37.4107 65.9344 37.0587 68.3384 36.8091C70.6412 36.5704 72.9182 36.4306 75.1918 35.956C76.362 35.7119 77.5222 35.4264 78.6825 35.1412C79.5523 34.9281 80.7571 34.3829 81.6318 34.5901C80.5501 37.0537 80.2132 39.6835 80.1866 42.3496C80.1767 43.4003 80.0522 43.8303 78.9581 43.7656C77.5929 43.685 76.2222 43.5475 74.8644 43.3913C72.3018 43.0957 69.7595 42.6265 67.2192 42.1866C66.0149 41.978 64.8586 41.681 63.6771 41.4196C62.8384 41.2347 62.4857 41.5672 62.2052 42.3332C62.0032 42.8875 61.938 43.1371 61.4178 43.45C60.9931 43.7055 60.5747 43.9478 60.1835 44.2561C59.487 44.805 58.8874 45.4645 58.3747 46.1873C57.2367 47.7891 56.5071 49.6715 55.8388 51.5069C54.1594 56.1261 53.3138 61.1501 53.1577 66.0557C53.0787 68.5502 52.6672 70.9955 52.64 73.4982C52.6272 74.6013 52.9088 76.0211 51.9876 76.8228C51.0866 77.6076 49.9293 78.1707 48.9241 78.8138C48.043 76.2898 47.8157 73.6126 47.7891 70.9564C47.7614 68.3084 47.8256 65.664 48.0281 63.0243ZM85.3132 49.665C86.4137 49.9579 87.5196 50.2171 88.6295 50.4744C86.7421 54.9979 86.8083 60.0019 86.6656 64.8237C86.6023 66.9803 86.6601 69.1423 86.872 71.2893C87.0904 73.4855 87.5838 75.582 88.0274 77.7351C88.1242 78.2053 88.3563 78.9764 88.0466 79.4076C87.7033 79.8852 86.5791 80.143 86.0916 80.3633C84.1568 81.2356 82.2522 82.182 80.2779 82.9649C78.2765 83.7587 76.1975 84.2348 74.2405 85.157C72.325 86.0594 70.3843 86.8868 68.3898 87.6C66.4304 88.3014 64.3968 88.8156 62.5055 89.6978C60.7115 90.534 59.2307 91.6834 57.7064 92.9232C56.7798 90.045 56.4187 87.117 56.2512 84.1005C56.0907 81.2134 55.8541 78.2078 56.149 75.3273C56.2829 74.0129 56.2833 72.7904 56.2572 71.4742C56.2335 70.2964 56.5056 69.1414 56.5995 67.9695C56.8059 65.3871 56.7975 62.8079 57.1472 60.2355C57.8096 55.3705 59.123 50.2207 61.7735 46.0502C61.9424 45.7842 62.1074 45.3552 62.3405 45.1589C62.7332 44.8286 62.5939 44.8906 63.1106 45.1566C63.5927 45.4039 64.0678 45.6671 64.5652 45.8835C65.6099 46.338 66.7277 46.538 67.8173 46.8477C69.0245 47.1906 70.1196 47.7162 71.3727 47.9107C72.5863 48.0988 73.8197 48.1215 75.0328 48.3124C75.7036 48.418 76.319 48.6399 76.972 48.8065C77.5035 48.9423 78.0241 48.9063 78.5832 48.965C79.664 49.0794 80.7161 49.3818 81.7998 49.4797C83.0183 49.5899 84.1035 49.3435 85.3132 49.665ZM45.3786 70.6681C45.7521 73.6462 46.5483 76.5635 47.71 79.331C48.083 80.2211 48.5038 81.4668 49.5707 81.7128C50.5546 81.9395 51.747 81.2164 52.6741 80.9625C53.4012 85.2845 53.7193 89.7749 55.6477 93.7807C55.8912 94.2865 56.2122 95.2289 56.7131 95.5604C57.2248 95.8987 57.8467 95.5683 58.3569 95.3742C60.4996 94.5621 62.713 94.0425 64.9303 93.4804C66.0115 93.2063 67.1135 92.9627 68.169 92.5962C69.0453 92.2915 69.8736 91.9255 70.7918 91.7595C72.7108 91.4123 74.4939 90.7845 76.3284 90.1369C80.1787 88.7766 84.0497 87.5452 87.6031 85.5028C89.2988 84.5282 91.0774 83.5734 92.6432 82.3964C93.9275 81.4312 95.3643 79.9845 94.7351 78.232C94.5449 77.702 94.0238 76.8247 93.4237 76.6632C92.8606 76.5106 92.3548 77.0203 91.8396 77.1379C91.0606 77.3157 91.2355 76.6874 91.1629 76.074C91.1061 75.5904 91.0463 75.1073 90.9875 74.6237C90.865 73.6089 90.744 72.5933 90.6531 71.5749C90.2782 67.356 90.4546 63.14 90.4506 58.9143C90.4491 56.7988 90.9386 54.9442 91.4326 52.906C91.6939 51.8248 91.9384 50.739 92.1685 49.651C92.296 49.0461 92.4447 48.3821 92.2693 47.7699C91.8766 46.3977 89.9221 46.0183 88.7648 45.6275C87.77 45.2914 86.7599 44.9994 85.73 44.7936C85.1655 44.6811 83.6575 44.769 83.2925 44.2949C82.9309 43.8257 83.331 42.3027 83.3675 41.7444C83.4352 40.7159 83.5063 39.6884 83.6417 38.666C83.86 37.0168 83.8363 35.4874 82.5204 34.2814C83.3409 33.6274 83.9237 32.2396 82.7304 31.637C81.3577 30.9434 79.5212 30.8427 78.0715 31.2067C76.486 31.6047 74.7458 31.6097 73.1217 31.7837C71.3939 31.9682 69.6711 32.1927 67.9467 32.4104C64.9806 32.7857 61.9592 32.8681 59.0292 33.4702C57.5617 33.7713 56.0932 34.0004 54.6143 34.234C53.0826 34.4754 52.159 34.6808 51.2422 35.9734C49.5045 38.425 47.9002 40.9373 46.9242 43.7994C46.0005 46.5106 45.5693 49.3594 45.3125 52.2037C45.0363 55.2694 44.9741 58.3263 45.0087 61.4024C45.0433 64.4958 44.9924 67.591 45.3786 70.6681Z" fill="black"/>
    <path fill-rule="evenodd" clip-rule="evenodd" d="M27.3599 110.435C29.2408 114.778 32.2647 118.24 35.3528 121.765C36.9868 123.631 38.6548 125.325 40.636 126.826C42.4804 128.223 44.347 129.587 46.2091 130.959C44.3406 133.36 42.2413 135.555 40.1594 137.775C38.236 139.826 36.319 141.921 35.0515 144.454C34.9201 143.242 34.1333 142.492 33.0728 141.998C31.7491 141.381 30.532 140.711 29.3821 139.801C26.942 137.872 24.6714 135.573 22.5934 133.265C18.3667 128.571 15.6733 122.668 12.7363 117.147C17.6105 114.91 22.4857 112.673 27.3599 110.435ZM11.7376 121.391C12.4513 123.398 13.4861 125.329 14.4325 127.235C15.3651 129.114 16.3317 130.981 17.4214 132.775C19.4915 136.185 22.0219 139.362 25.2493 141.754C26.8289 142.924 28.5226 144.091 30.2801 144.983C31.1109 145.404 32.0222 145.725 32.9676 145.671C33.5465 145.638 34.3477 145.125 34.7967 145.582C35.2565 146.051 35.1039 146.988 36.0695 146.534C36.8618 146.16 37.5588 145.365 38.1416 144.741C39.6254 143.155 41.1156 141.559 42.5402 139.92C43.9207 138.331 45.0548 136.521 46.2205 134.773C46.8636 133.808 47.5003 132.839 48.1385 131.871C48.5949 131.178 49.2449 130.484 49.2108 129.606C49.1456 127.894 47.0454 126.733 45.852 125.78C44.3895 124.613 43.0311 123.413 41.7854 122.017C40.4602 120.53 38.7911 119.285 37.3572 117.889C35.7998 116.375 34.3936 114.727 32.9982 113.067C31.8903 111.749 30.7923 110.398 29.8538 108.955C29.1203 107.827 28.293 106.962 26.8265 107.171C25.679 107.436 24.5282 107.625 23.4222 108.047C22.3104 108.471 21.24 109.006 20.1593 109.504C18.2008 110.405 16.3989 111.546 14.4962 112.548C14.065 112.775 13.6378 113.01 13.2466 113.302C13.0307 113.462 12.8119 113.773 12.5822 113.888C12.4123 113.973 12.2952 113.953 12.1006 114.008C11.3296 114.225 11.0392 114.655 10.6534 115.332C10.034 116.42 10.0513 117.005 10.6183 118.119C11.1365 119.138 11.3548 120.316 11.7376 121.391Z" fill="black"/>
    <path fill-rule="evenodd" clip-rule="evenodd" d="M95.243 160.042C95.7246 160.815 96.5134 160.434 96.9639 159.884C98.3326 158.213 99.6134 156.405 100.842 154.626C102.089 152.821 103.232 150.993 104.645 149.308C106.067 147.614 107.526 145.943 109.001 144.294C114.512 138.13 120.167 132.111 126.243 126.511C127.728 125.142 129.256 123.805 130.683 122.373C131.31 121.744 132.074 121.045 132.044 120.076C132.024 119.386 131.573 118.534 130.971 118.181C129.66 117.415 127.901 119.281 126.928 119.978C126.183 120.511 125.384 120.79 124.602 121.228C123.918 121.612 123.234 122.198 122.648 122.721C121.33 123.898 119.91 124.897 118.574 126.043C117.218 127.206 116.019 128.541 114.687 129.732C113.262 131.004 111.734 132.1 110.466 133.549C109.215 134.98 108.159 136.541 106.854 137.932C104.076 140.895 101.804 144.242 99.4341 147.536C98.2926 149.121 97.4312 150.858 96.6601 152.652C96.2758 153.545 95.895 154.442 95.532 155.344C95.1872 156.2 95.1586 157.074 95 157.971C95.1996 158.01 95.0504 159.733 95.243 160.042Z" fill="black"/>
    <path fill-rule="evenodd" clip-rule="evenodd" d="M69.7571 155.147C70.0767 154.642 71.191 154.184 71.7033 153.854C72.4027 153.405 73.0917 152.945 73.7665 152.459C74.989 151.577 75.843 152.157 76.9277 153.002C78.9321 154.563 79.7367 156.66 79.5865 159.14C79.5915 159.865 79.7866 161.078 79.2284 161.674C78.695 162.246 77.5871 162.19 76.8822 162.332C75.9595 162.519 74.5661 163.687 73.6109 163.345C72.7731 163.046 73.0695 161.551 73.0028 160.891C72.8764 159.66 72.4664 158.468 71.7097 157.473C71.3205 156.962 70.8542 156.527 70.3415 156.139C69.9498 155.841 69.4395 155.65 69.7571 155.147ZM66.0832 158.874C66.8725 159.011 67.6865 159.378 68.4245 159.677C68.914 159.875 69.5551 160.062 69.9508 160.414C70.6072 160.999 70.341 161.921 70.4936 162.686C70.583 163.133 70.8127 163.519 70.6472 163.983C70.4546 164.526 69.8856 164.62 69.5971 165.06C69.1753 165.706 69.7196 166.618 70.0841 167.169C70.7164 168.125 71.5793 167.637 72.5543 167.493C73.7289 167.321 74.9356 167.273 76.0667 166.886C76.9884 166.572 77.753 165.842 78.4559 166.812C78.7182 167.175 78.772 167.494 79.2882 167.359C79.7174 167.245 80.1536 166.663 80.4485 166.365C82.2844 164.506 82.7221 161.966 82.7522 159.46C82.8401 156.677 81.829 154.063 80.3956 151.711C80.0943 151.217 79.792 150.646 79.342 150.262C78.9039 149.888 78.3334 149.741 77.9373 149.305C77.346 148.654 77.4828 147.335 76.5399 147.048C75.5471 146.745 74.1191 147.949 73.3674 148.465C72.3083 149.191 71.2726 149.947 70.2541 150.725C68.0703 152.391 65.6323 153.986 63.6585 155.891C62.9892 156.538 62.716 157.68 63.3873 158.451C64.0596 159.223 65.2085 158.722 66.0832 158.874Z" fill="black"/>
    <path fill-rule="evenodd" clip-rule="evenodd" d="M32.5403 58.535C33.1469 59.3479 34.4494 59.3524 34.363 58.1613C34.2849 57.0689 33.9456 55.9924 33.5929 54.9633C33.2333 53.9128 33.3074 52.7712 33.2867 51.6743C33.2378 49.0548 33.3232 46.5173 33.8157 43.9388C34.2879 41.4573 34.5931 38.9457 35.1464 36.4787C35.6887 34.0577 36.6716 31.7691 37.2767 29.3686C37.4644 28.6271 37.6146 27.1802 36.5294 27.0108C35.627 26.8702 35.095 28.1351 34.7453 28.7327C33.582 30.7204 32.3279 32.5584 31.6379 34.7732C31.0155 36.7686 30.5458 38.8929 30.3275 40.9711C30.0993 43.1496 30.1334 45.3503 30 47.535C30.2178 50.0735 30.1022 52.8832 30.9177 55.3165C31.2857 56.4121 31.8439 57.6014 32.5403 58.535Z" fill="black"/>
    <path fill-rule="evenodd" clip-rule="evenodd" d="M104.896 128.014C107.4 125.745 110.148 123.829 112.513 121.413C113.108 120.804 113.568 120.449 113.053 119.618C112.708 119.063 112.314 118.782 111.732 119.162C110.343 120.071 109.02 121.187 107.681 122.178C104.937 124.21 102.091 126.202 99.6129 128.558C98.4912 129.625 97.4549 130.786 96.5841 132.065C95.6698 133.408 94.9798 134.771 96.0012 136.276C98.9782 133.537 101.898 130.728 104.896 128.014Z" fill="black"/>
    <path fill-rule="evenodd" clip-rule="evenodd" d="M257.994 34.3718C257.858 34.9451 257.524 35.2269 256.955 35.3634C256.016 35.5884 254.987 35.6234 254.029 35.7393C252.279 35.9522 250.469 36.0406 248.753 36.4544C247.146 36.8411 245.538 37.4197 244.087 38.2142C244.562 35.9514 245.1 33.7533 244.901 31.4228C244.754 29.7116 244.714 27.1335 242.98 26.1441C242.578 25.915 241.943 26.0016 241.496 25.9775C240.916 25.9466 240.335 25.9196 239.755 25.8876C238.607 25.8244 237.465 25.704 236.32 25.5923C234.063 25.3722 231.823 25.0991 229.58 24.7703C229.209 24.7161 228.543 24.7568 228.294 24.4359C228.111 24.2 228.199 23.8272 228.213 23.562C228.259 22.6459 228.223 21.7325 228.108 20.8222C227.859 18.8299 227.307 16.8695 226.691 14.963C226.378 13.9992 226.044 13.0429 225.73 12.0799C225.578 11.6145 225.226 10.9795 225.729 10.6462C226.044 10.4382 226.594 10.4397 226.96 10.3487C227.396 10.2407 227.82 10.0989 228.246 9.95929C229.252 9.62938 230.257 9.29494 231.261 8.96126C235.079 7.69274 238.932 6.50812 242.739 5.21478C243.271 5.03383 243.8 4.84423 244.333 4.66328C244.564 4.58541 244.964 4.38415 245.213 4.49249C245.503 4.62002 245.447 4.93903 245.656 5.12901C245.838 5.29453 246.251 5.30694 246.485 5.44162C247.081 5.78433 247.454 6.38209 247.921 6.86437C248.522 7.48508 249.195 8.03019 249.788 8.66219C252.184 11.2131 253.957 14.2843 255.458 17.4252C255.861 18.2712 256.124 19.1462 256.377 20.0465C256.616 20.8982 256.921 21.7307 257.057 22.6076C257.373 24.6552 257.385 26.7622 257.638 28.823C257.85 30.5501 258.403 32.6413 257.994 34.3718ZM242.774 29.7465C242.769 31.1106 242.697 32.4833 242.398 33.8184C242.089 35.1945 241.532 36.5123 241.034 37.8286C240.565 39.0704 240.185 40.351 239.641 41.5627C239.104 42.7582 238.416 43.848 237.986 45.0895C237.102 47.6344 235.589 49.8671 234.518 52.3247C233.423 54.8366 232.205 57.2352 230.845 59.6164C230.198 60.7491 229.598 62.0022 228.781 63.0225C228.375 63.5288 227.911 64.0337 227.442 64.4821C227.032 64.873 226.836 64.5746 226.341 64.6634C225.619 64.7924 225.247 65.7262 224.78 66.2066C223.896 67.1162 222.991 68.0149 222.022 68.835C221.03 69.6743 219.933 70.3762 218.915 71.1843C217.943 71.9559 216.972 72.653 215.861 73.2157C213.667 74.327 211.145 75.6903 208.614 75.5737C207.449 75.5199 206.825 74.7638 206.338 73.7544C205.821 72.6861 205.995 71.4051 206.082 70.2589C206.186 68.8839 206.519 67.6711 207.254 66.5049C207.979 65.3549 207.264 64.6412 206.542 63.6827C204.931 61.5437 202.783 59.8775 200.825 58.0703C199.814 57.1366 198.811 56.1927 197.81 55.2492C197.256 54.7275 196.703 54.2053 196.151 53.6832C195.746 53.3002 195.355 53.0418 195.209 52.5038C196.311 51.9113 197.46 51.4065 198.475 50.6657C200.548 49.1535 202.451 47.3079 204.404 45.6443C205.343 44.8449 206.085 43.8544 206.839 42.888C207.567 41.955 208.401 41.0744 209.029 40.0681C210.38 37.9035 211.921 35.7599 212.992 33.4389C213.526 32.2821 213.801 31.102 214.081 29.8665C214.249 29.1224 214.443 28.3843 214.632 27.6455C214.754 27.1693 214.789 26.3484 215.094 25.9549C215.658 25.23 217.427 26.4007 218.076 26.6065C219.296 26.9936 220.568 27.1775 221.83 27.3724C224.507 27.7851 227.202 28.1379 229.862 28.6499C231.256 28.9182 232.652 29.2154 234.067 29.3557C235.437 29.4919 236.816 29.4211 238.189 29.411C238.483 29.4083 238.843 29.4606 239.04 29.1913C239.153 29.037 239.077 28.8456 239.258 28.7015C239.494 28.5138 239.802 28.6146 240.073 28.6435C240.623 28.7019 241.174 28.7353 241.724 28.8034C241.961 28.8328 242.433 28.7929 242.635 28.9174C242.849 29.0487 242.775 29.4448 242.774 29.7465ZM204.244 66.3642C203.604 67.6523 203.234 69.4538 203.214 70.8807C203.204 71.6466 203.305 72.4107 203.463 73.1589C203.6 73.812 203.974 74.5633 203.856 75.2208C202.231 74.4715 200.635 73.6653 198.978 72.9889C197.546 72.4047 196.47 71.3874 195.292 70.421C194.026 69.3839 192.881 68.2274 191.666 67.135C190.361 65.962 189 64.8534 187.673 63.7068C185.311 61.6652 183.327 59.3708 181.388 56.9312C179.683 54.7869 177.238 52.052 177.353 49.1508C177.407 47.8044 177.506 46.273 178.168 45.068C178.718 44.067 179.713 42.9444 180.643 42.2748C181.537 41.6311 182.415 43.2488 182.918 43.8168C184.001 45.0402 185.105 46.2436 186.204 47.4527C188.293 49.7524 190.276 52.1671 192.536 54.305C194.814 56.4591 197.142 58.5661 199.595 60.5189C200.823 61.4967 202.176 62.4082 203.291 63.5153C203.7 63.9219 204.494 64.3696 204.767 64.8771C205.06 65.4241 204.473 65.9041 204.244 66.3642ZM260.148 34.6073C259.804 34.5629 259.82 34.6092 259.791 34.2725C259.745 33.7507 259.923 33.1345 259.976 32.6116C260.229 30.1235 260.108 27.5161 259.891 25.0276C259.463 20.1394 258.454 15.3335 255.891 11.0935C254.708 9.13618 253.371 7.29022 251.694 5.7215C250.921 4.99884 250.167 4.22013 249.312 3.59264C248.883 3.27739 248.258 3.11827 247.868 2.7955C247.657 2.62095 247.563 2.26544 247.385 2.04274C246.674 1.1538 245.871 0.924317 244.737 1.02025C243.56 1.11994 242.327 1.48785 241.192 1.80197C238.776 2.47008 236.459 3.60619 234.12 4.50265C231.77 5.40287 229.446 6.36216 227.128 7.34176C226.121 7.76723 224.905 8.10166 224.01 8.74382C223.47 9.13204 223.311 9.61395 223.369 10.2595C223.574 12.5403 224.423 14.8054 225.069 16.9873C225.762 19.3302 226.327 21.7171 226.504 24.1594C224.109 23.9844 221.73 23.8027 219.346 23.5025C218.154 23.352 216.956 23.229 215.766 23.0658C215.151 22.9815 214.864 22.7524 214.369 22.4338C213.935 22.1543 213.711 22.3909 213.526 22.816C212.562 25.025 212.182 27.4348 211.138 29.6277C210.67 30.6125 210.084 31.5319 209.597 32.507C209.067 33.5671 208.428 34.6103 207.763 35.591C207.455 36.0462 207.059 36.4149 206.717 36.8415C206.4 37.2369 206.173 37.6921 205.882 38.1059C205.273 38.9704 204.536 39.7321 203.79 40.4778C203.041 41.2256 202.315 41.9851 201.6 42.7646C200.897 43.5313 200.057 44.1535 199.313 44.8773C198.614 45.5582 198.005 46.2997 197.287 46.967C196.595 47.6103 196.272 48.503 195.528 49.0812C195.127 49.3931 194.682 49.6436 194.283 49.9581C193.953 50.2177 193.609 50.6714 193.141 50.5845C192.621 50.4874 192.203 49.7911 191.879 49.4315C191.46 48.9688 191.038 48.5087 190.614 48.0505C188.947 46.2508 187.237 44.4868 185.557 42.6992C184.735 41.8249 183.831 41.0319 183.03 40.1381C182.447 39.4865 181.492 39.0226 180.675 39.4684C179.85 39.918 178.86 40.3149 178.193 40.9897C177.47 41.7211 176.893 42.6717 176.304 43.511C175.69 44.3849 175.447 45.4171 175.286 46.4562C175.115 47.5633 174.937 48.6603 175.022 49.7839C175.182 51.9113 175.579 54.2854 176.812 56.0769C177.4 56.9304 178.205 57.5719 178.925 58.3062C179.705 59.1026 180.262 60.0611 180.905 60.9647C182.196 62.7776 183.78 64.4012 185.397 65.9267C186.168 66.6539 187.04 67.267 187.815 67.9968C188.642 68.7767 189.48 69.4798 190.414 70.128C191.368 70.7908 192.157 71.6542 193.02 72.4246C193.908 73.2184 194.818 73.9583 195.796 74.6385C197.672 75.9439 199.58 76.7937 201.761 77.4498C204.164 78.1728 206.49 79.1189 208.879 79.8747C210.024 80.2366 211.157 79.7359 212.248 79.3695C213.36 78.9959 214.451 78.5531 215.475 77.9776C217.552 76.8099 219.546 75.4552 221.589 74.2251C223.714 72.946 225.489 71.4796 227.112 69.6081C228.659 67.8234 230.296 66.0516 231.705 64.1567C234.565 60.3079 236.294 55.7548 238.417 51.493C239.545 49.2276 240.689 46.9975 241.627 44.6429C242.089 43.485 242.502 42.306 242.973 41.1523C243.173 40.6632 243.338 40.4732 243.872 40.3901C244.49 40.2938 245.122 40.2513 245.742 40.1776C248.197 39.8856 250.593 39.4523 253.026 39.0332C255.284 38.645 257.555 38.2432 259.574 37.0992C259.998 36.8584 260.507 36.5755 260.739 36.1256C260.844 35.9202 261.103 34.8789 260.956 34.7122C260.871 34.6144 260.295 34.6265 260.148 34.6073Z" fill="black"/>
    <path fill-rule="evenodd" clip-rule="evenodd" d="M239.672 71.5688C240.415 70.6758 240.902 69.3887 241.442 68.3587C242.021 67.2558 242.556 66.2352 242.801 65.0072C242.919 64.4162 242.99 63.8119 243.125 63.2251C243.252 62.6704 243.434 62.181 243.382 61.6013C243.327 60.9962 243.045 59.1734 242.126 59.3748C241.592 59.4919 241.699 60.0635 241.696 60.4812C241.692 60.96 241.636 61.4368 241.495 61.8952C241.162 62.9794 240.37 63.935 239.868 64.952C239.381 65.9378 238.805 66.8353 238.078 67.6612C237.378 68.4557 236.595 69.2084 235.774 69.8771C235.053 70.4642 234.183 70.9082 233.657 71.7045C233.343 72.1815 233.291 72.3243 232.714 72.4558C232.248 72.5619 231.811 72.7321 231.419 73.0102C230.975 73.3252 230.659 73.7021 230.139 73.9091C229.687 74.0895 229.208 74.1971 228.752 74.3658C227.697 74.7553 226.775 75.4128 225.697 75.7812C225.139 75.9721 224.572 76.1352 224.007 76.3043C223.556 76.4393 223.021 76.5321 222.648 76.8373C222.02 77.3506 221.669 78.6594 222.217 79.3411C222.808 80.0748 224.194 79.616 224.963 79.5222C224.973 79.5721 224.982 79.6224 224.993 79.6723C226.287 79.4121 227.636 79.2585 228.895 78.8521C229.56 78.6369 230.157 78.33 230.765 77.9908C231.28 77.7035 231.807 77.6019 232.357 77.4184C232.85 77.2549 233.243 77.006 233.55 76.5814C233.943 76.0364 234.11 76.1989 234.717 76.066C235.691 75.8519 236.532 74.7455 237.202 74.0768C238.019 73.2619 238.935 72.4554 239.672 71.5688Z" fill="black"/>
    <path fill-rule="evenodd" clip-rule="evenodd" d="M244.656 77.6518C244.337 77.5734 243.806 77.9261 243.569 78.0825C242.624 78.7051 241.645 79.2807 240.689 79.8878C239.809 80.4468 238.939 81.0233 238.073 81.6034C237.351 82.0861 236.878 82.6799 237.132 83.5922C237.248 84.0085 237.44 84.4957 237.923 84.2574C238.278 84.0823 238.583 83.9121 238.973 83.7743C239.954 83.427 240.944 83.0838 241.86 82.5829C243.448 81.7152 244.935 80.3719 245.148 78.4798C245.03 78.2119 244.997 77.7355 244.656 77.6518Z" fill="black"/>
</svg>