<svg width="24" height="24" viewBox="0 0 24 24" fill="none" xmlns="http://www.w3.org/2000/svg">
    <path fill-rule="evenodd" clip-rule="evenodd" d="M18 2C18.5304 2 19.0391 2.21071 19.4142 2.58579C19.7893 2.96086 20 3.46957 20 4V16.99C20 17.158 19.962 17.312 19.887 17.462L19.342 18.552C19.2725 18.6909 19.2363 18.8441 19.2363 18.9995C19.2363 19.1549 19.2725 19.3081 19.342 19.447L19.886 20.535C19.9661 20.6875 20.0054 20.858 20.0002 21.0301C19.995 21.2023 19.9455 21.3701 19.8564 21.5175C19.7673 21.6649 19.6416 21.7867 19.4916 21.8712C19.3415 21.9558 19.1722 22.0001 19 22H7C6.20435 22 5.44129 21.6839 4.87868 21.1213C4.31607 20.5587 4 19.7956 4 19V5C4 4.20435 4.31607 3.44129 4.87868 2.87868C5.44129 2.31607 6.20435 2 7 2H18ZM7 18C6.73478 18 6.48043 18.1054 6.29289 18.2929C6.10536 18.4804 6 18.7348 6 19C6 19.2652 6.10536 19.5196 6.29289 19.7071C6.48043 19.8946 6.73478 20 7 20H17.407C17.1782 19.353 17.1782 18.647 17.407 18H7ZM16 11C15.638 11 15.4 11.188 15.305 11.278C15.185 11.392 15.115 11.525 15.037 11.668C14.943 11.8323 14.8043 11.9665 14.637 12.055C14.503 12.125 14.38 12.197 14.274 12.31C14.0987 12.4972 14.0011 12.744 14.0011 13.0005C14.0011 13.257 14.0987 13.5038 14.274 13.691C14.377 13.802 14.505 13.876 14.638 13.946C14.825 14.048 14.958 14.187 15.038 14.332C15.114 14.475 15.184 14.609 15.305 14.722C15.4923 14.8999 15.7407 14.9993 15.9991 14.9997C16.2575 15 16.5062 14.9014 16.694 14.724C16.815 14.609 16.885 14.476 16.963 14.332C17.0572 14.1681 17.1959 14.0343 17.363 13.946C17.496 13.873 17.621 13.805 17.727 13.691C17.9012 13.5034 17.998 13.257 17.998 13.001C17.998 12.745 17.9012 12.4986 17.727 12.311C17.6198 12.2067 17.4966 12.1203 17.362 12.055C17.1947 11.9665 17.056 11.8323 16.962 11.668C16.8954 11.5237 16.8048 11.3919 16.694 11.278C16.5073 11.0991 16.2586 10.9995 16 11ZM11 5C10.7914 5.00008 10.5881 5.06539 10.4184 5.18679C10.2488 5.30818 10.1214 5.47959 10.054 5.677L9.924 6.055C9.624 6.934 8.934 7.625 8.054 7.925L7.677 8.054C7.4798 8.12157 7.30866 8.24908 7.18748 8.41869C7.06631 8.58831 7.00117 8.79155 7.00117 9C7.00117 9.20845 7.06631 9.41169 7.18748 9.58131C7.30866 9.75092 7.4798 9.87843 7.677 9.946L8.055 10.076C8.934 10.376 9.625 11.066 9.925 11.946L10.054 12.323C10.1216 12.5202 10.2491 12.6913 10.4187 12.8125C10.5883 12.9337 10.7915 12.9988 11 12.9988C11.2085 12.9988 11.4117 12.9337 11.5813 12.8125C11.7509 12.6913 11.8784 12.5202 11.946 12.323L12.076 11.945C12.376 11.066 13.066 10.375 13.946 10.075L14.323 9.946C14.5202 9.87843 14.6913 9.75092 14.8125 9.58131C14.9337 9.41169 14.9988 9.20845 14.9988 9C14.9988 8.79155 14.9337 8.58831 14.8125 8.41869C14.6913 8.24908 14.5202 8.12157 14.323 8.054L13.945 7.924C13.5111 7.7759 13.117 7.53034 12.7928 7.20617C12.4687 6.88201 12.2231 6.48786 12.075 6.054L11.946 5.677C11.8786 5.47959 11.7512 5.30818 11.5816 5.18679C11.4119 5.06539 11.2086 5.00008 11 5Z" fill="#4C4F58"/>
</svg>