<svg width="24" height="24" viewBox="0 0 24 24" fill="none" xmlns="http://www.w3.org/2000/svg">
    <path d="M12.0908 2C17.6638 2.00005 22.1816 6.51784 22.1816 12.0908C22.1816 17.6638 17.6638 22.1816 12.0908 22.1816C6.51784 22.1816 2.00005 17.6638 2 12.0908C2.00005 6.51784 6.51784 2.00005 12.0908 2ZM12.0908 4C7.62241 4.00005 4.00005 7.62241 4 12.0908C4.00002 13.9731 4.64466 15.7036 5.72266 17.0781C6.91397 15.0393 9.28634 13.6495 12.0186 13.6494C14.7982 13.6494 17.2039 15.0887 18.374 17.1855C19.5034 15.7945 20.1816 14.0223 20.1816 12.0908C20.1816 7.62241 16.5592 4.00005 12.0908 4ZM12.0908 5.72754C13.8481 5.72754 15.2725 7.15191 15.2725 8.90918C15.2724 10.6664 13.848 12.0908 12.0908 12.0908C10.3336 12.0908 8.90928 10.6664 8.90918 8.90918C8.90918 7.15191 10.3336 5.72754 12.0908 5.72754Z" fill="#4C4F58"/>
</svg>
