<svg width="195" height="27" viewBox="0 0 195 27" fill="none" xmlns="http://www.w3.org/2000/svg">
    <g clip-path="url(#clip0_1091_12491)">
        <path d="M106.877 16.3035C107.683 16.0054 108.438 15.4026 109.046 14.5541C109.985 13.2437 110.501 11.4434 110.501 9.4827C110.501 7.52195 109.921 5.85769 108.865 4.53251C107.795 3.18766 106.367 2.44727 104.844 2.44727H92.3706C92.3296 2.44727 92.2886 2.45382 92.2492 2.46692L86.6428 4.36379C86.4559 4.42767 86.3412 4.6226 86.3608 4.82572V25.8878C86.3608 26.4054 86.7477 26.8247 87.2264 26.8247H91.2443V18.0137C94.441 18.0137 97.0311 20.6034 97.0311 23.796V26.8231H105.985C105.985 21.7206 102.251 17.5616 97.577 17.3666V17.3584C98.0721 17.3584 99.0508 17.3584 100.169 17.3584C103.38 17.3584 105.983 14.5426 105.983 11.07V10.9127C105.983 7.51212 103.459 4.78149 100.343 4.78149C96.2033 4.78149 90.8444 4.78149 88.1198 4.78149L92.4296 3.32362H104.841C107.513 3.32362 109.687 6.08702 109.687 9.48106C109.687 11.2485 109.229 12.8587 108.401 14.0152C107.664 15.0439 106.687 15.6352 105.718 15.6385C105.565 15.6385 105.42 15.7253 105.351 15.8727C105.241 16.1053 105.334 16.374 105.539 16.4755C106.498 16.9538 107.515 17.881 108.259 18.9588C108.933 19.9335 109.877 21.7599 109.78 24.2088L110.39 23.3144C110.39 21.5764 109.947 19.9367 108.908 18.4346C108.338 17.6107 107.618 16.8621 106.872 16.3035H106.877ZM91.2443 8.30821C93.1558 8.30821 94.705 9.85617 94.705 11.7661C94.705 13.6761 93.1558 15.2241 91.2443 15.2241V8.30985V8.30821Z" fill="#F84E00"/>
        <path d="M45.9336 6.91913H54.0679C56.381 6.91913 58.1744 7.4777 59.3318 8.55227C60.4481 9.66778 61.0071 11.1813 61.0071 13.0946V26.4021C61.0071 26.8411 60.7678 27 60.4088 27H57.7777C57.3384 27 57.14 26.8411 57.14 26.4021V13.0946C57.14 12.3378 56.9007 11.7006 56.5023 11.1813C56.0236 10.6637 55.2269 10.3836 54.0696 10.3836H45.9353V26.4005C45.9353 26.8395 45.6959 26.9984 45.2976 26.9984H42.7058C42.2665 26.9984 42.0681 26.8395 42.0681 26.4005V0.637202C42.0681 0.239155 42.2681 0 42.7058 0H45.2976C45.6959 0 45.9353 0.239155 45.9353 0.637202V6.91913H45.9336Z" fill="#F84E00"/>
        <path d="M71.0282 27C68.6364 27 66.9217 26.4824 65.8053 25.3669C64.6496 24.2907 64.0513 22.7771 64.0513 20.8246V12.6966C64.0513 10.7833 64.6496 9.26977 65.8053 8.15426C66.9217 7.07806 68.6364 6.52112 71.0282 6.52112H76.0527C78.3658 6.52112 80.1592 7.07969 81.3166 8.15426C82.4329 9.26977 82.9919 10.7833 82.9919 12.6966V20.8246C82.9919 22.7771 82.4329 24.2907 81.3166 25.3669C80.1608 26.4824 78.3658 27 76.0527 27H71.0282ZM67.9168 20.8246C67.9168 21.6207 68.1561 22.2595 68.5955 22.7771C69.0348 23.2948 69.8708 23.5339 71.0282 23.5339H76.0527C77.2084 23.5339 78.0068 23.2948 78.4855 22.7771C78.8838 22.2595 79.1231 21.6223 79.1231 20.8246V12.6966C79.1231 11.9398 78.8838 11.3419 78.4855 10.7833C78.0068 10.2657 77.2101 10.0265 76.0527 10.0265H71.0282C69.8725 10.0265 69.0348 10.2657 68.5955 10.7833C68.1561 11.3419 67.9168 11.9382 67.9168 12.6966V20.8246Z" fill="#F84E00"/>
        <path d="M125.572 6.52105C126.529 6.52105 127.367 6.67994 128.163 6.91909C128.96 7.19756 129.639 7.5563 130.276 8.07392C130.834 8.6325 131.313 9.2697 131.672 10.0658C131.95 10.8226 132.15 11.6989 132.15 12.6949C132.15 17.0373 129.678 19.1897 124.813 19.2684H117.077V20.8229C117.077 21.619 117.316 22.2578 117.755 22.7754C118.195 23.2931 119.031 23.5322 120.188 23.5322H130.396C130.755 23.5322 130.994 23.7714 130.994 24.1694V26.4004C130.994 26.8394 130.755 26.9983 130.396 26.9983H120.188C117.796 26.9983 116.082 26.4807 114.965 25.3652C113.81 24.289 113.211 22.7754 113.211 20.8229V12.6949C113.211 10.7816 113.81 9.26806 114.965 8.15255C116.082 7.07635 117.796 6.51941 120.188 6.51941H125.572V6.52105ZM120.188 10.0265C119.032 10.0265 118.195 10.2656 117.755 10.7833C117.316 11.3418 117.077 11.9381 117.077 12.6965V15.8039H124.813C126.049 15.8039 126.967 15.5647 127.524 15.0864C128.042 14.6081 128.281 13.812 128.281 12.6965C128.281 12.1789 128.201 11.7399 128.042 11.3811C127.922 11.0617 127.683 10.7833 127.444 10.5441C127.165 10.3443 126.886 10.1854 126.606 10.1461C126.247 10.0658 125.888 10.0265 125.57 10.0265H120.186H120.188Z" fill="#F84E00"/>
        <path d="M139.952 27C139.035 27 138.157 26.8805 137.36 26.6413C136.563 26.4021 135.845 26.0041 135.286 25.4865C134.648 24.9279 134.209 24.2907 133.891 23.4946C133.532 22.7378 133.373 21.8205 133.373 20.8246C133.373 16.5607 135.806 14.3297 140.75 14.2511H148.845V12.6966C148.845 11.9398 148.606 11.3419 148.207 10.7833C147.729 10.2657 146.932 10.0265 145.774 10.0265H135.566C135.129 10.0265 134.929 9.82671 134.929 9.38935V7.15832C134.929 6.76027 135.129 6.52112 135.566 6.52112H145.774C148.088 6.52112 149.881 7.07969 151.038 8.15426C152.155 9.26977 152.714 10.7833 152.714 12.6966V20.8246C152.714 22.7771 152.155 24.2907 151.038 25.3669C149.883 26.4824 148.088 27 145.774 27H139.953H139.952ZM145.774 23.5339C146.93 23.5339 147.729 23.2948 148.207 22.7771C148.606 22.2595 148.845 21.6223 148.845 20.8246V17.7172L140.75 17.7565C139.475 17.7565 138.557 17.9957 138.078 18.474C137.519 18.9916 137.24 19.7484 137.24 20.8246C137.24 21.3832 137.321 21.8205 137.48 22.1399C137.639 22.538 137.839 22.8181 138.117 23.0163C138.317 23.2161 138.635 23.3357 138.994 23.4143C139.314 23.4946 139.593 23.5339 139.952 23.5339H145.773H145.774Z" fill="#F84E00"/>
        <path d="M174.368 20.8245C174.368 22.7771 173.809 24.2907 172.692 25.3669C171.537 26.4824 169.742 27 167.428 27H162.404C160.012 27 158.297 26.4824 157.181 25.3669C156.025 24.2907 155.427 22.7771 155.427 20.8245V12.6965C155.427 10.7833 156.025 9.26973 157.181 8.15422C158.297 7.07802 160.012 6.52108 162.404 6.52108H170.499V0.597889C170.499 0.239155 170.699 0 171.137 0H173.768C174.127 0 174.366 0.239155 174.366 0.597889V20.8245H174.368ZM170.501 10.0265H162.406C161.25 10.0265 160.412 10.2657 159.973 10.7833C159.533 11.3419 159.294 11.9381 159.294 12.6965V20.8245C159.294 21.6206 159.533 22.2595 159.973 22.7771C160.412 23.2947 161.248 23.5339 162.406 23.5339H167.43C168.586 23.5339 169.384 23.2947 169.863 22.7771C170.261 22.2595 170.501 21.6223 170.501 20.8245V10.0265Z" fill="#F84E00"/>
        <path d="M182.6 10.0265C182.202 10.0265 181.882 10.1461 181.564 10.3049C181.205 10.5441 181.046 10.9831 181.046 11.54V13.4533C181.046 13.7727 181.166 14.0119 181.325 14.251C181.444 14.4902 181.684 14.6491 182.003 14.808C182.243 14.9668 182.641 15.0471 183.2 15.0471H188.982C190.098 15.0471 191.095 15.2469 191.852 15.5647C192.57 15.9628 193.208 16.4411 193.687 16.9587C194.126 17.5173 194.444 18.0742 194.683 18.6328C194.883 19.2307 195.003 19.7483 195.003 20.1464V21.9793C195.003 22.8557 194.844 23.5338 194.524 24.1711C194.205 24.8083 193.767 25.3668 193.328 25.7649C192.77 26.2039 192.211 26.5217 191.574 26.7215C190.895 26.9213 190.218 27 189.58 27H178.217C177.777 27 177.579 26.8411 177.579 26.4021V24.1711C177.579 23.773 177.779 23.5338 178.217 23.5338H189.58C189.9 23.5338 190.259 23.4143 190.616 23.1751C190.936 23.0162 191.134 22.6165 191.134 21.9793V20.1464C191.134 20.1464 191.095 20.0661 191.095 19.8679C191.056 19.709 190.975 19.5092 190.856 19.27C190.697 19.1504 190.457 18.9506 190.177 18.7524C189.857 18.5935 189.498 18.5132 188.98 18.5132H183.198C182.043 18.5132 181.085 18.3134 180.367 17.9153C179.569 17.5959 178.972 17.1586 178.494 16.6C178.054 16.1217 177.695 15.5647 177.497 14.9668C177.258 14.4083 177.177 13.9316 177.177 13.4926V11.54C177.177 10.7833 177.336 10.0658 177.656 9.38928C177.976 8.79139 178.335 8.27376 178.892 7.79545C179.371 7.43672 179.928 7.07798 180.646 6.83883C181.244 6.63899 181.921 6.51941 182.6 6.51941H193.605C193.964 6.51941 194.203 6.75856 194.203 7.15661V9.38764C194.203 9.82664 193.964 10.0248 193.605 10.0248H182.6V10.0265Z" fill="#F84E00"/>
        <path d="M38.2256 0C38.5912 0 38.8879 0.296487 38.8879 0.661773V13.3321C38.8879 22.2988 34.6765 26.8231 28.2208 26.8231C24.6897 26.8231 21.8373 25.4995 19.9849 22.8213C19.7193 22.438 19.162 22.4348 18.8931 22.8181C17.0128 25.4995 14.1621 26.8247 10.6654 26.8247C4.17206 26.8231 0 22.3004 0 13.3337V0.661773C0 0.296487 0.296716 0 0.662284 0H3.077C3.44257 0 3.73928 0.296487 3.73928 0.661773V13.3321C3.73928 20.1759 6.3376 23.0474 10.667 23.0474C14.9965 23.0474 17.5554 20.1759 17.5554 13.3321V0.661773C17.5554 0.296487 17.8522 0 18.2177 0H20.6718C21.0374 0 21.3341 0.296487 21.3341 0.661773V13.3321C21.3341 20.1759 23.9324 23.0474 28.2225 23.0474C32.5126 23.0474 35.1109 20.1759 35.1109 13.3321V0.661773C35.1109 0.296487 35.4076 0 35.7732 0H38.2272H38.2256Z" fill="#F84E00"/>
    </g>
    <defs>
        <clipPath id="clip0_1091_12491">
            <rect width="195" height="27" fill="white"/>
        </clipPath>
    </defs>
</svg>
