<svg width="102" height="102" viewBox="0 0 102 102" fill="none" xmlns="http://www.w3.org/2000/svg">
    <mask id="mask0_473_13845" style="mask-type:alpha" maskUnits="userSpaceOnUse" x="0" y="0" width="102" height="102">
        <circle cx="51" cy="51" r="51" fill="#EFF1F3"/>
    </mask>
    <g mask="url(#mask0_473_13845)">
        <path fill-rule="evenodd" clip-rule="evenodd" d="M17.8572 46.5427C17.691 49.2572 17.5248 51.9711 17.3589 54.6855C18.4273 54.3779 25.2232 52.3783 24.8035 54.4057C24.5023 55.8599 22.5917 57.4329 21.6181 58.4453C20.7223 59.3774 19.7996 60.2853 18.8536 61.1665C20.5923 60.5009 22.3457 59.8705 24.1115 59.2809C25.4478 58.8346 26.7939 58.3992 28.1631 58.0647C28.6713 57.9404 30.0436 57.4336 30.5238 57.7792C31.7854 58.6873 24.9398 65.3752 24.0021 66.3179C25.328 65.7012 26.6859 65.141 28.0666 64.6603C29.0637 64.3134 32.1439 62.987 33.0261 64.1196C33.9705 65.3314 31.631 68.1138 30.9821 68.9961C30.0526 70.2603 29.0451 71.473 27.988 72.6327C32.3814 76.5786 37.5443 80.091 43.0388 82.2739C47.0674 83.8748 51.0248 84.2822 55.2758 83.4038C59.6431 82.5013 63.8315 80.7706 67.813 78.7917C70.1513 77.6294 72.4587 76.3717 74.6569 74.959C73.7507 73.8567 72.8709 72.7313 72.016 71.5888C70.796 69.9576 69.2964 68.1753 68.6008 66.2334C67.9198 64.3329 70.4742 64.7039 71.6994 64.8072C73.4737 64.9567 75.2433 65.2737 76.982 65.6532C75.7527 64.798 74.5454 63.9087 73.3626 62.9905C71.8208 61.7938 69.7643 60.4409 68.7552 58.7193C67.8678 57.2055 69.8154 57.5878 70.7159 57.786C72.8631 58.2591 74.9523 59.0651 77.0002 59.8512C78.4998 60.427 79.9905 61.03 81.4663 61.6651C80.5502 60.8686 79.6647 60.0339 78.8138 59.1686C77.6696 58.0056 76.1271 56.5851 75.6142 54.9835C74.5698 51.7216 81.5955 54.1821 82.795 54.6855C82.5733 51.3066 82.352 47.9277 82.1306 44.5488C72.8278 47.0241 63.525 49.4998 54.222 51.9754C53.2167 52.243 51.9586 52.8256 50.91 52.8566C49.9604 52.8851 48.8134 52.4574 47.8874 52.2807L31.0529 49.0642C26.6544 48.2236 22.2558 47.3833 17.8572 46.5427Z" fill="#F84E00"/>
        <path fill-rule="evenodd" clip-rule="evenodd" d="M117.843 162.76C116.838 163.335 115.662 163.779 114.546 164.076C113.891 164.252 112.808 164.792 112.232 164.297C111.956 164.059 111.893 163.519 111.73 163.206C111.472 162.711 111.105 162.283 110.761 161.845C109.928 160.784 109.061 159.761 108.154 158.762C107.725 158.29 106.94 157.185 106.182 157.258C105.238 157.349 105.261 158.655 105.498 159.322C106.251 161.447 108.53 163.3 110.02 164.901C109.641 165.484 107.562 165.414 106.984 165.278C106.103 165.07 106.013 164.442 105.611 163.724C104.67 162.046 102.761 161.107 101.192 160.12C100.619 159.76 99.4033 158.763 98.6576 159.014C97.951 159.252 97.9816 160.155 98.2066 160.744C98.5465 161.635 99.5137 162.253 100.229 162.816C101.183 163.567 102.055 164.383 102.85 165.302C101.704 165.396 100.563 165.557 99.4201 165.651C98.0381 165.765 96.8864 165.007 95.6142 164.577C94.4321 164.177 93.2542 163.84 92.0919 163.38C90.7869 162.863 89.4199 162.683 88.1034 162.229C82.937 160.45 77.8748 158.212 72.8963 155.956C70.5241 154.881 68.2007 153.806 65.7287 152.965C63.9273 152.351 61.0966 151.129 60.6658 148.984C60.4385 147.85 61.2668 146.63 61.3889 145.498C61.5321 144.165 61.4193 142.699 61.0135 141.42C60.6555 140.294 60.0626 139.251 59.5953 138.169C59.0509 136.909 59.5384 136.929 60.5959 136.786C61.8618 136.614 63.3391 135.902 64.5289 135.438C65.8996 134.903 67.2584 134.155 68.5137 133.387C69.6492 132.692 70.6371 131.796 71.541 130.824C72.4606 129.834 73.0559 128.661 73.9449 127.647C77.2259 131.683 80.3445 135.779 83.8309 139.64C85.4763 141.462 87.2656 142.969 89.2934 144.354C90.1401 144.933 90.9802 145.594 91.9027 146.052C93.0563 146.624 94.3459 146.979 95.5315 147.502C100.078 149.505 104.416 151.695 108.658 154.279C110.709 155.53 112.431 156.963 114.238 158.531C114.801 159.02 119.407 161.865 117.843 162.76ZM64.5129 129.703C63.7783 130.036 63.078 130.468 62.2942 130.682C62.5164 129.33 63.7781 127.291 65.3956 127.515C66.0137 127.601 66.4798 128.08 66.2084 128.742C65.9615 129.344 65.0364 129.467 64.5129 129.703ZM13.3755 93.0326C12.5427 93.4923 11.7667 93.7602 11.2783 92.7732C11.64 92.7005 13.2832 92.4816 13.3755 93.0326ZM11.9889 90.2421C11.3451 90.047 11.8599 89.8418 12.0814 89.6061C12.2539 89.423 12.8252 88.7799 13.025 88.6738C13.908 88.2061 14.5903 89.9463 15.0126 90.5109C14.0132 90.4222 12.9617 90.5373 11.9889 90.2421ZM18.8707 96.2674C17.6508 96.4741 17.7861 94.9479 17.8226 94.1747C18.0799 94.4887 19.8219 96.1062 18.8707 96.2674ZM22.9137 93.6312C21.4263 93.8821 20.4436 91.3124 20.7103 90.1885C20.9447 89.1982 22.0974 88.6453 23.0151 88.4994C23.9044 88.3577 25.1427 88.5509 25.4068 89.5767C25.6403 90.4832 23.9049 93.4638 22.9137 93.6312ZM58.1204 132.423C57.0516 132.751 56.0043 132.793 54.9301 133.115C53.7113 133.481 52.5831 133.448 51.3617 133.697C50.8648 133.798 49.5245 134.522 49.0399 134.361C48.5597 134.201 47.8648 132.711 47.589 132.323C49.7498 131.425 51.5933 130.265 53.0176 128.373C54.15 126.868 55.3646 124.613 54.6521 122.67C53.8485 120.48 51.0785 120.005 49.2317 120.919C48.358 121.352 47.492 121.89 46.7715 122.549C45.9479 123.303 45.624 124.126 45.0904 125.055C44.5509 125.995 44.1722 125.472 43.6329 124.674C43.1723 123.992 43.2323 123.302 42.6565 122.629C42.3628 122.286 41.9078 121.954 41.7546 121.511C41.6573 121.229 41.8621 120.73 41.6778 120.509C41.4187 120.198 41.1033 120.563 40.886 120.286C40.7283 120.084 40.7798 119.624 40.617 119.371C40.4755 119.228 40.3185 119.105 40.1446 119.003C39.9336 118.899 39.8953 118.769 40.029 118.612C39.8614 118.302 40.0229 118.197 39.6639 117.819C39.1042 117.231 38.5939 116.667 38.1954 115.972C38.0134 115.654 38.0313 115.182 37.8051 114.907C37.4946 114.529 36.9775 114.586 36.7106 114.118C36.4728 113.701 36.632 112.972 36.2398 112.594C36.0331 112.535 35.8262 112.477 35.6193 112.42C35.4635 112.269 35.3729 112.085 35.347 111.869C35.1293 111.534 35.086 111.14 34.811 110.786C34.2847 110.109 33.5769 109.483 33.112 108.768C32.6234 108.018 32.8825 107.891 33.7313 107.623C34.4968 107.38 35.1959 107.155 35.9056 106.742C39.1861 104.833 42.2962 99.7688 37.0891 98.2216C35.1568 97.6473 33.5694 96.1034 31.4267 96.7102C30.4979 96.9734 29.6169 97.5336 28.9239 98.1983C28.4451 98.6578 28.0017 99.8869 27.4139 100.122C26.3571 100.546 26.8038 99.4882 26.5039 99.0023C26.3606 98.7705 25.7841 98.5033 25.5704 98.2922C25.3197 98.0448 25.0773 97.7325 24.9031 97.4265C24.5799 96.8585 24.3822 96.5419 23.9161 96.0794C23.7406 95.9047 22.8633 95.0027 23.6544 95.1204C23.3341 94.1441 23.8015 93.9972 24.4479 93.2838C25.2067 92.446 25.9903 91.2818 25.9948 90.108C26.0035 87.854 23.3329 86.8444 21.6555 88.1821C21.3142 88.4544 19.2956 91.0822 19.7087 89.4063C19.9314 88.5024 21.9933 86.143 22.9492 86.7535C21.878 85.1923 19.4171 88.9831 18.8427 89.7589C18.3536 88.8583 18.319 88.1541 17.5098 87.4569C16.8509 88.5135 17.1988 87.3587 17.0536 87.1238C16.7398 86.617 16.9121 87.1968 16.7419 87.0167C16.5301 86.7924 16.1966 86.6156 15.9711 86.3186C15.5848 86.8425 15.7392 86.2788 15.6208 86.0832C15.3442 85.6254 15.4511 85.3603 14.9771 84.9623C14.632 84.6728 13.9522 84.2234 13.4878 84.1825C12.9523 84.1349 12.804 84.3402 12.2584 84.1884C11.5643 83.9953 10.6908 83.6988 11.0266 84.8597C11.2707 85.7035 12.2626 86.183 12.4799 87.045C12.6986 87.9126 11.8406 88.787 11.4244 89.4983C10.8899 90.4109 10.4528 90.3363 9.48442 90.542C8.86561 90.6736 8.03964 90.9551 8.57043 91.7057C8.9494 92.2422 9.83773 92.1292 10.3379 92.447C11.0394 92.8923 11.0297 93.9906 11.9253 94.1817C12.9116 94.3922 13.4765 93.2941 14.3081 93.0288C14.8994 92.8403 16.7311 92.8612 17.1965 93.3052C17.8306 93.9101 17.2826 95.0661 17.4422 95.8174C17.6797 96.9319 18.4336 97 19.3872 97.0355C20.561 97.0793 20.9736 98.2065 21.6049 99.1005C23.0836 101.195 24.3688 103.427 25.8835 105.493C26.5541 106.408 27.5349 107.222 28.0838 108.215C28.7617 109.441 27.8207 110.148 27.0084 111.028C25.947 112.179 25.1547 113.487 24.2342 114.744C23.4162 115.862 22.3996 115.583 21.0925 115.583C21.3837 114.983 21.7342 114.608 22.4509 114.681C21.7014 113.766 21.1022 114.813 20.6161 115.392C19.9128 116.231 18.996 116.433 18.0926 116.985C17.7729 117.18 16.0323 118.444 16.5612 118.876C16.6212 118.925 19.5027 117.029 19.8309 116.855C19.8309 117.555 19.6779 118.282 19.776 118.978C19.8478 119.488 20.2065 120.021 20.13 120.551C19.9853 121.553 18.6909 122.341 18.1354 123.122C17.7171 123.709 17.8181 124.172 17.6053 124.803C17.4111 125.378 17.5131 125.204 17.0294 125.382C16.0445 125.743 14.3867 125.548 13.4949 125.034C12.9412 124.715 12.5168 124.21 12.067 123.765C11.7283 123.43 10.8762 122.857 10.7821 122.388C10.6206 121.58 12.2243 120.079 12.5416 119.246C13.4379 116.895 11.9008 115.067 9.5089 114.933C10.2461 114.365 11.1599 114.793 11.9369 115.01C10.6086 113.17 8.33976 114.684 7.21298 115.935C6.44305 113.989 6.07186 111.936 5.60157 109.906C5.28121 108.524 4.06169 106.058 4.60566 104.635C4.86858 103.947 5.61098 103.563 6.12434 103.086C6.70786 102.544 7.20757 101.896 7.63408 101.225C8.63893 99.6449 9.21938 97.6498 7.83557 96.0923C8.25597 96.0231 8.67659 95.9542 9.09698 95.8849C8.41319 95.2424 7.33421 95.5554 6.44682 95.365C5.88379 95.244 4.26342 95.3224 3.88751 95.0037C3.43534 94.6205 3.7251 92.8575 3.74134 92.3356C3.77853 91.1161 3.88045 89.9437 4.01509 88.7317C4.14266 87.5868 4.11701 86.3496 4.35357 85.2247C4.54564 84.3119 5.15951 84.0337 5.86778 83.4959C7.56064 82.2095 8.94022 80.6449 8.36212 78.4281C8.5669 78.3956 8.77168 78.3631 8.97647 78.3306C8.3141 77.8516 7.45708 78.0258 6.72033 77.7726C7.39682 75.8683 8.89315 72.5207 11.3228 72.3404C11.4063 73.1918 11.3491 74.2042 11.9235 74.9089C12.5773 75.7111 13.7251 75.7921 14.6108 75.3677C15.4146 74.9821 16.169 74.1653 16.5395 73.3584C16.7902 72.8121 16.745 71.8885 17.1849 71.4554C17.7748 70.8747 21.8424 71.2252 21.7179 72.2053C21.6445 72.7815 20.5568 73.7501 20.2529 74.2609C19.6965 75.1956 19.2511 76.2066 19.0468 77.2801C18.7368 78.9104 18.9164 81.0625 20.5718 81.9195C22.4547 82.8945 24.7492 81.6549 26.2933 80.584C27.1411 79.996 27.9624 79.347 28.7368 78.6654C29.1494 78.3029 29.5639 77.9291 29.9276 77.5167C30.1961 77.2121 30.4106 76.7213 30.741 76.4933C31.5218 75.9547 32.287 76.8685 32.9478 77.33C34.0239 78.0821 35.0947 78.796 36.2499 79.4219C38.5939 80.6915 40.737 82.3736 42.8095 84.0436C44.8941 85.7235 47.0436 87.4517 48.7322 89.5445C47.7095 90.1736 47.8919 90.3372 47.4369 91.4593C47.114 92.2558 46.6691 92.9337 46.6178 93.8188C46.529 95.3459 47.5094 96.6474 48.9975 96.9854C49.8298 97.1746 50.6226 97.023 51.3934 96.6829C51.9927 96.4183 52.5899 95.7675 53.216 95.6058C54.3797 95.3057 55.3109 97.5041 55.9631 98.2785C58.8602 101.718 61.9225 105.021 64.6506 108.601C64.9526 108.997 65.8501 109.772 65.9231 110.296C66.0278 111.05 64.842 111.769 64.3503 112.201C64.0918 112.428 61.3529 115.004 62.2726 115.414C62.5348 115.53 63.3021 113.95 63.4939 113.814C64.2123 113.308 63.6691 114.3 63.6262 114.802C63.5191 116.048 64.3755 116.728 65.579 116.57C66.8634 116.401 68.0067 115.387 68.8016 114.43C69.7975 115.583 71.3545 117.327 71.6424 118.868C71.8265 119.852 70.9746 122.262 72.5649 122.463C72.8075 122.493 73.686 121.842 73.8498 122.212C73.9863 122.521 73.0368 123.048 72.8998 123.151C72.3147 123.588 71.9611 124.055 71.4887 124.585C70.9341 125.206 70.1762 125.729 69.5522 126.324C68.8948 126.951 67.5943 128.654 66.7269 127.831C66.291 127.418 66.4056 126.877 65.7073 126.635C65.0713 126.414 64.2655 126.694 63.6747 126.939C63.0093 127.215 60.8181 128.221 60.575 129.05C60.2396 130.193 62.0508 128.819 62.3726 128.618C62.0054 129.55 61.8025 130.899 60.8673 131.443C60.0903 131.895 58.9727 132.161 58.1204 132.423ZM45.6996 125.372C46.3214 123.374 49.9887 119.81 52.3065 120.924C49.6053 121.49 47.4616 123.339 45.6996 125.372ZM47.0709 131.096C46.167 130.592 46.2158 129.129 45.9003 128.273C45.7191 127.782 45.3568 127.423 45.4635 126.878C45.588 126.239 46.4031 125.529 46.8369 125.068C48.2021 123.617 50.6049 121.635 52.8024 121.968C55.5995 122.391 53.7032 126.146 52.7509 127.44C51.9391 128.542 48.8111 132.066 47.0709 131.096ZM40.5456 128.652C37.5208 128.45 34.5062 128.179 31.5225 127.624C30.4647 127.427 29.5785 127.456 30.1837 126.24C30.3835 125.838 31.5884 123.323 31.8605 123.395C32.0218 123.438 31.985 125.167 32.0324 125.365C32.2461 126.255 32.8458 127.085 33.857 127.028C35.5115 126.936 36.5778 124.797 37.449 123.648C38.1469 124.587 38.652 125.629 39.3534 126.552C39.6889 126.993 40.8561 128.019 40.5456 128.652ZM22.8115 116.777C22.304 117.942 21.2834 119.05 20.5735 120.105C20.1722 119.255 19.8899 117.305 20.8418 116.677C21.2022 116.439 23.1323 116.041 22.8115 116.777ZM33.3027 120.245C33.4423 119.797 33.5969 119.352 33.7695 118.916C34.0653 119.847 34.2167 119.875 33.3027 120.245ZM35.8919 121.199C36.2591 121.822 36.8711 122.434 36.7751 123.215C36.7023 123.807 36.1671 124.414 35.7848 124.827C35.1521 125.51 33.7506 126.82 32.8341 125.914C32.0684 125.156 32.3351 123.074 32.6912 122.222C33.1996 121.005 35.0168 119.717 35.8919 121.199ZM34.0955 119.924C34.3059 119.84 33.8639 118.482 34.2741 118.347C34.6319 119.163 34.9692 119.384 34.0955 119.924ZM28.3154 101.644C28.1791 101.142 27.8666 101.163 27.9791 100.544C28.053 100.138 28.3755 99.7038 28.62 99.382C29.1075 98.7404 29.7506 98.2115 30.4459 97.8111C31.914 96.9661 33.9298 96.6151 35.2441 97.938C34.0154 98.1319 30.2486 99.3448 30.2246 101.025C31.591 100.762 32.6655 99.3898 34.0359 98.9572C35.1608 98.6022 36.3806 98.6271 37.4996 99.0021C40.5626 100.028 39.2889 102.675 37.5601 104.395C36.5338 105.416 35.3032 106.178 33.958 106.704C33.3354 106.947 32.9534 106.974 32.3414 106.852C32.2268 106.829 32.0928 106.616 31.9554 106.571C31.6138 106.458 31.7129 106.841 31.4317 106.669C31.1862 106.519 30.6627 105.55 30.4958 105.273C30.23 104.832 30.1062 104.402 29.78 104C29.4535 103.596 29.2946 103.056 28.9926 102.691C28.8476 102.516 28.4501 102.523 28.3434 102.352C28.1832 102.094 28.3872 101.907 28.3154 101.644ZM23.6113 121.388C24.3076 120.178 25.4986 119.151 26.4201 118.094C26.4766 119.832 25.2308 121.022 23.6113 121.388ZM24.5522 121.946C25.9899 121.441 26.7819 120.23 26.9286 118.763C27.1148 116.904 28.2818 115.928 28.9844 114.259C29.2539 113.619 29.5679 111.513 30.6123 112.115C30.9705 112.322 31.1831 113.1 31.3698 113.451C31.8215 114.301 32.3351 115.125 32.8141 115.959C33.2041 116.639 33.7888 117.322 33.6167 118.14C33.4665 118.853 32.9838 119.612 32.7008 120.285C32.0331 121.873 31.1558 123.336 30.4228 124.889C30.1272 125.516 29.7772 126.999 28.8742 126.992C28.1596 126.986 28.2394 126.204 27.7689 125.937C27.175 125.599 26.4997 126.242 26.0118 126.508C26.5736 125.56 27.5559 125.023 28.6598 125.201C27.3379 123.885 26.4446 125.661 25.3101 126.057C24.2351 126.432 22.328 124.664 21.423 124.163C21.7692 123.576 22.0821 122.859 22.6776 122.473C23.2423 122.107 23.9355 122.163 24.5522 121.946ZM12.8636 133.977C13.021 133.219 13.4659 132.771 13.7479 132.083C14.0748 132.918 13.3091 133.41 12.8636 133.977ZM35.7055 138.629C35.6283 141.182 35.4197 143.728 35.3444 146.281C35.3098 147.459 35.1013 148.582 34.9629 149.746C34.8459 150.73 34.9054 151.697 34.2859 152.538C33.3091 153.864 31.4098 154.245 29.9353 154.736C28.8526 155.097 27.7573 155.424 26.688 155.824C25.7258 156.185 24.9504 156.731 24.0355 157.16C23.2171 157.543 22.3337 157.771 21.519 158.179C20.6764 158.602 20.0105 159.117 19.145 159.493C18.1088 159.943 17.2551 160.745 16.3336 161.381C15.5224 161.941 14.6642 162.373 13.9663 163.077C13.312 163.738 12.4837 164.027 11.7422 164.614C10.9581 165.235 10.1374 165.638 9.27117 166.125C7.49662 167.122 5.10255 168.825 2.96693 167.856C3.57775 167.076 4.82786 166.326 4.92295 165.252C5.04653 163.851 3.82796 164.367 3.12228 164.814C2.05342 165.491 1.46214 166.309 0.648426 167.211C-0.302752 168.266 -1.50438 167.556 -2.66834 167.26C-1.87251 166.543 -1.08305 165.82 -0.288633 165.102C0.381969 164.497 1.40824 163.842 1.81662 163.004C2.1085 162.405 2.09414 161.584 1.38988 161.273C0.60182 160.926 -0.289339 161.659 -0.873085 162.096C-2.42237 163.255 -3.44275 164.725 -4.46006 166.338C-5.00121 167.196 -5.25048 167.13 -6.24615 166.958C-7.30113 166.777 -8.35611 166.583 -9.4198 166.456C-8.0108 165.009 -6.4361 163.441 -5.32322 161.748C-4.96261 161.199 -4.49232 159.753 -5.59084 159.62C-6.04348 159.565 -6.94476 160.491 -7.29383 160.74C-8.81981 161.831 -10.2869 163.207 -11.2981 164.799C-11.6322 165.325 -11.7369 165.909 -12.3835 165.953C-13.2287 166.01 -14.7992 165.203 -15.6146 164.954C-14.0563 162.99 -12.5089 161.011 -10.6883 159.279C-9.01541 157.687 -7.34679 156.53 -5.39029 155.309C-3.29351 154 -1.34032 152.494 0.584633 150.948C2.42744 149.467 4.35239 148.071 6.04855 146.419C9.43687 143.118 12.4547 139.322 14.9538 135.307C15.5384 134.368 16.089 133.404 16.5647 132.405C17.0117 131.466 17.2177 130.343 17.8209 129.49C18.0293 129.195 18.323 128.976 18.5087 128.668C18.6838 128.378 18.6245 128.028 18.8917 127.771C19.5096 127.178 20.6347 127.536 21.2121 127.951C22.1409 128.62 22.8922 129.432 23.9131 129.991C24.9398 130.554 26.0504 130.963 27.1873 131.24C29.8442 131.886 32.4784 132.416 35.1853 132.809C34.9068 133.842 35.5909 134.004 35.8175 134.934C36.0927 136.062 35.7401 137.48 35.7055 138.629ZM10.1209 121.403C9.51855 120.508 8.98094 119.572 8.38872 118.671C8.02812 118.123 7.58113 117.533 7.88948 116.862C8.40849 115.731 10.24 115.53 11.2338 116.023C13.4932 117.144 11.3943 120.35 10.1209 121.403ZM4.14055 100.932C3.93247 99.1831 4.60142 97.9419 6.18413 97.0247C7.31208 96.3708 8.22042 97.2643 8.06624 98.456C7.83204 100.272 5.89179 102.291 4.411 103.239C4.31426 102.471 4.23211 101.701 4.14055 100.932ZM3.89928 95.9271C4.36604 95.5564 5.61639 96.0292 6.1573 96.0615C5.41349 96.7114 4.66945 97.3615 3.92541 98.0114C3.87669 97.5653 3.46853 96.2691 3.89928 95.9271ZM6.40939 79.0319C10.1736 78.5425 5.84047 82.5821 4.74948 83.2153C4.92696 82.3557 5.36312 79.1681 6.40939 79.0319ZM16.4305 71.9593C15.9252 74.0298 11.9957 76.2885 11.9545 72.8971C11.9395 71.6333 12.6491 71.7355 13.6853 71.6143C14.2763 71.5453 16.7196 70.7758 16.4305 71.9593ZM2.85772 75.1657C2.41661 76.3235 2.06284 77.5113 1.63044 78.6705C1.43884 79.1837 1.21357 79.5365 0.856735 79.9432C0.558035 80.2834 0.202608 80.369 0.214376 80.9067C0.588634 80.8344 0.881453 80.6113 1.18368 80.3964C1.11048 81.4619 0.733866 82.6087 0.551445 83.6708C0.333012 84.9444 0.15106 86.2185 0.0835056 87.5101C-0.0629025 90.3186 -0.0640774 93.1169 -0.00240707 95.9271C0.0291348 97.3589 0.0432568 98.7917 0.120462 100.222C0.159065 100.933 0.20261 101.648 0.290642 102.355C0.32642 102.641 0.533558 103.248 0.40551 103.516C-0.0972652 104.567 -2.32445 101.681 -3.29163 102.105C-3.15252 101.305 -3.47335 101.48 -4.00931 101.087C-4.26894 100.896 -4.43794 100.572 -4.70863 100.403C-4.79054 100.314 -4.8807 100.236 -4.97909 100.167C-5.09089 100.014 -5.20905 100.031 -5.3331 100.215C-6.42292 99.5642 -6.70444 98.1759 -7.28936 97.2422C-7.59018 96.762 -7.88087 96.6871 -7.93218 96.0231C-7.97667 95.4446 -7.88958 94.8552 -7.91312 94.2742C-7.93972 93.6189 -7.97809 92.8963 -8.16192 92.2617C-8.37518 91.525 -8.6687 91.5852 -9.24044 91.1926C-9.06437 91.1154 -8.94809 90.9862 -8.89183 90.8042C-9.07449 90.837 -9.62929 91.0632 -9.76722 90.9005C-10.0384 90.5811 -9.39861 90.5385 -9.23055 90.4109C-9.94776 90.0924 -9.79335 89.8307 -9.53443 89.2472C-9.46123 89.0819 -9.39131 88.8353 -9.32894 88.6959C-9.19289 88.3918 -9.11451 88.5846 -9.06955 88.2066C-9.02694 87.8462 -9.34635 87.1377 -9.44051 86.7538C-9.59821 86.1098 -9.68554 85.5533 -9.54384 84.8823C-9.42898 84.339 -9.11992 83.8471 -9.0985 83.2885C-9.09238 83.1315 -9.3313 83.0795 -9.33459 82.9281C-9.3393 82.7066 -9.13263 82.6094 -9.07897 82.4049C-8.94174 81.8814 -9.00364 81.3278 -8.76896 80.8311C-8.55783 80.3848 -8.13132 79.8074 -7.82956 79.4181C-7.6203 79.1484 -7.10694 78.8443 -7.05068 78.4881C-7.01349 78.252 -7.38092 78.2791 -7.36468 78.1014C-7.34231 77.8606 -7.14036 77.7827 -7.08504 77.6038C-6.93228 77.1128 -6.89391 76.6411 -6.49918 76.2647C-6.00181 75.7913 -5.78597 75.9895 -5.76526 75.2085C-5.75537 74.8275 -6.06019 74.7689 -5.89684 74.3294C-5.8081 74.091 -5.54636 73.95 -5.379 73.7809C-4.88187 73.2796 -4.54669 72.8342 -4.19267 72.2145C-3.87962 71.667 -3.38037 71.3485 -3.05955 70.8759C-2.64198 70.2596 -3.26644 69.9541 -2.41883 69.7802C-2.53935 69.3977 -2.6674 69.0884 -2.35034 68.7645C-2.15027 68.5602 -1.64301 68.6852 -1.46601 68.4488C-1.26311 68.1777 -1.56299 67.5349 -1.25723 67.3588C-1.00866 67.2159 -0.636524 67.6566 -0.24579 67.4384C0.0517311 67.2722 0.50131 66.3537 0.40551 66.0159C1.17521 66.449 0.98337 66.1508 1.35174 65.5953C1.43436 65.4708 1.68457 65.4433 1.75566 65.3173C1.89783 65.0662 1.86535 64.8101 2.07036 64.6058C2.41167 64.2659 2.97023 64.3532 3.3459 64.1103C3.65637 63.9097 3.63989 63.6934 3.88751 63.5042C4.09912 63.3425 4.44678 63.3114 4.6525 63.1438C5.05548 62.8155 5.05948 62.469 5.56367 62.186C6.16083 61.8516 6.68974 61.5667 7.233 61.1231C7.58701 60.834 7.92313 60.3211 8.3374 60.1305C8.91032 59.8666 9.35661 59.848 9.91705 59.4714C10.3221 59.1993 10.7051 58.7502 11.1027 58.5207C11.4028 58.3479 11.6132 58.3851 11.9912 58.278C12.6717 58.085 12.8374 57.4438 13.3925 57.1828C13.7736 57.0036 14.3283 57.1677 14.7469 57.0735C16.049 56.7812 17.3353 56.1506 18.6422 55.8013C20.2371 55.3753 21.8436 55.002 23.4508 54.6251C21.9738 56.627 20.0926 58.4333 18.1846 60.0233C17.5583 60.5452 14.1264 62.9247 15.9763 63.9408C16.7189 64.3485 18.332 63.0313 18.9315 62.7093C20.1387 62.0608 21.3891 61.5418 22.6536 61.0174C24.6981 60.1693 27.3607 58.661 29.6329 58.7824C28.2498 60.4793 26.5232 61.8414 24.9412 63.3404C23.4875 64.718 21.2971 66.0101 21.9825 68.265C19.9406 67.7455 18.1065 67.1314 15.9833 67.2675C15.0324 67.3284 14.0807 67.2138 13.134 67.3473C12.1047 67.4927 11.1354 67.8371 10.1461 68.1396C9.36343 68.3785 8.49864 68.3973 7.77861 68.7949C7.43072 68.9872 7.00044 69.2616 6.68785 69.5001C6.27099 69.8181 6.17637 70.0287 5.84895 70.4477C4.68146 71.9429 3.55162 73.3443 2.85772 75.1657ZM-3.5289 103.463C-3.59268 103.204 -3.65059 102.968 -3.72379 102.673C-3.0739 103.073 -3.0739 103.073 -3.5289 103.463ZM-8.44061 95.2216C-8.52064 95.3323 -8.85723 95.3678 -8.95492 95.2723C-9.07661 95.1534 -8.75673 94.6904 -8.70541 94.5922C-8.57854 94.6894 -8.28667 95.0082 -8.44061 95.2216ZM-9.83195 92.2222C-9.74604 91.9061 -9.65965 91.5902 -9.57374 91.2743C-9.46805 91.5671 -8.99164 91.891 -8.98104 92.1699C-8.97445 92.3549 -9.7378 92.2629 -9.83195 92.2222ZM-9.55585 92.6555C-8.81016 93.1465 -8.73201 93.7258 -8.70989 94.5732C-9.60222 94.2775 -9.47417 93.4137 -9.55585 92.6555ZM3.41251 59.2172C3.33742 59.421 3.01778 60.0558 2.78381 59.6119C2.70896 59.4697 3.25692 59.2758 3.41251 59.2172ZM3.19855 58.5254C3.38285 58.3592 3.75429 58.5659 3.96284 58.4317C4.10901 58.3373 4.06052 58.242 4.12925 58.1862C4.1429 58.1749 4.34156 57.7729 4.423 57.6815C4.56682 57.5212 4.88035 57.4212 5.055 57.2762C5.54342 56.8714 5.81905 56.3392 6.12646 55.7978C6.49295 55.1514 6.60994 55.0766 7.20122 54.7805C7.6089 54.5764 7.92478 54.3266 8.25644 53.9799C8.63869 53.5805 8.61068 53.2945 8.92444 52.8579C9.07956 52.6422 9.30271 52.6157 9.48325 52.4419C9.6998 52.2341 9.80972 51.9432 10.01 51.7334C10.0964 51.6426 10.3742 51.6428 10.4264 51.5651C10.4933 51.4668 10.5453 51.0734 10.6079 51.0009C10.7272 51.1624 10.847 51.3239 10.9664 51.4853C11.4376 50.6566 11.7815 49.9718 12.5696 49.4203C13.3972 48.8411 14.1116 47.9937 14.9669 47.4751C15.1592 47.3586 15.5509 47.3094 15.6978 47.1378C15.9461 46.8471 15.731 46.5887 15.9122 46.3418C16.1177 46.0619 16.516 46.2886 16.7773 46.1678C17.108 46.0153 17.2026 45.5693 17.6282 45.6185C16.2283 47.2748 16.2458 49.8518 16.1716 51.9206C16.1394 52.812 16.7008 53.2613 15.872 53.9152C15.167 54.4719 14.173 54.3066 13.3395 54.6729C12.2928 55.1328 11.1733 55.3774 10.1056 55.7782C9.00094 56.1927 8.11285 56.9184 7.04987 57.3986C6.11234 57.8218 5.47234 58.4235 4.61484 58.946C4.29613 59.1402 3.80254 59.4222 3.4224 59.1901C3.18442 59.0446 2.88785 58.8055 3.19855 58.5254ZM19.0103 44.6379C19.0711 44.4025 20.2661 43.7841 20.5601 43.5824C21.0012 43.279 21.6544 42.5385 22.1468 42.8327C22.3174 42.1492 22.9833 41.3886 23.5716 41.2439C24.2243 41.0829 25.3437 40.5234 25.9859 40.0347C26.1735 39.8921 26.2351 39.6835 26.4559 39.5496C26.8403 39.3166 27.2214 39.4437 27.5916 39.1262C27.6481 39.0777 28.1603 38.2319 28.1806 38.2399C28.2067 38.3308 28.2307 38.4226 28.2514 38.5149C28.64 38.2993 28.9863 38.1277 29.2285 37.8527C29.2833 37.7904 28.9272 37.6282 29.0397 37.5048C29.1774 37.3535 29.4846 37.5225 29.6237 37.3789C29.1911 39.5268 29.5131 42.2911 31.692 43.3797C29.1009 43.6598 26.5701 42.8807 23.947 43.3593C22.6915 43.5885 21.415 43.9644 20.2729 44.5421C19.5731 44.8961 18.6782 46.1636 17.9817 45.5481C18.258 45.1795 18.6799 44.9504 19.0103 44.6379ZM31.5825 38.4593C32.5516 37.2742 34.0213 36.8051 35.5014 37.2294C37.2343 37.7266 36.5034 38.9374 36.2417 40.2819C35.7417 39.5487 34.6585 38.8216 33.736 38.7994C32.4283 38.7684 32.9226 39.858 33.7078 40.2482C34.4217 40.6029 35.6462 40.7018 36.1572 41.347C36.6545 41.9745 36.4639 43.001 36.5442 43.7411C36.1574 43.6836 35.7707 43.6262 35.384 43.5688C35.7085 41.8413 34.28 41.7575 32.9482 41.2705C31.6023 40.7785 30.48 39.8081 31.5825 38.4593ZM35.9227 34.2055V35.8087C35.3842 35.5013 34.8452 35.1943 34.3061 34.8872C34.8452 34.66 35.3842 34.4326 35.9227 34.2055ZM40.254 47.0154C42.053 47.5029 43.8398 48.0189 45.5694 48.6916C46.1974 48.9359 46.8854 49.0223 47.5009 49.2982C48.087 49.5606 48.1751 49.5333 47.9665 50.0469C47.3825 51.4861 45.9992 51.2375 44.7872 51.0174C42.89 50.6728 41.0322 50.195 39.1588 49.7454C37.3275 49.3064 35.4576 49.0183 33.6541 48.468C31.8033 47.9035 29.9998 47.3688 28.0961 46.9959C27.5406 46.8872 23.1455 46.484 23.1789 46.0245C25.9468 45.6651 28.7966 46.0193 31.5769 46.0567C34.4662 46.0956 37.4513 46.2559 40.254 47.0154ZM37.8117 41.4489C37.846 40.4594 37.8599 39.4667 37.9828 38.4831C38.8062 39.4995 39.5495 39.8038 40.5875 38.851C41.5813 37.9391 41.803 37.4637 43.063 38.3209C44.1552 39.0647 45.1888 39.0304 46.3487 38.3795C47.0563 37.9824 48.1934 36.3602 48.9372 36.6942C49.2915 36.8533 49.5514 37.495 49.9091 37.731C50.3582 38.0267 51.0486 38.2319 51.5719 38.3468C52.8081 38.6175 53.5444 37.8226 54.3202 36.9722C55.4453 35.7392 55.4124 36.4553 56.4556 37.3102C57.6188 38.2639 58.5917 37.7981 59.6452 36.9842C60.2869 38.8646 60.527 40.9181 60.7085 42.8894C60.7694 43.5551 60.998 44.5002 60.4001 44.9709C59.9788 45.3028 59.0845 45.3158 58.5768 45.4991C56.7632 46.1549 55.0204 47.0854 53.5036 48.2761C52.9126 48.7403 52.3974 49.3085 51.5898 49.2029C50.8201 49.1021 50.0723 48.4579 49.4532 48.0323C48.7814 47.5709 48.1016 47.047 47.3166 46.79C46.8569 46.6393 46.1204 46.6939 45.7182 46.4176C44.9701 45.9042 45.8504 44.5574 45.664 43.6533C45.523 42.9669 45.1281 41.5358 44.1828 41.938C42.7759 42.5366 43.5945 44.8735 44.3682 45.6029C42.7855 45.3219 41.0333 44.9114 39.5069 44.3898C38.3279 43.987 37.7693 42.6557 37.8117 41.4489ZM64.3547 46.2683C67.6037 45.356 70.6437 44.741 74.0247 44.5748C75.5215 44.5011 76.9703 44.5477 78.4503 44.5611C79.3022 44.5689 79.9514 43.8818 79.2709 43.0914C78.3289 41.9971 75.4554 42.4137 74.1822 42.3645C70.7696 42.2327 67.6407 42.6206 64.4086 43.7455C64.7504 43.1159 65.5714 43.0342 66.1342 42.7087C66.8244 42.309 67.2937 41.6506 67.5887 40.92C68.356 39.0198 67.5837 37.2292 66.7811 35.4935C68.3577 35.9177 69.9886 36.8465 71.5737 37.0823C71.9063 37.1318 72.1193 37.1 72.4133 37.221C72.5938 37.2951 72.6508 37.5517 72.8744 37.6077C72.9824 37.6348 73.2418 37.3907 73.3642 37.4253C73.847 37.5618 73.4652 37.5981 73.7705 37.7955C74.0127 37.9523 73.9929 38.1543 74.4373 38.0801C74.6343 38.0476 74.8481 37.7428 74.9519 37.7343C75.0841 37.7237 75.0535 37.5627 75.256 37.6096C75.6241 37.6953 75.5916 38.1696 75.7143 38.4031C75.8451 38.6514 75.6592 38.9819 76.0565 39.1179C76.3533 39.2198 76.4279 38.9061 76.6805 38.9287C76.8337 38.9423 77.152 39.1631 77.2873 39.2977C77.7235 39.7313 78.3209 40.2099 78.9075 40.4918C78.8498 40.4339 79.184 40.2944 79.104 40.2616C79.0503 40.2397 79.4013 40.3245 79.3959 40.3231C79.7346 40.4003 79.9137 40.9202 80.0846 41.11C80.3995 41.4574 80.8887 41.8243 81.3298 41.9778C82.0926 42.2431 82.0693 41.9258 82.3478 42.8325C82.8901 41.9797 83.0982 43.4077 83.7707 43.565C84.119 43.6464 84.0786 43.4972 84.3949 43.6796C84.6124 43.8046 84.7572 44.1873 84.921 44.3721C84.9914 44.1057 85.0615 43.839 85.1317 43.5728C85.6161 44.4907 86.6619 45.9461 87.8087 45.6829C87.8087 45.9334 87.7053 46.2328 87.8993 46.4465C88.0346 46.596 88.254 46.4263 88.3599 46.5131C88.4524 46.5889 88.6737 46.8907 88.7445 46.9404C88.8841 47.0383 89.1374 47.1096 89.2586 47.2073C89.3655 47.2932 89.4184 47.7035 89.5368 47.8515C89.7595 48.1302 90.1446 48.1855 90.3265 48.5195C90.3682 48.1902 90.4096 47.8605 90.4511 47.5309C90.8124 47.8101 90.8432 48.0266 90.9319 48.435C91.0583 49.0164 90.8907 48.8801 91.2918 49.1256C91.6859 49.3669 91.8914 49.3398 92.2527 49.7586C92.6067 50.1691 92.61 50.4219 93.121 49.9944C93.2161 50.3108 93.2467 50.7199 93.5004 50.9623C93.692 51.1455 94.4857 51.1535 94.5613 51.5861C93.0704 50.328 94.0515 52.2388 94.5622 51.5894C94.67 52.2845 95.1787 52.509 95.7598 53.004C96.3017 53.4654 96.3904 53.432 96.5755 54.2071C96.5712 54.1901 96.8478 54.3615 96.8678 54.3958C96.3398 54.4712 97.1582 55.061 97.2967 55.1688C97.3976 55.2477 97.5292 55.0596 97.6968 55.187C97.8886 55.3329 98.0449 55.6643 98.201 55.8642C98.6242 56.406 98.9373 56.8714 99.3826 57.312C99.863 57.7875 100.097 58.3886 100.558 58.9444C101.07 59.5615 101.347 60.271 101.775 60.9411C102.182 61.5783 102.722 62.0898 103.193 62.6733C103.945 63.6016 104.2 65.6466 105.6 65.7005C105.518 65.7853 105.632 66.4191 105.646 66.5361C105.712 67.1116 105.668 67.6655 106.009 68.1866C106.087 67.5921 106.398 67.8213 106.668 68.1337C107.118 68.6534 106.723 68.5225 106.747 69.0493C106.775 69.6877 106.848 69.1938 107.091 69.7512C107.282 70.1878 107.386 70.4712 107.488 70.9557C106.697 71.0183 106.335 70.3721 106.043 69.7458C105.92 69.4838 105.878 69.0533 105.662 68.8488C105.431 68.6308 105.115 68.6136 104.879 68.3705C104.424 67.9032 104.228 67.1747 103.692 66.72C103.088 66.2064 102.954 65.9637 102.454 65.3496C101.901 64.6703 101.137 64.1931 100.557 63.5362C99.9765 62.8778 100.024 63.2373 99.2939 62.999C98.5178 62.7453 97.263 60.3053 96.2852 61.2452C96.3238 60.6304 95.4032 60.0521 94.9379 59.8294C94.7366 59.7331 94.5024 59.8202 94.3012 59.6759C94.0828 59.5194 94.0672 59.2176 93.8469 59.0296C93.8469 59.0296 93.5094 59.1117 93.4409 59.0771C93.3015 59.0065 93.3003 58.7565 93.1772 58.6741C92.8366 58.4465 92.4304 58.2079 92.0688 58.0139C91.1899 57.5424 90.4132 56.962 89.5651 56.3945C88.8384 55.9082 87.9591 55.03 87.1192 54.7736C86.3858 54.5498 85.9247 54.6637 85.324 54.2155C84.9968 53.9712 85.0931 53.8893 84.5675 53.7375C84.0668 53.593 83.7857 53.6673 83.5205 53.1366C83.0565 52.2077 83.3494 50.3948 83.2597 49.3533C83.1643 48.2479 83.0511 47.115 82.763 46.0403C82.4222 44.7699 81.9719 44.1059 80.6093 44.4051C77.9094 44.9985 75.2423 45.5629 72.5303 46.084C67.1259 47.1221 61.8143 48.8164 56.5288 50.3204C56.1263 50.4353 53.8803 50.9494 54.339 49.788C54.5504 49.2523 55.9721 49.0527 56.4478 48.8844C59.0603 47.9598 61.6846 47.0178 64.3547 46.2683ZM63.4469 43.9044C63.0521 44.0548 62.6576 44.2052 62.2629 44.3559V43.2583C62.6576 43.4734 63.0521 43.6888 63.4469 43.9044ZM61.8065 38.1008C62.1495 38.3812 62.8469 37.7066 63.1383 37.5698C63.6366 37.3365 64.2707 37.136 64.8274 37.184C65.8537 37.2728 66.6043 38.2832 66.4162 39.3079C66.098 41.0412 63.6284 41.8608 62.2667 42.5385C62.2231 41.9241 62.0242 41.1857 62.455 40.6545C62.829 40.1931 63.5542 40.2266 63.8993 39.7358C64.7676 38.5026 62.4143 38.3908 61.8882 39.3714C61.6806 38.7446 61.4732 38.118 61.2656 37.4912C61.7665 37.4083 61.5464 37.8885 61.8065 38.1008ZM64.2356 34.708C63.7456 35.0249 63.2555 35.3417 62.7657 35.6585C62.5228 34.5619 63.3506 34.4176 64.2356 34.708ZM108.885 72.8754C108.243 73.1817 108.083 72.4503 107.621 72.4188C108.166 72.0836 108.166 72.0836 108.885 72.8754ZM111.494 88.8447C111.574 89.8959 111.512 90.9591 111.652 92.0061C111.759 92.8026 112.081 93.5438 112.116 94.3493C112.191 96.1135 111.595 97.9099 110.392 99.2031C109.254 100.426 107.626 101.479 106.09 101.994C105.398 102.225 104.675 102.739 104.003 102.928C103.259 103.138 102.552 102.681 101.939 103.501C101.53 99.9841 101.828 96.3091 101.796 92.7699C101.764 89.2229 101.802 85.6748 101.202 82.1662C100.668 79.0413 99.6142 75.5263 97.6726 72.9698C96.8838 71.9318 95.9128 71.0816 94.8887 70.2855C94.3572 69.8727 93.8257 69.4311 93.234 69.1051C92.3231 68.603 91.5472 68.6725 90.5565 68.5293C89.1388 68.3248 87.8209 68.1518 86.3978 68.551C85.0731 68.9227 83.6142 69.3461 82.4274 69.992C81.2455 70.6355 79.8728 70.9008 78.6457 71.477C77.811 71.8692 76.0772 73.1791 75.151 72.9432C74.2547 72.7147 72.9276 71.1932 72.3551 70.5117C71.6236 69.6408 71.0184 68.6313 70.3695 67.694C70.1416 67.3652 69.677 66.8565 69.6179 66.434C69.515 65.7008 69.8088 65.9404 70.5093 66.0223C72.3107 66.2337 74.0047 66.5679 75.731 67.1349C76.5901 67.4169 78.27 68.5583 79.1292 67.8743C80.441 66.8301 78.4478 65.0353 77.7178 64.4325C76.4739 63.4051 75.0277 62.6422 73.7018 61.7292C72.293 60.7592 70.4304 59.7263 69.5237 58.2326C72.1711 59.014 74.8158 59.909 77.3857 60.9166C78.5617 61.3775 79.724 61.8645 80.8282 62.4774C81.4486 62.8216 82.702 63.7527 83.4489 63.3067C85.0728 62.3374 81.3432 59.522 80.8051 58.9467C79.9688 58.0527 79.1494 57.1672 78.2305 56.3561C77.6105 55.8088 76.6365 55.424 76.3482 54.6169C77.3772 54.9895 78.2093 55.7192 79.173 56.2149C79.6774 56.4747 80.1378 56.6242 80.695 56.7038C81.2891 56.7887 81.3599 56.8834 81.8278 57.1194C82.1922 57.3038 82.5667 57.5497 82.976 57.6749C83.2674 57.7644 83.7768 57.7797 84.0317 57.9452C84.1621 58.1309 84.2965 58.3138 84.4356 58.4931C84.591 58.539 84.744 58.5915 84.8949 58.6516C85.1208 58.853 85.255 59.131 85.4748 59.3389C87.071 60.8481 89.2057 61.9283 90.995 63.1928C92.6879 64.389 94.4843 65.471 96.1103 66.7765C97.9814 68.2791 99.9233 69.8941 101.515 71.6959C102.414 72.7142 103.153 73.8687 103.909 74.9948C104.456 75.8102 105.252 76.4864 105.724 77.3272C106.755 79.1601 107.611 81.1413 108.721 82.9446C109.851 84.7822 111.325 86.6081 111.494 88.8447ZM96.2852 99.4795C96.5936 98.2075 98.3331 96.7222 99.4448 96.1613C98.8846 97.5472 97.3918 98.4925 96.2852 99.4795ZM99.1536 103.917C98.2055 105.884 94.0364 106.109 94.602 103.198C94.8791 101.772 96.0555 100.896 97.0653 99.9629C97.532 99.5317 98.6753 97.9886 99.3979 98.2371C99.364 99.3465 99.2988 100.461 99.3012 101.57C99.3026 102.311 99.4892 103.221 99.1536 103.917ZM97.9487 81.2437C98.3333 82.1076 98.7165 82.8271 98.0028 83.5999C97.6808 83.9487 96.6315 84.7121 96.1567 84.5426C94.6329 83.9989 97.5382 81.6323 97.9487 81.2437ZM88.7314 73.5564C89.0983 73.5364 89.4547 73.591 89.8174 73.5686C90.1787 73.5463 90.2169 73.482 90.5518 73.5279C90.5871 73.5792 90.6224 73.6305 90.6577 73.6819C90.7034 74.0267 90.8846 74.0641 91.2008 73.7944C91.6404 73.8923 91.9264 73.9577 92.3468 74.1952C91.212 75.0134 89.8308 75.9646 88.4397 76.2393C86.2408 76.6733 86.8483 73.6602 88.7314 73.5564ZM55.0221 91.9567C54.7942 92.4154 54.1385 91.2694 53.9761 91.0559C54.2788 91.0549 55.2528 91.4939 55.0221 91.9567ZM72.6898 79.883C74.3982 78.8861 76.4272 78.0105 78.262 77.2684C78.5848 78.8231 77.0112 80.8297 76.0419 81.8934C75.2583 82.7537 74.3135 83.6458 73.251 84.1408C72.1021 84.6761 70.8466 84.4409 70.9024 82.9389C70.9228 82.39 71.0478 81.5071 71.2712 81.0053C71.5593 80.3587 72.104 80.2243 72.6898 79.883ZM49.5963 51.6066C49.8505 51.5917 52.6127 51.2347 52.5981 51.5783C52.5546 52.6112 49.8736 51.8001 49.5963 51.6066ZM30.0639 71.5524C31.5228 69.7522 33.878 67.8093 33.9123 65.2936C33.9632 61.5915 29.8548 63.4385 27.7894 63.5924C28.8815 62.5193 34.3699 58.0172 31.1235 56.4182C30.1905 55.9585 28.8641 56.4076 27.9278 56.6484C26.2664 57.0757 24.7219 57.8157 23.0897 58.3305C24.256 57.0891 26.2709 55.6782 26.205 53.7982C26.1243 51.5096 24.2457 52.063 22.6213 52.3986C21.9971 52.5279 19.2085 53.6372 18.6846 52.884C18.4927 52.6081 18.8032 52.2576 18.8689 52.0119C18.9851 51.5774 18.9491 51.4256 18.9531 50.9816C18.9611 50.086 19.5562 48.9357 19.0708 48.1027C18.96 48.2919 18.8649 48.4889 18.7858 48.6935C18.6257 48.2088 18.7333 47.6945 18.5732 47.2096C22.6286 48.247 26.7542 48.8147 30.835 49.7C32.9009 50.1481 34.8452 50.9197 36.9394 51.2671C39.0514 51.6172 41.1268 52.1531 43.2426 52.4871C45.1732 52.7915 47.0229 53.2987 48.9346 53.6876C50.7984 54.0668 52.7097 53.2359 54.5287 52.815C58.603 51.8728 62.6758 50.9075 66.7554 49.9933C71.463 48.9376 76.3602 48.0354 80.8663 46.2752C80.9536 48.6212 81.1412 50.9628 81.4279 53.2928C79.438 52.352 76.4847 51.1252 74.4729 52.8087C73.6676 53.4821 73.4195 54.6449 73.7378 55.634C74.0843 56.7106 75.1451 57.2105 75.8451 58.021C73.7147 57.4746 68.2183 53.6238 67.2401 57.5163C66.549 60.2656 69.9196 62.0413 71.5675 63.5887C69.9309 63.2683 67.7393 61.9598 66.7782 64.0627C65.9478 65.8808 66.9482 67.859 67.9728 69.3584C68.5281 70.1709 69.1525 70.9354 69.7429 71.7225C70.055 72.1389 70.3598 72.5612 70.6877 72.9654C71.0168 73.3704 71.6372 73.7951 71.8679 74.231C72.3321 75.1106 71.3952 75.1645 70.667 75.4823C69.7575 75.8791 68.9765 76.5453 68.1449 77.0765C66.2404 78.2925 64.5758 79.4219 62.3253 79.8105C60.0082 80.2104 57.777 80.6282 55.4905 81.1863C53.2111 81.7425 51.3504 82.2768 49.0203 81.558C47.9581 81.2303 47.0928 80.9389 45.966 81.0006C44.7825 81.0653 44.0905 81.0039 43.1174 80.2709C38.9305 77.1173 34.3855 74.5295 30.0639 71.5524ZM22.5152 68.3862C24.1334 67.5744 25.7625 66.7583 27.4342 66.0609C28.8177 65.483 30.9188 64.8101 32.4334 65.0634C32.0065 66.1602 31.2273 67.0601 30.3915 67.8677C29.6524 68.5821 28.729 69.6601 27.8348 70.1587C27.0225 70.6111 26.0777 69.8943 25.2767 69.594C24.3966 69.2642 23.1853 69.1105 22.5152 68.3862ZM22.9219 72.4826C23.7283 72.1474 25.4614 73.2721 26.1949 73.5644C27.6364 74.1392 29.0856 74.7394 30.356 75.6461C28.8048 77.4388 27.0481 79.0775 24.9608 80.229C23.5876 80.9865 21.2728 81.8555 19.9773 80.4799C18.3498 78.7515 20.3063 75.2297 21.4585 73.7485C21.4967 74.002 21.535 74.255 21.5734 74.5085C21.9411 73.9201 22.2216 72.7738 22.9219 72.4826ZM52.5273 87.8248C51.521 88.0366 51.1792 87.8452 50.515 87.0737C50.0661 86.5523 49.625 86.0107 49.1187 85.5418C48.6021 85.0633 47.3263 83.9094 48.9518 84.5739C50.4336 85.1793 51.7027 85.482 53.333 85.2448C55.197 84.9738 56.9348 84.1855 58.7727 83.7866C57.765 84.6683 56.7649 85.5585 55.7555 86.4377C54.689 87.3665 53.8821 87.5393 52.5273 87.8248ZM52.7572 94.9149C50.5524 96.5742 46.1138 96.3948 47.6078 92.744C47.8347 92.1897 48.1522 91.6678 48.5197 91.1954C48.6421 91.0377 48.86 90.7108 49.0347 90.6049C49.5224 90.3092 49.3871 90.2735 49.8559 90.7666C50.2603 91.1921 53.4215 94.6678 52.7572 94.9149ZM52.1036 88.5719C52.3055 88.5062 53.1565 88.0128 53.3504 88.2859C53.5467 88.5622 51.8783 89.5183 52.1036 88.5719ZM68.154 113.876C67.6583 115.062 63.691 116.78 64.4301 114.388C64.7575 113.329 65.0661 112.527 66.3011 112.447C67.0139 112.401 68.5907 112.832 68.154 113.876ZM75.2708 97.8019C75.924 96.851 78.0808 95.5651 79.0016 96.9832C79.4453 97.6666 78.3687 98.0166 77.7176 97.841C77.3681 97.7461 77.0821 97.5373 76.7019 97.5216C76.2133 97.5016 75.7357 97.885 75.2708 97.8019ZM77.0023 98.746C76.5581 99.1956 73.8797 101.449 73.4459 101.102C74.3206 99.8514 75.3249 98.4548 77.0023 98.746ZM72.6277 121.554C71.6977 121.607 72.1621 120.205 72.252 119.644C72.4771 120.035 73.661 121.495 72.6277 121.554ZM74.9909 119.042C74.6901 118.506 73.8795 117.709 74.0626 117.02C74.2029 116.494 75.4683 115.786 75.9981 116.088C76.7019 116.489 75.6818 119.131 74.9909 119.042ZM97.0608 113.427C96.663 114.798 96.2506 114.444 95.0031 114.71C93.7513 114.977 92.8861 116.039 91.7843 116.609C92.167 115.8 92.4045 114.814 93.0452 114.157C93.1935 114.006 94.1016 113.706 93.5842 113.355C93.1318 113.048 92.4815 114.044 92.2873 114.316C91.3328 115.652 90.6653 117.284 90.1142 118.822C89.8431 119.577 89.626 120.346 89.4977 121.139C89.3834 121.846 89.5067 122.585 89.3902 123.274C89.2026 124.382 87.6968 124.388 86.7913 124.674C85.9715 124.932 85.1554 125.213 84.3045 125.352C83.5668 125.473 82.8014 125.253 82.0865 125.398C81.3124 125.556 80.9647 126.015 80.0846 125.911C79.3674 125.827 78.6961 125.497 77.969 125.464C77.2885 125.433 76.6099 125.669 75.9334 125.477C75.2508 125.283 75.2838 125.209 75.4391 124.538C75.5361 124.719 75.6333 124.9 75.7305 125.081C76.0026 124.867 76.1909 124.217 76.3576 123.911C76.6163 123.438 76.8269 123.275 76.7311 122.686C76.5897 121.815 75.8051 121.196 75.6272 120.368C75.4415 119.505 76.0801 118.798 76.4576 118.077C76.9736 117.09 76.9667 116.358 76.5343 115.338C76.8603 115.424 77.1863 115.51 77.5126 115.596C77.0656 114.626 75.5497 115.019 74.7897 115.307C74.4077 115.451 73.802 116.019 73.3911 116.004C72.8261 115.984 72.5317 115.242 72.289 114.833C71.5864 113.649 70.7844 112.481 69.9535 111.382C69.725 111.08 69.4256 110.886 69.5044 110.542C69.5717 110.25 70.2268 109.835 70.4394 109.655C71.2364 108.981 72.2509 108.608 72.9994 107.898C74.1309 106.826 75.4356 106.058 76.5922 105.007C77.7974 103.913 79.039 102.908 80.2948 101.873C81.5668 100.825 82.6686 99.5908 83.9315 98.5323C84.2586 99.1252 84.8925 101.248 85.6173 101.413C86.4625 101.604 86.4373 100.604 86.3954 100.002C86.3354 99.1448 85.8592 98.3115 85.8063 97.4931C85.7493 96.6175 86.5917 96.2263 87.2273 95.7197C88.2093 94.9375 90.3823 93.1557 89.2141 91.6893C88.2079 90.4262 84.9356 92.8481 84.0338 93.5763C83.2672 94.1951 82.675 94.7549 81.8121 95.2431C81.205 95.586 80.187 96.9056 79.4677 96.7836C78.6121 96.6389 78.2778 95.7044 77.2311 95.7352C76.2081 95.7651 75.3393 96.5019 74.705 97.2415C73.271 98.9134 72.7784 101.151 71.4715 102.894C70.8273 103.753 69.9917 104.462 69.2928 105.275C68.5255 106.168 68.3624 107.196 67.6056 108.069C65.4401 105.184 63.0806 102.453 60.7972 99.6624C59.6565 98.2689 58.5399 96.859 57.4239 95.4462C57.0056 94.9166 56.534 94.4197 56.151 93.8635C55.6263 93.1018 55.7207 92.49 55.5147 91.6403C55.4237 91.2639 54.996 90.8129 55.1104 90.453C55.2645 89.9696 56.3454 89.5899 56.7354 89.3922C58.3273 88.5839 59.7712 87.5741 61.2557 86.5867C64.0045 84.7587 66.7853 83.0444 69.709 81.4831C69.6586 82.1558 69.2208 82.853 69.5148 83.5279C69.6518 83.1397 69.8686 81.4099 70.3869 81.3355C70.2875 81.3499 70.3692 83.5538 70.4495 83.8682C70.6886 84.8074 71.3828 85.4495 72.3761 85.4432C74.2678 85.4309 75.9633 83.3732 77.0133 82.0101C77.7242 81.0872 78.407 80.0139 78.6572 78.8586C78.8825 77.8215 78.6349 77.1001 79.7129 76.5735C81.9251 75.4931 84.1551 74.6128 86.5209 74.0399C86.415 75.0593 86.1193 76.3144 87.046 77.0478C88.069 77.8573 89.4074 77.1358 90.3703 76.6003C91.3243 76.07 92.7952 74.6133 93.9156 75.0365C95.0177 75.4526 95.7848 76.8348 96.4017 77.7525C96.9452 78.5616 97.537 79.1448 96.9073 80.0466C96.2017 81.0571 95.7424 82.0433 95.1771 83.1409C94.9598 83.5627 94.7524 83.8381 94.9061 84.2703C94.9558 84.4106 95.5224 85.2459 95.6763 85.3657C96.6578 86.1296 97.9833 84.6765 98.684 84.125C98.9312 86.5 98.9865 88.8647 99.086 91.2472C99.1592 92.9923 99.8348 94.7104 98.4027 95.9859C96.9711 97.2612 95.7761 98.5702 94.9035 100.297C94.4375 101.219 94.0194 102.166 93.5153 103.07C93.1784 103.673 92.468 104.558 92.9028 105.268C93.3615 104.833 93.4981 104.171 93.8803 103.68C94.1094 104.699 94.34 105.829 95.4176 106.261C96.6576 106.758 97.8898 105.898 98.9881 105.42C98.5943 108.143 97.8263 110.79 97.0608 113.427ZM95.7933 116.558C94.9424 118.377 94.1738 120.57 92.6024 121.909C92.2574 122.203 90.7912 123.351 90.2333 123.159C89.7597 122.995 90.0203 122.038 90.1029 121.628C90.5217 119.547 91.2459 118.237 92.9336 116.91C93.632 116.36 94.5288 115.657 95.4296 115.522C96.3992 115.376 96.12 115.859 95.7933 116.558ZM119.796 159.729C117.59 156.728 114.472 154.397 111.525 152.143C110.19 151.122 108.719 150.356 107.37 149.335C105.845 148.18 104.297 147.067 102.589 146.197C99.3511 144.547 95.8187 143.397 92.763 141.445C91.2728 140.494 89.6425 139.574 88.2415 138.506C87.626 138.037 87.0825 137.437 86.5263 136.899C86.0096 136.4 84.9003 135.675 84.6948 134.944C85.5546 134.803 86.0435 133.969 86.8111 133.884C87.0639 133.856 88.648 134.275 88.4315 133.506C89.0061 133.492 89.0729 133.483 89.5545 133.357C89.7539 133.305 89.9902 133.387 90.1919 133.316C90.5005 133.207 90.7102 132.892 91.0219 132.772C91.2434 132.686 92.0658 132.782 92.1905 132.675C92.5309 132.384 92.1693 132.41 91.9662 132.046C92.6279 132.03 93.0822 132.364 93.7455 132.009C93.9474 131.9 94.1183 131.651 94.3141 131.522C94.6611 131.292 94.7865 131.648 95.0243 131.172C95.2467 131.828 95.2406 131.647 95.7768 131.453C96.3109 131.261 96.6967 131.122 97.3049 131.074C98.7581 130.959 100.217 131.135 101.663 131.032C102.192 130.994 102.644 130.874 103.17 130.943C103.633 131.004 103.494 131.326 103.878 130.892C103.968 130.792 103.679 130.516 103.817 130.371C103.878 130.307 104.078 130.352 104.153 130.319C104.829 130.024 104.832 130.436 104.952 130.974C105.349 130.881 105.754 130.797 106.098 130.564C105.924 130.409 105.633 130.237 105.801 129.953C106.373 130.17 106.747 130.07 106.461 130.698C107.037 130.888 107.144 130.64 107.661 130.586C107.967 130.554 108.394 130.744 108.648 130.499C108.926 130.233 108.488 129.943 108.998 129.714C109.103 129.767 109.181 129.848 109.232 129.955C109.508 130.039 109.458 130.147 109.083 130.281C110.088 130.802 109.851 130.22 110.273 129.604C110.371 129.462 110.807 129.021 111.006 129.234C111.308 129.557 110.692 129.66 110.824 129.981C111.053 130.537 111.851 129.824 112.096 129.542C112.282 129.329 112.357 128.92 112.557 128.761C112.834 128.54 113.234 128.882 113.581 128.821C115.169 128.542 116.668 126.408 115.472 124.979C115.151 124.595 114.879 124.671 114.496 124.429C114.117 124.189 113.905 123.775 113.601 123.433C112.907 122.652 112.058 122.066 111.088 121.692C108.838 120.825 106.414 120.192 104.052 119.726C102.958 119.51 101.793 119.18 100.673 119.183C100.013 119.184 99.0197 119.697 98.4027 119.451C97.2032 118.973 98.9641 116.527 99.2548 115.736C100.108 113.415 100.752 110.939 101.175 108.502C101.257 108.025 101.225 107.407 101.397 106.952C101.594 106.43 101.637 106.504 102.059 106.461C102.822 106.384 103.656 106.784 104.45 106.646C105.33 106.493 106.281 106.564 107.17 106.292C107.578 106.167 107.957 106.031 108.225 105.686C108.31 105.578 108.216 105.484 108.269 105.408C108.286 105.384 108.59 105.057 108.6 105.038C108.597 104.868 108.611 104.7 108.644 104.533C108.952 104.789 108.8 105.325 109.319 105.338C109.412 104.766 109.412 104.651 109.788 104.329C109.759 104.354 110.07 104.089 110.03 104.118C110.049 104.016 110.087 103.921 110.142 103.833C110.318 103.748 110.503 103.703 110.698 103.698C111.104 103.281 110.935 103.058 110.935 102.497C111.263 102.667 111.59 102.837 111.917 103.007C111.996 101.344 113.009 100.433 113.682 99.0854C113.969 98.5111 114.261 98.0622 114.329 97.3695C114.369 96.9698 114.266 96.6172 114.431 96.2406C114.581 95.8988 114.917 95.7148 115.057 95.3424C115.333 94.6099 115.127 93.6747 115.142 92.914C115.164 91.8587 115.269 90.8073 115.303 89.7528C115.371 87.6826 115.163 85.5552 114.853 83.509C114.705 82.5303 114.457 81.5808 114.263 80.6122C114.102 79.8164 113.719 79.0697 113.582 78.3292C113.526 78.0216 113.614 77.7455 113.521 77.4051C113.398 76.9579 113.194 76.518 113.042 76.0787C112.687 75.0525 112.336 74.0279 111.937 73.0176C111.163 71.0597 110.258 69.1606 109.398 67.2404C108.57 65.3938 107.885 63.4898 106.813 61.7656C105.757 60.0674 104.62 58.3976 103.456 56.7718C102.244 55.0789 100.712 53.6243 99.5363 51.9156C97.3291 48.7076 94.2508 46.064 91.0301 43.8811C84.3841 39.3764 77.2021 34.8787 69.2328 33.3341C68.0316 33.1016 66.8152 32.9401 65.5912 32.91C64.8316 32.8911 63.5733 33.2583 62.8542 33.0013C62.0487 32.7132 62.1224 31.8086 61.9209 31.0992C61.6615 30.1868 61.0768 29.5894 60.4126 28.9445C59.7135 28.2656 59.0791 27.4729 58.2073 27.0113C57.3236 26.5438 56.2814 26.3689 55.3024 26.2277C54.4285 26.1011 53.1226 26.2192 52.3242 25.8384C51.5968 25.4914 51.956 25.1301 52.637 25.4272C52.6869 25.1268 52.7271 24.9329 52.9197 24.7008C53.0162 24.584 53.4728 24.4204 53.4839 24.3115C53.4968 24.1841 53.1139 23.8211 53.059 23.6567C52.9413 23.3028 53.0082 22.8126 53.148 22.4804C53.8346 23.0907 54.0335 23.361 54.8001 22.7776C55.1238 22.5313 55.2231 22.4227 55.5981 22.2984C55.6998 22.2646 55.9278 22.3688 56.0166 22.3104C56.3553 22.0873 56.0436 22.1399 56.2046 21.8762C56.1642 21.9427 56.4487 21.2419 56.4351 21.3885C56.4697 21.0152 56.5801 21.1299 56.3548 20.6713C55.9132 19.774 54.7893 19.7373 55.3622 18.7134C55.5875 18.3105 55.7859 18.3506 55.8495 17.7665C55.8836 17.4524 55.8412 17.0923 55.8398 16.7729C55.837 16.1195 55.9601 15.6621 55.3479 15.3294C54.7594 15.0094 54.2166 15.3605 53.9777 14.5669C53.7275 13.7343 53.9796 12.6668 53.0776 12.0966C52.4183 11.68 51.4666 12.0362 50.7384 11.8324C50.0085 11.6284 49.3372 10.8816 48.5964 11.455C48.0701 11.8625 47.7909 12.8644 46.7993 12.3226C46.3516 12.0783 46.1054 11.2578 45.8229 10.7977C45.3733 10.0644 45.0127 9.79944 44.3207 10.5137C43.8942 10.9543 42.9948 12.0266 42.9397 12.6365C42.8795 13.3096 43.4667 13.5909 42.7293 13.9892C41.9958 14.3854 41.5844 14.0948 40.9889 14.8991C40.3983 15.697 40.8554 16.1378 40.1714 16.9013C39.316 17.8555 38.861 18.2674 38.873 19.5531C38.8813 20.435 38.1021 21.1967 38.5567 22.0332C39.066 22.9708 40.5527 23.3607 41.454 23.7423C41.1532 24.2984 40.7403 24.6549 41.0915 25.2271C41.4097 25.7454 42.3091 25.8532 42.8667 25.7591C43.2417 25.6957 43.2551 25.7527 43.5503 25.4888C43.7438 25.3163 43.4785 25.1007 43.8768 25.0051C44.3004 24.9027 44.9774 25.7334 45.2526 25.9412C44.6375 26.7394 42.9484 26.8887 42.0547 27.293C41.5102 27.54 41.0096 27.905 40.455 28.1256C39.952 28.3257 39.3398 28.2793 38.8836 28.5888C38.096 29.1236 37.7681 30.4483 37.2854 31.2272C36.7388 32.1089 36.209 32.5183 35.1603 32.7014C33.8523 32.9295 32.799 33.0213 31.579 33.5909C30.0893 34.2867 28.6207 35.0211 27.1576 35.7713C24.7977 36.9809 22.6053 38.2225 20.4139 39.6854C18.1213 41.2163 15.8913 42.8141 13.6792 44.4135C11.4911 45.9955 9.65413 47.9417 7.75343 49.8546C6.21709 51.4011 4.86882 53.0704 3.33837 54.6164C1.53157 56.442 0.20261 58.7459 -1.4726 60.6824C-2.38918 61.7419 -3.26621 62.7837 -3.84125 64.0317C-4.3073 65.0436 -5.11796 66.0362 -5.6591 67.0975C-6.35042 68.4545 -7.00478 69.7898 -7.78107 71.1021C-8.09954 71.6404 -8.47804 72.1024 -8.81416 72.6165C-9.24491 73.2746 -9.21949 73.9104 -9.33529 74.6693C-9.45628 74.484 -9.57703 74.2988 -9.69802 74.114C-9.91739 74.5928 -10.1824 75.064 -10.3724 75.5546C-10.4936 75.8674 -10.4745 76.3115 -10.5962 76.5853C-10.749 76.9289 -10.935 76.8833 -11.1254 77.1695C-11.329 77.4755 -11.3946 77.8865 -11.6091 78.2148C-12.5367 79.6337 -12.8936 81.4339 -13.3702 83.0529C-14.0095 85.2247 -13.9088 87.721 -13.8739 89.9604C-13.837 92.3257 -13.7077 94.6913 -13.3521 97.0317C-13.0298 99.1513 -12.3411 101.184 -11.2628 103.043C-10.3232 104.662 -9.02765 105.606 -7.36797 106.435C-6.60581 106.816 -5.89849 106.699 -5.09866 106.759C-4.22233 106.826 -3.6247 107.064 -2.69753 106.855C-2.2529 106.754 -2.04223 106.43 -1.68892 106.322C-1.47025 106.256 -1.35232 106.365 -1.14236 106.339C-0.84201 106.303 -0.217308 106.155 0.108459 106.191C1.12225 106.302 0.952066 107.834 1.05187 108.616C1.20534 109.822 1.31762 111.04 1.52475 112.238C1.95997 114.756 2.89985 117.11 3.45511 119.585C0.88098 119.899 -1.32713 120.38 -3.7398 121.354C-6.16023 122.331 -8.6075 122.663 -11.1548 123.149C-13.5378 123.603 -15.8299 124.453 -17.7375 125.991C-18.6315 126.712 -19.5603 127.556 -18.9038 128.743C-18.4839 129.502 -17.7271 129.695 -17.0739 130.136C-16.9419 129.969 -17.3237 129.615 -17.3936 129.517C-16.8444 129.63 -16.8612 129.886 -16.4601 130.109C-16.1096 130.304 -15.8227 130.298 -15.439 130.435C-14.5022 130.772 -14.0418 131.612 -13.1158 131.847C-12.8244 131.921 -12.4433 132.099 -12.1455 132.149C-11.7875 132.21 -11.5196 132.053 -11.1569 132.119C-10.9613 132.248 -10.7495 132.34 -10.5221 132.396C-10.3729 132.327 -10.2255 132.253 -10.0803 132.176C-9.55914 132.23 -9.23738 132.558 -8.81392 132.827C-8.78568 132.488 -8.8264 132.136 -8.50534 131.914C-8.37988 132.244 -8.58254 132.453 -8.2403 132.68C-7.80672 132.968 -7.23733 132.609 -6.84919 132.427C-6.73927 133.523 -4.20021 133.459 -3.39544 133.443C-2.2809 133.422 -1.16755 132.979 -0.043129 133.226C0.530497 133.352 1.14273 133.483 1.71376 133.647C2.40132 133.843 3.23245 134.019 3.90917 134.267C4.17845 134.365 4.50798 134.681 4.79444 134.66C5.02252 134.642 5.08372 134.306 5.34923 134.316C5.64958 134.327 5.75056 134.662 6.01042 134.762C6.39975 134.913 6.75752 134.626 7.12731 134.771C7.2603 134.823 7.44037 135.046 7.61055 135.118C7.86876 135.228 8.38001 135.23 8.66741 135.283C9.07486 135.358 9.4397 135.308 9.78877 135.333C10.0703 135.353 10.0642 135.542 10.1988 135.555C10.3534 135.568 10.6225 135.037 10.8301 134.959C11.1323 134.846 11.681 135.116 11.9894 135.164C9.75582 138.191 7.06282 140.867 4.14361 143.21C0.994909 145.737 -2.22959 148.262 -5.60614 150.478C-8.67199 152.491 -11.6397 154.232 -14.0166 157.074C-16.0208 159.47 -19.2112 162.033 -18.7195 165.506C-18.228 168.976 -14.4603 170.388 -11.4413 171.05C-7.64408 171.884 -3.73532 171.548 0.0719757 172.017C1.69564 172.216 3.4996 172.11 5.13409 171.94C7.06446 171.739 8.71896 170.479 10.3786 169.568C13.3637 167.929 15.9158 165.737 18.8561 164.047C22.5378 161.931 26.1805 159.689 30.2166 158.272C32.0943 157.613 34.0272 156.86 35.5419 155.505C35.7674 155.303 35.9352 154.998 36.1899 154.832C36.6228 154.549 36.7388 154.836 36.9902 154.75C37.1834 154.685 37.3708 154.475 37.5379 154.413C37.9614 154.254 38.1504 154.32 38.6247 154.32C38.2177 154.085 37.8451 153.48 38.2676 152.987C38.9907 152.143 39.1155 153.492 39.3871 153.805C39.6175 153.509 39.5293 153.245 39.4704 152.909C39.6648 153.038 39.8597 153.166 40.0544 153.295C39.9202 152.644 40.0478 152.044 40.3926 151.477C40.7106 150.954 40.7893 151.028 40.8768 150.303C41.8647 151.205 42.0577 149.016 42.1467 148.218C42.2326 147.445 42.1476 146.889 42.6565 146.212C43.2029 145.486 44.0335 145.027 44.727 144.463C45.8224 143.571 47.0278 142.444 48.5427 143.3C49.7385 143.975 50.3893 145.63 51.5114 146.481C52.1919 146.997 52.9103 147.049 53.3441 147.849C53.6948 148.496 53.8087 149.27 54.1399 149.934C54.9421 151.544 56.0968 153.386 57.4143 154.621C58.6406 155.771 60.2149 155.765 61.65 156.477C63.0705 157.183 64.5466 157.948 66.0504 158.46C67.6927 159.018 69.4637 159.256 71.0627 159.933C71.8851 160.281 72.6207 160.805 73.4504 161.138C74.3453 161.498 75.288 161.751 76.1947 162.08C79.7876 163.385 83.3034 164.986 87.0778 165.709C88.7518 166.03 90.3016 166.901 91.9879 167.085C92.7112 167.163 93.3011 167.263 94.0091 167.444C95.1194 167.728 94.8842 167.879 95.2933 168.805C95.9663 170.329 97.6097 169.426 98.8765 169.464C100.904 169.526 102.901 169.198 104.926 169.182C108.466 169.155 111.876 168.756 115.301 167.594C118.739 166.427 122.654 163.614 119.796 159.729Z" fill="black"/>
        <path fill-rule="evenodd" clip-rule="evenodd" d="M78.8696 40.6406C78.9186 40.6896 79.0334 40.7193 78.8696 40.6406V40.6406Z" fill="black"/>
        <path fill-rule="evenodd" clip-rule="evenodd" d="M35.4886 85.8063C34.4673 86.9717 32.3927 88.6695 30.6831 88.4694C29.1239 88.287 29.7326 86.537 30.2843 85.6901C31.1134 84.4171 32.2239 83.2221 33.8285 83.1524C34.5212 83.1225 35.419 83.1366 35.9554 83.6611C36.6881 84.3776 36.0284 85.1908 35.4886 85.8063ZM35.3801 82.5687C34.1837 82.1553 33.7136 81.9979 32.5508 82.655C31.6171 83.1828 30.789 83.9287 30.1483 84.7756C29.1893 86.0434 28.2222 88.895 30.6845 89.2516C33.3855 89.6431 39.8102 84.1005 35.3801 82.5687Z" fill="black"/>
        <path fill-rule="evenodd" clip-rule="evenodd" d="M39.0612 89.8438C38.2842 90.6375 37.3142 91.285 36.207 91.5061C36.6754 90.4612 37.7212 88.1778 38.9612 87.8598C39.5324 87.7129 40.1837 87.9052 40.1369 88.556C40.1028 89.0266 39.3677 89.5305 39.0612 89.8438ZM40.0614 87.0814C39.4181 86.7589 39.621 86.5386 38.8724 86.7916C38.2826 86.9907 37.5385 87.3365 37.0473 87.7348C36.7794 87.9523 35.945 88.7229 36.0471 89.1151C36.2322 89.8278 36.8545 88.7356 37.0181 88.5257C37.2984 88.7542 35.8647 90.8056 35.7795 91.1433C35.4615 92.4005 36.4485 92.5335 37.4157 92.1221C38.7199 91.5677 42.5823 88.3444 40.0614 87.0814Z" fill="black"/>
        <path fill-rule="evenodd" clip-rule="evenodd" d="M44.7749 102.549C45.0621 101.961 45.3904 101.766 45.9728 101.508C45.5846 101.874 45.188 102.213 44.7749 102.549ZM45.1951 101.099C44.7827 101.513 43.8376 102.144 43.9701 102.854C44.0909 103.503 44.5864 103.466 45.0357 103.264C45.978 102.84 46.5024 100.985 47.4882 100.812C46.3948 100.119 46.1397 100.151 45.1951 101.099Z" fill="black"/>
        <path fill-rule="evenodd" clip-rule="evenodd" d="M45.3398 64.2662C45.3923 66.2413 45.4384 68.2161 45.4819 70.1912C45.4972 70.8853 45.3315 71.8749 45.5399 72.5398C45.6319 72.8326 46.4637 74.1023 46.7589 74.1844C47.7915 74.4718 47.4227 71.8829 47.4297 71.2455C47.4549 69.0948 47.4234 66.9417 47.4147 64.7911C47.4097 63.6826 47.7228 54.3893 46.2846 54.4347C46.037 54.4425 45.4266 55.505 45.3348 55.718C45.0458 56.387 45.1522 57.3787 45.1588 58.0919C45.1783 60.1491 45.2852 62.2092 45.3398 64.2662Z" fill="black"/>
        <path fill-rule="evenodd" clip-rule="evenodd" d="M54.0474 70.0234C54.1284 70.5695 54.0858 71.4799 54.7006 71.7631C55.2354 72.0093 55.4404 71.7165 55.6405 71.2589C56.1004 70.2063 55.9345 68.597 55.926 67.5086C55.9091 65.3515 55.6662 63.2037 55.4983 61.0549C55.4244 60.1119 55.5776 59.165 55.4599 58.1783C55.4082 57.7454 55.3566 56.0036 54.554 56.0848C53.8283 56.158 53.8937 57.9834 53.8542 58.4537C53.5251 62.369 53.4679 66.1151 54.0474 70.0234Z" fill="black"/>
        <path fill-rule="evenodd" clip-rule="evenodd" d="M89.7222 86.8961C88.8824 88.1815 87.4087 89.7223 85.8493 90.021C84.7046 90.2402 83.9495 89.3919 84.4094 88.2467C84.7978 87.2788 86.1211 86.6675 86.9885 86.2417C87.6765 85.904 90.8845 85.1173 89.7222 86.8961ZM89.1043 84.7937C87.3839 84.7287 85.9961 85.9725 84.7133 86.9653C85.003 85.8249 85.6584 84.5842 86.5813 83.842C87.8371 82.8318 89.0276 83.4591 90.3498 83.9642C90.0235 82.9349 88.5594 82.5646 87.6266 82.7101C86.4474 82.8941 85.5993 83.9009 85.0031 84.8749C84.2917 86.0367 84.0483 87.4059 83.2111 88.4958C82.8277 88.9945 80.4538 90.8613 80.9914 91.6242C81.8779 90.6829 82.7648 89.7419 83.6515 88.8006C83.8815 89.913 84.1347 91.1798 85.555 91.0715C86.6893 90.9849 87.983 90.0208 88.8125 89.2838C89.8835 88.3319 91.9915 84.9029 89.1043 84.7937Z" fill="black"/>
        <path fill-rule="evenodd" clip-rule="evenodd" d="M65.0042 95.7697C64.2755 96.1046 62.6711 96.5601 62.2636 95.5534C61.6975 94.155 63.5189 91.7023 64.3858 90.7704C64.9192 90.1973 65.281 89.9007 66.0246 90.2716C66.6182 90.568 67.4905 91.4097 67.7181 92.057C68.207 93.4465 66.1441 95.2453 65.0042 95.7697ZM66.6763 89.0535C67.2697 89.1875 67.3425 89.9412 66.6003 89.6516C66.0443 89.4349 65.9151 88.8819 66.6763 89.0535ZM67.4213 90.1151C67.1998 89.4391 67.6506 88.3787 66.5591 88.33C65.9408 88.3024 64.8079 88.9311 64.2679 89.1868C63.5194 89.5408 62.8151 90.0815 62.4244 90.8429C62.0624 91.5484 62.3208 91.7343 62.8726 91.1489C62.9401 91.1948 61.6246 94.5876 61.6131 94.9275C61.5617 96.481 62.6614 97.5042 64.206 97.2288C65.6256 96.9756 66.9049 95.8147 67.6861 94.6432C68.0813 94.05 68.4059 93.3711 68.4354 92.6448C68.481 91.5307 67.7381 91.0828 67.4213 90.1151Z" fill="black"/>
        <path fill-rule="evenodd" clip-rule="evenodd" d="M76.2616 87.0188C75.019 86.451 73.6312 88.3922 74.2303 89.5456C75.016 91.0579 78.8489 88.2011 76.2616 87.0188ZM74.7799 89.1887C74.5214 88.729 76.2769 88.0511 76.5544 88.0398C76.4155 88.2936 75.1343 89.8193 74.7799 89.1887Z" fill="black"/>
        <path fill-rule="evenodd" clip-rule="evenodd" d="M51.9146 48.7849C53.3165 48.6818 51.5302 41.6091 50.5086 42.2345C49.4009 42.9124 50.628 48.8793 51.9146 48.7849Z" fill="black"/>
        <path fill-rule="evenodd" clip-rule="evenodd" d="M54.5332 45.4822C55.8467 45.6703 55.6379 42.6543 54.9315 42.1146C53.6275 41.1182 52.9385 45.2539 54.5332 45.4822Z" fill="black"/>
    </g>
</svg>
